<svg version="1.1" xmlns="http://www.w3.org/2000/svg" xmlns:xlink="http://www.w3.org/1999/xlink" width="1012.68593" height="211.95797" viewBox="0,0,1012.68593,211.95797"><g transform="translate(94.42103,-74.02327)"><g data-paper-data="{&quot;isPaintingLayer&quot;:true}" fill-rule="nonzero" stroke="none" stroke-width="0" stroke-linecap="butt" stroke-linejoin="miter" stroke-miterlimit="10" stroke-dasharray="" stroke-dashoffset="0" style="mix-blend-mode: normal"><path d="M411.58498,252.22147v-165.16516c0,0 62.58812,-13.03304 127.62763,-13.03304c46.12349,0 91.24065,13.03304 126.12612,13.03304c8.27981,0 0,0 0,0v165.16516z" fill="#ffffff"/><path d="M663.50814,252.71696v-165.16516c0,0 -8.27981,0 0,0c34.88548,0 80.00264,-13.03304 126.12613,-13.03304c65.03951,0 127.62763,13.03304 127.62763,13.03304v165.16516z" data-paper-data="{&quot;index&quot;:null}" fill="#ffffff"/><path d="M412.588,266.74099v-165.16516c0,0 62.58812,-13.03304 127.62763,-13.03304c46.12349,0 91.24065,13.03304 126.12612,13.03304c8.27981,0 0,0 0,0v165.16516z" fill="#a7e5ff"/><path d="M664.51114,267.23649v-165.16516c0,0 -8.27981,0 0,0c34.88548,0 80.00264,-13.03304 126.12613,-13.03304c65.03951,0 127.62763,13.03304 127.62763,13.03304v165.16517z" data-paper-data="{&quot;index&quot;:null}" fill="#a7e5ff"/><path d="M412.08648,285.98124v-165.16516c0,0 62.58812,-13.03304 127.62763,-13.03304c46.12349,0 91.24065,13.03304 126.12612,13.03304c8.27981,0 0,0 0,0v165.16516z" fill="#81d9ff"/><path d="M664.00965,285.97673v-165.16516c0,0 -8.27981,0 0,0c34.88548,0 80.00264,-13.03304 126.12613,-13.03304c65.03951,0 127.62763,13.03304 127.62763,13.03304v165.16516z" data-paper-data="{&quot;index&quot;:null}" fill="#81d9ff"/><path d="M-94.42103,252.22147v-165.16516c0,0 62.58812,-13.03304 127.62763,-13.03304c46.12349,0 91.24065,13.03304 126.12612,13.03304c8.27981,0 0,0 0,0v165.16516z" fill="#ffffff"/><path d="M157.50212,252.71696v-165.16516c0,0 -8.27981,0 0,0c34.88548,0 80.00264,-13.03304 126.12613,-13.03304c65.03951,0 127.62763,13.03304 127.62763,13.03304v165.16516z" data-paper-data="{&quot;index&quot;:null}" fill="#ffffff"/><path d="M-93.41801,266.74099v-165.16516c0,0 62.58812,-13.03304 127.62763,-13.03304c46.12349,0 91.24065,13.03304 126.12612,13.03304c8.27981,0 0,0 0,0v165.16516z" fill="#a7e5ff"/><path d="M158.50515,267.23649v-165.16516c0,0 -8.27981,0 0,0c34.88548,0 80.00264,-13.03304 126.12613,-13.03304c65.03951,0 127.62763,13.03304 127.62763,13.03304v165.16517z" data-paper-data="{&quot;index&quot;:null}" fill="#a7e5ff"/><path d="M-93.91952,285.48124v-165.16516c0,0 62.58812,-13.03304 127.62763,-13.03304c46.12349,0 91.24065,13.03304 126.12612,13.03304c8.27981,0 0,0 0,0v165.16516z" fill="#81d9ff"/><path d="M158.00363,285.97673v-165.16516c0,0 -8.27981,0 0,0c34.88548,0 80.00264,-13.03304 126.12613,-13.03304c65.03951,0 127.62763,13.03304 127.62763,13.03304v165.16516z" data-paper-data="{&quot;index&quot;:null}" fill="#81d9ff"/></g></g></svg>