<svg version="1.1" xmlns="http://www.w3.org/2000/svg" xmlns:xlink="http://www.w3.org/1999/xlink" width="1012.68595" height="211.95797" viewBox="0,0,1012.68595,211.95797"><g transform="translate(459.2859,-74.02327)"><g data-paper-data="{&quot;isPaintingLayer&quot;:true}" fill-rule="nonzero" stroke="none" stroke-width="0" stroke-linecap="butt" stroke-linejoin="miter" stroke-miterlimit="10" stroke-dasharray="" stroke-dashoffset="0" style="mix-blend-mode: normal"><path d="M46.72011,252.22147v-165.16516c0,0 62.58812,-13.03304 127.62763,-13.03304c46.12349,0 91.24065,13.03304 126.12612,13.03304c8.27981,0 0,0 0,0v165.16516z" fill="#ffffff"/><path d="M298.64328,252.71696v-165.16516c0,0 -8.27981,0 0,0c34.88548,0 80.00264,-13.03304 126.12613,-13.03304c65.03951,0 127.62763,13.03304 127.62763,13.03304v165.16516z" data-paper-data="{&quot;index&quot;:null}" fill="#ffffff"/><path d="M47.72313,266.74099v-165.16516c0,0 62.58812,-13.03304 127.62763,-13.03304c46.12349,0 91.24065,13.03304 126.12612,13.03304c8.27981,0 0,0 0,0v165.16516z" fill="#a7e5ff"/><path d="M299.64629,267.23649v-165.16516c0,0 -8.27981,0 0,0c34.88548,0 80.00264,-13.03304 126.12613,-13.03304c65.03951,0 127.62763,13.03304 127.62763,13.03304v165.16517z" data-paper-data="{&quot;index&quot;:null}" fill="#a7e5ff"/><path d="M47.22162,285.98124v-165.16516c0,0 62.58812,-13.03304 127.62763,-13.03304c46.12349,0 91.24065,13.03304 126.12612,13.03304c8.27981,0 0,0 0,0v165.16516z" fill="#81d9ff"/><path d="M299.14478,285.97673v-165.16516c0,0 -8.27981,0 0,0c34.88548,0 80.00264,-13.03304 126.12613,-13.03304c65.03951,0 127.62763,13.03304 127.62763,13.03304v165.16516z" data-paper-data="{&quot;index&quot;:null}" fill="#81d9ff"/><path d="M-459.2859,252.22147v-165.16516c0,0 62.58812,-13.03304 127.62763,-13.03304c46.12349,0 91.24065,13.03304 126.12612,13.03304c8.27981,0 0,0 0,0v165.16516z" fill="#ffffff"/><path d="M-207.36273,252.71696v-165.16516c0,0 -8.27981,0 0,0c34.88548,0 80.00264,-13.03304 126.12613,-13.03304c65.03951,0 127.62763,13.03304 127.62763,13.03304v165.16516z" data-paper-data="{&quot;index&quot;:null}" fill="#ffffff"/><path d="M-458.28288,266.74099v-165.16516c0,0 62.58812,-13.03304 127.62763,-13.03304c46.12349,0 91.24065,13.03304 126.12612,13.03304c8.27981,0 0,0 0,0v165.16516z" fill="#a7e5ff"/><path d="M-206.35972,267.23649v-165.16516c0,0 -8.27981,0 0,0c34.88548,0 80.00264,-13.03304 126.12613,-13.03304c65.03951,0 127.62763,13.03304 127.62763,13.03304v165.16517z" data-paper-data="{&quot;index&quot;:null}" fill="#a7e5ff"/><path d="M-458.78439,285.48124v-165.16516c0,0 62.58812,-13.03304 127.62763,-13.03304c46.12349,0 91.24065,13.03304 126.12612,13.03304c8.27981,0 0,0 0,0v165.16516z" fill="#81d9ff"/><path d="M-206.86123,285.97673v-165.16516c0,0 -8.27981,0 0,0c34.88548,0 80.00264,-13.03304 126.12613,-13.03304c65.03951,0 127.62763,13.03304 127.62763,13.03304v165.16516z" data-paper-data="{&quot;index&quot;:null}" fill="#81d9ff"/></g></g></svg>