<svg version="1.1" xmlns="http://www.w3.org/2000/svg" xmlns:xlink="http://www.w3.org/1999/xlink" width="43.2" height="43.2" viewBox="0,0,43.2,43.2"><defs><linearGradient x1="240" y1="158.4" x2="240" y2="201.6" gradientUnits="userSpaceOnUse" id="color-1"><stop offset="0" stop-color="#4ec3ff"/><stop offset="1" stop-color="#3b93bf"/></linearGradient></defs><g transform="translate(-218.4,-158.4)"><g data-paper-data="{&quot;isPaintingLayer&quot;:true}" fill-rule="nonzero" stroke="none" stroke-width="0" stroke-linecap="butt" stroke-linejoin="miter" stroke-miterlimit="10" stroke-dasharray="" stroke-dashoffset="0" style="mix-blend-mode: normal"><path d="M252.1,201.6c-4.65949,0 -15.79795,0 -24,0c-5.51341,0 -9.7,-5.29705 -9.7,-9.4c0,-4.64115 0,-15.77293 0,-24c0,-5.56438 4.18659,-9.8 9.7,-9.8c8.20205,0 19.34051,0 24,0c4.13689,0 9.5,4.04008 9.5,9.4c0,8.1261 0,19.28588 0,24c0,4.23781 -5.36311,9.8 -9.5,9.8z" data-paper-data="{&quot;index&quot;:null}" fill="url(#color-1)"/><path d="M240,194.2c-7.84244,0 -14.2,-6.35756 -14.2,-14.2c0,-7.84244 6.35756,-14.2 14.2,-14.2c7.84244,0 14.2,6.35756 14.2,14.2c0,7.84244 -6.35756,14.2 -14.2,14.2z" data-paper-data="{&quot;index&quot;:null}" fill="#dadada"/><path d="M240,193.3c-7.34539,0 -13.3,-5.95461 -13.3,-13.3c0,-7.34539 5.95461,-13.3 13.3,-13.3c7.34539,0 13.3,5.95461 13.3,13.3c0,7.34539 -5.95461,13.3 -13.3,13.3z" data-paper-data="{&quot;index&quot;:null}" fill="#ffffff"/><g data-paper-data="{&quot;index&quot;:null}"><path d="M239.04698,186.8c-1.46688,0 -4.97343,0 -7.55556,0c-1.7357,0 -3.0537,-1.66759 -3.0537,-2.95926c0,-1.46111 0,-4.96555 0,-7.55556c0,-1.75175 1.318,-3.08519 3.0537,-3.08519c2.58213,0 6.08868,0 7.55556,0c1.30235,0 2.99074,1.27188 2.99074,2.95926c0,2.55822 0,6.07149 0,7.55556c0,1.33413 -1.68839,3.08519 -2.99074,3.08519z" fill="#1d1d1d"/><path d="M238.37476,185.6c-1.20802,0 -4.09576,0 -6.22222,0c-1.42941,0 -2.51482,-1.37331 -2.51482,-2.43704c0,-1.20326 0,-4.08927 0,-6.22222c0,-1.44262 1.08542,-2.54074 2.51482,-2.54074c2.12645,0 5.0142,0 6.22222,0c1.07253,0 2.46296,1.04743 2.46296,2.43704c0,2.10676 0,5.00004 0,6.22222c0,1.09869 -1.39043,2.54074 -2.46296,2.54074z" fill="#000000"/></g></g></g></svg>