<svg version="1.1" xmlns="http://www.w3.org/2000/svg" xmlns:xlink="http://www.w3.org/1999/xlink" width="43.2" height="43.2" viewBox="0,0,43.2,43.2"><defs><linearGradient x1="240" y1="158.4" x2="240" y2="201.6" gradientUnits="userSpaceOnUse" id="color-1"><stop offset="0" stop-color="#4ec3ff"/><stop offset="1" stop-color="#3b93bf"/></linearGradient></defs><g transform="translate(-218.4,-158.4)"><g data-paper-data="{&quot;isPaintingLayer&quot;:true}" fill-rule="nonzero" stroke="none" stroke-width="0" stroke-linecap="butt" stroke-linejoin="miter" stroke-miterlimit="10" stroke-dasharray="" stroke-dashoffset="0" style="mix-blend-mode: normal"><path d="M218.4,191.8c0,-4.71412 0,-15.8739 0,-24c0,-5.35992 5.36311,-9.4 9.5,-9.4c4.65949,0 15.79795,0 24,0c5.51341,0 9.7,4.23562 9.7,9.8c0,8.22707 0,19.35885 0,24c0,4.10295 -4.18659,9.4 -9.7,9.4c-8.20205,0 -19.34051,0 -24,0c-4.13689,0 -9.5,-5.56219 -9.5,-9.8z" data-paper-data="{&quot;index&quot;:null}" fill="url(#color-1)"/><path d="M240,194.2c-7.84244,0 -14.2,-6.35756 -14.2,-14.2c0,-7.84244 6.35756,-14.2 14.2,-14.2c7.84244,0 14.2,6.35756 14.2,14.2c0,7.84244 -6.35756,14.2 -14.2,14.2z" data-paper-data="{&quot;index&quot;:null}" fill="#dadada"/><path d="M240,193.3c-7.34539,0 -13.3,-5.95461 -13.3,-13.3c0,-7.34539 5.95461,-13.3 13.3,-13.3c7.34539,0 13.3,5.95461 13.3,13.3c0,7.34539 -5.95461,13.3 -13.3,13.3z" data-paper-data="{&quot;index&quot;:null}" fill="#ffffff"/><g data-paper-data="{&quot;index&quot;:null}"><path d="M240.40767,183.75743c-1.48407,0 -4.99734,0 -7.55556,0c-1.68738,0 -2.95926,-1.68839 -2.95926,-2.99074c0,-1.46688 0,-4.97343 0,-7.55556c0,-1.7357 1.33344,-3.0537 3.08519,-3.0537c2.59001,0 6.09445,0 7.55556,0c1.29167,0 2.95926,1.318 2.95926,3.0537c0,2.58213 0,6.08868 0,7.55556c0,1.30235 -1.75106,2.99074 -3.08519,2.99074z" fill="#1d1d1d"/><path d="M239.75212,182.55743c-1.22218,0 -4.11546,0 -6.22222,0c-1.38961,0 -2.43704,-1.39043 -2.43704,-2.46296c0,-1.20802 0,-4.09577 0,-6.22222c0,-1.4294 1.09812,-2.51482 2.54074,-2.51482c2.13295,0 5.01896,0 6.22222,0c1.06373,0 2.43704,1.08541 2.43704,2.51482c0,2.12646 0,5.0142 0,6.22222c0,1.07253 -1.44205,2.46296 -2.54074,2.46296z" fill="#000000"/></g></g></g></svg>