<svg version="1.1" xmlns="http://www.w3.org/2000/svg" xmlns:xlink="http://www.w3.org/1999/xlink" width="494.46152" height="311.22703" viewBox="0,0,494.46152,311.22703"><defs><linearGradient x1="442.12381" y1="26.14201" x2="442.12381" y2="51.09972" gradientUnits="userSpaceOnUse" id="color-1"><stop offset="0" stop-color="#86f5bf"/><stop offset="1" stop-color="#5bc8f5"/></linearGradient><linearGradient x1="421.69092" y1="60.80458" x2="425.43234" y2="64.72631" gradientUnits="userSpaceOnUse" id="color-2"><stop offset="0" stop-color="#6bc399"/><stop offset="1" stop-color="#55b6e6"/></linearGradient><linearGradient x1="421.83739" y1="59.32408" x2="424.5811" y2="62.20002" gradientUnits="userSpaceOnUse" id="color-3"><stop offset="0" stop-color="#6bc399"/><stop offset="1" stop-color="#55b6e6"/></linearGradient><linearGradient x1="457.68422" y1="60.94181" x2="458.41491" y2="65.33823" gradientUnits="userSpaceOnUse" id="color-4"><stop offset="0" stop-color="#6bc399"/><stop offset="1" stop-color="#55b6e6"/></linearGradient><linearGradient x1="456.07191" y1="59.99361" x2="458.54936" y2="63.25446" gradientUnits="userSpaceOnUse" id="color-5"><stop offset="0" stop-color="#6bc399"/><stop offset="1" stop-color="#55b6e6"/></linearGradient><linearGradient x1="452.33803" y1="63.36615" x2="454.81547" y2="66.62701" gradientUnits="userSpaceOnUse" id="color-6"><stop offset="0" stop-color="#6bc399"/><stop offset="1" stop-color="#55b6e6"/></linearGradient><linearGradient x1="450.25699" y1="55.34118" x2="452.22439" y2="57.93072" gradientUnits="userSpaceOnUse" id="color-7"><stop offset="0" stop-color="#6bc399"/><stop offset="1" stop-color="#55b6e6"/></linearGradient><linearGradient x1="447.6028" y1="59.10352" x2="447.71817" y2="62.35361" gradientUnits="userSpaceOnUse" id="color-8"><stop offset="0" stop-color="#6bc399"/><stop offset="1" stop-color="#55b6e6"/></linearGradient><linearGradient x1="433.51822" y1="54.08542" x2="435.28746" y2="56.8142" gradientUnits="userSpaceOnUse" id="color-9"><stop offset="0" stop-color="#6bc399"/><stop offset="1" stop-color="#55b6e6"/></linearGradient><linearGradient x1="444.13447" y1="48.52612" x2="444.18101" y2="51.41654" gradientUnits="userSpaceOnUse" id="color-10"><stop offset="0" stop-color="#6bc399"/><stop offset="1" stop-color="#55b6e6"/></linearGradient><linearGradient x1="431.27344" y1="58.50987" x2="432.76307" y2="61.80183" gradientUnits="userSpaceOnUse" id="color-11"><stop offset="0" stop-color="#6bc399"/><stop offset="1" stop-color="#55b6e6"/></linearGradient><linearGradient x1="426.91553" y1="54.34559" x2="426.91553" y2="66.21717" gradientUnits="userSpaceOnUse" id="color-12"><stop offset="0" stop-color="#86f5bf"/><stop offset="1" stop-color="#5bc8f5"/></linearGradient><linearGradient x1="420.49498" y1="68.62275" x2="422.91105" y2="67.03554" gradientUnits="userSpaceOnUse" id="color-13"><stop offset="0" stop-color="#6bc399"/><stop offset="1" stop-color="#55b6e6"/></linearGradient><linearGradient x1="432.19477" y1="64.8356" x2="430.3982" y2="67.10033" gradientUnits="userSpaceOnUse" id="color-14"><stop offset="0" stop-color="#6bc399"/><stop offset="1" stop-color="#55b6e6"/></linearGradient><linearGradient x1="341.54245" y1="-35.76224" x2="341.54245" y2="10.05185" gradientUnits="userSpaceOnUse" id="color-15"><stop offset="0" stop-color="#86f5bf"/><stop offset="1" stop-color="#5bc8f5"/></linearGradient><linearGradient x1="379.05047" y1="27.86676" x2="372.18246" y2="35.06575" gradientUnits="userSpaceOnUse" id="color-16"><stop offset="0" stop-color="#6bc399"/><stop offset="1" stop-color="#55b6e6"/></linearGradient><linearGradient x1="378.7816" y1="25.14906" x2="373.74505" y2="30.42832" gradientUnits="userSpaceOnUse" id="color-17"><stop offset="0" stop-color="#6bc399"/><stop offset="1" stop-color="#55b6e6"/></linearGradient><linearGradient x1="312.9787" y1="28.11867" x2="311.63738" y2="36.18904" gradientUnits="userSpaceOnUse" id="color-18"><stop offset="0" stop-color="#6bc399"/><stop offset="1" stop-color="#55b6e6"/></linearGradient><linearGradient x1="315.93836" y1="26.37807" x2="311.39059" y2="32.36393" gradientUnits="userSpaceOnUse" id="color-19"><stop offset="0" stop-color="#6bc399"/><stop offset="1" stop-color="#55b6e6"/></linearGradient><linearGradient x1="322.79254" y1="32.56896" x2="318.24477" y2="38.5548" gradientUnits="userSpaceOnUse" id="color-20"><stop offset="0" stop-color="#6bc399"/><stop offset="1" stop-color="#55b6e6"/></linearGradient><linearGradient x1="326.61263" y1="17.83776" x2="323.00113" y2="22.5913" gradientUnits="userSpaceOnUse" id="color-21"><stop offset="0" stop-color="#6bc399"/><stop offset="1" stop-color="#55b6e6"/></linearGradient><linearGradient x1="331.48484" y1="24.74417" x2="331.27306" y2="30.71027" gradientUnits="userSpaceOnUse" id="color-22"><stop offset="0" stop-color="#6bc399"/><stop offset="1" stop-color="#55b6e6"/></linearGradient><linearGradient x1="357.33946" y1="15.53261" x2="354.09173" y2="20.54173" gradientUnits="userSpaceOnUse" id="color-23"><stop offset="0" stop-color="#6bc399"/><stop offset="1" stop-color="#55b6e6"/></linearGradient><linearGradient x1="337.85154" y1="5.32757" x2="337.76611" y2="10.63343" gradientUnits="userSpaceOnUse" id="color-24"><stop offset="0" stop-color="#6bc399"/><stop offset="1" stop-color="#55b6e6"/></linearGradient><linearGradient x1="361.46013" y1="23.65442" x2="358.72567" y2="29.69738" gradientUnits="userSpaceOnUse" id="color-25"><stop offset="0" stop-color="#6bc399"/><stop offset="1" stop-color="#55b6e6"/></linearGradient><linearGradient x1="369.45982" y1="16.0102" x2="369.45982" y2="37.80248" gradientUnits="userSpaceOnUse" id="color-26"><stop offset="0" stop-color="#86f5bf"/><stop offset="1" stop-color="#5bc8f5"/></linearGradient><linearGradient x1="381.24582" y1="42.21833" x2="376.81071" y2="39.30473" gradientUnits="userSpaceOnUse" id="color-27"><stop offset="0" stop-color="#6bc399"/><stop offset="1" stop-color="#55b6e6"/></linearGradient><linearGradient x1="359.76887" y1="35.26637" x2="363.06678" y2="39.42367" gradientUnits="userSpaceOnUse" id="color-28"><stop offset="0" stop-color="#6bc399"/><stop offset="1" stop-color="#55b6e6"/></linearGradient><linearGradient x1="309.48786" y1="-79.32141" x2="309.48786" y2="-19.16857" gradientUnits="userSpaceOnUse" id="color-29"><stop offset="0" stop-color="#86f5bf"/><stop offset="1" stop-color="#5bc8f5"/></linearGradient><linearGradient x1="358.73503" y1="4.222" x2="349.7175" y2="13.67411" gradientUnits="userSpaceOnUse" id="color-30"><stop offset="0" stop-color="#6bc399"/><stop offset="1" stop-color="#55b6e6"/></linearGradient><linearGradient x1="358.38201" y1="0.65372" x2="351.76914" y2="7.58527" gradientUnits="userSpaceOnUse" id="color-31"><stop offset="0" stop-color="#6bc399"/><stop offset="1" stop-color="#55b6e6"/></linearGradient><linearGradient x1="271.98431" y1="4.55276" x2="270.2232" y2="15.14897" gradientUnits="userSpaceOnUse" id="color-32"><stop offset="0" stop-color="#6bc399"/><stop offset="1" stop-color="#55b6e6"/></linearGradient><linearGradient x1="275.87028" y1="2.2674" x2="269.89917" y2="10.12668" gradientUnits="userSpaceOnUse" id="color-33"><stop offset="0" stop-color="#6bc399"/><stop offset="1" stop-color="#55b6e6"/></linearGradient><linearGradient x1="284.86966" y1="10.39588" x2="278.89855" y2="18.25516" gradientUnits="userSpaceOnUse" id="color-34"><stop offset="0" stop-color="#6bc399"/><stop offset="1" stop-color="#55b6e6"/></linearGradient><linearGradient x1="289.88536" y1="-8.94584" x2="285.14354" y2="-2.70456" gradientUnits="userSpaceOnUse" id="color-35"><stop offset="0" stop-color="#6bc399"/><stop offset="1" stop-color="#55b6e6"/></linearGradient><linearGradient x1="296.28246" y1="0.12212" x2="296.0044" y2="7.95546" gradientUnits="userSpaceOnUse" id="color-36"><stop offset="0" stop-color="#6bc399"/><stop offset="1" stop-color="#55b6e6"/></linearGradient><linearGradient x1="330.22898" y1="-11.97245" x2="325.96478" y2="-5.39559" gradientUnits="userSpaceOnUse" id="color-37"><stop offset="0" stop-color="#6bc399"/><stop offset="1" stop-color="#55b6e6"/></linearGradient><linearGradient x1="304.64178" y1="-25.37144" x2="304.52962" y2="-18.40497" gradientUnits="userSpaceOnUse" id="color-38"><stop offset="0" stop-color="#6bc399"/><stop offset="1" stop-color="#55b6e6"/></linearGradient><linearGradient x1="335.63932" y1="-1.3087" x2="332.04904" y2="6.62556" gradientUnits="userSpaceOnUse" id="color-39"><stop offset="0" stop-color="#6bc399"/><stop offset="1" stop-color="#55b6e6"/></linearGradient><linearGradient x1="346.14273" y1="-11.34539" x2="346.14273" y2="17.26737" gradientUnits="userSpaceOnUse" id="color-40"><stop offset="0" stop-color="#86f5bf"/><stop offset="1" stop-color="#5bc8f5"/></linearGradient><linearGradient x1="361.61748" y1="23.06529" x2="355.79428" y2="19.23979" gradientUnits="userSpaceOnUse" id="color-41"><stop offset="0" stop-color="#6bc399"/><stop offset="1" stop-color="#55b6e6"/></linearGradient><linearGradient x1="333.41874" y1="13.93752" x2="337.74882" y2="19.39596" gradientUnits="userSpaceOnUse" id="color-42"><stop offset="0" stop-color="#6bc399"/><stop offset="1" stop-color="#55b6e6"/></linearGradient></defs><g transform="translate(8.77736,39.21952)"><g data-paper-data="{&quot;isPaintingLayer&quot;:true}" fill-rule="nonzero" stroke-linejoin="miter" stroke-miterlimit="10" stroke-dasharray="" stroke-dashoffset="0" style="mix-blend-mode: normal"><g data-paper-data="{&quot;index&quot;:null}"><g><g><path d="M436.04573,100.21952v-33.24366h11.44257v33.24366z" fill="#b06041" stroke="none" stroke-width="0" stroke-linecap="butt"/><path d="M445.26001,100.21952v-33.24366h2.16807v33.24366z" fill="#ab5c37" stroke="none" stroke-width="0" stroke-linecap="butt"/><path d="M436.10595,100.21952v-33.24366h2.16807v33.24366z" fill="#ab5c37" stroke="none" stroke-width="0" stroke-linecap="butt"/><path d="M439.11788,76.6117v7.38748" fill="none" stroke="#ad6c4e" stroke-width="6" stroke-linecap="round"/><path d="M444.4176,86.16725v7.38748" fill="none" stroke="#ad6c4e" stroke-width="6" stroke-linecap="round"/><path d="M442.24953,74.12244v-7.14658v1.04388" fill="none" stroke="#ad6c4e" stroke-width="6" stroke-linecap="round"/></g><g fill="#ab5c37" stroke="none" stroke-linecap="butt"><path d="M426.95214,83.11589v-3.05135h10.19794v3.05135z" stroke-width="NaN"/><path d="M426.87184,83.1159c-0.84261,0 -1.52568,-0.68307 -1.52568,-1.52568c0,-0.84261 0.68307,-1.52568 1.52568,-1.52568c0.84261,0 1.52568,0.68307 1.52568,1.52568c0,0.84261 -0.68307,1.52568 -1.52568,1.52568z" stroke-width="0"/></g><g fill="#ab5c37" stroke="none" stroke-linecap="butt"><path d="M428.43767,81.46977h-3.05135v-10.19794h3.05135z" stroke-width="NaN"/><path d="M428.43767,81.55007c0,0.84261 -0.68307,1.52568 -1.52568,1.52568c-0.84261,0 -1.52568,-0.68307 -1.52568,-1.52568c0,-0.84261 0.68307,-1.52568 1.52568,-1.52568c0.84261,0 1.52568,0.68307 1.52568,1.52568z" stroke-width="0"/></g><path d="M436.15635,69.54542v-2.48926h11.32212v2.48926z" fill="#86482b" stroke="none" stroke-width="NaN" stroke-linecap="butt"/><path d="M425.39632,76.12991v-2.48926h2.97105v2.48926z" fill="#86482b" stroke="none" stroke-width="NaN" stroke-linecap="butt"/></g><g stroke="none" stroke-width="0" stroke-linecap="butt"><path d="M459.66763,63.91387c0,2.27643 -1.96457,3.82432 -3.87471,3.82432c-4.09952,0 -19.84658,0 -27.28201,0c-2.39757,0 -3.93092,-1.52101 -3.93092,-3.76409c0,-5.23327 0,-14.3969 0,-17.34452c0,-1.79819 1.53356,-3.84909 3.93092,-3.84909c7.41901,0 23.11057,0 27.22529,0c1.93397,0 3.93143,2.01389 3.93143,3.78887c0,2.92855 0,12.08273 0,17.34452z" fill="url(#color-1)"/><path d="M428.17604,67.60224c-1.08296,1.03316 -2.79841,0.9928 -3.83157,-0.09016c-1.03316,-1.08296 -0.9928,-2.79841 0.09015,-3.83157c1.08296,-1.03316 2.79841,-0.9928 3.83157,0.09016c1.03316,1.08296 0.9928,2.79841 -0.09016,3.83157z" fill="url(#color-2)"/><path d="M426.59315,64.30904c-0.79417,0.75765 -2.05217,0.72805 -2.80982,-0.06611c-0.75765,-0.79417 -0.72805,-2.05217 0.06611,-2.80982c0.79417,-0.75765 2.05217,-0.72805 2.80982,0.06611c0.75765,0.79417 0.72805,2.05217 -0.06611,2.80982z" fill="url(#color-3)"/><path d="M458.95076,68.56228c-1.21404,0.20177 -2.36178,-0.61883 -2.56356,-1.83286c-0.20177,-1.21404 0.61883,-2.36178 1.83286,-2.56356c1.21404,-0.20177 2.36178,0.61883 2.56356,1.83286c0.20177,1.21404 -0.61883,2.36178 -1.83286,2.56356z" fill="url(#color-4)"/><path d="M460.36615,65.64576c-0.90046,0.68412 -2.18502,0.50875 -2.86915,-0.39171c-0.68413,-0.90046 -0.50875,-2.18502 0.3917,-2.86915c0.90046,-0.68412 2.18502,-0.50875 2.86915,0.39171c0.68413,0.90046 0.50875,2.18502 -0.3917,2.86915z" fill="url(#color-5)"/><path d="M457.02396,66.14915c0.68413,0.90046 0.50876,2.18502 -0.3917,2.86915c-0.90046,0.68413 -2.18502,0.50876 -2.86915,-0.39171c-0.68413,-0.90046 -0.50875,-2.18502 0.3917,-2.86915c0.90046,-0.68413 2.18502,-0.50876 2.86915,0.39171z" fill="url(#color-6)"/><path d="M453.66716,59.82971c-0.71508,0.54329 -1.73519,0.40402 -2.27847,-0.31106c-0.54329,-0.71508 -0.40402,-1.73519 0.31106,-2.27847c0.71508,-0.54329 1.73519,-0.40402 2.27847,0.31106c0.54329,0.71508 0.40402,1.73519 -0.31106,2.27847z" fill="url(#color-7)"/><path d="M447.80277,64.73702c-0.89749,0.03186 -1.65087,-0.66987 -1.68273,-1.56736c-0.03186,-0.89749 0.66987,-1.65087 1.56736,-1.68273c0.89749,-0.03186 1.65087,0.66987 1.68273,1.56736c0.03186,0.89749 -0.66987,1.65087 -1.56736,1.68273z" fill="url(#color-8)"/><path d="M436.5849,58.81529c-0.75353,0.48856 -1.76044,0.27376 -2.24901,-0.47977c-0.48856,-0.75353 -0.27377,-1.76044 0.47976,-2.249c0.75353,-0.48856 1.76044,-0.27376 2.24901,0.47977c0.48856,0.75353 0.27377,1.76044 -0.47976,2.24901z" fill="url(#color-9)"/><path d="M444.21514,53.53618c-0.79816,0.01285 -1.45563,-0.62377 -1.46848,-1.42194c-0.01285,-0.79817 0.62377,-1.45563 1.42194,-1.46848c0.79816,-0.01285 1.45562,0.62377 1.46848,1.42194c0.01285,0.79817 -0.62377,1.45562 -1.42194,1.46848z" fill="url(#color-10)"/><path d="M433.85546,64.21593c-0.90905,0.41135 -1.97945,0.00789 -2.39079,-0.90117c-0.41135,-0.90905 -0.00789,-1.97945 0.90116,-2.39079c0.90905,-0.41135 1.97945,-0.00789 2.39079,0.90116c0.41135,0.90905 0.00789,1.97945 -0.90116,2.3908z" fill="url(#color-11)"/></g><path d="M433.41748,74.13155c-1.95001,0 -9.44037,0 -12.97717,0c-1.14045,0 -1.86981,-0.7235 -1.86981,-1.79046c0,-2.4893 0,-6.84814 0,-8.25023c0,-0.85534 0.72947,-1.83089 1.86981,-1.83089c3.52899,0 10.99295,0 12.95019,0c0.91992,0 1.87005,0.95794 1.87005,1.80224c0,1.39302 0,5.74737 0,8.25023c0,1.08283 -0.93449,1.81911 -1.84308,1.81911z" fill="url(#color-12)" stroke="none" stroke-width="0" stroke-linecap="butt"/><path d="M424.68285,65.87157c0.4383,0.66718 0.25276,1.56335 -0.41443,2.00165c-0.66719,0.4383 -1.56335,0.25276 -2.00165,-0.41443c-0.4383,-0.66718 -0.25276,-1.56335 0.41443,-2.00165c0.66719,-0.4383 1.56335,-0.25276 2.00165,0.41443z" fill="url(#color-13)" stroke="none" stroke-width="0" stroke-linecap="butt"/><path d="M429.08071,68.76113c-0.62539,-0.49611 -0.73019,-1.40527 -0.23408,-2.03065c0.49611,-0.62539 1.40527,-0.73019 2.03065,-0.23408c0.62539,0.49611 0.73019,1.40527 0.23408,2.03065c-0.49611,0.62539 -1.40527,0.73019 -2.03065,0.23408z" fill="url(#color-14)" stroke="none" stroke-width="0" stroke-linecap="butt"/></g><g><g><g><path d="M331.69503,100.21952v-61.02435h21.00476v61.02435z" fill="#b06041" stroke="none" stroke-width="0" stroke-linecap="butt"/><path d="M331.80558,100.21952v-61.02435h3.97985v61.02435z" fill="#ab5c37" stroke="none" stroke-width="0" stroke-linecap="butt"/><path d="M348.60939,100.21952v-61.02435h3.97985v61.02435z" fill="#ab5c37" stroke="none" stroke-width="0" stroke-linecap="butt"/><path d="M347.06035,70.44436v-13.56096" fill="none" stroke="#ad6c4e" stroke-width="6" stroke-linecap="round"/><path d="M337.33182,74.42421v13.56096" fill="none" stroke="#ad6c4e" stroke-width="6" stroke-linecap="round"/><path d="M341.31167,41.1114v-1.91622v13.11876" fill="none" stroke="#ad6c4e" stroke-width="6" stroke-linecap="round"/></g><g fill="#ab5c37" stroke="none" stroke-linecap="butt"><path d="M350.67258,68.82293v-5.60127h18.72003v5.60127z" stroke-width="NaN"/><path d="M366.73938,66.02231c0,-1.54675 1.25389,-2.80063 2.80064,-2.80063c1.54674,0 2.80064,1.25388 2.80064,2.80064c0,1.54675 -1.25389,2.80064 -2.80063,2.80064c-1.54674,0 -2.80063,-1.25388 -2.80063,-2.80063z" stroke-width="0"/></g><g fill="#ab5c37" stroke="none" stroke-linecap="butt"><path d="M366.66567,47.08117h5.60127v18.72003h-5.60127z" stroke-width="NaN"/><path d="M369.4663,63.14797c1.54674,0 2.80064,1.25388 2.80064,2.80064c0,1.54675 -1.25389,2.80064 -2.80063,2.80064c-1.54674,0 -2.80063,-1.25388 -2.80063,-2.80063c0,-1.54675 1.25389,-2.80063 2.80064,-2.80063z" stroke-width="0"/></g><path d="M331.71307,43.91203v-4.56946h20.78366v4.56946z" fill="#86482b" stroke="none" stroke-width="NaN" stroke-linecap="butt"/><path d="M366.79471,55.99898v-4.56946h5.45386v4.56946z" fill="#86482b" stroke="none" stroke-width="NaN" stroke-linecap="butt"/></g><g stroke="none" stroke-width="0" stroke-linecap="butt"><path d="M309.3378,33.57438c0,-9.6589 0,-26.46294 0,-31.83879c0,-3.25828 3.66669,-6.95511 7.21681,-6.95511c7.55325,0 36.35777,0 49.9766,0c4.40076,0 7.21588,3.76477 7.21588,7.06566c0,5.41085 0,22.23224 0,31.83879c0,4.11755 -2.81474,6.90962 -7.21588,6.90962c-13.64898,0 -42.55536,0 -50.08072,0c-3.50639,0 -7.11269,-2.84139 -7.11269,-7.02018z" fill="url(#color-15)"/><path d="M366.98044,33.3115c1.89655,-1.98795 5.04555,-2.06204 7.0335,-0.16549c1.98795,1.89654 2.06203,5.04554 0.16549,7.03349c-1.89655,1.98795 -5.04554,2.06204 -7.03349,0.16549c-1.98795,-1.89655 -2.06204,-5.04554 -0.1655,-7.0335z" fill="url(#color-16)"/><path d="M369.93023,29.14188c1.3908,-1.45782 3.70008,-1.51216 5.15791,-0.12136c1.45783,1.3908 1.51216,3.70007 0.12136,5.1579c-1.3908,1.45782 -3.70007,1.51216 -5.1579,0.12136c-1.45783,-1.3908 -1.51216,-3.70007 -0.12137,-5.1579z" fill="url(#color-17)"/><path d="M307.28923,37.40148c0.37039,-2.22857 2.47727,-3.73491 4.70584,-3.36453c2.22857,0.37039 3.73492,2.47727 3.36453,4.70584c-0.37039,2.22857 -2.47727,3.73492 -4.70584,3.36453c-2.22857,-0.3704 -3.73492,-2.47727 -3.36453,-4.70584z" fill="url(#color-18)"/><path d="M307.33652,31.48674c1.25583,-1.65294 3.61387,-1.97487 5.26681,-0.71904c1.65294,1.25583 1.97487,3.61386 0.71904,5.26681c-1.25583,1.65295 -3.61386,1.97487 -5.26681,0.71905c-1.65294,-1.25584 -1.97487,-3.61387 -0.71904,-5.26681z" fill="url(#color-19)"/><path d="M314.1907,37.67762c1.25583,-1.65296 3.61386,-1.97488 5.26681,-0.71905c1.65294,1.25584 1.97487,3.61386 0.71904,5.2668c-1.25583,1.65295 -3.61386,1.97488 -5.26681,0.71905c-1.65296,-1.25583 -1.97487,-3.61386 -0.71903,-5.2668z" fill="url(#color-20)"/><path d="M319.78168,21.8947c0.99729,-1.31265 2.86987,-1.56831 4.18252,-0.57101c1.31265,0.99729 1.5683,2.86987 0.571,4.18252c-0.99729,1.31265 -2.86986,1.56831 -4.18251,0.571c-1.31265,-0.99729 -1.56831,-2.86986 -0.57101,-4.18252z" fill="url(#color-21)"/><path d="M328.24061,31.99647c0.05849,-1.6475 1.44144,-2.93564 3.08893,-2.87716c1.64749,0.05848 2.93563,1.44144 2.87716,3.08893c-0.05849,1.64749 -1.44144,2.93564 -3.08894,2.87716c-1.64749,-0.05848 -2.93563,-1.44144 -2.87715,-3.08893z" fill="url(#color-22)"/><path d="M350.82936,20.08666c0.89684,-1.38323 2.7452,-1.77752 4.12843,-0.88069c1.38323,0.89684 1.77753,2.7452 0.88069,4.12843c-0.89684,1.38323 -2.7452,1.77752 -4.12843,0.8807c-1.38323,-0.89684 -1.77752,-2.7452 -0.88068,-4.12843z" fill="url(#color-23)"/><path d="M335.09326,11.82875c0.02359,-1.46517 1.23047,-2.6338 2.69563,-2.61022c1.46517,0.02359 2.63381,1.23046 2.61022,2.69564c-0.02359,1.46517 -1.23048,2.6338 -2.69564,2.61021c-1.46517,-0.02359 -2.6338,-1.23046 -2.61021,-2.69563z" fill="url(#color-24)"/><path d="M355.06616,29.74016c0.7551,-1.66872 2.71998,-2.40934 4.3887,-1.65424c1.66872,0.7551 2.40934,2.71998 1.65424,4.38871c-0.7551,1.66872 -2.71999,2.40934 -4.38871,1.65424c-1.66872,-0.7551 -2.40934,-2.71999 -1.65424,-4.38871z" fill="url(#color-25)"/></g><path d="M354.14111,48.99138c0,-4.59443 0,-12.58757 0,-15.14469c0,-1.54986 1.74413,-3.30832 3.4328,-3.30832c3.59285,0 17.29421,0 23.77226,0c2.0933,0 3.43236,1.79078 3.43236,3.36091c0,2.57377 0,10.57516 0,15.14469c0,1.95858 -1.33888,3.28669 -3.43236,3.28669c-6.49239,0 -20.24221,0 -23.82178,0c-1.66787,0 -3.38328,-1.35157 -3.38328,-3.33928z" fill="url(#color-26)" stroke="none" stroke-width="0" stroke-linecap="butt"/><path d="M377.23265,36.40733c1.22473,0.80457 1.56532,2.44964 0.76075,3.67437c-0.80457,1.22473 -2.44963,1.56533 -3.67437,0.76075c-1.22473,-0.80457 -1.56532,-2.44964 -0.76075,-3.67437c0.80457,-1.22473 2.44963,-1.56533 3.67437,-0.76075z" fill="url(#color-27)" stroke="none" stroke-width="0" stroke-linecap="butt"/><path d="M361.75765,42.04266c-0.91069,-1.148 -0.71832,-2.81691 0.42969,-3.7276c1.148,-0.9107 2.81691,-0.71832 3.7276,0.42969c0.91069,1.148 0.71832,2.81691 -0.42969,3.7276c-1.148,0.9107 -2.81691,0.71832 -3.7276,-0.42969z" fill="url(#color-28)" stroke="none" stroke-width="0" stroke-linecap="butt"/></g><g><g><g><path d="M296.55843,99.21952v-80.12357h27.57877v80.12357z" fill="#b06041" stroke="none" stroke-width="0" stroke-linecap="butt"/><path d="M296.70358,99.21952v-80.12357h5.22545v80.12357z" fill="#ab5c37" stroke="none" stroke-width="0" stroke-linecap="butt"/><path d="M318.7666,99.21952v-80.12357h5.22545v80.12357z" fill="#ab5c37" stroke="none" stroke-width="0" stroke-linecap="butt"/><path d="M316.73274,60.12541v-17.80523" fill="none" stroke="#ad6c4e" stroke-width="6" stroke-linecap="round"/><path d="M303.95941,65.35087v17.80523" fill="none" stroke="#ad6c4e" stroke-width="6" stroke-linecap="round"/><path d="M309.18486,21.61191v-2.51596v17.22463" fill="none" stroke="#ad6c4e" stroke-width="6" stroke-linecap="round"/></g><g fill="#ab5c37" stroke="none" stroke-linecap="butt"><path d="M321.47551,57.99652v-7.35434h24.57897v7.35434z" stroke-width="NaN"/><path d="M342.57085,54.31936c0,-2.03084 1.64632,-3.67717 3.67717,-3.67717c2.03084,0 3.67717,1.64632 3.67717,3.67717c0,2.03084 -1.64632,3.67717 -3.67717,3.67717c-2.03084,0 -3.67717,-1.64632 -3.67717,-3.67717z" stroke-width="0"/></g><g fill="#ab5c37" stroke="none" stroke-linecap="butt"><path d="M342.47408,29.45008h7.35433v24.57897h-7.35433z" stroke-width="NaN"/><path d="M346.15124,50.54542c2.03084,0 3.67717,1.64632 3.67717,3.67717c0,2.03085 -1.64632,3.67717 -3.67717,3.67717c-2.03084,0 -3.67717,-1.64632 -3.67717,-3.67717c0,-2.03085 1.64632,-3.67717 3.67717,-3.67717z" stroke-width="0"/></g><path d="M296.58212,25.28908v-5.99959h27.28846v5.99959z" fill="#86482b" stroke="none" stroke-width="NaN" stroke-linecap="butt"/><path d="M342.6435,41.15896v-5.99959h7.1608v5.99959z" fill="#86482b" stroke="none" stroke-width="NaN" stroke-linecap="butt"/></g><g stroke="none" stroke-width="0" stroke-linecap="butt"><path d="M267.2039,11.71598c0,-12.68192 0,-34.74524 0,-41.8036c0,-4.27805 4.81428,-9.1319 9.47551,-9.1319c9.91725,0 47.73691,0 65.61813,0c5.7781,0 9.47428,4.94306 9.47428,9.27705c0,7.10432 0,29.19042 0,41.8036c0,5.40625 -3.69569,9.07218 -9.47428,9.07218c-17.9208,0 -55.87421,0 -65.75483,0c-4.6038,0 -9.3388,-3.73069 -9.3388,-9.21733z" fill="url(#color-29)"/><path d="M342.88736,11.37083c2.49012,-2.61013 6.62469,-2.70741 9.23482,-0.21729c2.61013,2.49012 2.70741,6.62469 0.21729,9.23482c-2.49012,2.61013 -6.62469,2.70741 -9.23482,0.21729c-2.61013,-2.49012 -2.70741,-6.62469 -0.21729,-9.23482z" fill="url(#color-30)"/><path d="M346.76037,5.89621c1.82609,-1.91409 4.85811,-1.98544 6.77221,-0.15935c1.91409,1.82609 1.98543,4.85811 0.15935,6.77221c-1.82609,1.91409 -4.85811,1.98544 -6.77221,0.15935c-1.91409,-1.82609 -1.98543,-4.85811 -0.15935,-6.77221z" fill="url(#color-31)"/><path d="M264.51417,16.74087c0.48632,-2.92606 3.2526,-4.90386 6.17866,-4.41755c2.92606,0.48632 4.90386,3.2526 4.41755,6.17866c-0.48632,2.92606 -3.2526,4.90386 -6.17866,4.41755c-2.92606,-0.48632 -4.90386,-3.2526 -4.41755,-6.17866z" fill="url(#color-32)"/><path d="M264.57627,8.97496c1.64888,-2.17028 4.74492,-2.59296 6.9152,-0.94409c2.17028,1.64888 2.59296,4.74492 0.94408,6.9152c-1.64888,2.17028 -4.74492,2.59296 -6.9152,0.94409c-2.17028,-1.64888 -2.59296,-4.74492 -0.94408,-6.9152z" fill="url(#color-33)"/><path d="M273.57565,17.10344c1.64888,-2.17029 4.74491,-2.59297 6.9152,-0.94409c2.17028,1.64888 2.59296,4.74491 0.94408,6.91519c-1.64888,2.17029 -4.74491,2.59297 -6.91519,0.94409c-2.17029,-1.64888 -2.59296,-4.74491 -0.94408,-6.91519z" fill="url(#color-34)"/><path d="M280.91647,-3.61918c1.30942,-1.72348 3.76807,-2.05915 5.49155,-0.74972c1.72348,1.30942 2.05915,3.76807 0.74972,5.49155c-1.30942,1.72348 -3.76807,2.05915 -5.49155,0.74972c-1.72348,-1.30942 -2.05915,-3.76807 -0.74972,-5.49155z" fill="url(#color-35)"/><path d="M292.02285,9.64422c0.07679,-2.16312 1.89258,-3.85443 4.0557,-3.77764c2.16312,0.07679 3.85442,1.89258 3.77764,4.0557c-0.07679,2.16312 -1.89258,3.85443 -4.0557,3.77764c-2.16312,-0.07679 -3.85442,-1.89258 -3.77764,-4.0557z" fill="url(#color-36)"/><path d="M321.68137,-5.99309c1.17753,-1.81615 3.60438,-2.33385 5.42053,-1.15633c1.81615,1.17753 2.33385,3.60438 1.15632,5.42053c-1.17753,1.81615 -3.60438,2.33385 -5.42053,1.15633c-1.81615,-1.17753 -2.33385,-3.60438 -1.15632,-5.42053z" fill="url(#color-37)"/><path d="M301.02022,-16.83554c0.03097,-1.92374 1.61558,-3.45812 3.53931,-3.42715c1.92374,0.03097 3.45812,1.61557 3.42715,3.53931c-0.03097,1.92374 -1.61558,3.45812 -3.53931,3.42715c-1.92374,-0.03097 -3.45812,-1.61557 -3.42715,-3.53931z" fill="url(#color-38)"/><path d="M327.24419,6.68174c0.99143,-2.19099 3.57128,-3.16341 5.76227,-2.17198c2.19099,0.99143 3.16341,3.57128 2.17198,5.76227c-0.99143,2.19099 -3.57128,3.16341 -5.76227,2.17198c-2.19099,-0.99143 -3.16341,-3.57128 -2.17198,-5.76227z" fill="url(#color-39)"/></g><path d="M326.02961,31.95815c0,-6.03238 0,-16.52719 0,-19.88463c0,-2.03493 2.29,-4.34375 4.50719,-4.34375c4.71732,0 22.7069,0 31.21243,0c2.74845,0 4.50661,2.35125 4.50661,4.41279c0,3.3793 0,13.88494 0,19.88463c0,2.57158 -1.75792,4.31535 -4.50661,4.31535c-8.52435,0 -26.57756,0 -31.27745,0c-2.18988,0 -4.44217,-1.77457 -4.44217,-4.38439z" fill="url(#color-40)" stroke="none" stroke-width="0" stroke-linecap="butt"/><path d="M356.34828,15.43557c1.60804,1.05638 2.05523,3.21632 0.99885,4.82436c-1.05638,1.60804 -3.21631,2.05524 -4.82436,0.99885c-1.60804,-1.05638 -2.05523,-3.21632 -0.99885,-4.82436c1.05638,-1.60804 3.21631,-2.05524 4.82436,-0.99885z" fill="url(#color-41)" stroke="none" stroke-width="0" stroke-linecap="butt"/><path d="M336.02996,22.83464c-1.19572,-1.5073 -0.94313,-3.69854 0.56417,-4.89426c1.5073,-1.19572 3.69854,-0.94314 4.89426,0.56417c1.19572,1.5073 0.94313,3.69854 -0.56417,4.89426c-1.5073,1.19572 -3.69854,0.94314 -4.89426,-0.56417z" fill="url(#color-42)" stroke="none" stroke-width="0" stroke-linecap="butt"/></g><path d="M211.29087,98.21656c4.10024,-6.73111 16.15301,-26.5174 18.83281,-30.91667c1.02782,-1.68731 2.03049,-2.4937 2.03049,-1.5c0,4.32108 0,34.66667 0,34.66667c0,0 -17.11565,0 -20.30492,0c-0.983,0 -1.41875,-0.83759 -0.55839,-2.25z" fill="#e6e6e6" stroke="none" stroke-width="0" stroke-linecap="butt"/><path d="M252.15074,100.63323c-3.18927,0 -20.30492,0 -20.30492,0c0,0 0,-30.3456 0,-34.66667c0,-0.99371 1.00267,-0.18731 2.03049,1.5c2.67981,4.39927 14.73257,24.18556 18.83281,30.91667c0.86037,1.41241 0.42461,2.25 -0.55839,2.25z" data-paper-data="{&quot;index&quot;:null}" fill="#d9d9d9" stroke="none" stroke-width="0" stroke-linecap="butt"/><g stroke="none" stroke-width="0" stroke-linecap="butt"><g><path d="M211.29088,98.21656c4.10024,-6.73111 16.15301,-26.5174 18.83281,-30.91667c1.02782,-1.68731 2.03049,-2.4937 2.03049,-1.5c0,4.32108 0,34.66667 0,34.66667c0,0 -17.11565,0 -20.30492,0c-0.983,0 -1.41875,-0.83759 -0.55839,-2.25z" fill="#cc0000"/><path d="M252.15075,100.63323c-3.18927,0 -20.30492,0 -20.30492,0c0,0 0,-30.3456 0,-34.66667c0,-0.99371 1.00267,-0.18731 2.03049,1.5c2.67981,4.39927 14.73257,24.18556 18.83281,30.91667c0.86037,1.41241 0.42461,2.25 -0.55839,2.25z" data-paper-data="{&quot;index&quot;:null}" fill="#a60000"/></g><path d="M217.75789,100.36551l-5.64199,-3.67253l2.15634,-3.44879l10.00118,7.24271z" fill="#ffffff"/></g><path d="M-3.91812,96.31298c2.24001,-3.67728 8.82457,-14.48675 10.28858,-16.89013c0.56151,-0.9218 1.10928,-1.36234 1.10928,-0.81947c0,2.36065 0,18.93879 0,18.93879c0,0 -9.35047,0 -11.09281,0c-0.53702,0 -0.77508,-0.45758 -0.30505,-1.2292z" fill="#e6e6e6" stroke="none" stroke-width="0" stroke-linecap="butt"/><path d="M18.40409,97.63323c-1.74233,0 -11.09281,0 -11.09281,0c0,0 0,-16.57814 0,-18.93879c0,-0.54287 0.54777,-0.10233 1.10928,0.81947c1.46401,2.40337 8.04857,13.21284 10.28858,16.89013c0.47003,0.77162 0.23197,1.2292 -0.30505,1.2292z" data-paper-data="{&quot;index&quot;:null}" fill="#d9d9d9" stroke="none" stroke-width="0" stroke-linecap="butt"/><g stroke="none" stroke-width="0" stroke-linecap="butt"><g><path d="M-3.91811,96.31298c2.24001,-3.67728 8.82457,-14.48675 10.28858,-16.89013c0.56151,-0.9218 1.10928,-1.36234 1.10928,-0.81947c0,2.36065 0,18.93879 0,18.93879c0,0 -9.35047,0 -11.09281,0c-0.53702,0 -0.77508,-0.45758 -0.30505,-1.2292z" fill="#cc0000"/><path d="M18.4041,97.63323c-1.74233,0 -11.09281,0 -11.09281,0c0,0 0,-16.57814 0,-18.93879c0,-0.54287 0.54777,-0.10233 1.10928,0.81947c1.46401,2.40337 8.04857,13.21284 10.28858,16.89013c0.47003,0.77162 0.23197,1.2292 -0.30505,1.2292z" data-paper-data="{&quot;index&quot;:null}" fill="#a60000"/></g><path d="M-0.38511,97.48697l-3.08228,-2.00634l1.17803,-1.88411l5.46376,3.95677z" fill="#ffffff"/></g><path d="M-2.47576,270.50751v-166h480.95152v166z" fill="#ffffff" stroke="none" stroke-width="0" stroke-linecap="butt"/><path d="M-4.56708,272.00751v-127h485.99294v127z" fill="#4eaad2" stroke="none" stroke-width="0" stroke-linecap="butt"/><path d="M481.36985,103.00751v59h-465.77124v-59z" fill="#5ecfff" stroke="none" stroke-width="0" stroke-linecap="butt"/><path d="M49.80343,119.90751c0,11.95934 0,24.21448 0,30.83334c0,4.95926 -4.81864,11 -11.59527,11c-7.61005,0 -42.76654,0 -42.76654,0l-0.43696,-53.50001c0,0 39.235,0 42.53131,0c5.49164,0 12.26746,4.90772 12.26746,11.66666z" fill="#9ce1ff" stroke="none" stroke-width="0" stroke-linecap="butt"/><path d="M479.68416,103.00815h1.69743h-486.80745h2.6485" fill="none" stroke="#ffffff" stroke-width="12" stroke-linecap="round"/><path d="M272.81476,120.10288c0,10.35672 0,20.96962 0,26.70151c0,4.2947 -4.13863,9.52594 -9.95894,9.52594c-11.11946,0 -49.59366,0 -55.85668,0c-4.50871,0 -11.40227,-4.24585 -11.69093,-10.68061c-0.19829,-4.42017 -0.11643,-16.51255 0,-24.39219c0.07546,-5.10689 6.31612,-11.25793 12.55693,-11.25793c11.62281,0 50.20867,0 54.41335,0c4.71666,0 10.53628,4.25007 10.53628,10.10327z" fill="#79d7ff" stroke="none" stroke-width="0" stroke-linecap="butt"/><path d="M151.68863,180.65843c0,10.35672 0,20.96962 0,26.70152c0,4.2947 -4.13864,9.52594 -9.95895,9.52594c-11.11946,0 -49.59365,0 -55.85667,0c-4.50871,0 -11.40226,-4.24584 -11.69093,-10.68061c-0.19829,-4.42017 -0.11643,-16.51254 0,-24.39219c0.07546,-5.10689 6.31612,-11.25793 12.55693,-11.25793c11.62282,0 50.20867,0 54.41335,0c4.71666,0 10.53627,4.25006 10.53627,10.10327z" fill="#4597ba" stroke="none" stroke-width="0" stroke-linecap="butt"/><path d="M324.85679,226.19897c0,10.35672 0,20.96962 0,26.70152c0,4.2947 -4.13864,9.52594 -9.95895,9.52594c-11.11946,0 -49.59366,0 -55.85667,0c-4.50871,0 -11.40226,-4.24585 -11.69093,-10.68061c-0.19829,-4.42017 -0.11643,-16.51254 0,-24.39219c0.07546,-5.10689 6.31612,-11.25794 12.55693,-11.25794c11.62282,0 50.20867,0 54.41335,0c4.71666,0 10.53627,4.25006 10.53627,10.10327z" fill="#479cc0" stroke="none" stroke-width="0" stroke-linecap="butt"/></g></g></svg>