<svg version="1.1" xmlns="http://www.w3.org/2000/svg" xmlns:xlink="http://www.w3.org/1999/xlink" width="551.43475" height="369.22701" viewBox="0,0,551.43475,369.22701"><defs><linearGradient x1="104.37338" y1="-155.56176" x2="104.37338" y2="-68.04841" gradientUnits="userSpaceOnUse" id="color-1"><stop offset="0" stop-color="#86f5bf"/><stop offset="1" stop-color="#5bc8f5"/></linearGradient><linearGradient x1="176.02061" y1="-34.01865" x2="162.90146" y2="-20.26726" gradientUnits="userSpaceOnUse" id="color-2"><stop offset="0" stop-color="#6bc399"/><stop offset="1" stop-color="#55b6e6"/></linearGradient><linearGradient x1="175.50701" y1="-39.20996" x2="165.88628" y2="-29.1256" gradientUnits="userSpaceOnUse" id="color-3"><stop offset="0" stop-color="#6bc399"/><stop offset="1" stop-color="#55b6e6"/></linearGradient><linearGradient x1="49.81135" y1="-33.53746" x2="47.24918" y2="-18.12155" gradientUnits="userSpaceOnUse" id="color-4"><stop offset="0" stop-color="#6bc399"/><stop offset="1" stop-color="#55b6e6"/></linearGradient><linearGradient x1="55.46485" y1="-36.8623" x2="46.77775" y2="-25.42822" gradientUnits="userSpaceOnUse" id="color-5"><stop offset="0" stop-color="#6bc399"/><stop offset="1" stop-color="#55b6e6"/></linearGradient><linearGradient x1="68.55761" y1="-25.03658" x2="59.87053" y2="-13.6025" gradientUnits="userSpaceOnUse" id="color-6"><stop offset="0" stop-color="#6bc399"/><stop offset="1" stop-color="#55b6e6"/></linearGradient><linearGradient x1="75.85468" y1="-53.1759" x2="68.95606" y2="-44.09575" gradientUnits="userSpaceOnUse" id="color-7"><stop offset="0" stop-color="#6bc399"/><stop offset="1" stop-color="#55b6e6"/></linearGradient><linearGradient x1="85.16148" y1="-39.98335" x2="84.75697" y2="-28.58704" gradientUnits="userSpaceOnUse" id="color-8"><stop offset="0" stop-color="#6bc399"/><stop offset="1" stop-color="#55b6e6"/></linearGradient><linearGradient x1="134.5486" y1="-57.57915" x2="128.34479" y2="-48.01079" gradientUnits="userSpaceOnUse" id="color-9"><stop offset="0" stop-color="#6bc399"/><stop offset="1" stop-color="#55b6e6"/></linearGradient><linearGradient x1="97.32307" y1="-77.07263" x2="97.1599" y2="-66.9375" gradientUnits="userSpaceOnUse" id="color-10"><stop offset="0" stop-color="#6bc399"/><stop offset="1" stop-color="#55b6e6"/></linearGradient><linearGradient x1="142.41983" y1="-42.06497" x2="137.1965" y2="-30.52184" gradientUnits="userSpaceOnUse" id="color-11"><stop offset="0" stop-color="#6bc399"/><stop offset="1" stop-color="#55b6e6"/></linearGradient><linearGradient x1="157.70068" y1="-56.66687" x2="157.70068" y2="-15.03961" gradientUnits="userSpaceOnUse" id="color-12"><stop offset="0" stop-color="#86f5bf"/><stop offset="1" stop-color="#5bc8f5"/></linearGradient><linearGradient x1="180.21413" y1="-6.60448" x2="171.74227" y2="-12.17" gradientUnits="userSpaceOnUse" id="color-13"><stop offset="0" stop-color="#6bc399"/><stop offset="1" stop-color="#55b6e6"/></linearGradient><linearGradient x1="139.1892" y1="-19.88402" x2="145.48885" y2="-11.94281" gradientUnits="userSpaceOnUse" id="color-14"><stop offset="0" stop-color="#6bc399"/><stop offset="1" stop-color="#55b6e6"/></linearGradient><linearGradient x1="56.28185" y1="-75.98782" x2="56.28185" y2="-14.83537" gradientUnits="userSpaceOnUse" id="color-15"><stop offset="0" stop-color="#86f5bf"/><stop offset="1" stop-color="#5bc8f5"/></linearGradient><linearGradient x1="6.2163" y1="8.9439" x2="15.38368" y2="18.55308" gradientUnits="userSpaceOnUse" id="color-16"><stop offset="0" stop-color="#6bc399"/><stop offset="1" stop-color="#55b6e6"/></linearGradient><linearGradient x1="6.57519" y1="5.31632" x2="13.29795" y2="12.36306" gradientUnits="userSpaceOnUse" id="color-17"><stop offset="0" stop-color="#6bc399"/><stop offset="1" stop-color="#55b6e6"/></linearGradient><linearGradient x1="94.40863" y1="9.28014" x2="96.19901" y2="20.05245" gradientUnits="userSpaceOnUse" id="color-18"><stop offset="0" stop-color="#6bc399"/><stop offset="1" stop-color="#55b6e6"/></linearGradient><linearGradient x1="90.45807" y1="6.95682" x2="96.52843" y2="14.94671" gradientUnits="userSpaceOnUse" id="color-19"><stop offset="0" stop-color="#6bc399"/><stop offset="1" stop-color="#55b6e6"/></linearGradient><linearGradient x1="81.30914" y1="15.22038" x2="87.37948" y2="23.21027" gradientUnits="userSpaceOnUse" id="color-20"><stop offset="0" stop-color="#6bc399"/><stop offset="1" stop-color="#55b6e6"/></linearGradient><linearGradient x1="76.21011" y1="-4.44278" x2="81.03071" y2="1.90224" gradientUnits="userSpaceOnUse" id="color-21"><stop offset="0" stop-color="#6bc399"/><stop offset="1" stop-color="#55b6e6"/></linearGradient><linearGradient x1="69.70671" y1="4.7759" x2="69.98937" y2="12.73939" gradientUnits="userSpaceOnUse" id="color-22"><stop offset="0" stop-color="#6bc399"/><stop offset="1" stop-color="#55b6e6"/></linearGradient><linearGradient x1="35.19605" y1="-7.51967" x2="39.53114" y2="-0.83351" gradientUnits="userSpaceOnUse" id="color-23"><stop offset="0" stop-color="#6bc399"/><stop offset="1" stop-color="#55b6e6"/></linearGradient><linearGradient x1="61.20845" y1="-21.1413" x2="61.32247" y2="-14.05909" gradientUnits="userSpaceOnUse" id="color-24"><stop offset="0" stop-color="#6bc399"/><stop offset="1" stop-color="#55b6e6"/></linearGradient><linearGradient x1="29.69581" y1="3.3213" x2="33.34575" y2="11.3874" gradientUnits="userSpaceOnUse" id="color-25"><stop offset="0" stop-color="#6bc399"/><stop offset="1" stop-color="#55b6e6"/></linearGradient><linearGradient x1="19.01787" y1="-6.88219" x2="19.01787" y2="22.20605" gradientUnits="userSpaceOnUse" id="color-26"><stop offset="0" stop-color="#86f5bf"/><stop offset="1" stop-color="#5bc8f5"/></linearGradient><linearGradient x1="3.28596" y1="28.10034" x2="9.20591" y2="24.21127" gradientUnits="userSpaceOnUse" id="color-27"><stop offset="0" stop-color="#6bc399"/><stop offset="1" stop-color="#55b6e6"/></linearGradient><linearGradient x1="31.9533" y1="18.82088" x2="27.55124" y2="24.37002" gradientUnits="userSpaceOnUse" id="color-28"><stop offset="0" stop-color="#6bc399"/><stop offset="1" stop-color="#55b6e6"/></linearGradient></defs><g transform="translate(49.0532,97.2195)"><g data-paper-data="{&quot;isPaintingLayer&quot;:true}" fill-rule="nonzero" stroke-linejoin="miter" stroke-miterlimit="10" stroke-dasharray="" stroke-dashoffset="0" style="mix-blend-mode: normal"><g data-paper-data="{&quot;index&quot;:null}"><g><g><path d="M85.56302,104.18848v-116.56775h40.12295v116.56772z" fill="#b06041" stroke="none" stroke-width="0" stroke-linecap="butt"/><path d="M85.77416,104.18848v-116.56775h7.60227v116.56772z" fill="#ab5c37" stroke="none" stroke-width="0" stroke-linecap="butt"/><path d="M117.87256,104.18848v-116.56775h7.60224v116.56772z" fill="#ab5c37" stroke="none" stroke-width="0" stroke-linecap="butt"/><path d="M114.91357,47.31241v-25.90392" fill="none" stroke="#ad6c4e" stroke-width="6" stroke-linecap="round"/><path d="M96.3303,54.91467v25.90395" fill="none" stroke="#ad6c4e" stroke-width="6" stroke-linecap="round"/><path d="M103.93255,-8.71895v-3.66032v25.05925" fill="none" stroke="#ad6c4e" stroke-width="6" stroke-linecap="round"/></g><g fill="#ab5c37" stroke="none" stroke-linecap="butt"><path d="M121.81359,44.21518v-10.69946h35.75871v10.69946z" stroke-width="NaN"/><path d="M152.50414,38.86545c0,-2.95458 2.39515,-5.34973 5.34973,-5.34973c2.95458,0 5.34971,2.39516 5.34971,5.34973c0,2.95458 -2.39513,5.34973 -5.34971,5.34973c-2.95458,0 -5.34973,-2.39515 -5.34973,-5.34973z" stroke-width="0"/></g><g fill="#ab5c37" stroke="none" stroke-linecap="butt"><path d="M152.36335,2.68441h10.69947v35.75871h-10.69947z" stroke-width="NaN"/><path d="M157.71308,33.37493c2.95458,0 5.34973,2.39515 5.34973,5.34973c0,2.95458 -2.39516,5.34973 -5.34973,5.34973c-2.95458,0 -5.34976,-2.39516 -5.34976,-5.34973c0,-2.95458 2.39518,-5.34973 5.34976,-5.34973z" stroke-width="0"/></g><path d="M85.59743,-3.36922v-8.72849h39.70063v8.72849z" fill="#86482b" stroke="none" stroke-width="NaN" stroke-linecap="butt"/><path d="M152.60984,19.71905v-8.72849h10.41789v8.72849z" fill="#86482b" stroke="none" stroke-width="NaN" stroke-linecap="butt"/></g><g stroke="none" stroke-width="0" stroke-linecap="butt"><path d="M42.85658,-23.11599c0,-18.45029 0,-50.54912 0,-60.81796c0,-6.22393 7.00406,-13.28555 13.78543,-13.28555c14.42808,0 69.44999,0 95.46448,0c8.40623,0 13.78364,7.19143 13.78364,13.49671c0,10.33573 0,42.46768 0,60.81796c0,7.86526 -5.37668,13.19865 -13.78364,13.19865c-26.07206,0 -81.28856,0 -95.66337,0c-6.69784,0 -13.58655,-5.42761 -13.58655,-13.40985z" fill="url(#color-1)"/><path d="M152.96461,-23.61817c3.62276,-3.79736 9.63795,-3.93887 13.43529,-0.31614c3.79735,3.62276 3.93887,9.63795 0.31613,13.43529c-3.62276,3.79735 -9.63794,3.93887 -13.43527,0.31613c-3.79735,-3.62276 -3.93891,-9.63795 -0.31614,-13.43528z" fill="url(#color-2)"/><path d="M158.59925,-31.58291c2.6567,-2.78472 7.06782,-2.88852 9.85255,-0.23182c2.78474,2.6567 2.88851,7.06778 0.23184,9.85253c-2.6567,2.78474 -7.06782,2.88854 -9.85255,0.23184c-2.78474,-2.6567 -2.88851,-7.0678 -0.23184,-9.85255z" fill="url(#color-3)"/><path d="M45.3703,-6.81658c-4.25698,-0.70749 -7.13438,-4.73203 -6.42688,-8.98901c0.70751,-4.25696 4.73206,-7.13435 8.98901,-6.42686c4.25695,0.70748 7.13438,4.73203 6.42687,8.98901c-0.70751,4.25696 -4.73207,7.13433 -8.98903,6.42685z" fill="url(#color-4)"/><path d="M40.40724,-17.04323c-3.15742,-2.39888 -3.77238,-6.90312 -1.3735,-10.06057c2.39887,-3.15744 6.90315,-3.77241 10.06058,-1.37353c3.15742,2.39887 3.77238,6.90315 1.3735,10.06058c-2.39887,3.15744 -6.90315,3.77239 -10.06058,1.37351z" fill="url(#color-5)"/><path d="M52.12654,-15.27811c2.39888,-3.15745 6.90313,-3.77239 10.06057,-1.37351c3.15742,2.39888 3.77237,6.90314 1.37349,10.06058c-2.39887,3.15745 -6.90315,3.7724 -10.06058,1.37352c-3.15745,-2.39888 -3.77238,-6.90312 -1.3735,-10.06056z" fill="url(#color-6)"/><path d="M63.89699,-37.43701c-2.5074,-1.905 -2.99573,-5.48192 -1.09074,-7.98936c1.90502,-2.50744 5.48195,-2.99578 7.98939,-1.09075c2.50743,1.905 2.99574,5.48193 1.09075,7.98937c-1.905,2.50744 -5.48193,2.99578 -7.98937,1.09075z" fill="url(#color-7)"/><path d="M78.96439,-26.13013c0.11173,-3.14702 2.75342,-5.60761 5.90044,-5.4959c3.14702,0.1117 5.6076,2.75342 5.4959,5.90044c-0.1117,3.14701 -2.75341,5.6076 -5.90043,5.4959c-3.14702,-0.11173 -5.60761,-2.75341 -5.4959,-5.90043z" fill="url(#color-8)"/><path d="M123.79537,-40.99399c-2.64224,-1.71314 -3.39543,-5.24383 -1.68229,-7.88607c1.71311,-2.64224 5.24383,-3.39542 7.88607,-1.68229c2.64224,1.7131 3.39542,5.24383 1.68229,7.88604c-1.71311,2.64221 -5.24382,3.39542 -7.88606,1.68229z" fill="url(#color-9)"/><path d="M97.04023,-59.50503c-2.79876,-0.04505 -5.03107,-2.35039 -4.986,-5.14915c0.04505,-2.79876 2.35039,-5.03108 5.14915,-4.98601c2.79876,0.04505 5.03108,2.35039 4.98601,5.14916c-0.04505,2.79876 -2.35039,5.03105 -5.14916,4.98598z" fill="url(#color-10)"/><path d="M133.36608,-22.05686c-3.18755,-1.44235 -4.60227,-5.19565 -3.15991,-8.38321c1.44236,-3.18756 5.19567,-4.60227 8.38323,-3.15991c3.18755,1.44236 4.60226,5.19565 3.15991,8.38321c-1.44239,3.18757 -5.19566,4.60227 -8.38322,3.15991z" fill="url(#color-11)"/></g><path d="M128.43912,6.33332c0,-8.77621 0,-24.0446 0,-28.92916c0,-2.96051 3.33161,-6.31952 6.55729,-6.31952c6.86299,0 33.03514,0 45.4094,0c3.99859,0 6.55645,3.42075 6.55645,6.41998c0,4.91637 0,20.20048 0,28.92914c0,3.74126 -2.55753,6.27816 -6.55645,6.27816c-12.40162,0 -38.66633,0 -45.50396,0c-3.18594,0 -6.46269,-2.58175 -6.46269,-6.37864z" fill="url(#color-12)" stroke="none" stroke-width="0" stroke-linecap="butt"/><path d="M172.54823,-17.7046c2.33945,1.5369 2.99006,4.67929 1.45319,7.01873c-1.53691,2.33945 -4.67926,2.99007 -7.01873,1.45317c-2.33945,-1.5369 -2.99002,-4.67928 -1.45315,-7.01873c1.53687,-2.33945 4.67922,-2.99008 7.0187,-1.45318z" fill="url(#color-13)" stroke="none" stroke-width="0" stroke-linecap="butt"/><path d="M150.10854,-6.11925c-2.19288,1.73959 -5.38084,1.37211 -7.12042,-0.82078c-1.73959,-2.19292 -1.37211,-5.38085 0.82078,-7.12043c2.19289,-1.73959 5.38084,-1.37211 7.12042,0.82078c1.73959,2.19292 1.37213,5.38084 -0.82078,7.12042z" fill="url(#color-14)" stroke="none" stroke-width="0" stroke-linecap="butt"/></g><g data-paper-data="{&quot;index&quot;:null}"><g><g><path d="M41.38907,105.52006v-81.45503h28.03705v81.45504z" fill="#b06041" stroke="none" stroke-width="0" stroke-linecap="butt"/><path d="M63.96628,105.52006v-81.45503h5.3123v81.45504z" fill="#ab5c37" stroke="none" stroke-width="0" stroke-linecap="butt"/><path d="M41.53663,105.52006v-81.45503h5.31228v81.45504z" fill="#ab5c37" stroke="none" stroke-width="0" stroke-linecap="butt"/><path d="M48.91659,65.7763v-18.10111" fill="none" stroke="#ad6c4e" stroke-width="6" stroke-linecap="round"/><path d="M61.90217,71.0886v18.10112" fill="none" stroke="#ad6c4e" stroke-width="6" stroke-linecap="round"/><path d="M56.58988,26.62279v-2.55776v17.51087" fill="none" stroke="#ad6c4e" stroke-width="6" stroke-linecap="round"/></g><g fill="#ab5c37" stroke="none" stroke-linecap="butt"><path d="M19.10758,63.61202v-7.47656h24.98742v7.47656z" stroke-width="NaN"/><path d="M18.91083,63.61202c-2.06459,0 -3.73826,-1.67368 -3.73826,-3.73828c0,-2.06459 1.67367,-3.73828 3.73826,-3.73828c2.06459,0 3.73828,1.67368 3.73828,3.73828c0,2.06459 -1.67368,3.73828 -3.73828,3.73828z" stroke-width="0"/></g><g fill="#ab5c37" stroke="none" stroke-linecap="butt"><path d="M22.74748,59.57863h-7.47656v-24.98742h7.47656z" stroke-width="NaN"/><path d="M22.7475,59.77537c0,2.06459 -1.6737,3.73828 -3.7383,3.73828c-2.06459,0 -3.73828,-1.67368 -3.73828,-3.73828c0,-2.06459 1.67368,-3.73828 3.73828,-3.73828c2.06459,0 3.7383,1.67368 3.7383,3.73828z" stroke-width="0"/></g><path d="M41.66013,30.36106v-6.09928h27.74195v6.09928z" fill="#86482b" stroke="none" stroke-width="NaN" stroke-linecap="butt"/><path d="M15.29544,46.49465v-6.09928h7.2798v6.09928z" fill="#86482b" stroke="none" stroke-width="NaN" stroke-linecap="butt"/></g><g stroke="none" stroke-width="0" stroke-linecap="butt"><path d="M99.26847,16.56242c0,5.57782 -4.81368,9.37052 -9.49399,9.37052c-10.04481,0 -48.62891,0 -66.84751,0c-5.87461,0 -9.63171,-3.72686 -9.63171,-9.22294c0,-12.82278 0,-35.2759 0,-42.49828c0,-4.406 3.75762,-9.43122 9.63171,-9.43122c18.17837,0 56.6265,0 66.70853,0c4.73868,0 9.63297,4.93451 9.63297,9.28366c0,7.17564 0,29.60562 0,42.49828z" fill="url(#color-15)"/><path d="M22.10642,25.59981c-2.6535,2.53149 -6.85677,2.4326 -9.38828,-0.2209c-2.53149,-2.6535 -2.4326,-6.85678 0.2209,-9.38829c2.6535,-2.53149 6.85678,-2.4326 9.38829,0.22091c2.53151,2.6535 2.4326,6.85678 -0.22091,9.38828z" fill="url(#color-16)"/><path d="M18.22797,17.53069c-1.94591,1.85645 -5.0283,1.78391 -6.88475,-0.16201c-1.85643,-1.94592 -1.78391,-5.02829 0.16201,-6.88473c1.94591,-1.85645 5.0283,-1.78391 6.88475,0.16199c1.85643,1.94592 1.78391,5.0283 -0.16201,6.88475z" fill="url(#color-17)"/><path d="M97.51195,27.95212c-2.97467,0.49437 -5.78695,-1.51627 -6.28134,-4.49094c-0.49439,-2.97468 1.5163,-5.78695 4.49096,-6.28133c2.97467,-0.49438 5.78693,1.51628 6.28133,4.49095c0.49439,2.97468 -1.51628,5.78695 -4.49096,6.28133z" fill="url(#color-18)"/><path d="M100.98001,20.80595c-2.20635,1.67628 -5.35384,1.24657 -7.03012,-0.95978c-1.67628,-2.20635 -1.24657,-5.35384 0.95977,-7.03012c2.20635,-1.67628 5.35384,-1.24655 7.03012,0.9598c1.67628,2.20636 1.24657,5.35382 -0.95977,7.03011z" fill="url(#color-19)"/><path d="M92.79083,22.03941c1.67628,2.20636 1.24659,5.35382 -0.95977,7.03011c-2.20635,1.67628 -5.35384,1.24657 -7.03012,-0.95979c-1.67628,-2.20636 -1.24657,-5.35384 0.95977,-7.03012c2.20635,-1.67628 5.35382,-1.24658 7.03011,0.95978z" fill="url(#color-20)"/><path d="M84.56586,6.55523c-1.75215,1.33119 -4.25163,0.98995 -5.5828,-0.76219c-1.33117,-1.75215 -0.98995,-4.25163 0.76219,-5.5828c1.75215,-1.33119 4.25163,-0.98995 5.58282,0.76219c1.33117,1.75215 0.98994,4.25163 -0.76219,5.5828z" fill="url(#color-21)"/><path d="M70.19668,18.57932c-2.19907,0.07806 -4.04504,-1.64135 -4.1231,-3.84041c-0.07806,-2.19907 1.64135,-4.04505 3.84042,-4.1231c2.19907,-0.07806 4.04502,1.64135 4.1231,3.84042c0.07806,2.19907 -1.64135,4.04502 -3.84042,4.1231z" fill="url(#color-22)"/><path d="M42.71018,4.06966c-1.84634,1.19711 -4.31353,0.67077 -5.51061,-1.17555c-1.19711,-1.84632 -0.67079,-4.31351 1.17555,-5.51059c1.84634,-1.19711 4.31353,-0.67079 5.51061,1.17555c1.19711,1.84634 0.67079,4.31351 -1.17555,5.51061z" fill="url(#color-23)"/><path d="M61.40609,-8.86546c-1.95571,0.0315 -3.56664,-1.52838 -3.59812,-3.48409c-0.0315,-1.95571 1.5284,-3.56664 3.48411,-3.59812c1.95571,-0.0315 3.56664,1.5284 3.59812,3.48411c0.0315,1.95571 -1.5284,3.56664 -3.48411,3.59812z" fill="url(#color-24)"/><path d="M36.02237,17.30255c-2.2274,1.00789 -4.85011,0.01932 -5.85802,-2.20808c-1.00789,-2.2274 -0.01931,-4.85012 2.20808,-5.85801c2.2274,-1.00789 4.85013,-0.01932 5.85802,2.20808c1.00789,2.2274 0.01931,4.85013 -2.20808,5.85801z" fill="url(#color-25)"/></g><path d="M39.4652,37.14097c0,2.65318 -2.28972,4.45725 -4.51599,4.45725c-4.77799,0 -23.13121,0 -31.7972,0c-2.79437,0 -4.58151,-1.77273 -4.58151,-4.38704c0,-6.0994 0,-16.77961 0,-20.21506c0,-2.0958 1.78738,-4.48614 4.58151,-4.48614c8.64687,0 26.93541,0 31.73112,0c2.25404,0 4.58209,2.3472 4.58209,4.41594c0,3.41323 0,14.08246 0,20.21508z" fill="url(#color-26)" stroke="none" stroke-width="0" stroke-linecap="butt"/><path d="M13.54724,21.35926c1.07393,1.63476 0.61933,3.83058 -1.01543,4.90453c-1.63477,1.07395 -3.83058,0.61931 -4.90454,-1.01545c-1.07393,-1.63476 -0.61931,-3.83059 1.01545,-4.90454c1.63477,-1.07395 3.83058,-0.6193 4.90452,1.01545z" fill="url(#color-27)" stroke="none" stroke-width="0" stroke-linecap="butt"/><path d="M24.3231,28.43939c-1.53236,-1.21558 -1.78913,-3.44324 -0.57355,-4.9756c1.21558,-1.53234 3.44325,-1.78913 4.9756,-0.57354c1.53235,1.21558 1.78913,3.44324 0.57355,4.9756c-1.21558,1.53235 -3.44326,1.78913 -4.9756,0.57355z" fill="url(#color-28)" stroke="none" stroke-width="0" stroke-linecap="butt"/></g><g stroke="none" stroke-width="0" stroke-linecap="butt"><path d="M452.38022,95.58779c4.89549,-8.03661 19.28589,-31.66046 22.48545,-36.91296c1.22716,-2.01457 2.42431,-2.97735 2.42431,-1.79093c0,5.15916 0,41.3903 0,41.3903c0,0 -20.43523,0 -24.24306,0c-1.17365,0 -1.69392,-1.00004 -0.6667,-2.6864z" fill="#e6e6e6"/><path d="M501.16486,98.47318c-3.80784,0 -24.24307,0 -24.24307,0c0,0 0,-36.23115 0,-41.39029c0,-1.18644 1.19714,-0.22364 2.42431,1.79093c3.19955,5.2525 17.58997,28.87636 22.48545,36.91297c1.02724,1.68634 0.50696,2.68639 -0.6667,2.68639z" data-paper-data="{&quot;index&quot;:null}" fill="#d9d9d9"/><g><g><path d="M452.38022,95.58779c4.89549,-8.03661 19.28589,-31.66046 22.48545,-36.91296c1.22716,-2.01457 2.42431,-2.97735 2.42431,-1.79093c0,5.15916 0,41.3903 0,41.3903c0,0 -20.43523,0 -24.24306,0c-1.17365,0 -1.69392,-1.00004 -0.6667,-2.6864z" fill="#cc0000"/><path d="M501.16488,98.47318c-3.80784,0 -24.24307,0 -24.24307,0c0,0 0,-36.23115 0,-41.39029c0,-1.18644 1.19714,-0.22364 2.42431,1.79093c3.19955,5.2525 17.58997,28.87636 22.48545,36.91297c1.02724,1.68634 0.50696,2.68639 -0.6667,2.68639z" data-paper-data="{&quot;index&quot;:null}" fill="#a60000"/></g><path d="M460.1015,98.15353l-6.73625,-4.38482l2.57455,-4.11769l11.94092,8.64745z" fill="#ffffff"/></g></g><g stroke="none" stroke-width="0" stroke-linecap="butt"><path d="M332.38021,95.58779c4.89549,-8.03661 19.2859,-31.66046 22.48545,-36.91296c1.22716,-2.01457 2.42431,-2.97735 2.42431,-1.79093c0,5.15916 0,41.3903 0,41.3903c0,0 -20.43523,0 -24.24306,0c-1.17365,0 -1.69392,-1.00004 -0.6667,-2.6864z" fill="#e6e6e6"/><path d="M381.16486,98.47318c-3.80784,0 -24.24307,0 -24.24307,0c0,0 0,-36.23115 0,-41.39029c0,-1.18644 1.19714,-0.22364 2.42431,1.79093c3.19956,5.2525 17.58997,28.87636 22.48545,36.91297c1.02724,1.68634 0.50696,2.68639 -0.6667,2.68639z" data-paper-data="{&quot;index&quot;:null}" fill="#d9d9d9"/><g><g><path d="M332.38021,95.58779c4.89549,-8.03661 19.2859,-31.66046 22.48545,-36.91296c1.22716,-2.01457 2.42431,-2.97735 2.42431,-1.79093c0,5.15916 0,41.3903 0,41.3903c0,0 -20.43523,0 -24.24306,0c-1.17365,0 -1.69392,-1.00004 -0.6667,-2.6864z" fill="#cc0000"/><path d="M381.16487,98.47318c-3.80783,0 -24.24307,0 -24.24307,0c0,0 0,-36.23115 0,-41.39029c0,-1.18644 1.19714,-0.22364 2.42432,1.79093c3.19955,5.2525 17.58996,28.87636 22.48545,36.91297c1.02724,1.68634 0.50696,2.68639 -0.6667,2.68639z" data-paper-data="{&quot;index&quot;:null}" fill="#a60000"/></g><path d="M340.1015,98.15353l-6.73626,-4.38482l2.57455,-4.11769l11.94092,8.64745z" fill="#ffffff"/></g></g><g stroke="none" stroke-width="0" stroke-linecap="butt"><path d="M202.38021,95.58779c4.89549,-8.03661 19.2859,-31.66046 22.48545,-36.91297c1.22716,-2.01457 2.42431,-2.97736 2.42431,-1.79093c0,5.15916 0,41.39029 0,41.39029c0,0 -20.43523,0 -24.24307,0c-1.17365,0 -1.69392,-1.00003 -0.6667,-2.68639z" fill="#e6e6e6"/><path d="M251.16486,98.47318c-3.80784,0 -24.24307,0 -24.24307,0c0,0 0,-36.23115 0,-41.39029c0,-1.18644 1.19713,-0.22363 2.42431,1.79093c3.19955,5.2525 17.58996,28.87636 22.48545,36.91297c1.02724,1.68634 0.50696,2.68639 -0.6667,2.68639z" data-paper-data="{&quot;index&quot;:null}" fill="#d9d9d9"/><g><g><path d="M202.38021,95.58779c4.89549,-8.03661 19.2859,-31.66046 22.48545,-36.91297c1.22716,-2.01457 2.42431,-2.97736 2.42431,-1.79093c0,5.15916 0,41.39029 0,41.39029c0,0 -20.43523,0 -24.24307,0c-1.17365,0 -1.69392,-1.00003 -0.6667,-2.68639z" fill="#cc0000"/><path d="M251.16488,98.47318c-3.80784,0 -24.24307,0 -24.24307,0c0,0 0,-36.23115 0,-41.39029c0,-1.18644 1.19713,-0.22363 2.42431,1.79093c3.19955,5.2525 17.58996,28.87636 22.48545,36.91297c1.02724,1.68634 0.50696,2.68639 -0.6667,2.68639z" data-paper-data="{&quot;index&quot;:null}" fill="#a60000"/></g><path d="M210.1015,98.15353l-6.73625,-4.38482l2.57455,-4.11769l11.94092,8.64744z" fill="#ffffff"/></g></g><g stroke="none" stroke-width="0" stroke-linecap="butt"><path d="M0.71874,175.70245c-10.19855,-6.21243 -40.17749,-24.47402 -46.84299,-28.53428c-2.55651,-1.55729 -3.7783,-3.07647 -2.2727,-3.07647c6.54702,0 52.52475,0 52.52475,0c0,0 0,25.93255 0,30.76473c0,1.48938 -1.26907,2.14959 -3.40906,0.84603z" fill="#e6e6e6"/><path d="M4.38033,113.79416c0,4.83217 0,30.76473 0,30.76473c0,0 -45.97774,0 -52.52475,0c-1.50561,0 -0.28381,-1.51918 2.2727,-3.07647c6.6655,-4.06028 36.64444,-22.32185 46.84299,-28.53428c2.13999,-1.30358 3.40906,-0.64335 3.40906,0.84603z" data-paper-data="{&quot;index&quot;:null}" fill="#d9d9d9"/><g><g><path d="M0.71874,175.70244c-10.19855,-6.21243 -40.17749,-24.47402 -46.84299,-28.53428c-2.55651,-1.55729 -3.7783,-3.07648 -2.2727,-3.07648c6.54702,0 52.52475,0 52.52475,0c0,0 0,25.93255 0,30.76473c0,1.48938 -1.26907,2.1496 -3.40906,0.84604z" fill="#cc0000"/><path d="M4.38033,113.79415c0,4.83217 0,30.76473 0,30.76473c0,0 -45.97774,0 -52.52475,0c-1.50561,0 -0.28381,-1.51918 2.2727,-3.07647c6.6655,-4.06028 36.64444,-22.32185 46.84299,-28.53428c2.13999,-1.30358 3.40906,-0.64335 3.40906,0.84603z" data-paper-data="{&quot;index&quot;:null}" fill="#a60000"/></g><path d="M3.97469,165.90403l-5.56438,8.54838l-5.22539,-3.26715l10.97369,-15.15315z" fill="#ffffff"/></g></g><path d="M1.5,270.50751v-166h477v166z" fill="#ffffff" stroke="none" stroke-width="0" stroke-linecap="butt"/><path d="M-0.57414,272.00751v-127h482v127z" fill="#4eaad2" stroke="none" stroke-width="0" stroke-linecap="butt"/><path d="M481.37031,103.00751v59h-461.94444v-59z" fill="#5ecfff" stroke="none" stroke-width="0" stroke-linecap="butt"/><path d="M53.34966,119.90751c0,11.95934 0,24.21448 0,30.83334c0,4.95926 -4.77905,11 -11.5,11c-7.54753,0 -42.41517,0 -42.41517,0l-0.43337,-53.50001c0,0 38.91264,0 42.18187,0c5.44652,0 12.16667,4.90772 12.16667,11.66666z" fill="#9ce1ff" stroke="none" stroke-width="0" stroke-linecap="butt"/><path d="M479.69847,103.00815h1.68348h-482.80781h2.62674" fill="none" stroke="#ffffff" stroke-width="12" stroke-linecap="round"/><path d="M272.81476,120.10288c0,10.35672 0,20.96962 0,26.70151c0,4.2947 -4.13863,9.52594 -9.95894,9.52594c-11.11946,0 -49.59366,0 -55.85668,0c-4.50871,0 -11.40227,-4.24585 -11.69093,-10.68061c-0.19829,-4.42017 -0.11643,-16.51255 0,-24.39219c0.07546,-5.10689 6.31612,-11.25793 12.55693,-11.25793c11.62281,0 50.20867,0 54.41335,0c4.71666,0 10.53628,4.25007 10.53628,10.10327z" fill="#79d7ff" stroke="none" stroke-width="0" stroke-linecap="butt"/><path d="M151.68863,180.65843c0,10.35672 0,20.96962 0,26.70152c0,4.2947 -4.13864,9.52594 -9.95895,9.52594c-11.11946,0 -49.59365,0 -55.85667,0c-4.50871,0 -11.40226,-4.24584 -11.69093,-10.68061c-0.19829,-4.42017 -0.11643,-16.51254 0,-24.39219c0.07546,-5.10689 6.31612,-11.25793 12.55693,-11.25793c11.62282,0 50.20867,0 54.41335,0c4.71666,0 10.53627,4.25006 10.53627,10.10327z" fill="#4597ba" stroke="none" stroke-width="0" stroke-linecap="butt"/><path d="M324.85679,226.19897c0,10.35672 0,20.96962 0,26.70152c0,4.2947 -4.13864,9.52594 -9.95895,9.52594c-11.11946,0 -49.59366,0 -55.85667,0c-4.50871,0 -11.40226,-4.24585 -11.69093,-10.68061c-0.19829,-4.42017 -0.11643,-16.51254 0,-24.39219c0.07546,-5.10689 6.31612,-11.25794 12.55693,-11.25794c11.62282,0 50.20867,0 54.41335,0c4.71666,0 10.53627,4.25006 10.53627,10.10327z" fill="#479cc0" stroke="none" stroke-width="0" stroke-linecap="butt"/></g></g></svg>