<svg version="1.1" xmlns="http://www.w3.org/2000/svg" xmlns:xlink="http://www.w3.org/1999/xlink" width="521.12796" height="442.22701" viewBox="0,0,521.12796,442.22701"><defs><linearGradient x1="331.29872" y1="-17.9586" x2="334.29096" y2="25.3026" gradientUnits="userSpaceOnUse" id="color-1"><stop offset="0" stop-color="#86f5bf"/><stop offset="1" stop-color="#5bc8f5"/></linearGradient><linearGradient x1="360.4491" y1="46.36683" x2="356.34258" y2="52.38793" gradientUnits="userSpaceOnUse" id="color-2"><stop offset="0" stop-color="#6bc399"/><stop offset="1" stop-color="#55b6e6"/></linearGradient><linearGradient x1="360.09243" y1="43.77016" x2="357.08097" y2="48.18563" gradientUnits="userSpaceOnUse" id="color-3"><stop offset="0" stop-color="#6bc399"/><stop offset="1" stop-color="#55b6e6"/></linearGradient><linearGradient x1="316.43661" y1="39.13224" x2="316.06989" y2="46.60122" gradientUnits="userSpaceOnUse" id="color-4"><stop offset="0" stop-color="#6bc399"/><stop offset="1" stop-color="#55b6e6"/></linearGradient><linearGradient x1="318.29519" y1="37.82337" x2="315.6556" y2="42.96134" gradientUnits="userSpaceOnUse" id="color-5"><stop offset="0" stop-color="#6bc399"/><stop offset="1" stop-color="#55b6e6"/></linearGradient><linearGradient x1="323.26703" y1="44.44446" x2="320.62744" y2="49.58242" gradientUnits="userSpaceOnUse" id="color-6"><stop offset="0" stop-color="#6bc399"/><stop offset="1" stop-color="#55b6e6"/></linearGradient><linearGradient x1="324.85053" y1="30.96615" x2="322.75437" y2="35.04637" gradientUnits="userSpaceOnUse" id="color-7"><stop offset="0" stop-color="#6bc399"/><stop offset="1" stop-color="#55b6e6"/></linearGradient><linearGradient x1="328.54834" y1="38.03876" x2="328.7969" y2="43.64844" gradientUnits="userSpaceOnUse" id="color-8"><stop offset="0" stop-color="#6bc399"/><stop offset="1" stop-color="#55b6e6"/></linearGradient><linearGradient x1="345.17575" y1="32.26454" x2="343.33865" y2="36.62724" gradientUnits="userSpaceOnUse" id="color-9"><stop offset="0" stop-color="#6bc399"/><stop offset="1" stop-color="#55b6e6"/></linearGradient><linearGradient x1="331.52284" y1="20.42415" x2="331.81246" y2="25.42468" gradientUnits="userSpaceOnUse" id="color-10"><stop offset="0" stop-color="#6bc399"/><stop offset="1" stop-color="#55b6e6"/></linearGradient><linearGradient x1="348.45214" y1="40.39982" x2="347.02461" y2="45.79678" gradientUnits="userSpaceOnUse" id="color-11"><stop offset="0" stop-color="#6bc399"/><stop offset="1" stop-color="#55b6e6"/></linearGradient><linearGradient x1="353.28369" y1="34.08628" x2="354.707" y2="54.66423" gradientUnits="userSpaceOnUse" id="color-12"><stop offset="0" stop-color="#86f5bf"/><stop offset="1" stop-color="#5bc8f5"/></linearGradient><linearGradient x1="362.84938" y1="60.16699" x2="359.70362" y2="56.91415" gradientUnits="userSpaceOnUse" id="color-13"><stop offset="0" stop-color="#6bc399"/><stop offset="1" stop-color="#55b6e6"/></linearGradient><linearGradient x1="348.08351" y1="51.17345" x2="350.55271" y2="55.47207" gradientUnits="userSpaceOnUse" id="color-14"><stop offset="0" stop-color="#6bc399"/><stop offset="1" stop-color="#55b6e6"/></linearGradient><linearGradient x1="351.75723" y1="-91.32378" x2="330.71898" y2="-23.35934" gradientUnits="userSpaceOnUse" id="color-15"><stop offset="0" stop-color="#86f5bf"/><stop offset="1" stop-color="#5bc8f5"/></linearGradient><linearGradient x1="378.18075" y1="20.2928" x2="364.68633" y2="27.81853" gradientUnits="userSpaceOnUse" id="color-16"><stop offset="0" stop-color="#6bc399"/><stop offset="1" stop-color="#55b6e6"/></linearGradient><linearGradient x1="379.02988" y1="16.13767" x2="369.13396" y2="21.65654" gradientUnits="userSpaceOnUse" id="color-17"><stop offset="0" stop-color="#6bc399"/><stop offset="1" stop-color="#55b6e6"/></linearGradient><linearGradient x1="280.04868" y1="-9.67425" x2="274.35287" y2="1.68207" gradientUnits="userSpaceOnUse" id="color-18"><stop offset="0" stop-color="#6bc399"/><stop offset="1" stop-color="#55b6e6"/></linearGradient><linearGradient x1="285.23859" y1="-10.89728" x2="275.74327" y2="-4.10575" gradientUnits="userSpaceOnUse" id="color-19"><stop offset="0" stop-color="#6bc399"/><stop offset="1" stop-color="#55b6e6"/></linearGradient><linearGradient x1="292.56374" y1="1.43429" x2="283.06845" y2="8.22582" gradientUnits="userSpaceOnUse" id="color-20"><stop offset="0" stop-color="#6bc399"/><stop offset="1" stop-color="#55b6e6"/></linearGradient><linearGradient x1="304.99548" y1="-18.66499" x2="297.45502" y2="-13.27162" gradientUnits="userSpaceOnUse" id="color-21"><stop offset="0" stop-color="#6bc399"/><stop offset="1" stop-color="#55b6e6"/></linearGradient><linearGradient x1="309.05183" y1="-6.18206" x2="305.998" y2="2.57127" gradientUnits="userSpaceOnUse" id="color-22"><stop offset="0" stop-color="#6bc399"/><stop offset="1" stop-color="#55b6e6"/></linearGradient><linearGradient x1="351.6368" y1="-7.97459" x2="344.51856" y2="-2.03504" gradientUnits="userSpaceOnUse" id="color-23"><stop offset="0" stop-color="#6bc399"/><stop offset="1" stop-color="#55b6e6"/></linearGradient><linearGradient x1="327.41301" y1="-32.06262" x2="324.84981" y2="-24.23072" gradientUnits="userSpaceOnUse" id="color-24"><stop offset="0" stop-color="#6bc399"/><stop offset="1" stop-color="#55b6e6"/></linearGradient><linearGradient x1="354.02011" y1="5.96624" x2="347.18861" y2="13.67516" gradientUnits="userSpaceOnUse" id="color-25"><stop offset="0" stop-color="#6bc399"/><stop offset="1" stop-color="#55b6e6"/></linearGradient><linearGradient x1="369.39781" y1="-1.70033" x2="359.39059" y2="30.62814" gradientUnits="userSpaceOnUse" id="color-26"><stop offset="0" stop-color="#86f5bf"/><stop offset="1" stop-color="#5bc8f5"/></linearGradient><linearGradient x1="374.84713" y1="42.59126" x2="369.60569" y2="36.23234" gradientUnits="userSpaceOnUse" id="color-27"><stop offset="0" stop-color="#6bc399"/><stop offset="1" stop-color="#55b6e6"/></linearGradient><linearGradient x1="346.17884" y1="22.41572" x2="349.16218" y2="30.09744" gradientUnits="userSpaceOnUse" id="color-28"><stop offset="0" stop-color="#6bc399"/><stop offset="1" stop-color="#55b6e6"/></linearGradient><linearGradient x1="176.9704" y1="-253.85928" x2="176.9704" y2="-128.39966" gradientUnits="userSpaceOnUse" id="color-29"><stop offset="0" stop-color="#86f5bf"/><stop offset="1" stop-color="#5bc8f5"/></linearGradient><linearGradient x1="74.25654" y1="-79.61441" x2="93.0642" y2="-59.90035" gradientUnits="userSpaceOnUse" id="color-30"><stop offset="0" stop-color="#6bc399"/><stop offset="1" stop-color="#55b6e6"/></linearGradient><linearGradient x1="74.99281" y1="-87.05671" x2="88.78517" y2="-72.59971" gradientUnits="userSpaceOnUse" id="color-31"><stop offset="0" stop-color="#6bc399"/><stop offset="1" stop-color="#55b6e6"/></linearGradient><linearGradient x1="255.19084" y1="-78.92458" x2="258.86397" y2="-56.82424" gradientUnits="userSpaceOnUse" id="color-32"><stop offset="0" stop-color="#6bc399"/><stop offset="1" stop-color="#55b6e6"/></linearGradient><linearGradient x1="247.08592" y1="-83.69108" x2="259.53981" y2="-67.29913" gradientUnits="userSpaceOnUse" id="color-33"><stop offset="0" stop-color="#6bc399"/><stop offset="1" stop-color="#55b6e6"/></linearGradient><linearGradient x1="228.31609" y1="-66.73767" x2="240.76993" y2="-50.34572" gradientUnits="userSpaceOnUse" id="color-34"><stop offset="0" stop-color="#6bc399"/><stop offset="1" stop-color="#55b6e6"/></linearGradient><linearGradient x1="217.85499" y1="-107.07835" x2="227.74485" y2="-94.061" gradientUnits="userSpaceOnUse" id="color-35"><stop offset="0" stop-color="#6bc399"/><stop offset="1" stop-color="#55b6e6"/></linearGradient><linearGradient x1="204.51268" y1="-88.16544" x2="205.09261" y2="-71.82763" gradientUnits="userSpaceOnUse" id="color-36"><stop offset="0" stop-color="#6bc399"/><stop offset="1" stop-color="#55b6e6"/></linearGradient><linearGradient x1="133.71102" y1="-113.39087" x2="142.60484" y2="-99.67363" gradientUnits="userSpaceOnUse" id="color-37"><stop offset="0" stop-color="#6bc399"/><stop offset="1" stop-color="#55b6e6"/></linearGradient><linearGradient x1="187.07777" y1="-141.33684" x2="187.31166" y2="-126.80706" gradientUnits="userSpaceOnUse" id="color-38"><stop offset="0" stop-color="#6bc399"/><stop offset="1" stop-color="#55b6e6"/></linearGradient><linearGradient x1="122.42681" y1="-91.14967" x2="129.91499" y2="-74.60137" gradientUnits="userSpaceOnUse" id="color-39"><stop offset="0" stop-color="#6bc399"/><stop offset="1" stop-color="#55b6e6"/></linearGradient><linearGradient x1="100.52009" y1="-112.08303" x2="100.52009" y2="-52.40596" gradientUnits="userSpaceOnUse" id="color-40"><stop offset="0" stop-color="#86f5bf"/><stop offset="1" stop-color="#5bc8f5"/></linearGradient><linearGradient x1="68.24469" y1="-40.31331" x2="80.38999" y2="-48.29207" gradientUnits="userSpaceOnUse" id="color-41"><stop offset="0" stop-color="#6bc399"/><stop offset="1" stop-color="#55b6e6"/></linearGradient><linearGradient x1="127.05825" y1="-59.35093" x2="118.02703" y2="-47.96638" gradientUnits="userSpaceOnUse" id="color-42"><stop offset="0" stop-color="#6bc399"/><stop offset="1" stop-color="#55b6e6"/></linearGradient><linearGradient x1="57.13674" y1="-174.60994" x2="57.13674" y2="-76.52432" gradientUnits="userSpaceOnUse" id="color-43"><stop offset="0" stop-color="#86f5bf"/><stop offset="1" stop-color="#5bc8f5"/></linearGradient><linearGradient x1="-23.166" y1="-38.38351" x2="-8.46196" y2="-22.97085" gradientUnits="userSpaceOnUse" id="color-44"><stop offset="0" stop-color="#6bc399"/><stop offset="1" stop-color="#55b6e6"/></linearGradient><linearGradient x1="-22.59036" y1="-44.20197" x2="-11.80736" y2="-32.89934" gradientUnits="userSpaceOnUse" id="color-45"><stop offset="0" stop-color="#6bc399"/><stop offset="1" stop-color="#55b6e6"/></linearGradient><linearGradient x1="118.29029" y1="-37.84419" x2="121.16198" y2="-20.56592" gradientUnits="userSpaceOnUse" id="color-46"><stop offset="0" stop-color="#6bc399"/><stop offset="1" stop-color="#55b6e6"/></linearGradient><linearGradient x1="111.95379" y1="-41.57069" x2="121.69039" y2="-28.75529" gradientUnits="userSpaceOnUse" id="color-47"><stop offset="0" stop-color="#6bc399"/><stop offset="1" stop-color="#55b6e6"/></linearGradient><linearGradient x1="97.27934" y1="-28.31634" x2="107.0159" y2="-15.50094" gradientUnits="userSpaceOnUse" id="color-48"><stop offset="0" stop-color="#6bc399"/><stop offset="1" stop-color="#55b6e6"/></linearGradient><linearGradient x1="89.10075" y1="-59.8551" x2="96.83276" y2="-49.678" gradientUnits="userSpaceOnUse" id="color-49"><stop offset="0" stop-color="#6bc399"/><stop offset="1" stop-color="#55b6e6"/></linearGradient><linearGradient x1="78.6696" y1="-45.06879" x2="79.12296" y2="-32.29572" gradientUnits="userSpaceOnUse" id="color-50"><stop offset="0" stop-color="#6bc399"/><stop offset="1" stop-color="#55b6e6"/></linearGradient><linearGradient x1="23.31615" y1="-64.79029" x2="30.26943" y2="-54.06601" gradientUnits="userSpaceOnUse" id="color-51"><stop offset="0" stop-color="#6bc399"/><stop offset="1" stop-color="#55b6e6"/></linearGradient><linearGradient x1="65.03879" y1="-86.63874" x2="65.22168" y2="-75.27921" gradientUnits="userSpaceOnUse" id="color-52"><stop offset="0" stop-color="#6bc399"/><stop offset="1" stop-color="#55b6e6"/></linearGradient><linearGradient x1="14.49401" y1="-47.40189" x2="20.34834" y2="-34.46426" gradientUnits="userSpaceOnUse" id="color-53"><stop offset="0" stop-color="#6bc399"/><stop offset="1" stop-color="#55b6e6"/></linearGradient><linearGradient x1="-2.6329" y1="-63.76781" x2="-2.6329" y2="-17.11166" gradientUnits="userSpaceOnUse" id="color-54"><stop offset="0" stop-color="#86f5bf"/><stop offset="1" stop-color="#5bc8f5"/></linearGradient><linearGradient x1="-27.86612" y1="-7.6575" x2="-18.3708" y2="-13.89538" gradientUnits="userSpaceOnUse" id="color-55"><stop offset="0" stop-color="#6bc399"/><stop offset="1" stop-color="#55b6e6"/></linearGradient><linearGradient x1="18.11493" y1="-22.54131" x2="11.05423" y2="-13.64075" gradientUnits="userSpaceOnUse" id="color-56"><stop offset="0" stop-color="#6bc399"/><stop offset="1" stop-color="#55b6e6"/></linearGradient><linearGradient x1="115.87956" y1="-92.65027" x2="115.87956" y2="-21.50414" gradientUnits="userSpaceOnUse" id="color-57"><stop offset="0" stop-color="#86f5bf"/><stop offset="1" stop-color="#5bc8f5"/></linearGradient><linearGradient x1="174.12693" y1="6.16119" x2="163.4614" y2="17.34072" gradientUnits="userSpaceOnUse" id="color-58"><stop offset="0" stop-color="#6bc399"/><stop offset="1" stop-color="#55b6e6"/></linearGradient><linearGradient x1="173.7094" y1="1.94079" x2="165.88798" y2="10.13912" gradientUnits="userSpaceOnUse" id="color-59"><stop offset="0" stop-color="#6bc399"/><stop offset="1" stop-color="#55b6e6"/></linearGradient><linearGradient x1="71.522" y1="6.55238" x2="69.43904" y2="19.08513" gradientUnits="userSpaceOnUse" id="color-60"><stop offset="0" stop-color="#6bc399"/><stop offset="1" stop-color="#55b6e6"/></linearGradient><linearGradient x1="76.11817" y1="3.84938" x2="69.05579" y2="13.14499" gradientUnits="userSpaceOnUse" id="color-61"><stop offset="0" stop-color="#6bc399"/><stop offset="1" stop-color="#55b6e6"/></linearGradient><linearGradient x1="86.76225" y1="13.46338" x2="79.69987" y2="22.759" gradientUnits="userSpaceOnUse" id="color-62"><stop offset="0" stop-color="#6bc399"/><stop offset="1" stop-color="#55b6e6"/></linearGradient><linearGradient x1="92.69456" y1="-9.41317" x2="87.08619" y2="-2.03124" gradientUnits="userSpaceOnUse" id="color-63"><stop offset="0" stop-color="#6bc399"/><stop offset="1" stop-color="#55b6e6"/></linearGradient><linearGradient x1="100.26078" y1="1.31204" x2="99.93192" y2="10.57695" gradientUnits="userSpaceOnUse" id="color-64"><stop offset="0" stop-color="#6bc399"/><stop offset="1" stop-color="#55b6e6"/></linearGradient><linearGradient x1="140.41124" y1="-12.9929" x2="135.36771" y2="-5.21407" gradientUnits="userSpaceOnUse" id="color-65"><stop offset="0" stop-color="#6bc399"/><stop offset="1" stop-color="#55b6e6"/></linearGradient><linearGradient x1="110.14786" y1="-28.84061" x2="110.01519" y2="-20.601" gradientUnits="userSpaceOnUse" id="color-66"><stop offset="0" stop-color="#6bc399"/><stop offset="1" stop-color="#55b6e6"/></linearGradient><linearGradient x1="146.81035" y1="-0.38027" x2="142.56391" y2="9.00401" gradientUnits="userSpaceOnUse" id="color-67"><stop offset="0" stop-color="#6bc399"/><stop offset="1" stop-color="#55b6e6"/></linearGradient><linearGradient x1="159.2333" y1="-12.25124" x2="159.2333" y2="21.59067" gradientUnits="userSpaceOnUse" id="color-68"><stop offset="0" stop-color="#86f5bf"/><stop offset="1" stop-color="#5bc8f5"/></linearGradient><linearGradient x1="177.53619" y1="28.44822" x2="170.64878" y2="23.92359" gradientUnits="userSpaceOnUse" id="color-69"><stop offset="0" stop-color="#6bc399"/><stop offset="1" stop-color="#55b6e6"/></linearGradient><linearGradient x1="144.18397" y1="17.65229" x2="149.30539" y2="24.10828" gradientUnits="userSpaceOnUse" id="color-70"><stop offset="0" stop-color="#6bc399"/><stop offset="1" stop-color="#55b6e6"/></linearGradient></defs><g transform="translate(35.42948,170.2195)"><g data-paper-data="{&quot;isPaintingLayer&quot;:true}" fill-rule="nonzero" stroke-linejoin="miter" stroke-miterlimit="10" stroke-dasharray="" stroke-dashoffset="0" style="mix-blend-mode: normal"><path d="M420.0759,63.15v-21.75c0,0 6.48199,6.25 14,6.25c3.04684,0 10.37807,-4.72193 16.02102,-5.89924c8.66669,-1.80816 15.72898,-0.35076 15.72898,-0.35076v21.75c0,0 -6.6997,-3.27901 -13.55708,-2.07511c-6.66796,1.17064 -13.44414,6.82511 -17.19292,6.82511c-7.64572,0 -15,-4.75 -15,-4.75z" fill="#ff7e7e" stroke="none" stroke-width="0" stroke-linecap="butt"/><g stroke="none" stroke-width="0" stroke-linecap="butt"><g><path d="M219.29088,96.21656c4.10024,-6.73111 16.15301,-26.5174 18.83281,-30.91667c1.02782,-1.68731 2.03049,-2.4937 2.03049,-1.5c0,4.32108 0,34.66667 0,34.66667c0,0 -17.11565,0 -20.30492,0c-0.983,0 -1.41875,-0.83759 -0.55839,-2.25z" fill="#cc0000"/><path d="M260.15076,98.63323c-3.18927,0 -20.30492,0 -20.30492,0c0,0 0,-30.3456 0,-34.66667c0,-0.99371 1.00267,-0.18731 2.03049,1.5c2.67981,4.39927 14.73257,24.18556 18.83281,30.91667c0.86037,1.41241 0.42461,2.25 -0.55839,2.25z" data-paper-data="{&quot;index&quot;:null}" fill="#a60000"/></g><path d="M225.75791,98.36551l-5.64199,-3.67253l2.15634,-3.44879l10.00118,7.24271z" fill="#ffffff"/></g><g data-paper-data="{&quot;index&quot;:null}"><g><g><path d="M333.61791,109.3322l-3.98565,-57.62391l13.99715,2.37556l3.98565,57.6239z" fill="#b06041" stroke="none" stroke-width="0" stroke-linecap="butt"/><path d="M333.69156,109.3447l-3.98565,-57.62391l2.6521,0.45011l3.98565,57.6239z" fill="#ab5c37" stroke="none" stroke-width="0" stroke-linecap="butt"/><path d="M344.88932,111.24515l-3.98565,-57.62391l2.65209,0.4501l3.98565,57.6239z" fill="#ab5c37" stroke="none" stroke-width="0" stroke-linecap="butt"/><path d="M341.91236,82.95393l-0.8857,-12.8053" fill="none" stroke="#ad6c4e" stroke-width="6" stroke-linecap="round"/><path d="M336.5751,98.41707l-0.8857,-12.80531" fill="none" stroke="#ad6c4e" stroke-width="6" stroke-linecap="round"/><path d="M336.16575,54.60533l-0.12515,-1.80944l0.85682,12.38775" fill="none" stroke="#ad6c4e" stroke-width="6" stroke-linecap="round"/></g><g fill="#ab5c37" stroke="none" stroke-linecap="butt"><path d="M344.21358,81.83138l-0.36583,-5.28915l12.47466,2.11716l0.36583,5.28916z" stroke-width="NaN"/><path d="M354.73726,81.0039c-0.10102,-1.46056 0.65265,-2.50277 1.68337,-2.32784c1.03072,0.17493 1.94817,1.50076 2.04919,2.96132c0.10102,1.46056 -0.65264,2.50277 -1.68336,2.32784c-1.03072,-0.17493 -1.94818,-1.50076 -2.0492,-2.96132z" stroke-width="0"/></g><g fill="#ab5c37" stroke="none" stroke-linecap="butt"><path d="M353.45106,63.10988l3.73258,0.63348l1.22265,17.6769l-3.73258,-0.63348z" stroke-width="NaN"/><path d="M356.3667,78.59813c1.03072,0.17493 1.94818,1.50076 2.0492,2.96132c0.10102,1.46056 -0.65265,2.50277 -1.68337,2.32784c-1.03072,-0.17493 -1.94819,-1.50076 -2.04922,-2.96132c-0.10102,-1.46056 0.65266,-2.50276 1.68338,-2.32783z" stroke-width="0"/></g><path d="M329.95234,56.16434l-0.29844,-4.31483l13.84983,2.35055l0.29844,4.31482z" fill="#86482b" stroke="none" stroke-width="NaN" stroke-linecap="butt"/><path d="M354.11949,71.54535l-0.29844,-4.31482l3.63435,0.61681l0.29844,4.31482z" fill="#86482b" stroke="none" stroke-width="NaN" stroke-linecap="butt"/></g><g stroke="none" stroke-width="0" stroke-linecap="butt"><path d="M314.36672,43.8722c-0.63085,-9.12068 -1.72836,-24.98837 -2.07947,-30.06465c-0.21281,-3.07673 1.98916,-6.15287 4.35488,-5.75137c5.03333,0.85424 24.22808,4.11192 33.30341,5.65216c2.93257,0.49771 5.0544,4.37109 5.26999,7.48803c0.3534,5.10935 1.45204,20.9934 2.07947,30.06464c0.26893,3.8881 -1.4244,6.20627 -4.35723,5.70851c-9.09541,-1.54365 -28.35805,-4.81285 -33.3728,-5.66394c-2.33659,-0.39656 -4.92534,-3.48749 -5.19826,-7.43342z" fill="url(#color-1)"/><path d="M352.76147,50.14311c1.13399,-1.66269 3.22758,-1.3765 4.67618,0.63919c1.4486,2.0157 1.70364,4.99762 0.56966,6.66029c-1.13399,1.66268 -3.22758,1.3765 -4.67618,-0.63919c-1.4486,-2.0157 -1.70365,-4.99762 -0.56966,-6.66029z" fill="url(#color-2)"/><path d="M354.45482,46.53944c0.83159,-1.2193 2.36689,-1.00944 3.4292,0.46874c1.06231,1.47819 1.24934,3.66489 0.41776,4.88421c-0.83159,1.21931 -2.36689,1.00945 -3.4292,-0.46873c-1.06231,-1.47819 -1.24934,-3.66491 -0.41775,-4.88422z" fill="url(#color-3)"/><path d="M315.80096,52.07845c-1.50926,-0.60178 -2.65067,-2.76163 -2.54941,-4.82413c0.10127,-2.06249 1.40687,-3.24661 2.91613,-2.64483c1.50925,0.60178 2.65067,2.76163 2.54941,4.82413c-0.10126,2.06249 -1.40688,3.2466 -2.91614,2.64482z" fill="url(#color-4)"/><path d="M313.7199,46.72918c-1.18351,-1.3728 -1.55204,-3.63583 -0.82314,-5.05464c0.7289,-1.41881 2.27922,-1.45613 3.46274,-0.08334c1.18351,1.37279 1.55205,3.63584 0.82314,5.05465c-0.7289,1.41881 -2.27922,1.45612 -3.46274,0.08332z" fill="url(#color-5)"/><path d="M317.86861,48.29561c0.7289,-1.41882 2.27922,-1.45612 3.46273,-0.08332c1.18351,1.3728 1.55205,3.63584 0.82314,5.05465c-0.7289,1.41882 -2.27922,1.45613 -3.46274,0.08333c-1.18352,-1.3728 -1.55205,-3.63583 -0.82314,-5.05465z" fill="url(#color-6)"/><path d="M321.21716,38.03851c-0.93986,-1.09017 -1.23252,-2.88729 -0.65368,-4.01403c0.57884,-1.12673 1.80998,-1.15636 2.74986,-0.06617c0.93987,1.09017 1.23252,2.8873 0.65368,4.01403c-0.57884,1.12673 -1.80997,1.15636 -2.74985,0.06617z" fill="url(#color-7)"/><path d="M326.86012,44.52003c-0.06862,-1.54908 0.76881,-2.60904 1.87049,-2.36749c1.10168,0.24155 2.0504,1.69313 2.11903,3.24221c0.06863,1.54907 -0.76881,2.60903 -1.87049,2.36748c-1.10168,-0.24156 -2.0504,-1.69313 -2.11903,-3.2422z" fill="url(#color-8)"/><path d="M341.99149,39.82655c-0.98034,-1.00331 -1.36381,-2.79326 -0.85651,-3.99799c0.50729,-1.20473 1.71325,-1.36802 2.69358,-0.36471c0.98033,1.00329 1.36381,2.79325 0.85651,3.99797c-0.50729,1.20472 -1.71325,1.36802 -2.69358,0.36471z" fill="url(#color-9)"/><path d="M332.02484,29.09175c-0.97791,-0.18798 -1.83549,-1.45976 -1.91546,-2.84063c-0.07998,-1.38087 0.64793,-2.3479 1.62583,-2.15991c0.97791,0.18798 1.83549,1.45977 1.91546,2.84063c0.07998,1.38087 -0.64793,2.34788 -1.62584,2.15989z" fill="url(#color-10)"/><path d="M345.97778,49.75456c-1.16131,-0.90174 -1.78318,-2.8409 -1.38899,-4.33123c0.39419,-1.49033 1.65518,-1.96746 2.8165,-1.06572c1.16131,0.90174 1.78317,2.8409 1.38899,4.33123c-0.3942,1.49034 -1.65518,1.96747 -2.8165,1.06572z" fill="url(#color-11)"/></g><path d="M345.22968,63.4972c-0.30007,-4.33842 -0.82212,-11.88617 -0.98914,-14.3008c-0.10122,-1.46349 0.94618,-2.92672 2.07148,-2.73574c2.3942,0.40634 11.52452,1.95591 15.84137,2.68855c1.39493,0.23674 2.40422,2.07919 2.50677,3.56183c0.1681,2.43035 0.69069,9.98587 0.98914,14.30078c0.12792,1.84945 -0.67755,2.95211 -2.0726,2.71535c-4.32639,-0.73426 -13.48901,-2.28932 -15.87436,-2.69415c-1.11144,-0.18863 -2.34283,-1.65889 -2.47265,-3.53584z" fill="url(#color-12)" stroke="none" stroke-width="0" stroke-linecap="butt"/><path d="M359.79555,54.2259c0.86868,0.89826 1.2031,2.49019 0.74694,3.55567c-0.45617,1.06548 -1.53015,1.20106 -2.39884,0.3028c-0.86868,-0.89826 -1.20308,-2.49018 -0.74692,-3.55566c0.45616,-1.06548 1.53014,-1.20107 2.39883,-0.30281z" fill="url(#color-13)" stroke="none" stroke-width="0" stroke-linecap="butt"/><path d="M352.36343,58.6244c-0.70552,0.73011 -1.83023,0.3597 -2.51207,-0.82732c-0.68185,-1.18704 -0.66265,-2.7412 0.04288,-3.4713c0.70553,-0.73011 1.83022,-0.3597 2.51207,0.82732c0.68185,1.18704 0.66266,2.74119 -0.04287,3.4713z" fill="url(#color-14)" stroke="none" stroke-width="0" stroke-linecap="butt"/></g><g data-paper-data="{&quot;index&quot;:null}"><g><g><path d="M274.7047,105.8809l28.02294,-90.52861l31.1602,9.64557l-28.02293,90.52859z" fill="#b06041" stroke="none" stroke-width="0" stroke-linecap="butt"/><path d="M274.86868,105.93166l28.02294,-90.52861l5.90405,1.82759l-28.02293,90.52859z" fill="#ab5c37" stroke="none" stroke-width="0" stroke-linecap="butt"/><path d="M299.79686,113.64812l28.02294,-90.52861l5.90403,1.82758l-28.02293,90.52859z" fill="#ab5c37" stroke="none" stroke-width="0" stroke-linecap="butt"/><path d="M311.1719,68.7658l6.22731,-20.11745" fill="none" stroke="#ad6c4e" stroke-width="6" stroke-linecap="round"/><path d="M294.9122,70.20243l-6.22732,20.11747" fill="none" stroke="#ad6c4e" stroke-width="6" stroke-linecap="round"/><path d="M310.9695,39.22979l6.02425,-19.46146l-0.87994,2.84267" fill="none" stroke="#ad6c4e" stroke-width="6" stroke-linecap="round"/></g><g fill="#ab5c37" stroke="none" stroke-linecap="butt"><path d="M317.27515,68.01921l2.57216,-8.3094l27.77085,8.59641l-2.57216,8.3094z" stroke-width="NaN"/><path d="M342.39606,71.24253c0.71028,-2.29458 3.1462,-3.57891 5.44078,-2.86862c2.29458,0.71028 3.57888,3.1462 2.8686,5.44077c-0.71028,2.29458 -3.14618,3.57891 -5.44075,2.86862c-2.29458,-0.71028 -3.5789,-3.1462 -2.86862,-5.44077z" stroke-width="0"/></g><g fill="#ab5c37" stroke="none" stroke-linecap="butt"><path d="M350.98467,43.10984l8.30939,2.57215l-8.59641,27.77086l-8.30939,-2.57215z" stroke-width="NaN"/><path d="M347.76135,68.23073c2.29458,0.71028 3.5789,3.1462 2.86862,5.44077c-0.71028,2.29458 -3.1462,3.57891 -5.44078,2.86862c-2.29458,-0.71028 -3.57892,-3.14621 -2.86864,-5.44079c0.71028,-2.29458 3.14622,-3.57889 5.4408,-2.86861z" stroke-width="0"/></g><path d="M300.58835,22.35793l2.09833,-6.7787l30.83222,9.54405l-2.09833,6.7787z" fill="#86482b" stroke="none" stroke-width="NaN" stroke-linecap="butt"/><path d="M347.08095,56.3985l2.09833,-6.7787l8.09072,2.50446l-2.09833,6.7787z" fill="#86482b" stroke="none" stroke-width="NaN" stroke-linecap="butt"/></g><g stroke="none" stroke-width="0" stroke-linecap="butt"><path d="M272.14216,-3.25268c4.43546,-14.32882 12.15203,-39.25735 14.62066,-47.23231c1.49624,-4.83362 8.63333,-8.63402 13.89987,-7.00378c11.20511,3.46852 53.93611,16.69581 74.13943,22.9497c6.52843,2.02086 8.9758,8.89859 7.46001,13.79538c-2.48471,8.02691 -10.20925,32.98116 -14.62066,47.23231c-1.89081,6.1083 -7.34858,8.95776 -13.87758,6.93672c-20.24804,-6.26774 -63.13015,-19.5418 -74.29389,-22.99751c-5.20166,-1.61016 -9.24676,-7.48138 -7.32783,-13.68054z" fill="url(#color-15)"/><path d="M357.77477,22.82733c3.72639,-2.07819 8.43191,-0.74203 10.51008,2.98433c2.07818,3.72639 0.74203,8.43191 -2.98434,10.51008c-3.72639,2.07818 -8.43191,0.74203 -10.51008,-2.98433c-2.07818,-3.72638 -0.74205,-8.43191 2.98433,-10.51008z" fill="url(#color-16)"/><path d="M364.06545,17.99634c2.73269,-1.52399 6.18339,-0.54417 7.70739,2.18852c1.52401,2.73269 0.54418,6.18336 -2.1885,7.70738c-2.73269,1.52401 -6.18339,0.54419 -7.7074,-2.18851c-1.52401,-2.73269 -0.54417,-6.18338 2.18851,-7.7074z" fill="url(#color-17)"/><path d="M270.17598,10.01003c-3.13596,-1.57283 -4.40311,-5.39009 -2.83027,-8.52605c1.57285,-3.13594 5.3901,-4.40308 8.52605,-2.83025c3.13594,1.57282 4.4031,5.39009 2.83026,8.52605c-1.57284,3.13595 -5.3901,4.40306 -8.52606,2.83024z" fill="url(#color-18)"/><path d="M268.78006,0.87471c-1.87542,-2.62205 -1.27018,-6.26796 1.35188,-8.1434c2.62205,-1.87543 6.268,-1.2702 8.14343,1.35186c1.87542,2.62205 1.27017,6.26799 -1.35189,8.14342c-2.62205,1.87543 -6.26799,1.27018 -8.14342,-1.35187z" fill="url(#color-19)"/><path d="M277.45714,5.06286c2.62206,-1.87544 6.26798,-1.27019 8.14341,1.35187c1.87542,2.62205 1.27017,6.26798 -1.35189,8.14342c-2.62206,1.87544 -6.268,1.27019 -8.14343,-1.35187c-1.87544,-2.62206 -1.27018,-6.26797 1.35189,-8.14341z" fill="url(#color-20)"/><path d="M291.9253,-9.31652c-1.48934,-2.08223 -1.00868,-4.97753 1.07356,-6.4669c2.08226,-1.48936 4.97757,-1.00871 6.46692,1.07356c1.48936,2.08224 1.00868,4.97754 -1.07356,6.4669c-2.08224,1.48936 -4.97755,1.00872 -6.4669,-1.07355z" fill="url(#color-21)"/><path d="M300.90873,3.08682c0.84332,-2.41717 3.48642,-3.69305 5.9036,-2.84975c2.41718,0.8433 3.69305,3.48643 2.84975,5.90361c-0.8433,2.41717 -3.48642,3.69304 -5.90359,2.84974c-2.41717,-0.84332 -3.69305,-3.48642 -2.84975,-5.9036z" fill="url(#color-22)"/><path d="M339.29857,2.32065c-1.64017,-1.96565 -1.37633,-4.88871 0.58932,-6.52888c1.96563,-1.64017 4.88871,-1.37633 6.52888,0.58932c1.64018,1.96562 1.37633,4.88871 -0.58931,6.52886c-1.96562,1.64016 -4.88871,1.37633 -6.52888,-0.58932z" fill="url(#color-23)"/><path d="M322.9701,-18.48729c-2.16274,-0.70781 -3.34219,-3.03483 -2.63436,-5.19756c0.70781,-2.16274 3.03483,-3.34219 5.19756,-2.63436c2.16274,0.70781 3.34219,3.03483 2.63436,5.19756c-0.70781,2.16274 -3.03483,3.34217 -5.19756,2.63434z" fill="url(#color-24)"/><path d="M342.17886,19.32838c-2.12876,-1.88644 -2.32516,-5.14143 -0.43871,-7.2702c1.88646,-2.12877 5.14144,-2.32517 7.27021,-0.43871c2.12876,1.88645 2.32516,5.14142 0.43871,7.2702c-1.88648,2.12877 -5.14144,2.32518 -7.27021,0.43872z" fill="url(#color-25)"/></g><path d="M331.52747,40.19225c2.1098,-6.81576 5.78033,-18.67347 6.95458,-22.46691c0.71171,-2.29919 4.1066,-4.10693 6.61172,-3.33147c5.32992,1.64987 25.65568,7.94166 35.26575,10.91644c3.10537,0.96126 4.26951,4.23279 3.54849,6.56204c-1.1819,3.81815 -4.8562,15.68806 -6.95458,22.46689c-0.8994,2.90553 -3.49549,4.2609 -6.60113,3.29956c-9.63132,-2.98136 -30.02897,-9.2954 -35.3392,-10.93917c-2.47426,-0.7659 -4.39839,-3.55867 -3.48562,-6.5074z" fill="url(#color-26)" stroke="none" stroke-width="0" stroke-linecap="butt"/><path d="M371.56214,32.12782c1.44739,1.75599 1.19723,4.35283 -0.55874,5.80022c-1.756,1.44738 -4.35281,1.19725 -5.80022,-0.55874c-1.44738,-1.75599 -1.19721,-4.35282 0.55876,-5.80021c1.75597,-1.44739 4.35279,-1.19727 5.8002,0.55873z" fill="url(#color-27)" stroke="none" stroke-width="0" stroke-linecap="butt"/><path d="M351.34993,35.7307c-2.12123,0.82382 -4.50871,-0.22795 -5.33253,-2.34919c-0.82382,-2.12126 0.22796,-4.50871 2.34919,-5.33254c2.12124,-0.82383 4.50871,0.22795 5.33253,2.34918c0.82382,2.12126 -0.22794,4.50872 -2.34919,5.33253z" fill="url(#color-28)" stroke="none" stroke-width="0" stroke-linecap="butt"/></g><g data-paper-data="{&quot;index&quot;:null}"><g><g><path d="M146.41657,118.52004v-167.11212h57.52047v167.11216z" fill="#b06041" stroke="none" stroke-width="0" stroke-linecap="butt"/><path d="M192.73571,118.52004v-167.11212h10.89864v167.11216z" fill="#ab5c37" stroke="none" stroke-width="0" stroke-linecap="butt"/><path d="M146.71928,118.52004v-167.11212h10.8986v167.11216z" fill="#ab5c37" stroke="none" stroke-width="0" stroke-linecap="butt"/><path d="M161.85992,36.98223v-37.136" fill="none" stroke="#ad6c4e" stroke-width="6" stroke-linecap="round"/><path d="M188.501,47.88087v37.13604" fill="none" stroke="#ad6c4e" stroke-width="6" stroke-linecap="round"/><path d="M177.60238,-43.34463v-5.24746v35.92508" fill="none" stroke="#ad6c4e" stroke-width="6" stroke-linecap="round"/></g><g fill="#ab5c37" stroke="none" stroke-linecap="butt"><path d="M100.70413,32.54202v-15.33881h51.26388v15.33881z" stroke-width="NaN"/><path d="M100.30047,32.54202c-4.23569,0 -7.66937,-3.43371 -7.66937,-7.66941c0,-4.23569 3.43367,-7.66941 7.66937,-7.66941c4.23569,0 7.66941,3.43371 7.66941,7.66941c0,4.23569 -3.43371,7.66941 -7.66941,7.66941z" stroke-width="0"/></g><g fill="#ab5c37" stroke="none" stroke-linecap="butt"><path d="M108.17171,24.26717h-15.33881v-51.26388h15.33881z" stroke-width="NaN"/><path d="M108.17173,24.67079c0,4.23569 -3.43375,7.66941 -7.66944,7.66941c-4.23569,0 -7.66941,-3.43371 -7.66941,-7.66941c0,-4.23569 3.43371,-7.66941 7.66941,-7.66941c4.23569,0 7.66944,3.43371 7.66944,7.66941z" stroke-width="0"/></g><path d="M146.97265,-35.67523v-12.5132h56.91503v12.5132z" fill="#86482b" stroke="none" stroke-width="NaN" stroke-linecap="butt"/><path d="M92.8832,-2.57577v-12.5132h14.93514v12.5132z" fill="#86482b" stroke="none" stroke-width="NaN" stroke-linecap="butt"/></g><g stroke="none" stroke-width="0" stroke-linecap="butt"><path d="M265.16123,-63.98436c0,11.44339 -9.87569,19.22443 -19.47776,19.22443c-20.60781,0 -99.76646,0 -137.14352,0c-12.05227,0 -19.7603,-7.64599 -19.7603,-18.92166c0,-26.30706 0,-72.3716 0,-87.18895c0,-9.03929 7.70908,-19.34896 19.7603,-19.34896c37.29452,0 116.17423,0 136.8584,0c9.72182,0 19.76288,10.12358 19.76288,19.04624c0,14.72146 0,60.73852 0,87.18895z" fill="url(#color-29)"/><path d="M106.85652,-45.44335c-5.44388,5.19357 -14.06727,4.9907 -19.26089,-0.4532c-5.19357,-5.44388 -4.9907,-14.06729 0.4532,-19.2609c5.44388,-5.19357 14.06729,-4.9907 19.2609,0.45322c5.19361,5.44388 4.99069,14.06729 -0.45322,19.26089z" fill="url(#color-30)"/><path d="M98.89951,-61.99786c-3.99221,3.80866 -10.31601,3.65985 -14.12467,-0.33237c-3.80862,-3.99222 -3.65985,-10.31597 0.33237,-14.12463c3.99221,-3.80866 10.31601,-3.65985 14.12467,0.33233c3.80862,3.99222 3.65985,10.31601 -0.33237,14.12467z" fill="url(#color-31)"/><path d="M261.55757,-40.61738c-6.1028,1.01425 -11.87243,-3.11077 -12.88672,-9.21356c-1.01429,-6.10282 3.11082,-11.87245 9.2136,-12.88669c6.1028,-1.01426 11.87239,3.11078 12.88669,9.21358c1.01429,6.10282 -3.11078,11.87243 -9.2136,12.88669z" fill="url(#color-32)"/><path d="M268.6726,-55.27837c-4.52652,3.43904 -10.98388,2.55745 -14.42291,-1.96907c-3.43904,-4.52652 -2.55745,-10.98388 1.96905,-14.42291c4.52652,-3.43904 10.98388,-2.55741 14.42291,1.96911c3.43904,4.52653 2.55745,10.98384 -1.96905,14.42288z" fill="url(#color-33)"/><path d="M251.87179,-52.74783c3.43904,4.52653 2.55749,10.98384 -1.96905,14.42288c-4.52652,3.43904 -10.98388,2.55745 -14.42291,-1.96908c-3.43904,-4.52653 -2.55745,-10.98387 1.96905,-14.42291c4.52652,-3.43904 10.98384,-2.55746 14.42288,1.96907z" fill="url(#color-34)"/><path d="M234.99753,-84.51499c-3.59468,2.73106 -8.72259,2.03098 -11.4536,-1.5637c-2.73101,-3.59468 -2.03098,-8.72259 1.56369,-11.4536c3.59468,-2.73106 8.72259,-2.03098 11.45364,1.5637c2.73101,3.59468 2.03094,8.72259 -1.56369,11.4536z" fill="url(#color-35)"/><path d="M205.51791,-59.8465c-4.51158,0.16014 -8.29875,-3.36738 -8.45889,-7.87894c-0.16014,-4.51158 3.36738,-8.29876 7.87896,-8.45891c4.51158,-0.16014 8.29871,3.36738 8.45889,7.87896c0.16014,4.51158 -3.36738,8.29871 -7.87896,8.45889z" fill="url(#color-36)"/><path d="M149.12692,-89.61435c-3.78793,2.45597 -8.84958,1.37615 -11.3055,-2.41174c-2.45597,-3.78789 -1.37619,-8.84955 2.41174,-11.30547c3.78793,-2.45597 8.84958,-1.37619 11.3055,2.41174c2.45597,3.78793 1.37619,8.84954 -2.41174,11.3055z" fill="url(#color-37)"/><path d="M187.48322,-116.15187c-4.01232,0.06462 -7.31727,-3.13561 -7.38185,-7.14792c-0.06462,-4.01232 3.13565,-7.31727 7.14796,-7.38185c4.01232,-0.06462 7.31727,3.13565 7.38185,7.14796c0.06462,4.01232 -3.13565,7.31727 -7.14796,7.38185z" fill="url(#color-38)"/><path d="M135.4063,-62.46592c-4.5697,2.06778 -9.95042,0.03964 -12.01823,-4.53008c-2.06777,-4.5697 -0.03963,-9.95044 4.53006,-12.01822c4.5697,-2.06778 9.95046,-0.03964 12.01823,4.53006c2.06777,4.5697 0.03963,9.95046 -4.53006,12.01822z" fill="url(#color-39)"/></g><path d="M142.46955,-21.76566c0,5.44324 -4.69756,9.14444 -9.26495,9.14444c-9.80247,0 -47.45571,0 -65.23474,0c-5.73289,0 -9.39936,-3.63692 -9.39936,-9.00041c0,-12.51346 0,-34.42483 0,-41.47298c0,-4.29971 3.66696,-9.20372 9.39936,-9.20372c17.73981,0 55.26035,0 65.09917,0c4.62436,0 9.40057,4.81549 9.40057,9.05969c0,7.00254 0,28.89139 0,41.47301z" fill="url(#color-40)" stroke="none" stroke-width="0" stroke-linecap="butt"/><path d="M89.29661,-54.14322c2.20327,3.35384 1.2706,7.85877 -2.08324,10.06208c-3.35388,2.20331 -7.85877,1.27056 -10.0621,-2.08328c-2.20327,-3.35384 -1.27056,-7.85879 2.08329,-10.0621c3.35388,-2.20331 7.85877,-1.27055 10.06204,2.08329z" fill="url(#color-41)" stroke="none" stroke-width="0" stroke-linecap="butt"/><path d="M111.40422,-39.6177c-3.14377,-2.49388 -3.67056,-7.0641 -1.17668,-10.20789c2.49388,-3.14373 7.06413,-3.67056 10.20787,-1.17667c3.14374,2.49388 3.67056,7.0641 1.17668,10.20789c-2.49388,3.14374 -7.06414,3.67056 -10.20787,1.17668z" fill="url(#color-42)" stroke="none" stroke-width="0" stroke-linecap="butt"/></g><g data-paper-data="{&quot;index&quot;:null}"><g><g><path d="M33.24945,116.52005v-130.64998h44.9701v130.65001z" fill="#b06041" stroke="none" stroke-width="0" stroke-linecap="butt"/><path d="M69.46223,116.52005v-130.64998h8.52067v130.65001z" fill="#ab5c37" stroke="none" stroke-width="0" stroke-linecap="butt"/><path d="M33.48613,116.52005v-130.64998h8.52064v130.65001z" fill="#ab5c37" stroke="none" stroke-width="0" stroke-linecap="butt"/><path d="M45.32324,23.73964v29.03331" fill="none" stroke="#ad6c4e" stroke-width="6" stroke-linecap="round"/><path d="M66.15148,90.32696v-29.03334" fill="none" stroke="#ad6c4e" stroke-width="6" stroke-linecap="round"/><path d="M57.63083,-10.02742v-4.10252v28.0866" fill="none" stroke="#ad6c4e" stroke-width="6" stroke-linecap="round"/></g><g fill="#ab5c37" stroke="none" stroke-linecap="butt"><path d="M-2.489,49.30155v-11.99204h40.07863v11.99204z" stroke-width="NaN"/><path d="M-2.80457,49.30155c-3.31151,0 -5.99599,-2.68451 -5.99599,-5.99602c0,-3.31151 2.68448,-5.99602 5.99599,-5.99602c3.31151,0 5.99602,2.68451 5.99602,5.99602c0,3.31151 -2.68451,5.99602 -5.99602,5.99602z" stroke-width="0"/></g><g fill="#ab5c37" stroke="none" stroke-linecap="butt"><path d="M3.34924,42.83218h-11.99204v-40.07863h11.99204z" stroke-width="NaN"/><path d="M3.34926,43.14774c0,3.31151 -2.68454,5.99602 -5.99605,5.99602c-3.31151,0 -5.99602,-2.68451 -5.99602,-5.99602c0,-3.31151 2.68451,-5.99602 5.99602,-5.99602c3.31151,0 5.99605,2.68451 5.99605,5.99602z" stroke-width="0"/></g><path d="M33.6842,-4.0314v-9.78295h44.49676v9.78295z" fill="#86482b" stroke="none" stroke-width="NaN" stroke-linecap="butt"/><path d="M-8.60348,21.8461v-9.78295h11.67645v9.78295z" fill="#86482b" stroke="none" stroke-width="NaN" stroke-linecap="butt"/></g><g stroke="none" stroke-width="0" stroke-linecap="butt"><path d="M126.08527,-26.16377c0,8.94656 -7.72092,15.02986 -15.22791,15.02986c-16.1114,0 -77.99845,0 -107.22022,0c-9.42259,0 -15.44881,-5.97771 -15.44881,-14.79315c0,-20.56713 0,-56.58086 0,-68.16522c0,-7.06701 6.02704,-15.12722 15.44881,-15.12722c29.15724,0 90.82621,0 106.99731,0c7.60062,0 15.45082,7.91472 15.45082,14.89055c0,11.50939 0,47.486 0,68.16522z" fill="url(#color-43)"/><path d="M2.32099,-11.66822c-4.25608,4.06039 -10.99794,3.90178 -15.05836,-0.35432c-4.06039,-4.25608 -3.90178,-10.99795 0.35432,-15.05837c4.25608,-4.06039 10.99795,-3.90178 15.05837,0.35433c4.06042,4.25608 3.90177,10.99795 -0.35433,15.05836z" fill="url(#color-44)"/><path d="M-3.89986,-24.61071c-3.12115,2.97765 -8.06516,2.86131 -11.04281,-0.25985c-2.97762,-3.12116 -2.86131,-8.06513 0.25985,-11.04278c3.12115,-2.97765 8.06516,-2.86131 11.04281,0.25982c2.97762,3.12116 2.86131,8.06516 -0.25985,11.04281z" fill="url(#color-45)"/><path d="M123.26788,-7.89523c-4.77123,0.79295 -9.28199,-2.43203 -10.07497,-7.20326c-0.79298,-4.77125 2.43207,-9.282 7.20329,-10.07495c4.77123,-0.79296 9.28196,2.43204 10.07495,7.20327c0.79298,4.77125 -2.43204,9.28199 -7.20329,10.07495z" fill="url(#color-46)"/><path d="M128.83048,-19.35734c-3.53888,2.68868 -8.58731,1.99944 -11.27598,-1.53944c-2.68868,-3.53888 -1.99944,-8.58731 1.53942,-11.27598c3.53888,-2.68868 8.58731,-1.99941 11.27598,1.53947c2.68868,3.53889 1.99944,8.58728 -1.53942,11.27596z" fill="url(#color-47)"/><path d="M115.69544,-17.37894c2.68868,3.53889 1.99947,8.58728 -1.53942,11.27596c-3.53888,2.68868 -8.58731,1.99944 -11.27598,-1.53945c-2.68868,-3.53889 -1.99944,-8.5873 1.53942,-11.27598c3.53888,-2.68868 8.58728,-1.99945 11.27596,1.53944z" fill="url(#color-48)"/><path d="M102.50298,-42.21483c-2.81036,2.13517 -6.81941,1.58784 -8.95454,-1.22252c-2.13513,-2.81036 -1.58784,-6.81941 1.22251,-8.95454c2.81036,-2.13517 6.81941,-1.58784 8.95457,1.22252c2.13513,2.81036 1.58781,6.81941 -1.22251,8.95454z" fill="url(#color-49)"/><path d="M79.45549,-22.92875c-3.5272,0.1252 -6.48805,-2.63265 -6.61325,-6.15984c-0.1252,-3.5272 2.63265,-6.48806 6.15985,-6.61326c3.5272,-0.1252 6.48802,2.63265 6.61325,6.15985c0.1252,3.5272 -2.63265,6.48802 -6.15985,6.61325z" fill="url(#color-50)"/><path d="M35.36845,-46.20156c-2.96144,1.9201 -6.91869,1.07589 -8.83876,-1.88552c-1.9201,-2.96141 -1.07592,-6.91867 1.88552,-8.83873c2.96144,-1.9201 6.91869,-1.07592 8.83876,1.88552c1.9201,2.96144 1.07592,6.91866 -1.88552,8.83876z" fill="url(#color-51)"/><path d="M65.35581,-66.94887c-3.13687,0.05052 -5.72072,-2.45145 -5.77121,-5.58832c-0.05052,-3.13687 2.45148,-5.72072 5.58835,-5.77121c3.13687,-0.05052 5.72072,2.45148 5.77121,5.58835c0.05052,3.13687 -2.45148,5.72072 -5.58835,5.77121z" fill="url(#color-52)"/><path d="M24.64152,-24.97664c-3.57264,1.61661 -7.77934,0.03099 -9.39598,-3.54166c-1.6166,-3.57264 -0.03098,-7.77936 3.54165,-9.39597c3.57264,-1.61661 7.77937,-0.03099 9.39598,3.54165c1.6166,3.57264 0.03098,7.77937 -3.54165,9.39597z" fill="url(#color-53)"/></g><path d="M30.16366,6.84324c0,4.25558 -3.6726,7.14922 -7.24343,7.14922c-7.66367,0 -37.10136,0 -51.00119,0c-4.48203,0 -7.34852,-2.84338 -7.34852,-7.03661c0,-9.78315 0,-26.91369 0,-32.424c0,-3.36156 2.86687,-7.19556 7.34852,-7.19556c13.86917,0 43.20311,0 50.8952,0c3.61537,0 7.34946,3.7648 7.34946,7.08296c0,5.47466 0,22.58759 0,32.42403z" fill="url(#color-54)" stroke="none" stroke-width="0" stroke-linecap="butt"/><path d="M-11.40752,-18.46987c1.72254,2.62207 0.99337,6.14407 -1.6287,7.86664c-2.6221,1.72257 -6.14407,0.99334 -7.86665,-1.62873c-1.72254,-2.62207 -0.99334,-6.14408 1.62874,-7.86665c2.6221,-1.72257 6.14407,-0.99333 7.86661,1.62874z" fill="url(#color-55)" stroke="none" stroke-width="0" stroke-linecap="butt"/><path d="M5.87644,-7.11367c-2.45783,-1.94974 -2.86968,-5.52279 -0.91994,-7.98063c1.94974,-2.4578 5.52281,-2.86968 7.98062,-0.91993c2.45781,1.94974 2.86968,5.52279 0.91994,7.98063c-1.94974,2.45781 -5.52282,2.86968 -7.98062,0.91994z" fill="url(#color-56)" stroke="none" stroke-width="0" stroke-linecap="butt"/></g><g data-paper-data="{&quot;index&quot;:null}"><g><g><path d="M100.58721,118.52008v-94.76662h32.61894v94.7666z" fill="#b06041" stroke="none" stroke-width="0" stroke-linecap="butt"/><path d="M100.75886,118.52008v-94.76662h6.18044v94.7666z" fill="#ab5c37" stroke="none" stroke-width="0" stroke-linecap="butt"/><path d="M126.85407,118.52008v-94.76662h6.18042v94.7666z" fill="#ab5c37" stroke="none" stroke-width="0" stroke-linecap="butt"/><path d="M124.44847,72.28128v-21.05923" fill="none" stroke="#ad6c4e" stroke-width="6" stroke-linecap="round"/><path d="M109.34075,99.52097v-21.05925" fill="none" stroke="#ad6c4e" stroke-width="6" stroke-linecap="round"/><path d="M115.52119,44.12599v-20.37254v2.97575" fill="none" stroke="#ad6c4e" stroke-width="6" stroke-linecap="round"/></g><g fill="#ab5c37" stroke="none" stroke-linecap="butt"><path d="M130.05801,69.76331v-8.69839h29.07092v8.69839z" stroke-width="NaN"/><path d="M155.00865,65.41411c0,-2.40199 1.9472,-4.3492 4.3492,-4.3492c2.40199,0 4.34917,1.9472 4.34917,4.3492c0,2.40199 -1.94718,4.3492 -4.34917,4.3492c-2.40199,0 -4.3492,-1.9472 -4.3492,-4.3492z" stroke-width="0"/></g><g fill="#ab5c37" stroke="none" stroke-linecap="butt"><path d="M154.89421,35.99984h8.69839v29.07092h-8.69839z" stroke-width="NaN"/><path d="M159.24337,60.95046c2.40199,0 4.3492,1.9472 4.3492,4.3492c0,2.40199 -1.9472,4.3492 -4.3492,4.3492c-2.40199,0 -4.34922,-1.9472 -4.34922,-4.3492c0,-2.40199 1.94722,-4.3492 4.34922,-4.3492z" stroke-width="0"/></g><path d="M100.6152,31.0784v-7.09604h32.2756v7.09604z" fill="#86482b" stroke="none" stroke-width="NaN" stroke-linecap="butt"/><path d="M155.09461,49.84857v-7.09604h8.46948v7.09604z" fill="#86482b" stroke="none" stroke-width="NaN" stroke-linecap="butt"/></g><g stroke="none" stroke-width="0" stroke-linecap="butt"><path d="M65.86794,15.02477c0,-14.99962 0,-41.09515 0,-49.44345c0,-5.0599 5.69412,-10.80082 11.20721,-10.80082c11.72966,0 56.46108,0 77.6102,0c6.83405,0 11.20575,5.84645 11.20575,10.97249c0,8.40268 0,34.52514 0,49.44345c0,6.39426 -4.3711,10.73017 -11.20575,10.73017c-21.19593,0 -66.08553,0 -77.77189,0c-5.44517,0 -11.04552,-4.4125 -11.04552,-10.90187z" fill="url(#color-57)"/><path d="M155.38302,14.61651c2.94521,-3.08716 7.83541,-3.2022 10.92255,-0.25701c3.08715,2.94521 3.2022,7.83541 0.25701,10.92255c-2.94521,3.08715 -7.8354,3.2022 -10.92254,0.25701c-3.08715,-2.94521 -3.20223,-7.8354 -0.25701,-10.92254z" fill="url(#color-58)"/><path d="M159.96381,8.14138c2.15983,-2.2639 5.74595,-2.34829 8.00987,-0.18846c2.26392,2.15983 2.34829,5.74593 0.18848,8.00985c-2.15983,2.26392 -5.74595,2.34831 -8.00987,0.18848c-2.26392,-2.15983 -2.34829,-5.74595 -0.18848,-8.00987z" fill="url(#color-59)"/><path d="M67.91155,28.27579c-3.46081,-0.57517 -5.80007,-3.84702 -5.22489,-7.30784c0.57519,-3.4608 3.84704,-5.80004 7.30784,-5.22487c3.46079,0.57516 5.80007,3.84702 5.22489,7.30784c-0.57519,3.4608 -3.84705,5.80003 -7.30785,5.22486z" fill="url(#color-60)"/><path d="M63.87671,19.96178c-2.5669,-1.95023 -3.06684,-5.61206 -1.11661,-8.17899c1.95022,-2.56692 5.61208,-3.06688 8.179,-1.11665c2.5669,1.95022 3.06684,5.61208 1.11661,8.179c-1.95022,2.56692 -5.61208,3.06686 -8.179,1.11663z" fill="url(#color-61)"/><path d="M73.40421,21.39677c1.95023,-2.56692 5.61207,-3.06686 8.17899,-1.11663c2.5669,1.95023 3.06684,5.61208 1.11661,8.179c-1.95022,2.56692 -5.61208,3.06686 -8.179,1.11664c-2.56692,-1.95023 -3.06684,-5.61206 -1.11661,-8.17899z" fill="url(#color-62)"/><path d="M82.97329,3.38215c-2.03846,-1.54871 -2.43545,-4.45666 -0.88674,-6.49515c1.54873,-2.03849 4.45669,-2.43549 6.49517,-0.88675c2.03848,1.54871 2.43545,4.45666 0.88674,6.49515c-1.54871,2.03849 -4.45666,2.43549 -6.49515,0.88675z" fill="url(#color-63)"/><path d="M95.22272,12.57435c0.09084,-2.55844 2.23846,-4.55884 4.7969,-4.46803c2.55844,0.09081 4.55884,2.23847 4.46803,4.79691c-0.09081,2.55844 -2.23846,4.55884 -4.7969,4.46802c-2.55844,-0.09084 -4.55884,-2.23846 -4.46803,-4.7969z" fill="url(#color-64)"/><path d="M131.66914,0.49041c-2.14807,-1.39274 -2.7604,-4.2631 -1.36766,-6.41117c1.39272,-2.14807 4.2631,-2.7604 6.41117,-1.36766c2.14807,1.39271 2.7604,4.2631 1.36766,6.41115c-1.39272,2.14805 -4.2631,2.7604 -6.41117,1.36766z" fill="url(#color-65)"/><path d="M109.91788,-14.55859c-2.27532,-0.03662 -4.09014,-1.91081 -4.05349,-4.18613c0.03662,-2.27532 1.91081,-4.09014 4.18613,-4.05349c2.27532,0.03662 4.09014,1.91081 4.05349,4.18613c-0.03662,2.27532 -1.91081,4.09012 -4.18613,4.05347z" fill="url(#color-66)"/><path d="M139.44991,15.88582c-2.5914,-1.1726 -3.74152,-4.22394 -2.56893,-6.81534c1.1726,-2.5914 4.22394,-3.74153 6.81535,-2.56893c2.5914,1.1726 3.74152,4.22394 2.56893,6.81534c-1.17263,2.59141 -4.22394,3.74154 -6.81535,2.56893z" fill="url(#color-67)"/></g><path d="M135.44438,38.96632c0,-7.13483 0,-19.54765 0,-23.51868c0,-2.40682 2.70851,-5.13761 5.33091,-5.13761c5.57944,0 26.85673,0 36.91669,0c3.25075,0 5.33023,2.78098 5.33023,5.21928c0,3.99689 0,16.42248 0,23.51866c0,3.04155 -2.0792,5.10399 -5.33023,5.10399c-10.0822,0 -31.43475,0 -36.99357,0c-2.59009,0 -5.254,-2.09889 -5.254,-5.18567z" fill="url(#color-68)" stroke="none" stroke-width="0" stroke-linecap="butt"/><path d="M171.304,19.42409c1.90192,1.24946 2.43084,3.80414 1.1814,5.70605c-1.24947,1.90191 -3.80412,2.43086 -5.70605,1.18139c-1.90191,-1.24946 -2.43081,-3.80413 -1.18137,-5.70605c1.24944,-1.90191 3.80409,-2.43086 5.70602,-1.1814z" fill="url(#color-69)" stroke="none" stroke-width="0" stroke-linecap="butt"/><path d="M153.06109,28.84269c-1.78276,1.41424 -4.37448,1.11549 -5.78872,-0.66728c-1.41424,-1.78279 -1.11549,-4.37449 0.66728,-5.78873c1.78277,-1.41425 4.37448,-1.11549 5.78872,0.66727c1.41424,1.78279 1.1155,4.37449 -0.66728,5.78873z" fill="url(#color-70)" stroke="none" stroke-width="0" stroke-linecap="butt"/></g><path d="M1.50001,270.50751v-166h477v166z" fill="#ffffff" stroke="none" stroke-width="0" stroke-linecap="butt"/><path d="M-0.57413,272.00751v-127h482v127z" fill="#4eaad2" stroke="none" stroke-width="0" stroke-linecap="butt"/><path d="M481.37033,103.00751v59h-461.94444v-59z" fill="#5ecfff" stroke="none" stroke-width="0" stroke-linecap="butt"/><path d="M53.34967,119.90751c0,11.95934 0,24.21448 0,30.83334c0,4.95926 -4.77905,11 -11.5,11c-7.54753,0 -42.41517,0 -42.41517,0l-0.43337,-53.50001c0,0 38.91264,0 42.18187,0c5.44652,0 12.16667,4.90772 12.16667,11.66666z" fill="#9ce1ff" stroke="none" stroke-width="0" stroke-linecap="butt"/><path d="M479.69849,103.00815h1.68348h-482.80781h2.62674" fill="none" stroke="#ffffff" stroke-width="12" stroke-linecap="round"/><path d="M272.81478,120.10288c0,10.35672 0,20.96962 0,26.70151c0,4.2947 -4.13863,9.52594 -9.95894,9.52594c-11.11946,0 -49.59366,0 -55.85668,0c-4.50871,0 -11.40227,-4.24585 -11.69093,-10.68061c-0.19829,-4.42017 -0.11643,-16.51255 0,-24.39219c0.07546,-5.10689 6.31612,-11.25793 12.55693,-11.25793c11.62281,0 50.20867,0 54.41335,0c4.71666,0 10.53628,4.25007 10.53628,10.10327z" fill="#79d7ff" stroke="none" stroke-width="0" stroke-linecap="butt"/><path d="M151.68864,180.65843c0,10.35672 0,20.96962 0,26.70152c0,4.2947 -4.13864,9.52594 -9.95895,9.52594c-11.11946,0 -49.59365,0 -55.85667,0c-4.50871,0 -11.40226,-4.24584 -11.69093,-10.68061c-0.19829,-4.42017 -0.11643,-16.51254 0,-24.39219c0.07546,-5.10689 6.31612,-11.25793 12.55693,-11.25793c11.62282,0 50.20867,0 54.41335,0c4.71666,0 10.53627,4.25006 10.53627,10.10327z" fill="#4597ba" stroke="none" stroke-width="0" stroke-linecap="butt"/><path d="M324.85681,226.19897c0,10.35672 0,20.96962 0,26.70152c0,4.2947 -4.13864,9.52594 -9.95895,9.52594c-11.11946,0 -49.59366,0 -55.85667,0c-4.50871,0 -11.40226,-4.24585 -11.69093,-10.68061c-0.19829,-4.42017 -0.11643,-16.51254 0,-24.39219c0.07546,-5.10689 6.31612,-11.25794 12.55693,-11.25794c11.62282,0 50.20867,0 54.41335,0c4.71666,0 10.53627,4.25006 10.53627,10.10327z" fill="#479cc0" stroke="none" stroke-width="0" stroke-linecap="butt"/><path d="M463.5759,101.9v-66.25h3.5v66.25z" fill="#ffffff" stroke="none" stroke-width="0" stroke-linecap="butt"/></g></g></svg>