<svg version="1.1" xmlns="http://www.w3.org/2000/svg" xmlns:xlink="http://www.w3.org/1999/xlink" width="490.49759" height="305.22702" viewBox="0,0,490.49759,305.22702"><defs><linearGradient x1="200.14129" y1="-75.63878" x2="200.14129" y2="-12.00989" gradientUnits="userSpaceOnUse" id="color-1"><stop offset="0" stop-color="#86f5bf"/><stop offset="1" stop-color="#5bc8f5"/></linearGradient><linearGradient x1="252.23432" y1="12.73236" x2="242.69569" y2="22.73068" gradientUnits="userSpaceOnUse" id="color-2"><stop offset="0" stop-color="#6bc399"/><stop offset="1" stop-color="#55b6e6"/></linearGradient><linearGradient x1="251.86089" y1="8.95788" x2="244.86589" y2="16.28999" gradientUnits="userSpaceOnUse" id="color-3"><stop offset="0" stop-color="#6bc399"/><stop offset="1" stop-color="#55b6e6"/></linearGradient><linearGradient x1="160.47051" y1="13.08224" x2="158.60763" y2="24.29078" gradientUnits="userSpaceOnUse" id="color-4"><stop offset="0" stop-color="#6bc399"/><stop offset="1" stop-color="#55b6e6"/></linearGradient><linearGradient x1="164.58104" y1="10.66481" x2="158.26488" y2="18.97826" gradientUnits="userSpaceOnUse" id="color-5"><stop offset="0" stop-color="#6bc399"/><stop offset="1" stop-color="#55b6e6"/></linearGradient><linearGradient x1="174.10048" y1="19.26301" x2="167.78431" y2="27.57646" gradientUnits="userSpaceOnUse" id="color-6"><stop offset="0" stop-color="#6bc399"/><stop offset="1" stop-color="#55b6e6"/></linearGradient><linearGradient x1="179.40602" y1="-1.19641" x2="174.39018" y2="5.40554" gradientUnits="userSpaceOnUse" id="color-7"><stop offset="0" stop-color="#6bc399"/><stop offset="1" stop-color="#55b6e6"/></linearGradient><linearGradient x1="186.17279" y1="8.39557" x2="185.87866" y2="16.68157" gradientUnits="userSpaceOnUse" id="color-8"><stop offset="0" stop-color="#6bc399"/><stop offset="1" stop-color="#55b6e6"/></linearGradient><linearGradient x1="222.08098" y1="-4.39792" x2="217.57036" y2="2.559" gradientUnits="userSpaceOnUse" id="color-9"><stop offset="0" stop-color="#6bc399"/><stop offset="1" stop-color="#55b6e6"/></linearGradient><linearGradient x1="195.01517" y1="-18.5712" x2="194.89653" y2="-11.20216" gradientUnits="userSpaceOnUse" id="color-10"><stop offset="0" stop-color="#6bc399"/><stop offset="1" stop-color="#55b6e6"/></linearGradient><linearGradient x1="227.80397" y1="6.88206" x2="224.00622" y2="15.27481" gradientUnits="userSpaceOnUse" id="color-11"><stop offset="0" stop-color="#6bc399"/><stop offset="1" stop-color="#55b6e6"/></linearGradient><linearGradient x1="238.91434" y1="-3.73463" x2="238.91434" y2="26.53158" gradientUnits="userSpaceOnUse" id="color-12"><stop offset="0" stop-color="#86f5bf"/><stop offset="1" stop-color="#5bc8f5"/></linearGradient><linearGradient x1="255.28334" y1="32.66456" x2="249.12363" y2="28.61799" gradientUnits="userSpaceOnUse" id="color-13"><stop offset="0" stop-color="#6bc399"/><stop offset="1" stop-color="#55b6e6"/></linearGradient><linearGradient x1="225.45506" y1="23.00932" x2="230.03537" y2="28.78319" gradientUnits="userSpaceOnUse" id="color-14"><stop offset="0" stop-color="#6bc399"/><stop offset="1" stop-color="#55b6e6"/></linearGradient></defs><g transform="translate(4.79912,33.21951)"><g data-paper-data="{&quot;isPaintingLayer&quot;:true}" fill-rule="nonzero" stroke-linejoin="miter" stroke-miterlimit="10" stroke-dasharray="" stroke-dashoffset="0" style="mix-blend-mode: normal"><g><g><g><path d="M186.46471,113.21952v-84.75369h29.17246v84.75369z" fill="#b06041" stroke="none" stroke-width="0" stroke-linecap="butt"/><path d="M186.61825,113.21952v-84.75369h5.52741v84.75369z" fill="#ab5c37" stroke="none" stroke-width="0" stroke-linecap="butt"/><path d="M209.95622,113.21952v-84.75369h5.52741v84.75369z" fill="#ab5c37" stroke="none" stroke-width="0" stroke-linecap="butt"/><path d="M207.80483,53.03212v18.83415" fill="none" stroke="#ad6c4e" stroke-width="6" stroke-linecap="round"/><path d="M194.29337,96.22784v-18.83415" fill="none" stroke="#ad6c4e" stroke-width="6" stroke-linecap="round"/><path d="M199.82078,31.12719v-2.66135v18.21999" fill="none" stroke="#ad6c4e" stroke-width="6" stroke-linecap="round"/></g><g fill="#ab5c37" stroke="none" stroke-linecap="butt"><path d="M212.82167,69.61436v-7.77933h25.99932v7.77933z" stroke-width="NaN"/><path d="M235.13605,65.7247c0,-2.1482 1.74146,-3.88966 3.88966,-3.88966c2.1482,0 3.88966,1.74146 3.88966,3.88966c0,2.1482 -1.74146,3.88966 -3.88966,3.88966c-2.1482,0 -3.88966,-1.74146 -3.88966,-3.88966z" stroke-width="0"/></g><g fill="#ab5c37" stroke="none" stroke-linecap="butt"><path d="M235.03369,39.4183h7.77932v25.99932h-7.77932z" stroke-width="NaN"/><path d="M238.92335,61.73268c2.1482,0 3.88966,1.74146 3.88966,3.88966c0,2.14821 -1.74145,3.88966 -3.88966,3.88966c-2.1482,0 -3.88966,-1.74145 -3.88967,-3.88966c0,-2.14821 1.74146,-3.88966 3.88967,-3.88966z" stroke-width="0"/></g><path d="M186.48976,35.01685v-6.34629h28.86539v6.34629z" fill="#86482b" stroke="none" stroke-width="NaN" stroke-linecap="butt"/><path d="M235.2129,51.80381v-6.34629h7.5746v6.34629z" fill="#86482b" stroke="none" stroke-width="NaN" stroke-linecap="butt"/></g><g stroke="none" stroke-width="0" stroke-linecap="butt"><path d="M155.41386,20.6594c0,-13.41477 0,-36.75307 0,-44.21931c0,-4.52526 5.09249,-9.6596 10.02307,-9.6596c10.49034,0 50.49549,0 69.41001,0c6.112,0 10.02177,5.2287 10.02177,9.81314c0,7.51486 0,30.87725 0,44.21931c0,5.71866 -3.90926,9.59644 -10.02177,9.59644c-18.9564,0 -59.10302,0 -69.55462,0c-4.86984,0 -9.87846,-3.94628 -9.87846,-9.74998z" fill="url(#color-1)"/><path d="M235.47085,20.29431c2.63402,-2.76096 7.00751,-2.86386 9.76848,-0.22985c2.76096,2.63402 2.86386,7.00751 0.22985,9.76848c-2.63402,2.76096 -7.00751,2.86386 -9.76848,0.22985c-2.76096,-2.63402 -2.86386,-7.00751 -0.22985,-9.76848z" fill="url(#color-2)"/><path d="M239.56767,14.50332c1.93162,-2.0247 5.13885,-2.10017 7.16355,-0.16856c2.0247,1.93162 2.10017,5.13885 0.16856,7.16355c-1.93162,2.0247 -5.13885,2.10017 -7.16355,0.16856c-2.0247,-1.93162 -2.10017,-5.13885 -0.16856,-7.16355z" fill="url(#color-3)"/><path d="M152.56869,25.97466c0.51442,-3.09515 3.44056,-5.18724 6.53571,-4.67283c3.09515,0.51442 5.18724,3.44056 4.67283,6.53571c-0.51442,3.09515 -3.44056,5.18724 -6.53571,4.67283c-3.09515,-0.51442 -5.18724,-3.44056 -4.67283,-6.53571z" fill="url(#color-4)"/><path d="M152.63438,17.75998c1.74416,-2.29569 5.01911,-2.7428 7.31481,-0.99864c2.29569,1.74416 2.7428,5.01911 0.99864,7.31481c-1.74416,2.29569 -5.01911,2.7428 -7.31481,0.99864c-2.29569,-1.74416 -2.7428,-5.01911 -0.99864,-7.31481z" fill="url(#color-5)"/><path d="M162.15382,26.35818c1.74416,-2.2957 5.01911,-2.74281 7.31481,-0.99864c2.29569,1.74416 2.7428,5.01911 0.99864,7.3148c-1.74416,2.2957 -5.01911,2.74281 -7.3148,0.99864c-2.2957,-1.74416 -2.7428,-5.01911 -0.99864,-7.3148z" fill="url(#color-6)"/><path d="M169.91884,4.43807c1.38509,-1.82308 3.98582,-2.17814 5.80889,-0.79305c1.82308,1.38509 2.17814,3.98582 0.79305,5.80889c-1.38509,1.82308 -3.98582,2.17814 -5.80889,0.79305c-1.82308,-1.38509 -2.17814,-3.98582 -0.79305,-5.80889z" fill="url(#color-7)"/><path d="M181.66703,18.46791c0.08122,-2.28812 2.00194,-4.07716 4.29007,-3.99594c2.28812,0.08122 4.07716,2.00194 3.99594,4.29007c-0.08122,2.28812 -2.00194,4.07716 -4.29007,3.99594c-2.28812,-0.08122 -4.07716,-2.00194 -3.99594,-4.29007z" fill="url(#color-8)"/><path d="M213.03943,1.92697c1.24557,-1.9211 3.81266,-2.46872 5.73377,-1.22315c1.9211,1.24557 2.46872,3.81266 1.22314,5.73376c-1.24557,1.9211 -3.81266,2.46872 -5.73377,1.22315c-1.9211,-1.24557 -2.46872,-3.81266 -1.22314,-5.73376z" fill="url(#color-9)"/><path d="M191.18433,-9.54204c0.03276,-2.03491 1.70894,-3.65796 3.74384,-3.6252c2.03491,0.03276 3.65796,1.70893 3.6252,3.74384c-0.03276,2.03491 -1.70894,3.65796 -3.74384,3.6252c-2.03491,-0.03276 -3.65796,-1.70893 -3.6252,-3.74384z" fill="url(#color-10)"/><path d="M218.9237,15.33425c1.04872,-2.3176 3.77765,-3.34622 6.09525,-2.29749c2.3176,1.04872 3.34621,3.77765 2.29749,6.09525c-1.04872,2.3176 -3.77765,3.34622 -6.09525,2.29749c-2.3176,-1.04872 -3.34621,-3.77765 -2.29749,-6.09525z" fill="url(#color-11)"/></g><path d="M217.63894,42.07131c0,-6.38098 0,-17.48225 0,-21.0337c0,-2.15252 2.42233,-4.59476 4.76765,-4.59476c4.98992,0 24.01907,0 33.01611,0c2.90728,0 4.76703,2.48712 4.76703,4.6678c0,3.57458 0,14.68731 0,21.0337c0,2.72018 -1.85951,4.56472 -4.76703,4.56472c-9.01694,0 -28.1134,0 -33.08488,0c-2.31643,0 -4.69887,-1.87712 -4.69887,-4.63775z" fill="url(#color-12)" stroke="none" stroke-width="0" stroke-linecap="butt"/><path d="M249.70964,24.59394c1.70096,1.11743 2.174,3.40218 1.05657,5.10314c-1.11743,1.70096 -3.40217,2.17401 -5.10314,1.05657c-1.70096,-1.11743 -2.174,-3.40218 -1.05657,-5.10314c1.11743,-1.70096 3.40217,-2.17401 5.10314,-1.05657z" fill="url(#color-13)" stroke="none" stroke-width="0" stroke-linecap="butt"/><path d="M228.21718,32.42058c-1.26482,-1.59441 -0.99763,-3.91227 0.59678,-5.17709c1.59441,-1.26482 3.91227,-0.99764 5.17709,0.59678c1.26482,1.59441 0.99763,3.91227 -0.59678,5.17709c-1.59441,1.26482 -3.91227,0.99764 -5.17709,-0.59678z" fill="url(#color-14)" stroke="none" stroke-width="0" stroke-linecap="butt"/></g><g stroke="none" stroke-width="0" stroke-linecap="butt"><path d="M65.29087,95.21656c4.10024,-6.73111 16.15301,-26.5174 18.83281,-30.91667c1.02782,-1.68731 2.03049,-2.4937 2.03049,-1.5c0,4.32108 0,34.66667 0,34.66667c0,0 -17.11565,0 -20.30492,0c-0.983,0 -1.41875,-0.83759 -0.55839,-2.25z" fill="#e6e6e6"/><path d="M106.15074,97.63323c-3.18927,0 -20.30492,0 -20.30492,0c0,0 0,-30.3456 0,-34.66667c0,-0.99371 1.00267,-0.18731 2.03049,1.5c2.67981,4.39927 14.73257,24.18556 18.83281,30.91667c0.86037,1.41241 0.42461,2.25 -0.55839,2.25z" data-paper-data="{&quot;index&quot;:null}" fill="#d9d9d9"/><g><g><path d="M65.29088,95.21656c4.10024,-6.73111 16.15301,-26.5174 18.83281,-30.91667c1.02782,-1.68731 2.03049,-2.4937 2.03049,-1.5c0,4.32108 0,34.66667 0,34.66667c0,0 -17.11565,0 -20.30492,0c-0.983,0 -1.41875,-0.83759 -0.55839,-2.25z" fill="#cc0000"/><path d="M106.15075,97.63323c-3.18927,0 -20.30492,0 -20.30492,0c0,0 0,-30.3456 0,-34.66667c0,-0.99371 1.00267,-0.18731 2.03049,1.5c2.67981,4.39927 14.73257,24.18556 18.83281,30.91667c0.86037,1.41241 0.42461,2.25 -0.55839,2.25z" data-paper-data="{&quot;index&quot;:null}" fill="#a60000"/></g><path d="M71.75789,97.36551l-5.64199,-3.67253l2.15634,-3.44879l10.00118,7.24271z" fill="#ffffff"/></g></g><path d="M1.5,270.50751v-166h477v166z" fill="#ffffff" stroke="none" stroke-width="0" stroke-linecap="butt"/><path d="M-0.57414,272.00751v-127h482v127z" fill="#4eaad2" stroke="none" stroke-width="0" stroke-linecap="butt"/><path d="M481.37031,103.00751v59h-461.94444v-59z" fill="#5ecfff" stroke="none" stroke-width="0" stroke-linecap="butt"/><path d="M53.34966,119.90751c0,11.95934 0,24.21448 0,30.83334c0,4.95926 -4.77905,11 -11.5,11c-7.54753,0 -42.41517,0 -42.41517,0l-0.43337,-53.50001c0,0 38.91264,0 42.18187,0c5.44652,0 12.16667,4.90772 12.16667,11.66666z" fill="#9ce1ff" stroke="none" stroke-width="0" stroke-linecap="butt"/><path d="M1.20088,103.00815h-2.62674h482.80781h-1.68348" fill="none" stroke="#ffffff" stroke-width="12" stroke-linecap="round"/><path d="M272.81476,120.10288c0,10.35672 0,20.96962 0,26.70151c0,4.2947 -4.13863,9.52594 -9.95894,9.52594c-11.11946,0 -49.59366,0 -55.85668,0c-4.50871,0 -11.40227,-4.24585 -11.69093,-10.68061c-0.19829,-4.42017 -0.11643,-16.51255 0,-24.39219c0.07546,-5.10689 6.31612,-11.25793 12.55693,-11.25793c11.62281,0 50.20867,0 54.41335,0c4.71666,0 10.53628,4.25007 10.53628,10.10327z" fill="#79d7ff" stroke="none" stroke-width="0" stroke-linecap="butt"/><path d="M151.68863,180.65843c0,10.35672 0,20.96962 0,26.70152c0,4.2947 -4.13864,9.52594 -9.95895,9.52594c-11.11946,0 -49.59365,0 -55.85667,0c-4.50871,0 -11.40226,-4.24584 -11.69093,-10.68061c-0.19829,-4.42017 -0.11643,-16.51254 0,-24.39219c0.07546,-5.10689 6.31612,-11.25793 12.55693,-11.25793c11.62282,0 50.20867,0 54.41335,0c4.71666,0 10.53627,4.25006 10.53627,10.10327z" fill="#4597ba" stroke="none" stroke-width="0" stroke-linecap="butt"/><path d="M324.85679,226.19897c0,10.35672 0,20.96962 0,26.70152c0,4.2947 -4.13864,9.52594 -9.95895,9.52594c-11.11946,0 -49.59366,0 -55.85667,0c-4.50871,0 -11.40226,-4.24585 -11.69093,-10.68061c-0.19829,-4.42017 -0.11643,-16.51254 0,-24.39219c0.07546,-5.10689 6.31612,-11.25794 12.55693,-11.25794c11.62282,0 50.20867,0 54.41335,0c4.71666,0 10.53627,4.25006 10.53627,10.10327z" fill="#479cc0" stroke="none" stroke-width="0" stroke-linecap="butt"/><g stroke="none" stroke-width="0" stroke-linecap="butt"><path d="M115.29087,95.21656c4.10024,-6.73111 16.15301,-26.5174 18.83281,-30.91667c1.02782,-1.68731 2.03049,-2.4937 2.03049,-1.5c0,4.32108 0,34.66667 0,34.66667c0,0 -17.11565,0 -20.30492,0c-0.983,0 -1.41875,-0.83759 -0.55839,-2.25z" fill="#e6e6e6"/><path d="M156.15074,97.63323c-3.18927,0 -20.30492,0 -20.30492,0c0,0 0,-30.3456 0,-34.66667c0,-0.99371 1.00267,-0.18731 2.03049,1.5c2.67981,4.39927 14.73257,24.18556 18.83281,30.91667c0.86037,1.41241 0.42461,2.25 -0.55839,2.25z" data-paper-data="{&quot;index&quot;:null}" fill="#d9d9d9"/><g><g><path d="M115.29088,95.21656c4.10024,-6.73111 16.15301,-26.5174 18.83281,-30.91667c1.02782,-1.68731 2.03049,-2.4937 2.03049,-1.5c0,4.32108 0,34.66667 0,34.66667c0,0 -17.11565,0 -20.30492,0c-0.983,0 -1.41875,-0.83759 -0.55839,-2.25z" fill="#cc0000"/><path d="M156.15075,97.63323c-3.18927,0 -20.30492,0 -20.30492,0c0,0 0,-30.3456 0,-34.66667c0,-0.99371 1.00267,-0.18731 2.03049,1.5c2.67981,4.39927 14.73257,24.18556 18.83281,30.91667c0.86037,1.41241 0.42461,2.25 -0.55839,2.25z" data-paper-data="{&quot;index&quot;:null}" fill="#a60000"/></g><path d="M121.75789,97.36551l-5.64199,-3.67253l2.15634,-3.44879l10.00118,7.24271z" fill="#ffffff"/></g></g></g></g></svg>