<svg version="1.1" xmlns="http://www.w3.org/2000/svg" xmlns:xlink="http://www.w3.org/1999/xlink" width="200.34507" height="65.90906" viewBox="0,0,200.34507,65.90906"><g transform="translate(-140.00446,-136.36676)"><g data-paper-data="{&quot;isPaintingLayer&quot;:true}" fill-rule="nonzero" stroke-linejoin="miter" stroke-miterlimit="10" stroke-dasharray="" stroke-dashoffset="0" style="mix-blend-mode: normal"><g stroke="none" stroke-width="0" stroke-linecap="butt"><path d="M269.10592,156.02684c2.45393,-4.02846 9.66732,-15.87024 11.27114,-18.50313c0.61514,-1.00983 1.21521,-1.49244 1.21521,-0.89773c0,2.5861 0,20.74745 0,20.74745c0,0 -10.24345,0 -12.15217,0c-0.58831,0 -0.84909,-0.50129 -0.33418,-1.34659z" fill="#e6e6e6"/><path d="M293.5599,157.47318c-1.90873,0 -12.15217,0 -12.15217,0c0,0 0,-18.16136 0,-20.74745c0,-0.59472 0.60008,-0.1121 1.21522,0.89773c1.60382,2.63289 8.81721,14.47467 11.27114,18.50313c0.51492,0.8453 0.25412,1.34659 -0.33419,1.34659z" data-paper-data="{&quot;index&quot;:null}" fill="#d9d9d9"/><g><g><path d="M269.10593,156.02684c2.45393,-4.02846 9.66732,-15.87024 11.27114,-18.50313c0.61514,-1.00983 1.21522,-1.49244 1.21522,-0.89773c0,2.5861 0,20.74745 0,20.74745c0,0 -10.24345,0 -12.15217,0c-0.58831,0 -0.8491,-0.50129 -0.33419,-1.34659z" fill="#cc0000"/><path d="M293.55991,157.47318c-1.90873,0 -12.15217,0 -12.15217,0c0,0 0,-18.16136 0,-20.74745c0,-0.59472 0.60008,-0.1121 1.21522,0.89773c1.60382,2.63289 8.81721,14.47467 11.27114,18.50313c0.51492,0.8453 0.25412,1.34659 -0.33419,1.34659z" data-paper-data="{&quot;index&quot;:null}" fill="#a60000"/></g><path d="M272.97633,157.31295l-3.37664,-2.19795l1.29054,-2.06405l5.98555,4.33465z" fill="#ffffff"/></g></g><g stroke="none" stroke-width="0" stroke-linecap="butt"><path d="M230.10593,156.02684c2.45393,-4.02846 9.66732,-15.87024 11.27114,-18.50313c0.61513,-1.00983 1.21522,-1.49244 1.21522,-0.89773c0,2.5861 0,20.74745 0,20.74745c0,0 -10.24344,0 -12.15217,0c-0.58831,0 -0.8491,-0.50128 -0.33419,-1.34659z" fill="#e6e6e6"/><path d="M254.5599,157.47318c-1.90873,0 -12.15217,0 -12.15217,0c0,0 0,-18.16136 0,-20.74745c0,-0.59472 0.60008,-0.1121 1.21522,0.89773c1.60382,2.63289 8.81721,14.47467 11.27114,18.50313c0.51492,0.8453 0.25412,1.34659 -0.33419,1.34659z" data-paper-data="{&quot;index&quot;:null}" fill="#d9d9d9"/><g><g><path d="M230.10593,156.02684c2.45393,-4.02846 9.66732,-15.87024 11.27114,-18.50313c0.61513,-1.00983 1.21522,-1.49244 1.21522,-0.89773c0,2.5861 0,20.74745 0,20.74745c0,0 -10.24344,0 -12.15217,0c-0.58831,0 -0.8491,-0.50128 -0.33419,-1.34659z" fill="#cc0000"/><path d="M254.55991,157.47318c-1.90873,0 -12.15217,0 -12.15217,0c0,0 0,-18.16136 0,-20.74745c0,-0.59472 0.60008,-0.1121 1.21522,0.89773c1.60382,2.63289 8.81721,14.47467 11.27114,18.50313c0.51492,0.8453 0.25412,1.34659 -0.33419,1.34659z" data-paper-data="{&quot;index&quot;:null}" fill="#a60000"/></g><path d="M233.97633,157.31295l-3.37664,-2.19795l1.29053,-2.06405l5.98555,4.33465z" fill="#ffffff"/></g></g><path d="M334.34953,163.23352h0.66265h-190.04165h1.03393" fill="none" stroke="#ffffff" stroke-width="12" stroke-linecap="round"/><path d="M145.30579,202.27582v-24.1517h189.72368v24.1517z" fill="#4eaad2" stroke="none" stroke-width="0" stroke-linecap="butt"/><path d="M335.0076,163.23319v20.91821h-188.82946v-20.91821z" fill="#5ecfff" stroke="none" stroke-width="0" stroke-linecap="butt"/><path d="M287.0282,168.83278c0,4.34255 0,8.79251 0,11.19588c0,1.80076 -2.14383,3.9942 -5.15877,3.9942c-5.75992,0 -25.6897,0 -28.93397,0c-2.33553,0 -5.90642,-1.78028 -6.05595,-4.47836c-0.10271,-1.85337 -0.06031,-6.92367 0,-10.22758c0.03909,-2.14131 3.27178,-4.72042 6.50454,-4.72042c6.02066,0 26.00828,0 28.18632,0c2.44324,0 5.45784,1.78204 5.45784,4.23628z" fill="#79d7ff" stroke="none" stroke-width="0" stroke-linecap="butt"/><path d="M221.28441,189.05289c0,3.67193 0,7.43469 0,9.46692c0,1.52267 -2.14383,3.37738 -5.15877,3.37738c-5.75992,0 -25.68969,0 -28.93396,0c-2.33553,0 -5.90641,-1.50535 -6.05594,-3.78677c-0.10271,-1.56716 -0.06031,-5.85445 0,-8.64815c0.03909,-1.81063 3.27177,-3.99145 6.50453,-3.99145c6.02067,0 26.00828,0 28.18632,0c2.44324,0 5.45782,1.50684 5.45782,3.58207z" fill="#4597ba" stroke="none" stroke-width="0" stroke-linecap="butt"/><path d="M173.34446,167.93315c0,4.56054 0,9.23387 0,11.75789c0,1.89115 -2.47557,4.1947 -5.95704,4.1947c-3.90965,0 -21.97121,0 -21.97121,0l-0.22448,-20.40153c0,0 20.15689,0 21.85036,0c2.82132,0 6.30238,1.8715 6.30238,4.44892z" fill="#9ce1ff" stroke="none" stroke-width="0" stroke-linecap="butt"/></g></g></svg>