<svg version="1.1" xmlns="http://www.w3.org/2000/svg" xmlns:xlink="http://www.w3.org/1999/xlink" width="510.01021" height="343.22701" viewBox="0,0,510.01021,343.22701"><defs><linearGradient x1="379.18352" y1="-100.35127" x2="394.34516" y2="-29.92785" gradientUnits="userSpaceOnUse" id="color-1"><stop offset="0" stop-color="#86f5bf"/><stop offset="1" stop-color="#5bc8f5"/></linearGradient><linearGradient x1="342.58512" y1="9.86928" x2="355.52473" y2="18.66236" gradientUnits="userSpaceOnUse" id="color-2"><stop offset="0" stop-color="#6bc399"/><stop offset="1" stop-color="#55b6e6"/></linearGradient><linearGradient x1="342.09904" y1="5.60277" x2="351.5881" y2="12.05103" gradientUnits="userSpaceOnUse" id="color-3"><stop offset="0" stop-color="#6bc399"/><stop offset="1" stop-color="#55b6e6"/></linearGradient><linearGradient x1="444.23112" y1="-11.60918" x2="448.96373" y2="0.35236" gradientUnits="userSpaceOnUse" id="color-4"><stop offset="0" stop-color="#6bc399"/><stop offset="1" stop-color="#55b6e6"/></linearGradient><linearGradient x1="439.10563" y1="-13.30526" x2="448.07722" y2="-5.60911" gradientUnits="userSpaceOnUse" id="color-5"><stop offset="0" stop-color="#6bc399"/><stop offset="1" stop-color="#55b6e6"/></linearGradient><linearGradient x1="430.61847" y1="-1.52061" x2="439.59005" y2="6.17555" gradientUnits="userSpaceOnUse" id="color-6"><stop offset="0" stop-color="#6bc399"/><stop offset="1" stop-color="#55b6e6"/></linearGradient><linearGradient x1="419.87128" y1="-22.90056" x2="426.99584" y2="-16.7888" gradientUnits="userSpaceOnUse" id="color-7"><stop offset="0" stop-color="#6bc399"/><stop offset="1" stop-color="#55b6e6"/></linearGradient><linearGradient x1="414.66755" y1="-10.6719" x2="416.96747" y2="-1.57119" gradientUnits="userSpaceOnUse" id="color-8"><stop offset="0" stop-color="#6bc399"/><stop offset="1" stop-color="#55b6e6"/></linearGradient><linearGradient x1="371.87647" y1="-16.27524" x2="378.52649" y2="-9.65023" gradientUnits="userSpaceOnUse" id="color-9"><stop offset="0" stop-color="#6bc399"/><stop offset="1" stop-color="#55b6e6"/></linearGradient><linearGradient x1="398.45522" y1="-38.41126" x2="400.34244" y2="-30.28363" gradientUnits="userSpaceOnUse" id="color-10"><stop offset="0" stop-color="#6bc399"/><stop offset="1" stop-color="#55b6e6"/></linearGradient><linearGradient x1="368.23019" y1="-2.42704" x2="374.43333" y2="5.95696" gradientUnits="userSpaceOnUse" id="color-11"><stop offset="0" stop-color="#6bc399"/><stop offset="1" stop-color="#55b6e6"/></linearGradient><linearGradient x1="353.40367" y1="-11.53003" x2="360.61557" y2="21.96811" gradientUnits="userSpaceOnUse" id="color-12"><stop offset="0" stop-color="#86f5bf"/><stop offset="1" stop-color="#5bc8f5"/></linearGradient><linearGradient x1="343.96001" y1="32.65643" x2="349.81324" y2="26.71003" gradientUnits="userSpaceOnUse" id="color-13"><stop offset="0" stop-color="#6bc399"/><stop offset="1" stop-color="#55b6e6"/></linearGradient><linearGradient x1="374.67277" y1="14.86262" x2="370.97915" y2="22.34445" gradientUnits="userSpaceOnUse" id="color-14"><stop offset="0" stop-color="#6bc399"/><stop offset="1" stop-color="#55b6e6"/></linearGradient><linearGradient x1="211.41971" y1="-124.09431" x2="211.41971" y2="-44.78212" gradientUnits="userSpaceOnUse" id="color-15"><stop offset="0" stop-color="#86f5bf"/><stop offset="1" stop-color="#5bc8f5"/></linearGradient><linearGradient x1="146.48678" y1="-13.94141" x2="158.37649" y2="-1.47871" gradientUnits="userSpaceOnUse" id="color-16"><stop offset="0" stop-color="#6bc399"/><stop offset="1" stop-color="#55b6e6"/></linearGradient><linearGradient x1="146.95225" y1="-18.64622" x2="155.67138" y2="-9.5069" gradientUnits="userSpaceOnUse" id="color-17"><stop offset="0" stop-color="#6bc399"/><stop offset="1" stop-color="#55b6e6"/></linearGradient><linearGradient x1="260.86855" y1="-13.50531" x2="263.19061" y2="0.46592" gradientUnits="userSpaceOnUse" id="color-18"><stop offset="0" stop-color="#6bc399"/><stop offset="1" stop-color="#55b6e6"/></linearGradient><linearGradient x1="255.74486" y1="-16.51857" x2="263.61786" y2="-6.15601" gradientUnits="userSpaceOnUse" id="color-19"><stop offset="0" stop-color="#6bc399"/><stop offset="1" stop-color="#55b6e6"/></linearGradient><linearGradient x1="243.87907" y1="-5.80108" x2="251.75205" y2="4.56147" gradientUnits="userSpaceOnUse" id="color-20"><stop offset="0" stop-color="#6bc399"/><stop offset="1" stop-color="#55b6e6"/></linearGradient><linearGradient x1="237.26583" y1="-31.30337" x2="243.51796" y2="-23.07415" gradientUnits="userSpaceOnUse" id="color-21"><stop offset="0" stop-color="#6bc399"/><stop offset="1" stop-color="#55b6e6"/></linearGradient><linearGradient x1="228.8312" y1="-19.34714" x2="229.1978" y2="-9.01881" gradientUnits="userSpaceOnUse" id="color-22"><stop offset="0" stop-color="#6bc399"/><stop offset="1" stop-color="#55b6e6"/></linearGradient><linearGradient x1="184.07231" y1="-35.29398" x2="189.69474" y2="-26.6223" gradientUnits="userSpaceOnUse" id="color-23"><stop offset="0" stop-color="#6bc399"/><stop offset="1" stop-color="#55b6e6"/></linearGradient><linearGradient x1="217.80931" y1="-52.96066" x2="217.95719" y2="-43.77533" gradientUnits="userSpaceOnUse" id="color-24"><stop offset="0" stop-color="#6bc399"/><stop offset="1" stop-color="#55b6e6"/></linearGradient><linearGradient x1="176.93872" y1="-21.23369" x2="181.67256" y2="-10.7723" gradientUnits="userSpaceOnUse" id="color-25"><stop offset="0" stop-color="#6bc399"/><stop offset="1" stop-color="#55b6e6"/></linearGradient><linearGradient x1="163.08989" y1="-34.46719" x2="163.08989" y2="3.25904" gradientUnits="userSpaceOnUse" id="color-26"><stop offset="0" stop-color="#86f5bf"/><stop offset="1" stop-color="#5bc8f5"/></linearGradient><linearGradient x1="142.68625" y1="10.90369" x2="150.36418" y2="5.85973" gradientUnits="userSpaceOnUse" id="color-27"><stop offset="0" stop-color="#6bc399"/><stop offset="1" stop-color="#55b6e6"/></linearGradient><linearGradient x1="179.8666" y1="-1.13139" x2="174.15731" y2="6.06563" gradientUnits="userSpaceOnUse" id="color-28"><stop offset="0" stop-color="#6bc399"/><stop offset="1" stop-color="#55b6e6"/></linearGradient><linearGradient x1="287.43687" y1="-48.64257" x2="265.80502" y2="4.25777" gradientUnits="userSpaceOnUse" id="color-29"><stop offset="0" stop-color="#86f5bf"/><stop offset="1" stop-color="#5bc8f5"/></linearGradient><linearGradient x1="214.08389" y1="7.11819" x2="218.61508" y2="18.6735" gradientUnits="userSpaceOnUse" id="color-30"><stop offset="0" stop-color="#6bc399"/><stop offset="1" stop-color="#55b6e6"/></linearGradient><linearGradient x1="215.67756" y1="4.10708" x2="219.00044" y2="12.58099" gradientUnits="userSpaceOnUse" id="color-31"><stop offset="0" stop-color="#6bc399"/><stop offset="1" stop-color="#55b6e6"/></linearGradient><linearGradient x1="290.25632" y1="38.60589" x2="287.99455" y2="48.55787" gradientUnits="userSpaceOnUse" id="color-32"><stop offset="0" stop-color="#6bc399"/><stop offset="1" stop-color="#55b6e6"/></linearGradient><linearGradient x1="287.66072" y1="35.19863" x2="290.08561" y2="44.25765" gradientUnits="userSpaceOnUse" id="color-33"><stop offset="0" stop-color="#6bc399"/><stop offset="1" stop-color="#55b6e6"/></linearGradient><linearGradient x1="276.82325" y1="39.11076" x2="279.24813" y2="48.16977" gradientUnits="userSpaceOnUse" id="color-34"><stop offset="0" stop-color="#6bc399"/><stop offset="1" stop-color="#55b6e6"/></linearGradient><linearGradient x1="279.36786" y1="20.29731" x2="281.2935" y2="27.49133" gradientUnits="userSpaceOnUse" id="color-35"><stop offset="0" stop-color="#6bc399"/><stop offset="1" stop-color="#55b6e6"/></linearGradient><linearGradient x1="270.48107" y1="25.97149" x2="267.90862" y2="32.96036" gradientUnits="userSpaceOnUse" id="color-36"><stop offset="0" stop-color="#6bc399"/><stop offset="1" stop-color="#55b6e6"/></linearGradient><linearGradient x1="244.97679" y1="3.12745" x2="246.36175" y2="10.44484" gradientUnits="userSpaceOnUse" id="color-37"><stop offset="0" stop-color="#6bc399"/><stop offset="1" stop-color="#55b6e6"/></linearGradient><linearGradient x1="272.29746" y1="0.5455" x2="269.89086" y2="6.71235" gradientUnits="userSpaceOnUse" id="color-38"><stop offset="0" stop-color="#6bc399"/><stop offset="1" stop-color="#55b6e6"/></linearGradient><linearGradient x1="236.38392" y1="10.55987" x2="236.68806" y2="18.82862" gradientUnits="userSpaceOnUse" id="color-39"><stop offset="0" stop-color="#6bc399"/><stop offset="1" stop-color="#55b6e6"/></linearGradient><linearGradient x1="230.75624" y1="-2.0439" x2="220.46667" y2="23.11908" gradientUnits="userSpaceOnUse" id="color-40"><stop offset="0" stop-color="#86f5bf"/><stop offset="1" stop-color="#5bc8f5"/></linearGradient><linearGradient x1="204.77265" y1="22.65302" x2="211.26945" y2="21.38286" gradientUnits="userSpaceOnUse" id="color-41"><stop offset="0" stop-color="#6bc399"/><stop offset="1" stop-color="#55b6e6"/></linearGradient><linearGradient x1="232.85402" y1="24.76644" x2="227.08305" y2="28.0096" gradientUnits="userSpaceOnUse" id="color-42"><stop offset="0" stop-color="#6bc399"/><stop offset="1" stop-color="#55b6e6"/></linearGradient></defs><g transform="translate(24.31175,71.2195)"><g data-paper-data="{&quot;isPaintingLayer&quot;:true}" fill-rule="nonzero" stroke-linejoin="miter" stroke-miterlimit="10" stroke-dasharray="" stroke-dashoffset="0" style="mix-blend-mode: normal"><g data-paper-data="{&quot;index&quot;:null}"><g><g><path d="M407.03453,112.36632l-20.1953,-93.80393l32.28759,-6.95127l20.1953,93.80395z" fill="#b06041" stroke="none" stroke-width="0" stroke-linecap="butt"/><path d="M433.03453,106.76871l-20.19529,-93.80392l6.11766,-1.31709l20.1953,93.80396z" fill="#ab5c37" stroke="none" stroke-width="0" stroke-linecap="butt"/><path d="M407.20446,112.32973l-20.19529,-93.80392l6.11764,-1.31708l20.1953,93.80395z" fill="#ab5c37" stroke="none" stroke-width="0" stroke-linecap="butt"/><path d="M405.8495,64.73093l-4.48784,-20.8453" fill="none" stroke="#ad6c4e" stroke-width="6" stroke-linecap="round"/><path d="M422.12084,67.62905l4.48785,20.84533" fill="none" stroke="#ad6c4e" stroke-width="6" stroke-linecap="round"/><path d="M408.68605,34.95921l-4.3415,-20.16558l0.63415,2.94552" fill="none" stroke="#ad6c4e" stroke-width="6" stroke-linecap="round"/></g><g fill="#ab5c37" stroke="none" stroke-linecap="butt"><path d="M370.98474,69.62914l-1.85368,-8.61003l28.77561,-6.19518l1.85368,8.61003z" stroke-width="NaN"/><path d="M370.75816,69.67793c-2.3776,0.51188 -4.71996,-1.00058 -5.23183,-3.37818c-0.51188,-2.3776 1.00056,-4.71997 3.37816,-5.23185c2.3776,-0.51188 4.71997,1.00058 5.23185,3.37819c0.51188,2.3776 -1.00057,4.71997 -3.37817,5.23185z" stroke-width="0"/></g><g fill="#ab5c37" stroke="none" stroke-linecap="butt"><path d="M374.17647,64.08183l-8.61004,1.85368l-6.19518,-28.77561l8.61004,-1.85368z" stroke-width="NaN"/><path d="M374.22526,64.30839c0.51188,2.3776 -1.0006,4.71998 -3.3782,5.23186c-2.3776,0.51188 -4.71997,-1.00058 -5.23185,-3.37818c-0.51188,-2.3776 1.00058,-4.71997 3.37818,-5.23185c2.3776,-0.51188 4.71999,1.00057 5.23187,3.37817z" stroke-width="0"/></g><path d="M388.71237,25.74572l-1.5122,-7.02396l31.94774,-6.87812l1.5122,7.02396z" fill="#86482b" stroke="none" stroke-width="NaN" stroke-linecap="butt"/><path d="M362.35073,50.86186l-1.51221,-7.02395l8.38345,-1.80489l1.5122,7.02395z" fill="#86482b" stroke="none" stroke-width="NaN" stroke-linecap="butt"/></g><g stroke="none" stroke-width="0" stroke-linecap="butt"><path d="M451.63324,-4.42779c1.38292,6.42344 -3.2202,11.98459 -8.61006,13.14498c-11.56764,2.49043 -56.00125,12.05665 -76.98186,16.57362c-6.76522,1.45651 -12.01593,-1.90386 -13.37858,-8.23316c-3.17917,-14.76676 -8.74602,-40.62387 -10.53668,-48.94119c-1.09239,-5.07396 1.98899,-11.79266 8.75362,-13.24904c20.93428,-4.507 65.2113,-14.03952 76.82182,-16.53917c5.45708,-1.17487 12.31678,3.29429 13.39508,8.30278c1.77907,8.2635 7.34017,34.09395 10.53668,48.94119z" fill="url(#color-1)"/><path d="M365.01378,25.11063c-2.42813,3.57316 -7.29316,4.5014 -10.86635,2.07325c-3.57316,-2.42813 -4.50141,-7.29317 -2.07326,-10.86636c2.42813,-3.57316 7.29318,-4.50142 10.86637,-2.07326c3.57318,2.42813 4.5014,7.29318 2.07325,10.86636z" fill="url(#color-2)"/><path d="M358.54674,16.77979c-1.78065,2.62034 -5.34833,3.30104 -7.96867,1.52038c-2.62032,-1.78066 -3.30103,-5.34831 -1.52038,-7.96865c1.78065,-2.62034 5.34833,-3.30103 7.96867,-1.5204c2.62032,1.78066 3.30104,5.34833 1.52038,7.96867z" fill="url(#color-3)"/><path d="M452.4343,9.12413c-3.30307,1.30684 -7.04021,-0.31138 -8.34707,-3.61445c-1.30686,-3.30308 0.3114,-7.04022 3.61447,-8.34705c3.30307,-1.30684 7.04019,0.31139 8.34706,3.61446c1.30686,3.30308 -0.31139,7.0402 -3.61447,8.34705z" fill="url(#color-4)"/><path d="M454.65636,0.03473c-2.12524,2.47744 -5.85644,2.76295 -8.33387,0.63771c-2.47744,-2.12524 -2.76293,-5.85645 -0.63771,-8.33388c2.12524,-2.47744 5.85644,-2.76293 8.33387,-0.63769c2.47744,2.12524 2.76294,5.85642 0.63772,8.33386z" fill="url(#color-5)"/><path d="M445.53149,3.48554c2.47744,2.12524 2.76295,5.85641 0.63771,8.33385c-2.12524,2.47744 -5.85644,2.76295 -8.33388,0.6377c-2.47744,-2.12524 -2.76294,-5.85643 -0.63772,-8.33387c2.12524,-2.47744 5.85642,-2.76294 8.33386,-0.6377z" fill="url(#color-6)"/><path d="M432.22055,-12.30688c-1.68774,1.96742 -4.65075,2.19415 -6.61814,0.50642c-1.96739,-1.68774 -2.19414,-4.65076 -0.50641,-6.61815c1.68774,-1.96742 4.65076,-2.19414 6.61817,-0.50641c1.96739,1.68774 2.19412,4.65075 0.50642,6.61814z" fill="url(#color-7)"/><path d="M418.65411,5.1027c-2.5131,0.63511 -5.06523,-0.8873 -5.70034,-3.40039c-0.63511,-2.5131 0.88729,-5.06523 3.40039,-5.70034c2.5131,-0.63511 5.06521,0.8873 5.70034,3.40039c0.63511,2.5131 -0.8873,5.06521 -3.40039,5.70034z" fill="url(#color-8)"/><path d="M383.40313,-4.7919c-1.82945,1.83636 -4.80116,1.84193 -6.63749,0.01249c-1.83635,-1.82943 -1.84195,-4.80115 -0.01249,-6.63748c1.82945,-1.83636 4.80116,-1.84195 6.6375,-0.0125c1.83636,1.82945 1.84195,4.80115 0.01249,6.63751z" fill="url(#color-9)"/><path d="M401.7264,-24.32335c-2.2444,0.52116 -4.48629,-0.87581 -5.00743,-3.12021c-0.52116,-2.2444 0.87582,-4.48629 3.12023,-5.00743c2.2444,-0.52116 4.48629,0.87583 5.00742,3.12023c0.52116,2.2444 -0.87582,4.48629 -3.12022,5.00743z" fill="url(#color-10)"/><path d="M378.98228,12.10526c-2.31519,1.71293 -5.58061,1.22475 -7.29356,-1.09044c-1.71293,-2.3152 -1.22475,-5.58063 1.09044,-7.29356c2.31519,-1.71293 5.58064,-1.22476 7.29357,1.09044c1.71293,2.3152 1.22474,5.58064 -1.09044,7.29356z" fill="url(#color-11)"/></g><path d="M387.86564,34.09767c0.65781,3.05542 -1.53175,5.70069 -4.09553,6.25265c-5.50236,1.18462 -26.63799,5.73496 -36.61778,7.88354c-3.218,0.69281 -5.7156,-0.90559 -6.36377,-3.91624c-1.51224,-7.0241 -4.1602,-19.32347 -5.01196,-23.27975c-0.51962,-2.41353 0.94609,-5.60941 4.16382,-6.30216c9.95777,-2.14383 31.01893,-6.67815 36.54168,-7.86716c2.59576,-0.55885 5.85871,1.567 6.37161,3.94938c0.84624,3.93069 3.49149,16.21741 5.01196,23.27976z" fill="url(#color-12)" stroke="none" stroke-width="0" stroke-linecap="butt"/><path d="M354.10563,22.34928c1.64206,1.61632 1.66294,4.25776 0.04662,5.89984c-1.61634,1.64209 -4.25776,1.66292 -5.89985,0.0466c-1.64206,-1.61632 -1.66291,-4.25777 -0.04659,-5.89985c1.61634,-1.64209 4.25776,-1.66292 5.89982,-0.04659z" fill="url(#color-13)" stroke="none" stroke-width="0" stroke-linecap="butt"/><path d="M368.27053,27.83111c-2.06605,-1.01995 -2.91406,-3.52166 -1.89411,-5.58772c1.01996,-2.06603 3.52168,-2.91405 5.58772,-1.89409c2.06604,1.01996 2.91406,3.52166 1.89411,5.58772c-1.01996,2.06604 -3.52169,2.91406 -5.58772,1.89411z" fill="url(#color-14)" stroke="none" stroke-width="0" stroke-linecap="butt"/></g><g data-paper-data="{&quot;index&quot;:null}"><g><g><path d="M192.1044,111.31384v-105.64377h36.36289v105.6438z" fill="#b06041" stroke="none" stroke-width="0" stroke-linecap="butt"/><path d="M221.3861,111.31384v-105.64377h6.88983v105.6438z" fill="#ab5c37" stroke="none" stroke-width="0" stroke-linecap="butt"/><path d="M192.29578,111.31384v-105.64377h6.8898v105.6438z" fill="#ab5c37" stroke="none" stroke-width="0" stroke-linecap="butt"/><path d="M201.86728,59.76784v-23.47637" fill="none" stroke="#ad6c4e" stroke-width="6" stroke-linecap="round"/><path d="M218.70904,66.65766v23.47641" fill="none" stroke="#ad6c4e" stroke-width="6" stroke-linecap="round"/><path d="M211.81922,28.38093v-22.71086v3.3173" fill="none" stroke="#ad6c4e" stroke-width="6" stroke-linecap="round"/></g><g fill="#ab5c37" stroke="none" stroke-linecap="butt"><path d="M163.20624,56.96086v-9.69678h32.40764v9.69678z" stroke-width="NaN"/><path d="M162.95106,56.96086c-2.67769,0 -4.84837,-2.17069 -4.84837,-4.84838c0,-2.67769 2.17068,-4.8484 4.84837,-4.8484c2.6777,0 4.84838,2.1707 4.84838,4.8484c0,2.6777 -2.17069,4.84838 -4.84838,4.84838z" stroke-width="0"/></g><g fill="#ab5c37" stroke="none" stroke-linecap="butt"><path d="M167.92704,51.72973h-9.69679v-32.40764h9.69679z" stroke-width="NaN"/><path d="M167.92706,51.98488c0,2.6777 -2.17072,4.8484 -4.84842,4.8484c-2.67769,0 -4.84839,-2.1707 -4.84839,-4.8484c0,-2.67769 2.17069,-4.84839 4.84839,-4.84839c2.6777,0 4.84842,2.17069 4.84842,4.84839z" stroke-width="0"/></g><path d="M192.45595,13.83576v-7.91051h35.98015v7.91052z" fill="#86482b" stroke="none" stroke-width="NaN" stroke-linecap="butt"/><path d="M158.26205,34.76035v-7.91051h9.4416v7.91051z" fill="#86482b" stroke="none" stroke-width="NaN" stroke-linecap="butt"/></g><g stroke="none" stroke-width="0" stroke-linecap="butt"><path d="M267.17157,-4.06051c0,7.2342 -6.24315,12.15317 -12.31331,12.15317c-13.0277,0 -63.06967,0 -86.69843,0c-7.61912,0 -12.49194,-4.83358 -12.49194,-11.96176c0,-16.63061 0,-45.75137 0,-55.1185c0,-5.71439 4.87348,-12.23189 12.49194,-12.23189c23.57659,0 73.44221,0 86.51819,0c6.14587,0 12.49355,6.39985 12.49355,12.04052c0,9.30651 0,38.39726 0,55.11851z" fill="url(#color-15)"/><path d="M167.09561,7.66062c-3.44147,3.28323 -8.89294,3.15499 -12.17621,-0.2865c-3.28323,-3.44147 -3.15499,-8.89296 0.2865,-12.17622c3.44147,-3.28324 8.89296,-3.15499 12.17622,0.28651c3.28327,3.44147 3.15497,8.89296 -0.28652,12.17622z" fill="url(#color-16)"/><path d="M162.06541,-2.8047c-2.52376,2.40773 -6.52151,2.31367 -8.92924,-0.21011c-2.4077,-2.52377 -2.31366,-6.52148 0.21012,-8.92921c2.52376,-2.40773 6.5215,-2.31366 8.92923,0.21009c2.4077,2.52378 2.31366,6.5215 -0.21011,8.92923z" fill="url(#color-17)"/><path d="M264.89344,10.71146c-3.85802,0.64119 -7.50543,-1.96654 -8.14664,-5.82457c-0.64121,-3.85804 1.96657,-7.50543 5.82459,-8.14662c3.85802,-0.64119 7.50541,1.96655 8.14662,5.82457c0.64121,3.85804 -1.96655,7.50543 -5.82459,8.14662z" fill="url(#color-18)"/><path d="M269.39137,1.44318c-2.86154,2.17407 -6.94371,1.61675 -9.11777,-1.24479c-2.17407,-2.86154 -1.61674,-6.94371 1.24478,-9.11777c2.86154,-2.17407 6.94371,-1.61673 9.11777,1.24482c2.17407,2.86155 1.61674,6.94369 -1.24478,9.11776z" fill="url(#color-19)"/><path d="M258.77034,3.04292c2.17407,2.86155 1.61677,6.94368 -1.24478,9.11775c-2.86155,2.17407 -6.9437,1.61675 -9.11777,-1.2448c-2.17407,-2.86155 -1.61675,-6.9437 1.24478,-9.11777c2.86155,-2.17407 6.94369,-1.61675 9.11776,1.2448z" fill="url(#color-20)"/><path d="M248.1029,-17.03943c-2.27246,1.7265 -5.51419,1.28394 -7.24066,-0.98852c-1.72647,-2.27246 -1.28393,-5.51419 0.98853,-7.24066c2.27246,-1.7265 5.51419,-1.28392 7.24068,0.98853c1.72647,2.27246 1.2839,5.51418 -0.98852,7.24065z" fill="url(#color-21)"/><path d="M229.46667,-1.44466c-2.8521,0.10123 -5.24625,-2.12877 -5.34749,-4.98086c-0.10124,-2.8521 2.12876,-5.24625 4.98086,-5.34749c2.8521,-0.10124 5.24623,2.12876 5.34749,4.98086c0.10124,2.8521 -2.12876,5.24623 -4.98086,5.34749z" fill="url(#color-22)"/><path d="M193.81782,-20.26309c-2.39462,1.5526 -5.59446,0.86997 -7.14703,-1.52463c-1.55259,-2.3946 -0.86999,-5.59444 1.52464,-7.14701c2.39462,-1.5526 5.59446,-0.86999 7.14703,1.52463c1.55259,2.39463 0.86998,5.59445 -1.52464,7.14704z" fill="url(#color-23)"/><path d="M218.06565,-37.0394c-2.53648,0.04085 -4.62578,-1.98225 -4.66661,-4.51873c-0.04085,-2.53648 1.98227,-4.62578 4.51875,-4.66661c2.53648,-0.04085 4.62578,1.98227 4.66661,4.51875c0.04085,2.53648 -1.98227,4.62577 -4.51875,4.6666z" fill="url(#color-24)"/><path d="M185.14401,-3.10059c-2.88885,1.30719 -6.29038,0.02506 -7.5976,-2.86379c-1.30719,-2.88884 -0.02505,-6.2904 2.86378,-7.59759c2.88885,-1.30719 6.29042,-0.02506 7.59761,2.86378c1.30719,2.88885 0.02504,6.29041 -2.86379,7.5976z" fill="url(#color-25)"/></g><path d="M189.60922,22.62901c0,3.44107 -2.96967,5.78088 -5.85705,5.78088c-6.19685,0 -30.00022,0 -41.23964,0c-3.62418,0 -5.94203,-2.29916 -5.94203,-5.68981c0,-7.91067 0,-21.76246 0,-26.21809c0,-2.71816 2.31815,-5.81835 5.94203,-5.81835c11.21463,0 34.9341,0 41.15393,0c2.92339,0 5.94279,3.04423 5.94279,5.7273c0,4.42682 0,18.26436 0,26.21812z" fill="url(#color-26)" stroke="none" stroke-width="0" stroke-linecap="butt"/><path d="M155.99471,2.16079c1.39285,2.12021 0.80324,4.9681 -1.31697,6.36098c-2.12024,1.39288 -4.96811,0.80322 -6.36098,-1.31699c-1.39285,-2.12021 -0.80321,-4.96811 1.317,-6.36098c2.12024,-1.39287 4.9681,-0.80321 6.36095,1.317z" fill="url(#color-27)" stroke="none" stroke-width="0" stroke-linecap="butt"/><path d="M169.97054,11.34343c-1.9874,-1.57657 -2.32043,-4.46573 -0.74386,-6.45314c1.57656,-1.98738 4.46576,-2.32043 6.45315,-0.74385c1.98739,1.57656 2.32043,4.46573 0.74386,6.45315c-1.57656,1.98739 -4.46577,2.32043 -6.45315,0.74386z" fill="url(#color-28)" stroke="none" stroke-width="0" stroke-linecap="butt"/></g><g data-paper-data="{&quot;index&quot;:null}"><g><g><path d="M210.34784,103.10394l28.8136,-70.46323l24.25364,9.91773l-28.81361,70.46324z" fill="#b06041" stroke="none" stroke-width="0" stroke-linecap="butt"/><path d="M229.87841,111.09032l28.8136,-70.46322l4.59544,1.87915l-28.81361,70.46325z" fill="#ab5c37" stroke="none" stroke-width="0" stroke-linecap="butt"/><path d="M210.47549,103.15613l28.8136,-70.46322l4.59542,1.87915l-28.81361,70.46325z" fill="#ab5c37" stroke="none" stroke-width="0" stroke-linecap="butt"/><path d="M230.91838,71.38608l6.40302,-15.65848" fill="none" stroke="#ad6c4e" stroke-width="6" stroke-linecap="round"/><path d="M240.2725,80.57499l-6.40302,15.65851" fill="none" stroke="#ad6c4e" stroke-width="6" stroke-linecap="round"/><path d="M246.11678,53.16569l6.19423,-15.1479l-0.90477,2.2126" fill="none" stroke="#ad6c4e" stroke-width="6" stroke-linecap="round"/></g><g fill="#ab5c37" stroke="none" stroke-linecap="butt"><path d="M205.89748,58.96933l2.64472,-6.46764l21.61554,8.83896l-2.64473,6.46764z" stroke-width="NaN"/><path d="M205.72728,58.89973c-1.786,-0.73033 -2.64177,-2.77018 -1.91145,-4.55618c0.73032,-1.78599 2.77018,-2.64179 4.55617,-1.91146c1.786,0.73033 2.64177,2.7702 1.91145,4.55619c-0.73032,1.78599 -2.77018,2.64178 -4.55618,1.91145z" stroke-width="0"/></g><g fill="#ab5c37" stroke="none" stroke-linecap="butt"><path d="M210.47296,56.76779l-6.46765,-2.64473l8.83896,-21.61554l6.46765,2.64473z" stroke-width="NaN"/><path d="M210.40338,56.93798c-0.73032,1.78599 -2.77021,2.64178 -4.55621,1.91145c-1.786,-0.73033 -2.64178,-2.7702 -1.91145,-4.55619c0.73032,-1.78599 2.77019,-2.64178 4.55618,-1.91145c1.786,0.73033 2.6418,2.7702 1.91147,4.55619z" stroke-width="0"/></g><path d="M237.16878,38.18302l2.15754,-5.27622l23.99836,9.81333l-2.15754,5.27623z" fill="#86482b" stroke="none" stroke-width="NaN" stroke-linecap="butt"/><path d="M208.6548,42.81334l2.15753,-5.27622l6.29744,2.57513l-2.15754,5.27622z" fill="#86482b" stroke="none" stroke-width="NaN" stroke-linecap="butt"/></g><g stroke="none" stroke-width="0" stroke-linecap="butt"><path d="M291.88436,46.62458c-1.97308,4.82513 -7.4788,6.40326 -11.52753,4.74766c-8.68933,-3.55322 -42.06677,-17.20182 -57.8269,-23.6464c-5.08187,-2.07806 -7.01366,-6.63104 -5.0695,-11.38545c4.53589,-11.09243 12.47837,-30.51566 15.03319,-36.76343c1.55856,-3.81143 6.58672,-6.82933 11.66814,-4.75145c15.72532,6.43035 48.98514,20.03085 57.70668,23.59724c4.09922,1.67625 6.58754,7.67617 5.04909,11.43843c-2.53828,6.20734 -10.47258,25.61054 -15.03319,36.76343z" fill="url(#color-29)"/><path d="M221.93795,27.14741c-3.1909,1.25125 -6.79199,-0.32115 -8.04325,-3.51207c-1.25125,-3.1909 0.32115,-6.792 3.51207,-8.04326c3.1909,-1.25124 6.79201,0.32115 8.04326,3.51208c1.25126,3.19091 -0.32116,6.79201 -3.51208,8.04326z" fill="url(#color-30)"/><path d="M221.43721,18.79521c-2.34001,0.91759 -4.98081,-0.23551 -5.89839,-2.57553c-0.91757,-2.34002 0.2355,-4.98079 2.57552,-5.89838c2.34001,-0.91759 4.9808,0.23552 5.8984,2.57552c0.91757,2.34002 -0.23551,4.98081 -2.57553,5.89839z" fill="url(#color-31)"/><path d="M286.33592,55.85597c-2.74814,-0.62459 -4.46968,-3.35872 -3.8451,-6.10686c0.62457,-2.74815 3.35874,-4.46968 6.10687,-3.84509c2.74814,0.62459 4.46966,3.35872 3.84509,6.10686c-0.62457,2.74815 -3.35872,4.46967 -6.10688,3.84508z" fill="url(#color-32)"/><path d="M291.86384,50.90091c-2.50158,0.66962 -5.07234,-0.81549 -5.74194,-3.31707c-0.66962,-2.50158 0.8155,-5.07234 3.31707,-5.74195c2.50158,-0.66962 5.07233,0.81551 5.74194,3.31708c0.66962,2.50158 -0.81549,5.07232 -3.31706,5.74194z" fill="url(#color-33)"/><path d="M284.34342,49.07111c0.66962,2.50158 -0.81547,5.07231 -3.31706,5.74193c-2.50158,0.66962 -5.07234,-0.81549 -5.74194,-3.31708c-0.66962,-2.50158 0.81549,-5.07232 3.31706,-5.74194c2.50158,-0.66962 5.07232,0.81548 5.74194,3.31707z" fill="url(#color-34)"/><path d="M282.70567,32.76693c-1.9866,0.53176 -4.02808,-0.64758 -4.55982,-2.63418c-0.53174,-1.98659 0.6476,-4.02809 2.63418,-4.55982c1.9866,-0.53176 4.02808,0.64759 4.55983,2.63419c0.53174,1.98659 -0.6476,4.02807 -2.63417,4.55982z" fill="url(#color-35)"/><path d="M266.02216,38.08557c-1.92993,-0.71037 -2.91859,-2.85075 -2.20822,-4.78067c0.71037,-1.92993 2.85074,-2.91859 4.78067,-2.20822c1.92993,0.71037 2.91857,2.85073 2.20822,4.78067c-0.71037,1.92993 -2.85073,2.91857 -4.78067,2.20822z" fill="url(#color-36)"/><path d="M247.37736,15.8109c-2.02065,0.38245 -3.96872,-0.94559 -4.35116,-2.96621c-0.38245,-2.02063 0.94557,-3.96872 2.96621,-4.35115c2.02065,-0.38245 3.96873,0.94557 4.35116,2.96622c0.38244,2.02065 -0.94557,3.96872 -2.96622,4.35117z" fill="url(#color-37)"/><path d="M268.12602,11.23472c-1.70294,-0.66456 -2.5447,-2.58379 -1.88013,-4.28673c0.66456,-1.70294 2.5838,-2.54469 4.28674,-1.88012c1.70294,0.66456 2.54469,2.5838 1.88011,4.28674c-0.66456,1.70294 -2.58379,2.5447 -4.28673,1.88012z" fill="url(#color-38)"/><path d="M236.91107,24.89238c-2.28336,0.08397 -4.20245,-1.69894 -4.28643,-3.9823c-0.08397,-2.28336 1.69895,-4.20247 3.9823,-4.28644c2.28336,-0.08397 4.20248,1.69895 4.28645,3.98231c0.08397,2.28336 -1.69896,4.20247 -3.9823,4.28644z" fill="url(#color-39)"/></g><path d="M232.87175,43.27159c-0.93853,2.29516 -3.55743,3.04582 -5.48328,2.25831c-4.13324,-1.69015 -20.00981,-8.18235 -27.50638,-11.24782c-2.41728,-0.98847 -3.33619,-3.15416 -2.41141,-5.41569c2.15758,-5.27633 5.93556,-14.51532 7.15081,-17.48718c0.74136,-1.81298 3.13309,-3.24851 5.55017,-2.26013c7.48003,3.05871 23.30066,9.52803 27.44922,11.22445c1.94987,0.79734 3.13348,3.65132 2.40169,5.4409c-1.20738,2.95264 -4.98148,12.18212 -7.15081,17.48719z" fill="url(#color-40)" stroke="none" stroke-width="0" stroke-linecap="butt"/><path d="M216.03381,20.45139c0.35074,1.79405 -0.81927,3.53275 -2.61332,3.88351c-1.79407,0.35075 -3.53274,-0.81928 -3.88351,-2.61334c-0.35074,-1.79405 0.81929,-3.53274 2.61334,-3.8835c1.79407,-0.35075 3.53274,0.81928 3.88348,2.61332z" fill="url(#color-41)" stroke="none" stroke-width="0" stroke-linecap="butt"/><path d="M222.85104,30.38792c-0.89558,-1.5936 -0.3297,-3.61148 1.2639,-4.50706c1.59359,-0.89557 3.61149,-0.32969 4.50706,1.26391c0.89557,1.5936 0.3297,3.61147 -1.2639,4.50706c-1.5936,0.89557 -3.61149,0.3297 -4.50706,-1.2639z" fill="url(#color-42)" stroke="none" stroke-width="0" stroke-linecap="butt"/></g><path d="M1.5,270.50751v-166h477v166z" fill="#ffffff" stroke="none" stroke-width="0" stroke-linecap="butt"/><path d="M-0.57414,272.00751v-127h482v127z" fill="#4eaad2" stroke="none" stroke-width="0" stroke-linecap="butt"/><path d="M481.37031,103.00751v59h-461.94444v-59z" fill="#5ecfff" stroke="none" stroke-width="0" stroke-linecap="butt"/><path d="M53.34966,119.90751c0,11.95934 0,24.21448 0,30.83334c0,4.95926 -4.77905,11 -11.5,11c-7.54753,0 -42.41517,0 -42.41517,0l-0.43337,-53.50001c0,0 38.91264,0 42.18187,0c5.44652,0 12.16667,4.90772 12.16667,11.66666z" fill="#9ce1ff" stroke="none" stroke-width="0" stroke-linecap="butt"/><path d="M479.69847,103.00815h1.68348h-482.80781h2.62674" fill="none" stroke="#ffffff" stroke-width="12" stroke-linecap="round"/><path d="M272.81476,120.10288c0,10.35672 0,20.96962 0,26.70151c0,4.2947 -4.13863,9.52594 -9.95894,9.52594c-11.11946,0 -49.59366,0 -55.85668,0c-4.50871,0 -11.40227,-4.24585 -11.69093,-10.68061c-0.19829,-4.42017 -0.11643,-16.51255 0,-24.39219c0.07546,-5.10689 6.31612,-11.25793 12.55693,-11.25793c11.62281,0 50.20867,0 54.41335,0c4.71666,0 10.53628,4.25007 10.53628,10.10327z" fill="#79d7ff" stroke="none" stroke-width="0" stroke-linecap="butt"/><path d="M151.68863,180.65843c0,10.35672 0,20.96962 0,26.70152c0,4.2947 -4.13864,9.52594 -9.95895,9.52594c-11.11946,0 -49.59365,0 -55.85667,0c-4.50871,0 -11.40226,-4.24584 -11.69093,-10.68061c-0.19829,-4.42017 -0.11643,-16.51254 0,-24.39219c0.07546,-5.10689 6.31612,-11.25793 12.55693,-11.25793c11.62282,0 50.20867,0 54.41335,0c4.71666,0 10.53627,4.25006 10.53627,10.10327z" fill="#4597ba" stroke="none" stroke-width="0" stroke-linecap="butt"/><path d="M324.85679,226.19897c0,10.35672 0,20.96962 0,26.70152c0,4.2947 -4.13864,9.52594 -9.95895,9.52594c-11.11946,0 -49.59366,0 -55.85667,0c-4.50871,0 -11.40226,-4.24585 -11.69093,-10.68061c-0.19829,-4.42017 -0.11643,-16.51254 0,-24.39219c0.07546,-5.10689 6.31612,-11.25794 12.55693,-11.25794c11.62282,0 50.20867,0 54.41335,0c4.71666,0 10.53627,4.25006 10.53627,10.10327z" fill="#479cc0" stroke="none" stroke-width="0" stroke-linecap="butt"/><path d="M53.31476,120.91129c0,11.69795 0,23.68526 0,30.15945c0,4.85088 -4.13863,10.75958 -9.95894,10.75958c-11.11946,0 -49.59366,0 -55.85668,0c-4.50871,0 -11.40227,-4.7957 -11.69093,-12.06379c-0.19829,-4.9926 -0.11643,-18.65099 0,-27.55107c0.07546,-5.76825 6.31612,-12.71587 12.55693,-12.71587c11.62281,0 50.20867,0 54.41335,0c4.71666,0 10.53628,4.80047 10.53628,11.41168z" fill="#79d7ff" stroke="none" stroke-width="0" stroke-linecap="butt"/></g></g></svg>