<svg version="1.1" xmlns="http://www.w3.org/2000/svg" xmlns:xlink="http://www.w3.org/1999/xlink" width="501.47017" height="335.22703" viewBox="0,0,501.47017,335.22703"><defs><linearGradient x1="323.05835" y1="-29.40324" x2="340.78988" y2="15.11691" gradientUnits="userSpaceOnUse" id="color-1"><stop offset="0" stop-color="#86f5bf"/><stop offset="1" stop-color="#5bc8f5"/></linearGradient><linearGradient x1="311.23614" y1="46.94549" x2="320.69641" y2="51.28302" gradientUnits="userSpaceOnUse" id="color-2"><stop offset="0" stop-color="#6bc399"/><stop offset="1" stop-color="#55b6e6"/></linearGradient><linearGradient x1="310.44558" y1="44.20048" x2="317.38313" y2="47.38134" gradientUnits="userSpaceOnUse" id="color-3"><stop offset="0" stop-color="#6bc399"/><stop offset="1" stop-color="#55b6e6"/></linearGradient><linearGradient x1="375.53935" y1="21.61838" x2="379.96627" y2="28.94169" gradientUnits="userSpaceOnUse" id="color-4"><stop offset="0" stop-color="#6bc399"/><stop offset="1" stop-color="#55b6e6"/></linearGradient><linearGradient x1="371.98961" y1="21.07244" x2="378.72565" y2="25.1291" gradientUnits="userSpaceOnUse" id="color-5"><stop offset="0" stop-color="#6bc399"/><stop offset="1" stop-color="#55b6e6"/></linearGradient><linearGradient x1="367.72508" y1="29.74125" x2="374.46111" y2="33.79791" gradientUnits="userSpaceOnUse" id="color-6"><stop offset="0" stop-color="#6bc399"/><stop offset="1" stop-color="#55b6e6"/></linearGradient><linearGradient x1="358.31142" y1="16.90461" x2="363.66071" y2="20.12611" gradientUnits="userSpaceOnUse" id="color-7"><stop offset="0" stop-color="#6bc399"/><stop offset="1" stop-color="#55b6e6"/></linearGradient><linearGradient x1="356.24983" y1="25.50167" x2="358.76469" y2="31.2173" gradientUnits="userSpaceOnUse" id="color-8"><stop offset="0" stop-color="#6bc399"/><stop offset="1" stop-color="#55b6e6"/></linearGradient><linearGradient x1="327.56025" y1="26.55684" x2="332.65495" y2="30.16751" gradientUnits="userSpaceOnUse" id="color-9"><stop offset="0" stop-color="#6bc399"/><stop offset="1" stop-color="#55b6e6"/></linearGradient><linearGradient x1="342.5481" y1="9.09756" x2="344.68465" y2="14.2205" gradientUnits="userSpaceOnUse" id="color-10"><stop offset="0" stop-color="#6bc399"/><stop offset="1" stop-color="#55b6e6"/></linearGradient><linearGradient x1="326.69937" y1="36.0441" x2="331.69541" y2="40.85805" gradientUnits="userSpaceOnUse" id="color-11"><stop offset="0" stop-color="#6bc399"/><stop offset="1" stop-color="#55b6e6"/></linearGradient><linearGradient x1="315.96705" y1="31.7119" x2="324.40137" y2="52.8887" gradientUnits="userSpaceOnUse" id="color-12"><stop offset="0" stop-color="#86f5bf"/><stop offset="1" stop-color="#5bc8f5"/></linearGradient><linearGradient x1="314.65732" y1="61.74141" x2="317.8395" y2="57.19356" gradientUnits="userSpaceOnUse" id="color-13"><stop offset="0" stop-color="#6bc399"/><stop offset="1" stop-color="#55b6e6"/></linearGradient><linearGradient x1="332.83706" y1="46.67352" x2="331.24129" y2="51.98981" gradientUnits="userSpaceOnUse" id="color-14"><stop offset="0" stop-color="#6bc399"/><stop offset="1" stop-color="#55b6e6"/></linearGradient><linearGradient x1="187.11151" y1="-110.85287" x2="187.11151" y2="-39.40284" gradientUnits="userSpaceOnUse" id="color-15"><stop offset="0" stop-color="#86f5bf"/><stop offset="1" stop-color="#5bc8f5"/></linearGradient><linearGradient x1="245.60771" y1="-11.61932" x2="234.89662" y2="-0.39203" gradientUnits="userSpaceOnUse" id="color-16"><stop offset="0" stop-color="#6bc399"/><stop offset="1" stop-color="#55b6e6"/></linearGradient><linearGradient x1="245.18839" y1="-15.85775" x2="237.33357" y2="-7.62439" gradientUnits="userSpaceOnUse" id="color-17"><stop offset="0" stop-color="#6bc399"/><stop offset="1" stop-color="#55b6e6"/></linearGradient><linearGradient x1="142.56448" y1="-11.22644" x2="140.47262" y2="1.35983" gradientUnits="userSpaceOnUse" id="color-18"><stop offset="0" stop-color="#6bc399"/><stop offset="1" stop-color="#55b6e6"/></linearGradient><linearGradient x1="147.18027" y1="-13.94101" x2="140.08774" y2="-4.60569" gradientUnits="userSpaceOnUse" id="color-19"><stop offset="0" stop-color="#6bc399"/><stop offset="1" stop-color="#55b6e6"/></linearGradient><linearGradient x1="157.86981" y1="-4.28593" x2="150.77728" y2="5.04939" gradientUnits="userSpaceOnUse" id="color-20"><stop offset="0" stop-color="#6bc399"/><stop offset="1" stop-color="#55b6e6"/></linearGradient><linearGradient x1="163.82751" y1="-27.26019" x2="158.19512" y2="-19.84675" gradientUnits="userSpaceOnUse" id="color-21"><stop offset="0" stop-color="#6bc399"/><stop offset="1" stop-color="#55b6e6"/></linearGradient><linearGradient x1="171.42603" y1="-16.48919" x2="171.09575" y2="-7.18468" gradientUnits="userSpaceOnUse" id="color-22"><stop offset="0" stop-color="#6bc399"/><stop offset="1" stop-color="#55b6e6"/></linearGradient><linearGradient x1="211.74799" y1="-30.85522" x2="206.68293" y2="-23.04317" gradientUnits="userSpaceOnUse" id="color-23"><stop offset="0" stop-color="#6bc399"/><stop offset="1" stop-color="#55b6e6"/></linearGradient><linearGradient x1="181.3553" y1="-46.77065" x2="181.22207" y2="-38.49583" gradientUnits="userSpaceOnUse" id="color-24"><stop offset="0" stop-color="#6bc399"/><stop offset="1" stop-color="#55b6e6"/></linearGradient><linearGradient x1="218.17444" y1="-18.18873" x2="213.90987" y2="-8.76436" gradientUnits="userSpaceOnUse" id="color-25"><stop offset="0" stop-color="#6bc399"/><stop offset="1" stop-color="#55b6e6"/></linearGradient><linearGradient x1="230.65047" y1="-30.1104" x2="230.65047" y2="3.87607" gradientUnits="userSpaceOnUse" id="color-26"><stop offset="0" stop-color="#86f5bf"/><stop offset="1" stop-color="#5bc8f5"/></linearGradient><linearGradient x1="249.03151" y1="10.7629" x2="242.11467" y2="6.21894" gradientUnits="userSpaceOnUse" id="color-27"><stop offset="0" stop-color="#6bc399"/><stop offset="1" stop-color="#55b6e6"/></linearGradient><linearGradient x1="215.53681" y1="-0.07914" x2="220.68012" y2="6.40444" gradientUnits="userSpaceOnUse" id="color-28"><stop offset="0" stop-color="#6bc399"/><stop offset="1" stop-color="#55b6e6"/></linearGradient><linearGradient x1="243.16635" y1="-29.60355" x2="243.16635" y2="14.4725" gradientUnits="userSpaceOnUse" id="color-29"><stop offset="0" stop-color="#86f5bf"/><stop offset="1" stop-color="#5bc8f5"/></linearGradient><linearGradient x1="207.08125" y1="31.61158" x2="213.6887" y2="38.53746" gradientUnits="userSpaceOnUse" id="color-30"><stop offset="0" stop-color="#6bc399"/><stop offset="1" stop-color="#55b6e6"/></linearGradient><linearGradient x1="207.33992" y1="28.99697" x2="212.1854" y2="34.07596" gradientUnits="userSpaceOnUse" id="color-31"><stop offset="0" stop-color="#6bc399"/><stop offset="1" stop-color="#55b6e6"/></linearGradient><linearGradient x1="270.64649" y1="31.85393" x2="271.93691" y2="39.61815" gradientUnits="userSpaceOnUse" id="color-32"><stop offset="0" stop-color="#6bc399"/><stop offset="1" stop-color="#55b6e6"/></linearGradient><linearGradient x1="267.7991" y1="30.17938" x2="272.17434" y2="35.93814" gradientUnits="userSpaceOnUse" id="color-33"><stop offset="0" stop-color="#6bc399"/><stop offset="1" stop-color="#55b6e6"/></linearGradient><linearGradient x1="261.20494" y1="36.13539" x2="265.58018" y2="41.89416" gradientUnits="userSpaceOnUse" id="color-34"><stop offset="0" stop-color="#6bc399"/><stop offset="1" stop-color="#55b6e6"/></linearGradient><linearGradient x1="257.52977" y1="21.96305" x2="261.00426" y2="26.53625" gradientUnits="userSpaceOnUse" id="color-35"><stop offset="0" stop-color="#6bc399"/><stop offset="1" stop-color="#55b6e6"/></linearGradient><linearGradient x1="252.84239" y1="28.60746" x2="253.04614" y2="34.34721" gradientUnits="userSpaceOnUse" id="color-36"><stop offset="0" stop-color="#6bc399"/><stop offset="1" stop-color="#55b6e6"/></linearGradient><linearGradient x1="227.96861" y1="19.74535" x2="231.09314" y2="24.56444" gradientUnits="userSpaceOnUse" id="color-37"><stop offset="0" stop-color="#6bc399"/><stop offset="1" stop-color="#55b6e6"/></linearGradient><linearGradient x1="246.71723" y1="9.92745" x2="246.79942" y2="15.03202" gradientUnits="userSpaceOnUse" id="color-38"><stop offset="0" stop-color="#6bc399"/><stop offset="1" stop-color="#55b6e6"/></linearGradient><linearGradient x1="224.00427" y1="27.55904" x2="226.63499" y2="33.37274" gradientUnits="userSpaceOnUse" id="color-39"><stop offset="0" stop-color="#6bc399"/><stop offset="1" stop-color="#55b6e6"/></linearGradient><linearGradient x1="216.30807" y1="20.20481" x2="216.30807" y2="41.17036" gradientUnits="userSpaceOnUse" id="color-40"><stop offset="0" stop-color="#86f5bf"/><stop offset="1" stop-color="#5bc8f5"/></linearGradient><linearGradient x1="204.96918" y1="45.41871" x2="209.23604" y2="42.61563" gradientUnits="userSpaceOnUse" id="color-41"><stop offset="0" stop-color="#6bc399"/><stop offset="1" stop-color="#55b6e6"/></linearGradient><linearGradient x1="225.63137" y1="38.73047" x2="222.45857" y2="42.73006" gradientUnits="userSpaceOnUse" id="color-42"><stop offset="0" stop-color="#6bc399"/><stop offset="1" stop-color="#55b6e6"/></linearGradient></defs><g transform="translate(4.79912,63.21952)"><g data-paper-data="{&quot;isPaintingLayer&quot;:true}" stroke-linejoin="miter" stroke-miterlimit="10" stroke-dasharray="" stroke-dashoffset="0" style="mix-blend-mode: normal"><g stroke="none"><path d="M475.62139,99.97501c-0.65085,2.41282 -3.13446,3.8412 -5.54729,3.19035l-6.14793,-1.65838c-2.41282,-0.65085 -3.84118,-3.13445 -3.19032,-5.54729l4.96896,-18.42082c0.31255,-1.15868 1.07257,-2.14575 2.11289,-2.74406c1.04032,-0.59831 2.2757,-0.75885 3.43438,-0.4463v0l6.14793,1.65838c2.41282,0.65085 3.84119,3.13446 3.19034,5.54728l-2.43509,9.46894z" data-paper-data="{&quot;index&quot;:null}" fill="#a49e6f" fill-rule="evenodd" stroke-width="1" stroke-linecap="square"/><path d="M493.35982,83.86276c-0.83528,3.09653 -4.02264,4.92965 -7.11917,4.09437l-28.98205,-7.81782c-3.09652,-0.83528 -4.92963,-4.02264 -4.09435,-7.11917l3.10937,-11.52697c0.40111,-1.487 1.37651,-2.75377 2.71161,-3.52161c1.33511,-0.76785 2.92056,-0.97386 4.40757,-0.57275v0l28.98205,7.81782c3.09653,0.83528 4.92963,4.02264 4.09435,7.11917v0z" data-paper-data="{&quot;index&quot;:null}" fill="#bdb681" fill-rule="evenodd" stroke-width="1" stroke-linecap="square"/><g fill="#cec78c"><path d="M477.76983,71.40746c0.8269,0.22306 1.31641,1.07421 1.09336,1.90112l-0.28159,1.0439c-0.10711,0.39709 -0.36759,0.73537 -0.72412,0.94041c-0.35653,0.20504 -0.77991,0.26007 -1.177,0.15295l-9.03217,-2.4364c-0.8269,-0.22306 -1.31641,-1.07421 -1.09336,-1.90112l0.28159,-1.0439c0.22306,-0.8269 1.07421,-1.31641 1.90112,-1.09336z" data-paper-data="{&quot;index&quot;:null}" fill-rule="evenodd" stroke-width="1" stroke-linecap="square"/><path d="M481.34442,68.86795c0.63476,0.84132 3.02463,4.73174 3.02463,4.73174c0,0 0.41597,0.59619 0.15816,1.73113c-0.29516,1.29941 -0.90748,1.38659 -0.90748,1.38659c0,0 -2.22386,1.47165 -4.72246,2.49053c-1.29717,0.52896 -3.06518,2.02728 -4.37834,0.54177c-1.31317,-1.48552 -0.55676,-1.29657 0.02877,-4.1792c0.22946,-1.12964 0.62696,-2.13035 0.71312,-2.71405c0.08435,-0.57137 0.20856,-1.39934 0.66981,-2.71206c0.62879,-1.78953 0.20273,-3.21885 2.02411,-3.6483c1.82138,-0.42944 2.75493,1.53053 3.3897,2.37184z" fill-rule="nonzero" stroke-width="0" stroke-linecap="butt"/></g></g><g data-paper-data="{&quot;index&quot;:null}" fill-rule="nonzero"><g><g><path d="M364.84545,107.05623l-23.61839,-59.30084l20.41152,-8.12951l23.61839,59.30084z" fill="#b06041" stroke="none" stroke-width="0" stroke-linecap="butt"/><path d="M381.2821,100.50983l-23.6184,-59.30084l3.86744,-1.54033l23.61839,59.30084z" fill="#ab5c37" stroke="none" stroke-width="0" stroke-linecap="butt"/><path d="M364.95288,107.01344l-23.61839,-59.30084l3.86745,-1.54033l23.61839,59.30083z" fill="#ab5c37" stroke="none" stroke-width="0" stroke-linecap="butt"/><path d="M353.55314,62.7614l5.24853,13.17796" fill="none" stroke="#ad6c4e" stroke-width="6" stroke-linecap="round"/><path d="M375.04429,89.21952l-5.24853,-13.17796" fill="none" stroke="#ad6c4e" stroke-width="6" stroke-linecap="round"/><path d="M357.37093,56.09607l-5.07738,-12.74824l0.74164,1.8621" fill="none" stroke="#ad6c4e" stroke-width="6" stroke-linecap="round"/></g><g fill="#ab5c37" stroke="none" stroke-linecap="butt"><path d="M336.4726,83.00704l-2.16787,-5.44307l18.19132,-7.24526l2.16787,5.44307z" stroke-width="NaN"/><path d="M336.32936,83.06409c-1.50306,0.59864 -3.20683,-0.13454 -3.80547,-1.6376c-0.59864,-1.50306 0.13454,-3.20683 1.6376,-3.80547c1.50306,-0.59864 3.20683,0.13454 3.80547,1.6376c0.59864,1.50306 -0.13454,3.20683 -1.6376,3.80547z" stroke-width="0"/></g><g fill="#ab5c37" stroke="none" stroke-linecap="butt"><path d="M337.95301,79.01523l-5.44307,2.16787l-7.24525,-18.19132l5.44306,-2.16787z" stroke-width="NaN"/><path d="M338.01006,79.15847c0.59864,1.50307 -0.13454,3.20683 -1.6376,3.80548c-1.50307,0.59864 -3.20683,-0.13453 -3.80548,-1.6376c-0.59864,-1.50306 0.13454,-3.20683 1.6376,-3.80547c1.50307,-0.59865 3.20683,0.13452 3.80548,1.6376z" stroke-width="0"/></g><path d="M343.24996,52.26044l-1.76853,-4.4404l20.19666,-8.04395l1.76853,4.4404z" fill="#86482b" stroke="none" stroke-width="NaN" stroke-linecap="butt"/><path d="M328.73401,71.65062l-1.76853,-4.4404l5.29983,-2.11082l1.76853,4.4404z" fill="#86482b" stroke="none" stroke-width="NaN" stroke-linecap="butt"/></g><g stroke="none" stroke-width="0" stroke-linecap="butt"><path d="M381.18895,25.51086c1.61732,4.06076 -0.78742,8.21767 -4.19477,9.57475c-7.31282,2.91255 -35.40279,14.10025 -48.66628,19.38286c-4.27683,1.70338 -8.0927,0.07955 -9.68633,-3.9217c-3.71805,-9.33524 -10.22847,-25.68154 -12.32264,-30.93957c-1.27756,-3.20767 0.00097,-7.95564 4.27744,-9.65888c13.2342,-5.27093 41.22518,-16.4192 48.56511,-19.34255c3.44985,-1.37401 8.44378,0.79928 9.70484,3.96554c2.08062,5.22401 8.58432,21.55346 12.32263,30.93957z" fill="url(#color-1)"/><path d="M327.63394,54.46388c-1.19778,2.61238 -4.28652,3.75914 -6.8989,2.56137c-2.61238,-1.19778 -3.75914,-4.28651 -2.56137,-6.8989c1.19778,-2.61238 4.28651,-3.75915 6.8989,-2.56137c2.61238,1.19778 3.75914,4.28651 2.56137,6.8989z" fill="url(#color-2)"/><path d="M322.47065,49.71398c-0.87837,1.91575 -3.14345,2.75671 -5.0592,1.87834c-1.91575,-0.87837 -2.75671,-3.14344 -1.87834,-5.05919c0.87837,-1.91575 3.14345,-2.75671 5.0592,-1.87834c1.91575,0.87837 2.75671,3.14345 1.87834,5.0592z" fill="url(#color-3)"/><path d="M383.21268,34.31212c-2.02227,1.22246 -4.65265,0.57409 -5.87511,-1.44819c-1.22246,-2.02228 -0.57408,-4.65266 1.44819,-5.87512c2.02227,-1.22246 4.65265,-0.57408 5.87511,1.44819c1.22246,2.02228 0.57408,4.65266 -1.44819,5.87512z" fill="url(#color-4)"/><path d="M383.66541,28.10398c-1.12021,1.8601 -3.53625,2.4599 -5.39635,1.33969c-1.8601,-1.12022 -2.4599,-3.53624 -1.33969,-5.39635c1.12021,-1.8601 3.53625,-2.4599 5.39635,-1.33969c1.8601,1.12022 2.4599,3.53625 1.33969,5.39635z" fill="url(#color-5)"/><path d="M378.06118,31.37645c1.8601,1.12021 2.45992,3.53624 1.3397,5.39634c-1.12021,1.86011 -3.53625,2.4599 -5.39635,1.33969c-1.8601,-1.12022 -2.4599,-3.53624 -1.33969,-5.39635c1.12022,-1.8601 3.53625,-2.45991 5.39635,-1.33969z" fill="url(#color-6)"/><path d="M367.58351,22.48856c-0.88959,1.47716 -2.80823,1.95347 -4.28539,1.06388c-1.47717,-0.88959 -1.95347,-2.80823 -1.06388,-4.28539c0.88959,-1.47717 2.80823,-1.95348 4.28539,-1.06389c1.47717,0.88959 1.95347,2.80823 1.06388,4.28539z" fill="url(#color-7)"/><path d="M360.60893,35.40876c-1.57833,0.69446 -3.42077,-0.02206 -4.11524,-1.60039c-0.69446,-1.57833 0.02204,-3.42078 1.60037,-4.11525c1.57833,-0.69446 3.42078,0.02205 4.11524,1.60038c0.69446,1.57833 -0.02205,3.42079 -1.60038,4.11525z" fill="url(#color-8)"/><path d="M336.39107,32.81533c-0.99707,1.40686 -2.94583,1.73907 -4.35269,0.74201c-1.40686,-0.99706 -1.73907,-2.94581 -0.74201,-4.35268c0.99707,-1.40687 2.94582,-1.73907 4.35269,-0.74202c1.40686,0.99706 1.73908,2.94582 0.74202,4.35268z" fill="url(#color-9)"/><path d="M346.25145,17.97732c-1.41466,0.58999 -3.03976,-0.07853 -3.62975,-1.49319c-0.58999,-1.41466 0.07853,-3.03975 1.4932,-3.62974c1.41466,-0.58999 3.03976,0.07854 3.62975,1.4932c0.58999,1.41466 -0.07853,3.03975 -1.4932,3.62974z" fill="url(#color-10)"/><path d="M335.35918,44.38828c-1.32934,1.37962 -3.52537,1.42039 -4.90499,0.09105c-1.37962,-1.32934 -1.42039,-3.52538 -0.09105,-4.905c1.32934,-1.37962 3.52537,-1.42039 4.90499,-0.09105c1.37962,1.32934 1.42039,3.52537 0.09105,4.90499z" fill="url(#color-11)"/></g><path d="M343.61789,57.83276c0.76931,1.93158 -0.37455,3.90888 -1.99532,4.55441c-3.47847,1.38541 -16.83996,6.70704 -23.14898,9.2198c-2.03435,0.81024 -3.84944,0.03784 -4.60748,-1.86543c-1.76855,-4.44047 -4.86535,-12.21587 -5.86148,-14.71695c-0.60769,-1.52578 0.00047,-3.78424 2.03464,-4.59442c6.29509,-2.50721 19.60949,-7.81009 23.10085,-9.20063c1.64099,-0.65357 4.01644,0.3802 4.61628,1.88629c0.98969,2.4849 4.08328,10.25228 5.86148,14.71695z" fill="url(#color-12)" stroke="none" stroke-width="0" stroke-linecap="butt"/><path d="M320.17312,53.85846c1.25585,0.87874 1.56158,2.60917 0.68283,3.86503c-0.87874,1.25587 -2.60917,1.56158 -3.86503,0.68283c-1.25585,-0.87874 -1.56158,-2.60917 -0.68283,-3.86503c0.87874,-1.25586 2.60917,-1.56158 3.86503,-0.68283z" fill="url(#color-13)" stroke="none" stroke-width="0" stroke-linecap="butt"/><path d="M330.07106,55.88841c-1.46805,-0.44066 -2.30091,-1.98797 -1.86025,-3.45602c0.44066,-1.46805 1.98797,-2.30092 3.45602,-1.86026c1.46805,0.44066 2.30092,1.98798 1.86026,3.45602c-0.44066,1.46806 -1.98798,2.30092 -3.45603,1.86026z" fill="url(#color-14)" stroke="none" stroke-width="0" stroke-linecap="butt"/></g><g fill-rule="nonzero"><g><g><path d="M171.75383,101.21952v-95.17144h32.75829v95.17145z" fill="#b06041" stroke="none" stroke-width="0" stroke-linecap="butt"/><path d="M171.92625,101.21952v-95.17144h6.20683v95.17145z" fill="#ab5c37" stroke="none" stroke-width="0" stroke-linecap="butt"/><path d="M198.13287,101.21952v-95.17144h6.20684v95.17145z" fill="#ab5c37" stroke="none" stroke-width="0" stroke-linecap="butt"/><path d="M195.71704,54.78321v-21.1492" fill="none" stroke="#ad6c4e" stroke-width="6" stroke-linecap="round"/><path d="M180.54478,60.99006v21.1492" fill="none" stroke="#ad6c4e" stroke-width="6" stroke-linecap="round"/><path d="M186.7516,9.03656v-2.98847v20.45955" fill="none" stroke="#ad6c4e" stroke-width="6" stroke-linecap="round"/></g><g fill="#ab5c37" stroke="none" stroke-linecap="butt"><path d="M201.35054,52.2545v-8.73555h29.1951v8.73555z" stroke-width="NaN"/><path d="M226.40776,47.88674c0,-2.41225 1.95552,-4.36777 4.36777,-4.36777c2.41225,0 4.36777,1.95552 4.36777,4.36777c0,2.41225 -1.95552,4.36776 -4.36777,4.36776c-2.41225,0 -4.36777,-1.95551 -4.36777,-4.36776z" stroke-width="0"/></g><g fill="#ab5c37" stroke="none" stroke-linecap="butt"><path d="M226.29282,18.3468h8.73553v29.19511h-8.73553z" stroke-width="NaN"/><path d="M230.66058,43.40402c2.41225,0 4.36777,1.95552 4.36777,4.36777c0,2.41226 -1.95551,4.36777 -4.36777,4.36777c-2.41225,0 -4.36777,-1.95551 -4.36778,-4.36777c0,-2.41226 1.95552,-4.36777 4.36778,-4.36777z" stroke-width="0"/></g><path d="M171.78196,13.40433v-7.12636h32.41347v7.12636z" fill="#86482b" stroke="none" stroke-width="NaN" stroke-linecap="butt"/><path d="M226.49405,32.25471v-7.12636h8.50566v7.12636z" fill="#86482b" stroke="none" stroke-width="NaN" stroke-linecap="butt"/></g><g stroke="none" stroke-width="0" stroke-linecap="butt"><path d="M136.88627,-2.71791c0,-15.06369 0,-41.27069 0,-49.65466c0,-5.0815 5.71845,-10.84695 11.25509,-10.84695c11.77979,0 56.70229,0 77.94176,0c6.86327,0 11.25363,5.8714 11.25363,11.01936c0,8.43858 0,34.67262 0,49.65467c0,6.42159 -4.38978,10.77601 -11.25362,10.77601c-21.28648,0 -66.36785,0 -78.10414,0c-5.46843,0 -11.0927,-4.43135 -11.0927,-10.94842z" fill="url(#color-15)"/><path d="M226.78372,-3.12788c2.95779,-3.10033 7.86886,-3.21588 10.9692,-0.2581c3.10034,2.95779 3.21588,7.86887 0.2581,10.9692c-2.95779,3.10034 -7.86886,3.21588 -10.96919,0.2581c-3.10034,-2.95779 -3.21589,-7.86886 -0.2581,-10.9692z" fill="url(#color-16)"/><path d="M231.38411,-9.63068c2.16905,-2.27357 5.77051,-2.35832 8.04408,-0.18928c2.27357,2.16905 2.35832,5.77051 0.18928,8.04409c-2.16905,2.27358 -5.77051,2.35832 -8.04409,0.18928c-2.27357,-2.16904 -2.35831,-5.77051 -0.18927,-8.04408z" fill="url(#color-17)"/><path d="M133.69139,3.25069c0.57765,-3.4756 3.86346,-5.82485 7.33907,-5.2472c3.4756,0.57765 5.82485,3.86346 5.2472,7.33907c-0.57765,3.4756 -3.86347,5.82485 -7.33907,5.2472c-3.4756,-0.57765 -5.82485,-3.86346 -5.2472,-7.33906z" fill="url(#color-18)"/><path d="M133.76515,-5.97372c1.95855,-2.57788 5.63605,-3.07994 8.21393,-1.12139c2.57788,1.95855 3.07994,5.63606 1.12139,8.21393c-1.95855,2.57788 -5.63605,3.07994 -8.21393,1.12139c-2.57788,-1.95855 -3.07994,-5.63605 -1.12139,-8.21393z" fill="url(#color-19)"/><path d="M144.45469,3.68136c1.95855,-2.57789 5.63604,-3.07995 8.21393,-1.1214c2.57788,1.95855 3.07994,5.63605 1.12139,8.21393c-1.95855,2.57789 -5.63605,3.07995 -8.21393,1.12139c-2.57789,-1.95855 -3.07994,-5.63605 -1.12139,-8.21392z" fill="url(#color-20)"/><path d="M153.17417,-20.93314c1.55534,-2.04716 4.47575,-2.44587 6.52291,-0.89052c2.04717,1.55534 2.44588,4.47574 0.89053,6.52291c-1.55534,2.04716 -4.47575,2.44587 -6.52292,0.89053c-2.04717,-1.55534 -2.44587,-4.47575 -0.89053,-6.52292z" fill="url(#color-21)"/><path d="M166.36643,-5.17876c0.09121,-2.56937 2.24802,-4.57832 4.8174,-4.48711c2.56938,0.09121 4.57831,2.24801 4.48711,4.81739c-0.09121,2.56938 -2.24801,4.57832 -4.81739,4.48712c-2.56938,-0.0912 -4.57831,-2.24802 -4.48711,-4.81739z" fill="url(#color-22)"/><path d="M201.59507,-23.75289c1.39867,-2.15724 4.28131,-2.77217 6.43856,-1.37349c2.15724,1.39868 2.77217,4.28131 1.37349,6.43855c-1.39867,2.15724 -4.28131,2.77217 -6.43855,1.37349c-2.15724,-1.39868 -2.77217,-4.28131 -1.37349,-6.43855z" fill="url(#color-23)"/><path d="M177.05358,-36.63164c0.03679,-2.28503 1.919,-4.10758 4.20403,-4.0708c2.28503,0.03679 4.10759,1.91898 4.0708,4.20402c-0.03679,2.28503 -1.919,4.10759 -4.20403,4.0708c-2.28503,-0.03679 -4.10758,-1.91898 -4.0708,-4.20403z" fill="url(#color-24)"/><path d="M208.20263,-8.69762c1.17763,-2.60247 4.242,-3.75753 6.84447,-2.5799c2.60247,1.17763 3.75751,4.242 2.57989,6.84447c-1.17763,2.60248 -4.24199,3.75752 -6.84447,2.57989c-2.60247,-1.17763 -3.75752,-4.24199 -2.5799,-6.84446z" fill="url(#color-25)"/></g><path d="M206.75995,21.32591c0,-7.16531 0,-19.63113 0,-23.61912c0,-2.4171 2.72008,-5.15954 5.35368,-5.15954c5.60326,0 26.97145,0 37.07438,0c3.26463,0 5.35299,2.79284 5.35299,5.24156c0,4.01396 0,16.49265 0,23.61913c0,3.05454 -2.08808,5.12581 -5.35299,5.12581c-10.12529,0 -31.56904,0 -37.15161,0c-2.60116,0 -5.27644,-2.10785 -5.27644,-5.20782z" fill="url(#color-26)" stroke="none" stroke-width="0" stroke-linecap="butt"/><path d="M242.77271,1.70025c1.91004,1.25478 2.44123,3.82037 1.18644,5.73042c-1.25478,1.91004 -3.82036,2.44123 -5.73041,1.18644c-1.91004,-1.25478 -2.44123,-3.82037 -1.18644,-5.73041c1.25478,-1.91004 3.82036,-2.44123 5.73041,-1.18644z" fill="url(#color-27)" stroke="none" stroke-width="0" stroke-linecap="butt"/><path d="M218.63844,10.48893c-1.42029,-1.79039 -1.12026,-4.39315 0.67013,-5.81344c1.79039,-1.42029 4.39316,-1.12027 5.81345,0.67013c1.42029,1.79039 1.12026,4.39316 -0.67013,5.81345c-1.79039,1.42029 -4.39316,1.12026 -5.81345,-0.67013z" fill="url(#color-28)" stroke="none" stroke-width="0" stroke-linecap="butt"/></g><g data-paper-data="{&quot;index&quot;:null}" fill-rule="nonzero"><g><g><path d="M232.43227,101.21952v-58.70929h20.20791v58.7093z" fill="#b06041" stroke="none" stroke-width="0" stroke-linecap="butt"/><path d="M248.70496,101.21952v-58.70929h3.82886v58.7093z" fill="#ab5c37" stroke="none" stroke-width="0" stroke-linecap="butt"/><path d="M232.53863,101.21952v-58.70929h3.82887v58.7093z" fill="#ab5c37" stroke="none" stroke-width="0" stroke-linecap="butt"/><path d="M237.85778,59.52742v13.04651" fill="none" stroke="#ad6c4e" stroke-width="6" stroke-linecap="round"/><path d="M247.21723,76.4028v13.04651" fill="none" stroke="#ad6c4e" stroke-width="6" stroke-linecap="round"/><path d="M243.38837,55.13131v-12.62108v1.84352" fill="none" stroke="#ad6c4e" stroke-width="6" stroke-linecap="round"/></g><g fill="#ab5c37" stroke="none" stroke-linecap="butt"><path d="M216.37273,71.01402v-5.38878h18.00986v5.38878z" stroke-width="NaN"/><path d="M216.23092,71.01402c-1.48807,0 -2.69439,-1.20632 -2.69439,-2.69438c0,-1.48807 1.20632,-2.69439 2.69439,-2.69439c1.48807,0 2.69439,1.20632 2.69439,2.69439c0,1.48807 -1.20632,2.69438 -2.69439,2.69438z" stroke-width="0"/></g><g fill="#ab5c37" stroke="none" stroke-linecap="butt"><path d="M218.99621,68.10692h-5.38877v-18.00986h5.38877z" stroke-width="NaN"/><path d="M218.99622,68.24872c0,1.48807 -1.20632,2.69439 -2.69439,2.69439c-1.48808,0 -2.69439,-1.20632 -2.69439,-2.69439c0,-1.48807 1.20632,-2.69439 2.69439,-2.69439c1.48808,0 2.69439,1.20631 2.69439,2.69439z" stroke-width="0"/></g><path d="M232.62763,47.04815v-4.3961h19.99519v4.3961z" fill="#86482b" stroke="none" stroke-width="NaN" stroke-linecap="butt"/><path d="M213.62511,58.67656v-4.3961h5.24697v4.3961z" fill="#86482b" stroke="none" stroke-width="NaN" stroke-linecap="butt"/></g><g stroke="none" stroke-width="0" stroke-linecap="butt"><path d="M274.14925,37.10267c0,4.02025 -3.46949,6.75386 -6.84285,6.75386c-7.23987,0 -35.04963,0 -48.18082,0c-4.23416,0 -6.94213,-2.68615 -6.94213,-6.6475c0,-9.24211 0,-25.42536 0,-30.63094c0,-3.17566 2.70832,-6.79761 6.94213,-6.79761c13.10218,0 40.81395,0 48.08066,0c3.41544,0 6.94303,3.55659 6.94303,6.69126c0,5.1719 0,21.33846 0,30.63094z" fill="url(#color-29)"/><path d="M218.53416,43.61644c-1.91253,1.8246 -4.94207,1.75332 -6.76667,-0.15921c-1.82459,-1.91253 -1.75331,-4.94208 0.15922,-6.76667c1.91253,-1.8246 4.94207,-1.75331 6.76667,0.15922c1.82459,1.91253 1.75331,4.94207 -0.15922,6.76667z" fill="url(#color-30)"/><path d="M215.73874,37.80056c-1.40252,1.33804 -3.62419,1.28576 -4.96223,-0.11676c-1.33803,-1.40252 -1.28576,-3.62419 0.11676,-4.96223c1.40252,-1.33804 3.62419,-1.28576 4.96223,0.11676c1.33803,1.40252 1.28576,3.62419 -0.11676,4.96223z" fill="url(#color-31)"/><path d="M272.88323,45.3119c-2.14402,0.35634 -4.17098,-1.09287 -4.52732,-3.23689c-0.35634,-2.14402 1.09287,-4.17097 3.23689,-4.52731c2.14402,-0.35634 4.17098,1.09286 4.52732,3.23688c0.35634,2.14402 -1.09287,4.17098 -3.23689,4.52732z" fill="url(#color-32)"/><path d="M275.38284,40.16123c-1.59024,1.20819 -3.85881,0.89847 -5.067,-0.69177c-1.20819,-1.59024 -0.89848,-3.85881 0.69176,-5.067c1.59024,-1.20819 3.85881,-0.89847 5.067,0.69177c1.20819,1.59024 0.89847,3.85881 -0.69177,5.067z" fill="url(#color-33)"/><path d="M269.48044,41.05024c1.20819,1.59024 0.89848,3.85881 -0.69176,5.067c-1.59024,1.20819 -3.85881,0.89848 -5.067,-0.69176c-1.20819,-1.59024 -0.89848,-3.85881 0.69176,-5.067c1.59024,-1.20819 3.85881,-0.89848 5.067,0.69176z" fill="url(#color-34)"/><path d="M263.55224,29.88993c-1.26286,0.95946 -3.06439,0.71351 -4.02385,-0.54935c-0.95946,-1.26286 -0.7135,-3.06439 0.54935,-4.02385c1.26286,-0.95946 3.06439,-0.71351 4.02385,0.54935c0.95946,1.26285 0.7135,3.06439 -0.54935,4.02385z" fill="url(#color-35)"/><path d="M253.19555,38.55637c-1.58499,0.05626 -2.91548,-1.18302 -2.97174,-2.76801c-0.05626,-1.58499 1.18301,-2.91549 2.768,-2.97175c1.58499,-0.05626 2.91549,1.18302 2.97175,2.76801c0.05626,1.58499 -1.18302,2.91549 -2.76801,2.97175z" fill="url(#color-36)"/><path d="M233.38446,28.09844c-1.33076,0.86282 -3.10899,0.48348 -3.97181,-0.84728c-0.86282,-1.33075 -0.48348,-3.10899 0.84728,-3.97181c1.33076,-0.86282 3.10899,-0.48347 3.97181,0.84728c0.86282,1.33076 0.48347,3.10899 -0.84728,3.97181z" fill="url(#color-37)"/><path d="M246.85969,18.77537c-1.40959,0.02269 -2.57069,-1.1016 -2.59338,-2.51119c-0.02269,-1.40959 1.1016,-2.57069 2.51119,-2.59338c1.40959,-0.02269 2.57069,1.1016 2.59338,2.51119c0.02269,1.40959 -1.1016,2.57069 -2.51119,2.59338z" fill="url(#color-38)"/><path d="M228.56419,37.63612c-1.60541,0.72646 -3.49576,0.01393 -4.22221,-1.59148c-0.72645,-1.60542 -0.01393,-3.49576 1.59149,-4.22221c1.60541,-0.72646 3.49576,-0.01393 4.22221,1.59149c0.72645,1.60542 0.01393,3.49575 -1.59148,4.22221z" fill="url(#color-39)"/></g><path d="M231.04563,51.93481c0,1.91231 -1.65033,3.2126 -3.25493,3.2126c-3.44377,0 -16.67198,0 -22.91806,0c-2.01406,0 -3.30215,-1.27773 -3.30215,-3.16201c0,-4.39618 0,-12.09402 0,-14.57015c0,-1.51056 1.28826,-3.2334 3.30215,-3.2334c6.23229,0 19.41388,0 22.87042,0c1.62462,0 3.30257,1.69176 3.30257,3.18281c0,2.4601 0,10.15001 0,14.57015z" fill="url(#color-40)" stroke="none" stroke-width="0" stroke-linecap="butt"/><path d="M212.36508,40.56004c0.77405,1.17827 0.44638,2.76092 -0.73189,3.53497c-1.17827,0.77405 -2.76093,0.44638 -3.53498,-0.73189c-0.77405,-1.17827 -0.44637,-2.76093 0.7319,-3.53498c1.17827,-0.77405 2.76092,-0.44637 3.53497,0.7319z" fill="url(#color-41)" stroke="none" stroke-width="0" stroke-linecap="butt"/><path d="M220.13185,45.66309c-1.10446,-0.87615 -1.28954,-2.48174 -0.41339,-3.58619c0.87615,-1.10446 2.48173,-1.28954 3.58619,-0.41339c1.10446,0.87615 1.28954,2.48174 0.41339,3.58619c-0.87615,1.10446 -2.48173,1.28954 -3.58619,0.41339z" fill="url(#color-42)" stroke="none" stroke-width="0" stroke-linecap="butt"/></g><path d="M79.29087,96.21656c4.10024,-6.73111 16.15301,-26.5174 18.83281,-30.91667c1.02782,-1.68731 2.03049,-2.4937 2.03049,-1.5c0,4.32108 0,34.66667 0,34.66667c0,0 -17.11565,0 -20.30492,0c-0.983,0 -1.41875,-0.83759 -0.55839,-2.25z" fill="#e6e6e6" fill-rule="nonzero" stroke="none" stroke-width="0" stroke-linecap="butt"/><path d="M120.15074,98.63323c-3.18927,0 -20.30492,0 -20.30492,0c0,0 0,-30.3456 0,-34.66667c0,-0.99371 1.00267,-0.18731 2.03049,1.5c2.67981,4.39927 14.73257,24.18556 18.83281,30.91667c0.86037,1.41241 0.42461,2.25 -0.55839,2.25z" data-paper-data="{&quot;index&quot;:null}" fill="#d9d9d9" fill-rule="nonzero" stroke="none" stroke-width="0" stroke-linecap="butt"/><g fill-rule="nonzero" stroke="none" stroke-width="0" stroke-linecap="butt"><g><path d="M79.29088,96.21656c4.10024,-6.73111 16.15301,-26.5174 18.83281,-30.91667c1.02782,-1.68731 2.03049,-2.4937 2.03049,-1.5c0,4.32108 0,34.66667 0,34.66667c0,0 -17.11565,0 -20.30492,0c-0.983,0 -1.41875,-0.83759 -0.55839,-2.25z" fill="#cc0000"/><path d="M120.15075,98.63323c-3.18927,0 -20.30492,0 -20.30492,0c0,0 0,-30.3456 0,-34.66667c0,-0.99371 1.00267,-0.18731 2.03049,1.5c2.67981,4.39927 14.73257,24.18556 18.83281,30.91667c0.86037,1.41241 0.42461,2.25 -0.55839,2.25z" data-paper-data="{&quot;index&quot;:null}" fill="#a60000"/></g><path d="M85.75789,98.36551l-5.64199,-3.67253l2.15634,-3.44879l10.00118,7.24271z" fill="#ffffff"/></g><path d="M1.5,270.50751v-166h477v166z" fill="#ffffff" fill-rule="nonzero" stroke="none" stroke-width="0" stroke-linecap="butt"/><path d="M-0.57414,272.00751v-127h482v127z" fill="#4eaad2" fill-rule="nonzero" stroke="none" stroke-width="0" stroke-linecap="butt"/><path d="M481.37031,103.00751v59h-461.94444v-59z" fill="#5ecfff" fill-rule="nonzero" stroke="none" stroke-width="0" stroke-linecap="butt"/><path d="M53.34966,119.90751c0,11.95934 0,24.21448 0,30.83334c0,4.95926 -4.77905,11 -11.5,11c-7.54753,0 -42.41517,0 -42.41517,0l-0.43337,-53.50001c0,0 38.91264,0 42.18187,0c5.44652,0 12.16667,4.90772 12.16667,11.66666z" fill="#9ce1ff" fill-rule="nonzero" stroke="none" stroke-width="0" stroke-linecap="butt"/><path d="M479.69847,103.00815h1.68348h-482.80781h2.62674" fill="none" fill-rule="nonzero" stroke="#ffffff" stroke-width="12" stroke-linecap="round"/><path d="M272.81476,120.10288c0,10.35672 0,20.96962 0,26.70151c0,4.2947 -4.13863,9.52594 -9.95894,9.52594c-11.11946,0 -49.59366,0 -55.85668,0c-4.50871,0 -11.40227,-4.24585 -11.69093,-10.68061c-0.19829,-4.42017 -0.11643,-16.51255 0,-24.39219c0.07546,-5.10689 6.31612,-11.25793 12.55693,-11.25793c11.62281,0 50.20867,0 54.41335,0c4.71666,0 10.53628,4.25007 10.53628,10.10327z" fill="#79d7ff" fill-rule="nonzero" stroke="none" stroke-width="0" stroke-linecap="butt"/><path d="M151.68863,180.65843c0,10.35672 0,20.96962 0,26.70152c0,4.2947 -4.13864,9.52594 -9.95895,9.52594c-11.11946,0 -49.59365,0 -55.85667,0c-4.50871,0 -11.40226,-4.24584 -11.69093,-10.68061c-0.19829,-4.42017 -0.11643,-16.51254 0,-24.39219c0.07546,-5.10689 6.31612,-11.25793 12.55693,-11.25793c11.62282,0 50.20867,0 54.41335,0c4.71666,0 10.53627,4.25006 10.53627,10.10327z" fill="#4597ba" fill-rule="nonzero" stroke="none" stroke-width="0" stroke-linecap="butt"/><path d="M324.85679,226.19897c0,10.35672 0,20.96962 0,26.70152c0,4.2947 -4.13864,9.52594 -9.95895,9.52594c-11.11946,0 -49.59366,0 -55.85667,0c-4.50871,0 -11.40226,-4.24585 -11.69093,-10.68061c-0.19829,-4.42017 -0.11643,-16.51254 0,-24.39219c0.07546,-5.10689 6.31612,-11.25794 12.55693,-11.25794c11.62282,0 50.20867,0 54.41335,0c4.71666,0 10.53627,4.25006 10.53627,10.10327z" fill="#479cc0" fill-rule="nonzero" stroke="none" stroke-width="0" stroke-linecap="butt"/></g></g></svg>