<svg version="1.1" xmlns="http://www.w3.org/2000/svg" xmlns:xlink="http://www.w3.org/1999/xlink" width="217.68535" height="226.49534" viewBox="0,0,217.68535,226.49534"><defs><linearGradient x1="308.30629" y1="16.00401" x2="308.30629" y2="59.16871" gradientUnits="userSpaceOnUse" id="color-1"><stop offset="0" stop-color="#86f5bf"/><stop offset="1" stop-color="#5bc8f5"/></linearGradient><linearGradient x1="272.96731" y1="75.95341" x2="279.43814" y2="82.73609" gradientUnits="userSpaceOnUse" id="color-2"><stop offset="0" stop-color="#6bc399"/><stop offset="1" stop-color="#55b6e6"/></linearGradient><linearGradient x1="273.22064" y1="73.39287" x2="277.96592" y2="78.36684" gradientUnits="userSpaceOnUse" id="color-3"><stop offset="0" stop-color="#6bc399"/><stop offset="1" stop-color="#55b6e6"/></linearGradient><linearGradient x1="335.21823" y1="76.19076" x2="336.48198" y2="83.79443" gradientUnits="userSpaceOnUse" id="color-4"><stop offset="0" stop-color="#6bc399"/><stop offset="1" stop-color="#55b6e6"/></linearGradient><linearGradient x1="332.42972" y1="74.55083" x2="336.7145" y2="80.19052" gradientUnits="userSpaceOnUse" id="color-5"><stop offset="0" stop-color="#6bc399"/><stop offset="1" stop-color="#55b6e6"/></linearGradient><linearGradient x1="325.97191" y1="80.38369" x2="330.25668" y2="86.02338" gradientUnits="userSpaceOnUse" id="color-6"><stop offset="0" stop-color="#6bc399"/><stop offset="1" stop-color="#55b6e6"/></linearGradient><linearGradient x1="322.37272" y1="66.50438" x2="325.77538" y2="70.98303" gradientUnits="userSpaceOnUse" id="color-7"><stop offset="0" stop-color="#6bc399"/><stop offset="1" stop-color="#55b6e6"/></linearGradient><linearGradient x1="317.78227" y1="73.01141" x2="317.9818" y2="78.63248" gradientUnits="userSpaceOnUse" id="color-8"><stop offset="0" stop-color="#6bc399"/><stop offset="1" stop-color="#55b6e6"/></linearGradient><linearGradient x1="293.4228" y1="64.33254" x2="296.48272" y2="69.05199" gradientUnits="userSpaceOnUse" id="color-9"><stop offset="0" stop-color="#6bc399"/><stop offset="1" stop-color="#55b6e6"/></linearGradient><linearGradient x1="311.78376" y1="54.71764" x2="311.86424" y2="59.71666" gradientUnits="userSpaceOnUse" id="color-10"><stop offset="0" stop-color="#6bc399"/><stop offset="1" stop-color="#55b6e6"/></linearGradient><linearGradient x1="289.54042" y1="71.98467" x2="292.11675" y2="77.67817" gradientUnits="userSpaceOnUse" id="color-11"><stop offset="0" stop-color="#6bc399"/><stop offset="1" stop-color="#55b6e6"/></linearGradient><linearGradient x1="282.00335" y1="64.7825" x2="282.00335" y2="85.31456" gradientUnits="userSpaceOnUse" id="color-12"><stop offset="0" stop-color="#86f5bf"/><stop offset="1" stop-color="#5bc8f5"/></linearGradient><linearGradient x1="270.89891" y1="89.47506" x2="275.07755" y2="86.72994" gradientUnits="userSpaceOnUse" id="color-13"><stop offset="0" stop-color="#6bc399"/><stop offset="1" stop-color="#55b6e6"/></linearGradient><linearGradient x1="291.13388" y1="82.92512" x2="288.02668" y2="86.84201" gradientUnits="userSpaceOnUse" id="color-14"><stop offset="0" stop-color="#6bc399"/><stop offset="1" stop-color="#55b6e6"/></linearGradient><linearGradient x1="169.48786" y1="-38.32141" x2="169.48786" y2="21.83143" gradientUnits="userSpaceOnUse" id="color-15"><stop offset="0" stop-color="#86f5bf"/><stop offset="1" stop-color="#5bc8f5"/></linearGradient><linearGradient x1="218.73503" y1="45.222" x2="209.7175" y2="54.67411" gradientUnits="userSpaceOnUse" id="color-16"><stop offset="0" stop-color="#6bc399"/><stop offset="1" stop-color="#55b6e6"/></linearGradient><linearGradient x1="218.38201" y1="41.65372" x2="211.76914" y2="48.58527" gradientUnits="userSpaceOnUse" id="color-17"><stop offset="0" stop-color="#6bc399"/><stop offset="1" stop-color="#55b6e6"/></linearGradient><linearGradient x1="131.98431" y1="45.55276" x2="130.2232" y2="56.14897" gradientUnits="userSpaceOnUse" id="color-18"><stop offset="0" stop-color="#6bc399"/><stop offset="1" stop-color="#55b6e6"/></linearGradient><linearGradient x1="135.87028" y1="43.2674" x2="129.89917" y2="51.12668" gradientUnits="userSpaceOnUse" id="color-19"><stop offset="0" stop-color="#6bc399"/><stop offset="1" stop-color="#55b6e6"/></linearGradient><linearGradient x1="144.86966" y1="51.39588" x2="138.89855" y2="59.25516" gradientUnits="userSpaceOnUse" id="color-20"><stop offset="0" stop-color="#6bc399"/><stop offset="1" stop-color="#55b6e6"/></linearGradient><linearGradient x1="149.88536" y1="32.05416" x2="145.14354" y2="38.29544" gradientUnits="userSpaceOnUse" id="color-21"><stop offset="0" stop-color="#6bc399"/><stop offset="1" stop-color="#55b6e6"/></linearGradient><linearGradient x1="156.28246" y1="41.12212" x2="156.0044" y2="48.95546" gradientUnits="userSpaceOnUse" id="color-22"><stop offset="0" stop-color="#6bc399"/><stop offset="1" stop-color="#55b6e6"/></linearGradient><linearGradient x1="190.22898" y1="29.02755" x2="185.96478" y2="35.60441" gradientUnits="userSpaceOnUse" id="color-23"><stop offset="0" stop-color="#6bc399"/><stop offset="1" stop-color="#55b6e6"/></linearGradient><linearGradient x1="164.64178" y1="15.62856" x2="164.52962" y2="22.59503" gradientUnits="userSpaceOnUse" id="color-24"><stop offset="0" stop-color="#6bc399"/><stop offset="1" stop-color="#55b6e6"/></linearGradient><linearGradient x1="195.63932" y1="39.6913" x2="192.04904" y2="47.62556" gradientUnits="userSpaceOnUse" id="color-25"><stop offset="0" stop-color="#6bc399"/><stop offset="1" stop-color="#55b6e6"/></linearGradient><linearGradient x1="206.14273" y1="29.65461" x2="206.14273" y2="58.26737" gradientUnits="userSpaceOnUse" id="color-26"><stop offset="0" stop-color="#86f5bf"/><stop offset="1" stop-color="#5bc8f5"/></linearGradient><linearGradient x1="221.61748" y1="64.06529" x2="215.79428" y2="60.23979" gradientUnits="userSpaceOnUse" id="color-27"><stop offset="0" stop-color="#6bc399"/><stop offset="1" stop-color="#55b6e6"/></linearGradient><linearGradient x1="193.41874" y1="54.93752" x2="197.74882" y2="60.39596" gradientUnits="userSpaceOnUse" id="color-28"><stop offset="0" stop-color="#6bc399"/><stop offset="1" stop-color="#55b6e6"/></linearGradient></defs><g transform="translate(-123.5705,-1.78048)"><g data-paper-data="{&quot;isPaintingLayer&quot;:true}" fill-rule="nonzero" stroke-linejoin="miter" stroke-miterlimit="10" stroke-dasharray="" stroke-dashoffset="0" style="mix-blend-mode: normal"><g data-paper-data="{&quot;index&quot;:null}"><g><g><path d="M297.79416,144.1221v-57.49538h19.79008v57.49538z" fill="#b06041" stroke="none" stroke-width="0" stroke-linecap="butt"/><path d="M313.73038,144.1221v-57.49538h3.7497v57.49538z" fill="#ab5c37" stroke="none" stroke-width="0" stroke-linecap="butt"/><path d="M297.89832,144.1221v-57.49538h3.7497v57.49538z" fill="#ab5c37" stroke="none" stroke-width="0" stroke-linecap="butt"/><path d="M303.10748,116.0688v-12.77675" fill="none" stroke="#ad6c4e" stroke-width="6" stroke-linecap="round"/><path d="M312.27341,119.8185v12.77675" fill="none" stroke="#ad6c4e" stroke-width="6" stroke-linecap="round"/><path d="M308.52372,88.43213v-1.80541v12.36012" fill="none" stroke="#ad6c4e" stroke-width="6" stroke-linecap="round"/></g><g fill="#ab5c37" stroke="none" stroke-linecap="butt"><path d="M282.06668,114.54114v-5.27736h17.63747v5.27736z" stroke-width="NaN"/><path d="M281.92779,114.54114c-1.4573,0 -2.63867,-1.18138 -2.63867,-2.63868c0,-1.4573 1.18138,-2.63867 2.63867,-2.63867c1.4573,0 2.63868,1.18138 2.63868,2.63867c0,1.4573 -1.18138,2.63868 -2.63868,2.63868z" stroke-width="0"/></g><g fill="#ab5c37" stroke="none" stroke-linecap="butt"><path d="M284.63591,111.69415h-5.27735v-17.63748h5.27735z" stroke-width="NaN"/><path d="M284.63592,111.83303c0,1.45731 -1.18138,2.63868 -2.63868,2.63868c-1.45731,0 -2.63867,-1.18137 -2.63867,-2.63868c0,-1.4573 1.18138,-2.63867 2.63867,-2.63867c1.45731,0 2.63868,1.18137 2.63868,2.63867z" stroke-width="0"/></g><path d="M297.98548,91.07081v-4.30521h19.58176v4.30521z" fill="#86482b" stroke="none" stroke-width="NaN" stroke-linecap="butt"/><path d="M279.37587,102.45878v-4.30521h5.13847v4.30521z" fill="#86482b" stroke="none" stroke-width="NaN" stroke-linecap="butt"/></g><g stroke="none" stroke-width="0" stroke-linecap="butt"><path d="M338.64857,81.33097c0,3.93712 -3.39776,6.61421 -6.70137,6.61421c-7.09018,0 -34.32492,0 -47.1846,0c-4.14662,0 -6.79859,-2.63062 -6.79859,-6.51005c0,-9.05102 0,-24.89964 0,-29.99759c0,-3.11 2.65232,-6.65706 6.79859,-6.65706c12.83127,0 39.97005,0 47.08651,0c3.34482,0 6.79947,3.48305 6.79947,6.5529c0,5.06497 0,20.89725 0,29.99759z" fill="url(#color-1)"/><path d="M284.18342,87.71006c-1.87299,1.78687 -4.83988,1.71706 -6.62676,-0.15592c-1.78687,-1.87299 -1.71706,-4.83989 0.15592,-6.62676c1.87299,-1.78687 4.83988,-1.71706 6.62676,0.15593c1.78687,1.87299 1.71706,4.83988 -0.15592,6.62676z" fill="url(#color-2)"/><path d="M281.44579,82.01443c-1.37352,1.31037 -3.54925,1.25918 -4.85962,-0.11435c-1.31037,-1.37352 -1.25918,-3.54925 0.11434,-4.85962c1.37352,-1.31037 3.54925,-1.25918 4.85962,0.11434c1.31037,1.37352 1.25918,3.54926 -0.11434,4.85963z" fill="url(#color-3)"/><path d="M337.40872,89.37046c-2.09969,0.34897 -4.08473,-1.07027 -4.43371,-3.16996c-0.34897,-2.09969 1.07027,-4.08473 3.16996,-4.4337c2.09969,-0.34897 4.08473,1.07027 4.43371,3.16996c0.34897,2.09969 -1.07027,4.08473 -3.16996,4.43371z" fill="url(#color-4)"/><path d="M339.85666,84.3263c-1.55736,1.18321 -3.77903,0.87989 -4.96224,-0.67746c-1.18321,-1.55736 -0.8799,-3.77903 0.67746,-4.96224c1.55736,-1.18321 3.77902,-0.87989 4.96223,0.67746c1.18321,1.55736 0.8799,3.77903 -0.67746,4.96224z" fill="url(#color-5)"/><path d="M334.0763,85.19693c1.18321,1.55736 0.8799,3.77902 -0.67746,4.96223c-1.55736,1.18321 -3.77902,0.8799 -4.96223,-0.67746c-1.18321,-1.55736 -0.8799,-3.77902 0.67746,-4.96223c1.55736,-1.18321 3.77903,-0.8799 4.96224,0.67746z" fill="url(#color-6)"/><path d="M328.27067,74.26736c-1.23674,0.93962 -3.00103,0.69875 -3.94065,-0.53799c-0.93962,-1.23674 -0.69875,-3.00103 0.53799,-3.94065c1.23674,-0.93962 3.00103,-0.69875 3.94065,0.53799c0.93962,1.23674 0.69875,3.00103 -0.53799,3.94065z" fill="url(#color-7)"/><path d="M318.12812,82.75461c-1.55222,0.0551 -2.8552,-1.15855 -2.9103,-2.71077c-0.0551,-1.55222 1.15855,-2.85521 2.71077,-2.9103c1.55222,-0.0551 2.8552,1.15856 2.9103,2.71078c0.0551,1.55222 -1.15855,2.8552 -2.71077,2.9103z" fill="url(#color-8)"/><path d="M298.72666,72.51291c-1.30325,0.84497 -3.04471,0.47348 -3.88968,-0.82976c-0.84498,-1.30324 -0.47348,-3.04471 0.82976,-3.88968c1.30325,-0.84497 3.04472,-0.47348 3.88969,0.82976c0.84498,1.30324 0.47348,3.04471 -0.82976,3.88968z" fill="url(#color-9)"/><path d="M311.92326,63.38261c-1.38044,0.02222 -2.51753,-1.07882 -2.53976,-2.45927c-0.02222,-1.38045 1.07883,-2.51753 2.45927,-2.53976c1.38044,-0.02222 2.51753,1.07882 2.53975,2.45927c0.02222,1.38045 -1.07882,2.51753 -2.45927,2.53976z" fill="url(#color-10)"/><path d="M294.00606,81.85339c-1.57222,0.71143 -3.42347,0.01364 -4.13491,-1.55858c-0.71143,-1.57222 -0.01364,-3.42347 1.55858,-4.13491c1.57222,-0.71143 3.42347,-0.01364 4.13491,1.55858c0.71143,1.57222 0.01364,3.42348 -1.55858,4.13491z" fill="url(#color-11)"/></g><path d="M296.43619,95.85643c0,1.87276 -1.6162,3.14617 -3.18763,3.14617c-3.37257,0 -16.32726,0 -22.44419,0c-1.97241,0 -3.23387,-1.2513 -3.23387,-3.09662c0,-4.30528 0,-11.84395 0,-14.26889c0,-1.47933 1.26162,-3.16655 3.23387,-3.16655c6.10343,0 19.01246,0 22.39753,0c1.59102,0 3.23429,1.65677 3.23429,3.117c0,2.40924 0,9.94015 0,14.26889z" fill="url(#color-12)" stroke="none" stroke-width="0" stroke-linecap="butt"/><path d="M278.14189,84.71685c0.75804,1.1539 0.43714,2.70383 -0.71676,3.46188c-1.15391,0.75805 -2.70383,0.43714 -3.46188,-0.71676c-0.75804,-1.1539 -0.43714,-2.70383 0.71676,-3.46188c1.15391,-0.75805 2.70383,-0.43714 3.46188,0.71676z" fill="url(#color-13)" stroke="none" stroke-width="0" stroke-linecap="butt"/><path d="M285.74806,89.71439c-1.08162,-0.85803 -1.26287,-2.43042 -0.40484,-3.51204c0.85803,-1.08162 2.43043,-1.26287 3.51205,-0.40484c1.08162,0.85803 1.26287,2.43042 0.40484,3.51204c-0.85803,1.08162 -2.43042,1.26287 -3.51204,0.40484z" fill="url(#color-14)" stroke="none" stroke-width="0" stroke-linecap="butt"/></g><g><g><g><path d="M156.55843,140.21952v-80.12357h27.57877v80.12357z" fill="#b06041" stroke="none" stroke-width="0" stroke-linecap="butt"/><path d="M156.70358,140.21952v-80.12357h5.22545v80.12357z" fill="#ab5c37" stroke="none" stroke-width="0" stroke-linecap="butt"/><path d="M178.7666,140.21952v-80.12357h5.22545v80.12357z" fill="#ab5c37" stroke="none" stroke-width="0" stroke-linecap="butt"/><path d="M176.73274,83.32018v17.80523" fill="none" stroke="#ad6c4e" stroke-width="6" stroke-linecap="round"/><path d="M163.95941,124.1561v-17.80523" fill="none" stroke="#ad6c4e" stroke-width="6" stroke-linecap="round"/><path d="M169.18486,62.61191v-2.51596v17.22463" fill="none" stroke="#ad6c4e" stroke-width="6" stroke-linecap="round"/></g><g fill="#ab5c37" stroke="none" stroke-linecap="butt"><path d="M181.47551,98.99652v-7.35434h24.57897v7.35434z" stroke-width="NaN"/><path d="M202.57085,95.31936c0,-2.03084 1.64632,-3.67717 3.67717,-3.67717c2.03084,0 3.67717,1.64632 3.67717,3.67717c0,2.03084 -1.64632,3.67717 -3.67717,3.67717c-2.03084,0 -3.67717,-1.64632 -3.67717,-3.67717z" stroke-width="0"/></g><g fill="#ab5c37" stroke="none" stroke-linecap="butt"><path d="M202.47408,70.45008h7.35433v24.57897h-7.35433z" stroke-width="NaN"/><path d="M206.15124,91.54542c2.03084,0 3.67717,1.64632 3.67717,3.67717c0,2.03085 -1.64632,3.67717 -3.67717,3.67717c-2.03084,0 -3.67717,-1.64632 -3.67717,-3.67717c0,-2.03085 1.64632,-3.67717 3.67717,-3.67717z" stroke-width="0"/></g><path d="M156.58212,66.28908v-5.99959h27.28846v5.99959z" fill="#86482b" stroke="none" stroke-width="NaN" stroke-linecap="butt"/><path d="M202.6435,82.15896v-5.99959h7.1608v5.99959z" fill="#86482b" stroke="none" stroke-width="NaN" stroke-linecap="butt"/></g><g stroke="none" stroke-width="0" stroke-linecap="butt"><path d="M127.2039,52.71598c0,-12.68192 0,-34.74524 0,-41.8036c0,-4.27805 4.81428,-9.1319 9.47551,-9.1319c9.91725,0 47.73691,0 65.61813,0c5.7781,0 9.47428,4.94306 9.47428,9.27705c0,7.10432 0,29.19042 0,41.8036c0,5.40625 -3.69569,9.07218 -9.47428,9.07218c-17.9208,0 -55.87421,0 -65.75483,0c-4.6038,0 -9.3388,-3.73069 -9.3388,-9.21733z" fill="url(#color-15)"/><path d="M202.88736,52.37083c2.49012,-2.61013 6.62469,-2.70741 9.23482,-0.21729c2.61013,2.49012 2.70741,6.62469 0.21729,9.23482c-2.49012,2.61013 -6.62469,2.70741 -9.23482,0.21729c-2.61013,-2.49012 -2.70741,-6.62469 -0.21729,-9.23482z" fill="url(#color-16)"/><path d="M206.76037,46.89621c1.82609,-1.91409 4.85811,-1.98544 6.77221,-0.15935c1.91409,1.82609 1.98543,4.85811 0.15935,6.77221c-1.82609,1.91409 -4.85811,1.98544 -6.77221,0.15935c-1.91409,-1.82609 -1.98543,-4.85811 -0.15935,-6.77221z" fill="url(#color-17)"/><path d="M124.51417,57.74087c0.48632,-2.92606 3.2526,-4.90386 6.17866,-4.41755c2.92606,0.48632 4.90386,3.2526 4.41755,6.17866c-0.48632,2.92606 -3.2526,4.90386 -6.17866,4.41755c-2.92606,-0.48632 -4.90386,-3.2526 -4.41755,-6.17866z" fill="url(#color-18)"/><path d="M124.57627,49.97496c1.64888,-2.17028 4.74492,-2.59296 6.9152,-0.94409c2.17028,1.64888 2.59296,4.74492 0.94408,6.9152c-1.64888,2.17028 -4.74492,2.59296 -6.9152,0.94409c-2.17028,-1.64888 -2.59296,-4.74492 -0.94408,-6.9152z" fill="url(#color-19)"/><path d="M133.57565,58.10344c1.64888,-2.17029 4.74491,-2.59297 6.9152,-0.94409c2.17028,1.64888 2.59296,4.74491 0.94408,6.91519c-1.64888,2.17029 -4.74491,2.59297 -6.91519,0.94409c-2.17029,-1.64888 -2.59296,-4.74491 -0.94408,-6.91519z" fill="url(#color-20)"/><path d="M140.91647,37.38082c1.30942,-1.72348 3.76807,-2.05915 5.49155,-0.74972c1.72348,1.30942 2.05915,3.76807 0.74972,5.49155c-1.30942,1.72348 -3.76807,2.05915 -5.49155,0.74972c-1.72348,-1.30942 -2.05915,-3.76807 -0.74972,-5.49155z" fill="url(#color-21)"/><path d="M152.02285,50.64422c0.07679,-2.16312 1.89258,-3.85443 4.0557,-3.77764c2.16312,0.07679 3.85442,1.89258 3.77764,4.0557c-0.07679,2.16312 -1.89258,3.85443 -4.0557,3.77764c-2.16312,-0.07679 -3.85442,-1.89258 -3.77764,-4.0557z" fill="url(#color-22)"/><path d="M181.68137,35.00691c1.17753,-1.81615 3.60438,-2.33385 5.42053,-1.15633c1.81615,1.17753 2.33385,3.60438 1.15632,5.42053c-1.17753,1.81615 -3.60438,2.33385 -5.42053,1.15633c-1.81615,-1.17753 -2.33385,-3.60438 -1.15632,-5.42053z" fill="url(#color-23)"/><path d="M161.02022,24.16446c0.03097,-1.92374 1.61558,-3.45812 3.53931,-3.42715c1.92374,0.03097 3.45812,1.61557 3.42715,3.53931c-0.03097,1.92374 -1.61558,3.45812 -3.53931,3.42715c-1.92374,-0.03097 -3.45812,-1.61557 -3.42715,-3.53931z" fill="url(#color-24)"/><path d="M187.24419,47.68174c0.99143,-2.19099 3.57128,-3.16341 5.76227,-2.17198c2.19099,0.99143 3.16341,3.57128 2.17198,5.76227c-0.99143,2.19099 -3.57128,3.16341 -5.76227,2.17198c-2.19099,-0.99143 -3.16341,-3.57128 -2.17198,-5.76227z" fill="url(#color-25)"/></g><path d="M186.02961,72.95815c0,-6.03238 0,-16.52719 0,-19.88463c0,-2.03493 2.29,-4.34375 4.50719,-4.34375c4.71732,0 22.7069,0 31.21243,0c2.74845,0 4.50661,2.35125 4.50661,4.41279c0,3.3793 0,13.88494 0,19.88463c0,2.57158 -1.75792,4.31535 -4.50661,4.31535c-8.52435,0 -26.57756,0 -31.27745,0c-2.18988,0 -4.44217,-1.77457 -4.44217,-4.38439z" fill="url(#color-26)" stroke="none" stroke-width="0" stroke-linecap="butt"/><path d="M216.34828,56.43557c1.60804,1.05638 2.05523,3.21632 0.99885,4.82436c-1.05638,1.60804 -3.21631,2.05524 -4.82436,0.99885c-1.60804,-1.05638 -2.05523,-3.21632 -0.99885,-4.82436c1.05638,-1.60804 3.21631,-2.05524 4.82436,-0.99885z" fill="url(#color-27)" stroke="none" stroke-width="0" stroke-linecap="butt"/><path d="M196.02996,63.83464c-1.19572,-1.5073 -0.94313,-3.69854 0.56417,-4.89426c1.5073,-1.19572 3.69854,-0.94314 4.89426,0.56417c1.19572,1.5073 0.94313,3.69854 -0.56417,4.89426c-1.5073,1.19572 -3.69854,0.94314 -4.89426,-0.56417z" fill="url(#color-28)" stroke="none" stroke-width="0" stroke-linecap="butt"/></g><path d="M146.12221,227.49881v-85.98862h187.75558v85.98862z" fill="#ffffff" stroke="none" stroke-width="0" stroke-linecap="butt"/><path d="M145.30579,228.27582v-65.78647h189.72368v65.78647z" fill="#4eaad2" stroke="none" stroke-width="0" stroke-linecap="butt"/><path d="M335.0076,140.73319v30.56222h-181.82946v-30.56222z" fill="#5ecfff" stroke="none" stroke-width="0" stroke-linecap="butt"/><path d="M334.34953,140.73352h0.66265h-190.04165h1.03393" fill="none" stroke="#ffffff" stroke-width="12" stroke-linecap="round"/><path d="M287.0282,152.34166c0,5.36482 0,10.86234 0,13.83148c0,2.22467 -2.14383,4.93447 -5.15877,4.93447c-5.75992,0 -25.6897,0 -28.93397,0c-2.33553,0 -5.90642,-2.19937 -6.05595,-5.5326c-0.10271,-2.28967 -0.06031,-8.55356 0,-12.63524c0.03909,-2.64539 3.27178,-5.83165 6.50454,-5.83165c6.02066,0 26.00828,0 28.18632,0c2.44324,0 5.45784,2.20155 5.45784,5.23353z" fill="#79d7ff" stroke="none" stroke-width="0" stroke-linecap="butt"/><path d="M224.28441,180.95666c0,5.36482 0,10.86234 0,13.83149c0,2.22467 -2.14383,4.93447 -5.15877,4.93447c-5.75992,0 -25.68969,0 -28.93396,0c-2.33553,0 -5.90641,-2.19937 -6.05594,-5.5326c-0.10271,-2.28967 -0.06031,-8.55355 0,-12.63524c0.03909,-2.64539 3.27177,-5.83165 6.50453,-5.83165c6.02067,0 26.00828,0 28.18632,0c2.44324,0 5.45782,2.20155 5.45782,5.23353z" fill="#4597ba" stroke="none" stroke-width="0" stroke-linecap="butt"/><path d="M313.98617,204.54683c0,5.36482 0,10.86234 0,13.83149c0,2.22467 -2.14383,4.93447 -5.15877,4.93447c-5.75992,0 -25.68971,0 -28.93397,0c-2.33553,0 -5.90641,-2.19937 -6.05594,-5.5326c-0.10271,-2.28967 -0.06031,-8.55355 0,-12.63524c0.03909,-2.64539 3.27177,-5.83166 6.50454,-5.83166c6.02066,0 26.00827,0 28.18631,0c2.44324,0 5.45783,2.20155 5.45783,5.23354z" fill="#479cc0" stroke="none" stroke-width="0" stroke-linecap="butt"/><path d="M173.34446,152.1697c0,5.35671 0,10.84591 0,13.81057c0,2.2213 -2.47557,4.92701 -5.95704,4.92701c-3.90965,0 -21.97121,0 -21.97121,0l-0.22448,-23.9632c0,0 20.15689,0 21.85036,0c2.82132,0 6.30238,2.19822 6.30238,5.22561z" fill="#9ce1ff" stroke="none" stroke-width="0" stroke-linecap="butt"/></g></g></svg>