<svg version="1.1" xmlns="http://www.w3.org/2000/svg" xmlns:xlink="http://www.w3.org/1999/xlink" width="490.49759" height="527.73155" viewBox="0,0,490.49759,527.73155"><defs><linearGradient x1="345.29642" y1="-127.50775" x2="345.29642" y2="-50.5754" gradientUnits="userSpaceOnUse" id="color-1"><stop offset="0" stop-color="#86f5bf"/><stop offset="1" stop-color="#5bc8f5"/></linearGradient><linearGradient x1="408.28098" y1="-20.66009" x2="396.74803" y2="-8.57134" gradientUnits="userSpaceOnUse" id="color-2"><stop offset="0" stop-color="#6bc399"/><stop offset="1" stop-color="#55b6e6"/></linearGradient><linearGradient x1="407.82949" y1="-25.22373" x2="399.37197" y2="-16.35863" gradientUnits="userSpaceOnUse" id="color-3"><stop offset="0" stop-color="#6bc399"/><stop offset="1" stop-color="#55b6e6"/></linearGradient><linearGradient x1="297.33132" y1="-20.23706" x2="295.07896" y2="-6.68506" gradientUnits="userSpaceOnUse" id="color-4"><stop offset="0" stop-color="#6bc399"/><stop offset="1" stop-color="#55b6e6"/></linearGradient><linearGradient x1="302.30128" y1="-23.15991" x2="294.66454" y2="-13.10831" gradientUnits="userSpaceOnUse" id="color-5"><stop offset="0" stop-color="#6bc399"/><stop offset="1" stop-color="#55b6e6"/></linearGradient><linearGradient x1="313.81102" y1="-12.764" x2="306.17429" y2="-2.7124" gradientUnits="userSpaceOnUse" id="color-6"><stop offset="0" stop-color="#6bc399"/><stop offset="1" stop-color="#55b6e6"/></linearGradient><linearGradient x1="320.22585" y1="-37.50108" x2="314.16129" y2="-29.5188" gradientUnits="userSpaceOnUse" id="color-7"><stop offset="0" stop-color="#6bc399"/><stop offset="1" stop-color="#55b6e6"/></linearGradient><linearGradient x1="328.40739" y1="-25.90361" x2="328.05178" y2="-15.88518" gradientUnits="userSpaceOnUse" id="color-8"><stop offset="0" stop-color="#6bc399"/><stop offset="1" stop-color="#55b6e6"/></linearGradient><linearGradient x1="371.82323" y1="-41.37194" x2="366.36953" y2="-32.96047" gradientUnits="userSpaceOnUse" id="color-9"><stop offset="0" stop-color="#6bc399"/><stop offset="1" stop-color="#55b6e6"/></linearGradient><linearGradient x1="339.09853" y1="-58.50854" x2="338.95509" y2="-49.5988" gradientUnits="userSpaceOnUse" id="color-10"><stop offset="0" stop-color="#6bc399"/><stop offset="1" stop-color="#55b6e6"/></linearGradient><linearGradient x1="378.74277" y1="-27.73356" x2="374.15098" y2="-17.58606" gradientUnits="userSpaceOnUse" id="color-11"><stop offset="0" stop-color="#6bc399"/><stop offset="1" stop-color="#55b6e6"/></linearGradient><linearGradient x1="411.96749" y1="3.43951" x2="404.51992" y2="-1.45311" gradientUnits="userSpaceOnUse" id="color-12"><stop offset="0" stop-color="#6bc399"/><stop offset="1" stop-color="#55b6e6"/></linearGradient><linearGradient x1="375.90276" y1="-8.23444" x2="381.44072" y2="-1.25338" gradientUnits="userSpaceOnUse" id="color-13"><stop offset="0" stop-color="#6bc399"/><stop offset="1" stop-color="#55b6e6"/></linearGradient><linearGradient x1="162.15619" y1="-70.03174" x2="162.15619" y2="-10.3134" gradientUnits="userSpaceOnUse" id="color-14"><stop offset="0" stop-color="#86f5bf"/><stop offset="1" stop-color="#5bc8f5"/></linearGradient><linearGradient x1="211.04763" y1="12.9082" x2="202.09524" y2="22.29203" gradientUnits="userSpaceOnUse" id="color-15"><stop offset="0" stop-color="#6bc399"/><stop offset="1" stop-color="#55b6e6"/></linearGradient><linearGradient x1="210.69716" y1="9.3657" x2="204.13206" y2="16.24719" gradientUnits="userSpaceOnUse" id="color-16"><stop offset="0" stop-color="#6bc399"/><stop offset="1" stop-color="#55b6e6"/></linearGradient><linearGradient x1="124.92354" y1="13.23657" x2="123.17515" y2="23.75625" gradientUnits="userSpaceOnUse" id="color-17"><stop offset="0" stop-color="#6bc399"/><stop offset="1" stop-color="#55b6e6"/></linearGradient><linearGradient x1="128.78144" y1="10.96773" x2="122.85346" y2="18.77023" gradientUnits="userSpaceOnUse" id="color-18"><stop offset="0" stop-color="#6bc399"/><stop offset="1" stop-color="#55b6e6"/></linearGradient><linearGradient x1="137.71581" y1="19.0375" x2="131.78784" y2="26.84" gradientUnits="userSpaceOnUse" id="color-19"><stop offset="0" stop-color="#6bc399"/><stop offset="1" stop-color="#55b6e6"/></linearGradient><linearGradient x1="142.69529" y1="-0.16453" x2="137.98771" y2="6.03168" gradientUnits="userSpaceOnUse" id="color-20"><stop offset="0" stop-color="#6bc399"/><stop offset="1" stop-color="#55b6e6"/></linearGradient><linearGradient x1="149.04617" y1="8.83794" x2="148.77013" y2="16.6147" gradientUnits="userSpaceOnUse" id="color-21"><stop offset="0" stop-color="#6bc399"/><stop offset="1" stop-color="#55b6e6"/></linearGradient><linearGradient x1="182.74749" y1="-3.16927" x2="178.51408" y2="3.36009" gradientUnits="userSpaceOnUse" id="color-22"><stop offset="0" stop-color="#6bc399"/><stop offset="1" stop-color="#55b6e6"/></linearGradient><linearGradient x1="157.34512" y1="-16.47146" x2="157.23377" y2="-9.55532" gradientUnits="userSpaceOnUse" id="color-23"><stop offset="0" stop-color="#6bc399"/><stop offset="1" stop-color="#55b6e6"/></linearGradient><linearGradient x1="188.11875" y1="7.41746" x2="184.5544" y2="15.2944" gradientUnits="userSpaceOnUse" id="color-24"><stop offset="0" stop-color="#6bc399"/><stop offset="1" stop-color="#55b6e6"/></linearGradient><linearGradient x1="198.54628" y1="-2.54673" x2="198.54628" y2="25.85934" gradientUnits="userSpaceOnUse" id="color-25"><stop offset="0" stop-color="#86f5bf"/><stop offset="1" stop-color="#5bc8f5"/></linearGradient><linearGradient x1="213.90926" y1="31.61539" x2="208.12813" y2="27.81752" gradientUnits="userSpaceOnUse" id="color-26"><stop offset="0" stop-color="#6bc399"/><stop offset="1" stop-color="#55b6e6"/></linearGradient><linearGradient x1="185.91421" y1="22.55355" x2="190.21302" y2="27.97256" gradientUnits="userSpaceOnUse" id="color-27"><stop offset="0" stop-color="#6bc399"/><stop offset="1" stop-color="#55b6e6"/></linearGradient><linearGradient x1="146.32497" y1="4.34857" x2="146.32497" y2="37.99644" gradientUnits="userSpaceOnUse" id="color-28"><stop offset="0" stop-color="#86f5bf"/><stop offset="1" stop-color="#5bc8f5"/></linearGradient><linearGradient x1="118.77744" y1="51.08049" x2="123.8216" y2="56.36774" gradientUnits="userSpaceOnUse" id="color-29"><stop offset="0" stop-color="#6bc399"/><stop offset="1" stop-color="#55b6e6"/></linearGradient><linearGradient x1="118.97491" y1="49.08449" x2="122.67397" y2="52.96181" gradientUnits="userSpaceOnUse" id="color-30"><stop offset="0" stop-color="#6bc399"/><stop offset="1" stop-color="#55b6e6"/></linearGradient><linearGradient x1="167.30344" y1="51.2655" x2="168.28856" y2="57.19274" gradientUnits="userSpaceOnUse" id="color-31"><stop offset="0" stop-color="#6bc399"/><stop offset="1" stop-color="#55b6e6"/></linearGradient><linearGradient x1="165.12973" y1="49.98714" x2="168.46982" y2="54.38341" gradientUnits="userSpaceOnUse" id="color-32"><stop offset="0" stop-color="#6bc399"/><stop offset="1" stop-color="#55b6e6"/></linearGradient><linearGradient x1="160.09572" y1="54.53399" x2="163.4358" y2="58.93026" gradientUnits="userSpaceOnUse" id="color-33"><stop offset="0" stop-color="#6bc399"/><stop offset="1" stop-color="#55b6e6"/></linearGradient><linearGradient x1="157.29008" y1="43.71475" x2="159.94252" y2="47.20596" gradientUnits="userSpaceOnUse" id="color-34"><stop offset="0" stop-color="#6bc399"/><stop offset="1" stop-color="#55b6e6"/></linearGradient><linearGradient x1="153.71172" y1="48.78713" x2="153.86725" y2="53.16888" gradientUnits="userSpaceOnUse" id="color-35"><stop offset="0" stop-color="#6bc399"/><stop offset="1" stop-color="#55b6e6"/></linearGradient><linearGradient x1="134.72295" y1="42.02175" x2="137.10824" y2="45.70067" gradientUnits="userSpaceOnUse" id="color-36"><stop offset="0" stop-color="#6bc399"/><stop offset="1" stop-color="#55b6e6"/></linearGradient><linearGradient x1="149.03573" y1="34.52673" x2="149.09847" y2="38.42357" gradientUnits="userSpaceOnUse" id="color-37"><stop offset="0" stop-color="#6bc399"/><stop offset="1" stop-color="#55b6e6"/></linearGradient><linearGradient x1="131.69655" y1="47.98677" x2="133.70486" y2="52.42497" gradientUnits="userSpaceOnUse" id="color-38"><stop offset="0" stop-color="#6bc399"/><stop offset="1" stop-color="#55b6e6"/></linearGradient><linearGradient x1="125.82124" y1="42.37251" x2="125.82124" y2="58.37771" gradientUnits="userSpaceOnUse" id="color-39"><stop offset="0" stop-color="#86f5bf"/><stop offset="1" stop-color="#5bc8f5"/></linearGradient><linearGradient x1="117.16508" y1="61.62092" x2="120.42241" y2="59.48104" gradientUnits="userSpaceOnUse" id="color-40"><stop offset="0" stop-color="#6bc399"/><stop offset="1" stop-color="#55b6e6"/></linearGradient><linearGradient x1="132.93869" y1="56.51509" x2="130.51655" y2="59.56839" gradientUnits="userSpaceOnUse" id="color-41"><stop offset="0" stop-color="#6bc399"/><stop offset="1" stop-color="#55b6e6"/></linearGradient></defs><g transform="translate(3.29762,76.21952)"><g data-paper-data="{&quot;isPaintingLayer&quot;:true}" fill-rule="nonzero" stroke-linejoin="miter" stroke-miterlimit="10" stroke-dasharray="" stroke-dashoffset="0" style="mix-blend-mode: normal"><g><g><path d="M328.76037,100.83679v-102.47386h35.2718v102.47386z" fill="#b06041" stroke="none" stroke-width="0" stroke-linecap="butt"/><path d="M328.94599,100.83679v-102.47386h6.68309v102.47386z" fill="#ab5c37" stroke="none" stroke-width="0" stroke-linecap="butt"/><path d="M357.16343,100.83679v-102.47386h6.68309v102.47386z" fill="#ab5c37" stroke="none" stroke-width="0" stroke-linecap="butt"/><path d="M354.56223,28.0655v22.77197" fill="none" stroke="#ad6c4e" stroke-width="6" stroke-linecap="round"/><path d="M338.22581,80.29252v-22.77197" fill="none" stroke="#ad6c4e" stroke-width="6" stroke-linecap="round"/><path d="M344.9089,1.5807v-3.21777v22.0294" fill="none" stroke="#ad6c4e" stroke-width="6" stroke-linecap="round"/></g><path d="M328.79065,6.2836v-7.67316h34.90052v7.67316z" fill="#86482b" stroke="none" stroke-width="NaN" stroke-linecap="butt"/><g stroke="none" stroke-width="0" stroke-linecap="butt"><path d="M291.21744,-64.5403c0,-5.47141 6.15722,-11.67922 12.11868,-11.67922c12.68363,0 61.053,0 83.92215,0c7.38987,0 12.1171,6.32192 12.1171,11.86487c0,9.08606 0,37.33303 0,53.46463c0,6.91431 -4.7266,11.60285 -12.1171,11.60285c-22.91977,0 -71.4602,0 -84.097,0c-5.88801,0 -11.94384,-4.77136 -11.94384,-11.78849c0,-16.21952 0,-44.43737 0,-53.46463z" fill="url(#color-1)"/><path d="M388.01263,-11.5171c3.18475,-3.33823 8.47265,-3.46264 11.81086,-0.27791c3.33823,3.18475 3.46264,8.47265 0.27791,11.81086c-3.18475,3.33823 -8.47265,3.46264 -11.81086,0.27791c-3.33823,-3.18475 -3.46264,-8.47265 -0.27791,-11.81086z" fill="url(#color-2)"/><path d="M392.96599,-18.51885c2.33548,-2.44803 6.21327,-2.53928 8.6613,-0.2038c2.44803,2.33548 2.53926,6.21327 0.2038,8.66129c-2.33548,2.44803 -6.21327,2.53928 -8.6613,0.2038c-2.44803,-2.33548 -2.53926,-6.21327 -0.2038,-8.66129z" fill="url(#color-3)"/><path d="M287.7774,-4.6491c0.62196,-3.74227 4.15991,-6.27178 7.90218,-5.64982c3.74227,0.62196 6.27178,4.1599 5.64982,7.90217c-0.62196,3.74227 -4.15991,6.27178 -7.90218,5.64982c-3.74227,-0.62196 -6.27178,-4.1599 -5.64982,-7.90217z" fill="url(#color-4)"/><path d="M287.85683,-14.58128c2.10883,-2.77568 6.06849,-3.31628 8.84418,-1.20745c2.77566,2.10883 3.31626,6.06849 1.20743,8.84418c-2.10883,2.77568 -6.06849,3.31628 -8.84418,1.20745c-2.77566,-2.10883 -3.31626,-6.06849 -1.20743,-8.84418z" fill="url(#color-5)"/><path d="M308.21076,-5.39284c2.77566,2.10883 3.31626,6.0685 1.20743,8.84418c-2.10883,2.77568 -6.0685,3.31627 -8.84418,1.20744c-2.77568,-2.10883 -3.31625,-6.06849 -1.20742,-8.84418c2.10883,-2.77568 6.06849,-3.31628 8.84418,-1.20745z" fill="url(#color-6)"/><path d="M308.75509,-30.68853c1.67468,-2.20425 4.81915,-2.63354 7.0234,-0.95886c2.20425,1.67468 2.63354,4.81915 0.95886,7.0234c-1.67468,2.20425 -4.81915,2.63354 -7.0234,0.95886c-2.20425,-1.67468 -2.63354,-4.81915 -0.95886,-7.0234z" fill="url(#color-7)"/><path d="M322.95958,-13.72536c0.09822,-2.76651 2.42052,-4.9296 5.18703,-4.8314c2.76651,0.09822 4.9296,2.42052 4.8314,5.18703c-0.09822,2.76651 -2.42052,4.9296 -5.18703,4.8314c-2.76651,-0.09822 -4.9296,-2.42052 -4.8314,-5.18703z" fill="url(#color-8)"/><path d="M360.89129,-33.72465c1.50599,-2.32277 4.60982,-2.98488 6.93258,-1.47889c2.32277,1.50599 2.98488,4.60981 1.47887,6.93257c-1.50599,2.32277 -4.60981,2.98488 -6.93257,1.47889c-2.32277,-1.50599 -2.98488,-4.60981 -1.47888,-6.93257z" fill="url(#color-9)"/><path d="M334.46675,-47.59157c0.0396,-2.46036 2.06622,-4.42277 4.52659,-4.38315c2.46036,0.0396 4.42277,2.06622 4.38315,4.52659c-0.0396,2.46036 -2.06622,4.42277 -4.52659,4.38315c-2.46036,-0.0396 -4.42277,-2.06622 -4.38315,-4.52659z" fill="url(#color-10)"/><path d="M368.00584,-17.51419c1.26798,-2.80216 4.56747,-4.04584 7.36963,-2.77785c2.80216,1.26798 4.04584,4.56747 2.77785,7.36963c-1.26798,2.80216 -4.56747,4.04584 -7.36963,2.77786c-2.80216,-1.26798 -4.04584,-4.56748 -2.77785,-7.36963z" fill="url(#color-11)"/></g><path d="M405.22846,-6.31851c2.05659,1.35106 2.62853,4.11352 1.27747,6.17011c-1.35106,2.05659 -4.1135,2.62853 -6.17011,1.27747c-2.05659,-1.35106 -2.62853,-4.11352 -1.27747,-6.17011c1.35106,-2.05659 4.1135,-2.62853 6.17011,-1.27747z" fill="url(#color-12)" stroke="none" stroke-width="0" stroke-linecap="butt"/><path d="M379.24236,3.14451c-1.52926,-1.92777 -1.20622,-4.73025 0.72155,-6.25951c1.92777,-1.52926 4.73025,-1.20622 6.25951,0.72155c1.52926,1.92777 1.20622,4.73025 -0.72155,6.25951c-1.92777,1.52926 -4.73025,1.20622 -6.25951,-0.72155z" fill="url(#color-13)" stroke="none" stroke-width="0" stroke-linecap="butt"/></g><g data-paper-data="{&quot;index&quot;:null}"><g><g><path d="M149.32017,107.21952v-79.5448h27.37955v79.5448z" fill="#b06041" stroke="none" stroke-width="0" stroke-linecap="butt"/><path d="M149.46426,107.21952v-79.5448h5.18771v79.5448z" fill="#ab5c37" stroke="none" stroke-width="0" stroke-linecap="butt"/><path d="M171.3679,107.21952v-79.5448h5.18771v79.5448z" fill="#ab5c37" stroke="none" stroke-width="0" stroke-linecap="butt"/><path d="M169.34873,68.40781v-17.67662" fill="none" stroke="#ad6c4e" stroke-width="6" stroke-linecap="round"/><path d="M156.66767,91.27214v-17.67662" fill="none" stroke="#ad6c4e" stroke-width="6" stroke-linecap="round"/><path d="M161.85538,44.77493v-17.10021v2.49778" fill="none" stroke="#ad6c4e" stroke-width="6" stroke-linecap="round"/></g><g fill="#ab5c37" stroke="none" stroke-linecap="butt"><path d="M174.05724,66.29429v-7.30121h24.40143v7.30121z" stroke-width="NaN"/><path d="M195.00021,62.64369c0,-2.01617 1.63442,-3.6506 3.6506,-3.6506c2.01618,0 3.6506,1.63443 3.6506,3.6506c0,2.01617 -1.63442,3.6506 -3.6506,3.6506c-2.01618,0 -3.6506,-1.63443 -3.6506,-3.6506z" stroke-width="0"/></g><g fill="#ab5c37" stroke="none" stroke-linecap="butt"><path d="M194.90414,37.95405h7.30122v24.40143h-7.30122z" stroke-width="NaN"/><path d="M198.55474,58.89702c2.01618,0 3.6506,1.63443 3.6506,3.6506c0,2.01617 -1.63442,3.6506 -3.6506,3.6506c-2.01618,0 -3.65061,-1.63443 -3.65061,-3.6506c0,-2.01617 1.63444,-3.6506 3.65061,-3.6506z" stroke-width="0"/></g><path d="M149.34367,33.8231v-5.95625h27.09135v5.95625z" fill="#86482b" stroke="none" stroke-width="NaN" stroke-linecap="butt"/><path d="M195.07233,49.57835v-5.95625h7.10907v5.95625z" fill="#86482b" stroke="none" stroke-width="NaN" stroke-linecap="butt"/></g><g stroke="none" stroke-width="0" stroke-linecap="butt"><path d="M120.17767,-21.15358c0,-4.24715 4.77951,-9.06593 9.40707,-9.06593c9.84561,0 47.39208,0 65.14414,0c5.73635,0 9.40583,4.90736 9.40583,9.21004c0,7.05301 0,28.97957 0,41.50164c0,5.36719 -3.669,9.00666 -9.40583,9.00666c-17.79136,0 -55.47061,0 -65.27986,0c-4.57054,0 -9.27134,-3.70374 -9.27134,-9.15075c0,-12.59032 0,-34.49427 0,-41.50164z" fill="url(#color-14)"/><path d="M195.31443,20.0054c2.47215,-2.59128 6.57685,-2.68785 9.16812,-0.21572c2.59128,2.47215 2.68786,6.57685 0.21573,9.16812c-2.47215,2.59128 -6.57685,2.68785 -9.16812,0.21572c-2.59128,-2.47215 -2.68785,-6.57685 -0.21572,-9.16812z" fill="url(#color-15)"/><path d="M199.15945,14.57033c1.81291,-1.90027 4.82302,-1.97111 6.72329,-0.1582c1.90027,1.81291 1.97109,4.82302 0.1582,6.72329c-1.81291,1.90027 -4.82302,1.97111 -6.72329,0.1582c-1.90027,-1.81291 -1.97109,-4.82302 -0.1582,-6.72329z" fill="url(#color-16)"/><path d="M117.50735,25.33665c0.48279,-2.90492 3.2291,-4.86844 6.13402,-4.38564c2.90492,0.48279 4.86844,3.2291 4.38564,6.13402c-0.48279,2.90492 -3.22911,4.86843 -6.13403,4.38564c-2.90492,-0.48279 -4.86843,-3.2291 -4.38564,-6.13402z" fill="url(#color-17)"/><path d="M117.56901,17.62684c1.63697,-2.15461 4.71063,-2.57424 6.86524,-0.93727c2.1546,1.63697 2.57423,4.71063 0.93726,6.86524c-1.63697,2.15461 -4.71063,2.57425 -6.86525,0.93727c-2.1546,-1.63697 -2.57423,-4.71063 -0.93726,-6.86524z" fill="url(#color-18)"/><path d="M133.36864,24.75932c2.1546,1.63697 2.57423,4.71064 0.93726,6.86525c-1.63697,2.15461 -4.71064,2.57424 -6.86525,0.93727c-2.15461,-1.63697 -2.57423,-4.71063 -0.93726,-6.86524c1.63697,-2.15461 4.71064,-2.57425 6.86525,-0.93727z" fill="url(#color-19)"/><path d="M133.79118,5.12368c1.29996,-1.71104 3.74084,-2.04427 5.45188,-0.74431c1.71104,1.29996 2.04427,3.74084 0.74431,5.45188c-1.29996,1.71104 -3.74084,2.04427 -5.45188,0.74431c-1.71104,-1.29996 -2.04427,-3.74084 -0.74431,-5.45188z" fill="url(#color-20)"/><path d="M144.81734,18.29125c0.07624,-2.14749 1.87891,-3.82658 4.0264,-3.75035c2.14749,0.07624 3.82657,1.87891 3.75035,4.02641c-0.07624,2.14749 -1.87891,3.82657 -4.0264,3.75035c-2.14749,-0.07624 -3.82657,-1.87891 -3.75035,-4.0264z" fill="url(#color-21)"/><path d="M174.26163,2.7669c1.16902,-1.80303 3.57834,-2.317 5.38138,-1.14798c1.80303,1.16902 2.31699,3.57834 1.14796,5.38138c-1.16902,1.80304 -3.57834,2.31699 -5.38137,1.14798c-1.80303,-1.16901 -2.317,-3.57834 -1.14797,-5.38137z" fill="url(#color-22)"/><path d="M153.74972,-7.99722c0.03074,-1.90985 1.60389,-3.43315 3.51374,-3.40239c1.90984,0.03074 3.43315,1.60389 3.4024,3.51374c-0.03074,1.90984 -1.6039,3.43315 -3.51374,3.4024c-1.90984,-0.03074 -3.43315,-1.6039 -3.40239,-3.51374z" fill="url(#color-23)"/><path d="M179.78426,15.35019c0.98426,-2.17516 3.54548,-3.14056 5.72064,-2.15629c2.17516,0.98427 3.14056,3.54548 2.1563,5.72064c-0.98426,2.17516 -3.54548,3.14056 -5.72064,2.1563c-2.17516,-0.98427 -3.14056,-3.54548 -2.15629,-5.72064z" fill="url(#color-24)"/></g><path d="M178.57845,40.444c0,-5.9888 0,-16.40782 0,-19.741c0,-2.02022 2.27346,-4.31237 4.47464,-4.31237c4.68324,0 22.54289,0 30.98697,0c2.7286,0 4.47405,2.33428 4.47405,4.38093c0,3.35489 0,13.78464 0,19.74099c0,2.553 -1.74522,4.28417 -4.47405,4.28417c-8.46277,0 -26.38558,0 -31.05152,0c-2.17406,0 -4.41008,-1.76175 -4.41008,-4.35271z" fill="url(#color-25)" stroke="none" stroke-width="0" stroke-linecap="butt"/><path d="M208.67813,24.04078c1.59642,1.04875 2.04039,3.1931 0.99163,4.78952c-1.04875,1.59642 -3.19309,2.04038 -4.78952,0.99163c-1.59642,-1.04875 -2.04038,-3.1931 -0.99163,-4.78951c1.04875,-1.59642 3.19308,-2.04039 4.78951,-0.99163z" fill="url(#color-26)" stroke="none" stroke-width="0" stroke-linecap="butt"/><path d="M188.50655,31.3864c-1.18708,-1.49642 -0.93632,-3.67183 0.5601,-4.85891c1.49642,-1.18708 3.67183,-0.93632 4.85891,0.5601c1.18708,1.49642 0.93632,3.67183 -0.5601,4.85891c-1.49642,1.18708 -3.67183,0.93632 -4.85891,-0.5601z" fill="url(#color-27)" stroke="none" stroke-width="0" stroke-linecap="butt"/></g><g data-paper-data="{&quot;index&quot;:null}"><g><g><path d="M138.13053,104.21952v-44.81894h15.42681v44.81895z" fill="#b06041" stroke="none" stroke-width="0" stroke-linecap="butt"/><path d="M150.55317,104.21952v-44.81894h2.92298v44.81895z" fill="#ab5c37" stroke="none" stroke-width="0" stroke-linecap="butt"/><path d="M138.21172,104.21952v-44.81894h2.92297v44.81895z" fill="#ab5c37" stroke="none" stroke-width="0" stroke-linecap="butt"/><path d="M142.27239,82.35134v-9.95976" fill="none" stroke="#ad6c4e" stroke-width="6" stroke-linecap="round"/><path d="M149.41744,85.27432v9.95977" fill="none" stroke="#ad6c4e" stroke-width="6" stroke-linecap="round"/><path d="M146.49446,69.03557v-9.63499v1.40735" fill="none" stroke="#ad6c4e" stroke-width="6" stroke-linecap="round"/></g><g fill="#ab5c37" stroke="none" stroke-linecap="butt"><path d="M125.8706,81.16049v-4.11382h13.74881v4.11382z" stroke-width="NaN"/><path d="M125.76234,81.16049c-1.136,0 -2.0569,-0.92091 -2.0569,-2.05691c0,-1.136 0.9209,-2.05691 2.0569,-2.05691c1.136,0 2.05691,0.92091 2.05691,2.05691c0,1.136 -0.92091,2.05691 -2.05691,2.05691z" stroke-width="0"/></g><g fill="#ab5c37" stroke="none" stroke-linecap="butt"><path d="M127.87338,78.9412h-4.11382v-13.74881h4.11382z" stroke-width="NaN"/><path d="M127.87339,79.04945c0,1.136 -0.92092,2.05691 -2.05692,2.05691c-1.136,0 -2.05691,-0.92091 -2.05691,-2.05691c0,-1.136 0.92091,-2.05691 2.05691,-2.05691c1.136,0 2.05692,0.92091 2.05692,2.05691z" stroke-width="0"/></g><path d="M138.27967,62.86484v-3.356h15.26443v3.356z" fill="#86482b" stroke="none" stroke-width="NaN" stroke-linecap="butt"/><path d="M123.77305,71.74201v-3.356h4.00556v3.356z" fill="#86482b" stroke="none" stroke-width="NaN" stroke-linecap="butt"/></g><g stroke="none" stroke-width="0" stroke-linecap="butt"><path d="M169.97747,55.27242c0,3.06908 -2.64863,5.15593 -5.22387,5.15593c-5.52695,0 -26.75705,0 -36.78146,0c-3.23238,0 -5.29965,-2.05063 -5.29965,-5.07473c0,-7.05547 0,-19.40983 0,-23.3838c0,-2.42431 2.06755,-5.18933 5.29965,-5.18933c10.00227,0 31.15756,0 36.70499,0c2.60736,0 5.30034,2.71511 5.30034,5.10814c0,3.94825 0,16.28988 0,23.3838z" fill="url(#color-28)"/><path d="M127.52065,60.24506c-1.46003,1.3929 -3.7728,1.33849 -5.16571,-0.12155c-1.3929,-1.46003 -1.33849,-3.7728 0.12155,-5.16571c1.46003,-1.3929 3.7728,-1.33849 5.16571,0.12155c1.39291,1.46003 1.33849,3.7728 -0.12155,5.16571z" fill="url(#color-29)"/><path d="M125.38661,55.80519c-1.0707,1.02147 -2.76672,0.98156 -3.78819,-0.08914c-1.02146,-1.0707 -0.98156,-2.76671 0.08914,-3.78818c1.0707,-1.02147 2.76672,-0.98156 3.78819,0.08913c1.02146,1.0707 0.98156,2.76672 -0.08914,3.78819z" fill="url(#color-30)"/><path d="M169.01098,61.53937c-1.63675,0.27202 -3.18415,-0.8343 -3.45618,-2.47105c-0.27203,-1.63676 0.83431,-3.18415 2.47106,-3.45617c1.63675,-0.27202 3.18414,0.8343 3.45617,2.47105c0.27203,1.63676 -0.8343,3.18415 -2.47106,3.45617z" fill="url(#color-31)"/><path d="M170.91921,57.60734c-1.214,0.92234 -2.94584,0.6859 -3.86818,-0.5281c-0.92234,-1.214 -0.6859,-2.94584 0.52809,-3.86818c1.214,-0.92234 2.94584,-0.68589 3.86818,0.52811c0.92234,1.214 0.6859,2.94583 -0.52809,3.86817z" fill="url(#color-32)"/><path d="M166.41328,58.28602c0.92234,1.214 0.68591,2.94583 -0.52809,3.86817c-1.214,0.92234 -2.94584,0.6859 -3.86818,-0.5281c-0.92234,-1.214 -0.6859,-2.94584 0.52809,-3.86818c1.214,-0.92234 2.94583,-0.6859 3.86817,0.5281z" fill="url(#color-33)"/><path d="M161.88766,49.76617c-0.96408,0.73246 -2.33937,0.5447 -3.07182,-0.41938c-0.73245,-0.96408 -0.5447,-2.33937 0.41938,-3.07182c0.96408,-0.73246 2.33937,-0.5447 3.07183,0.41938c0.73245,0.96408 0.54469,2.33937 -0.41938,3.07182z" fill="url(#color-34)"/><path d="M153.98132,56.38218c-1.20999,0.04295 -2.2257,-0.90312 -2.26865,-2.11311c-0.04295,-1.20999 0.90312,-2.2257 2.11311,-2.26865c1.20999,-0.04295 2.22569,0.90312 2.26865,2.11311c0.04295,1.20999 -0.90312,2.22569 -2.11311,2.26865z" fill="url(#color-35)"/><path d="M138.85744,48.39854c-1.01591,0.65868 -2.37343,0.36908 -3.0321,-0.64682c-0.65868,-1.0159 -0.36909,-2.37342 0.64682,-3.03209c1.01591,-0.65868 2.37343,-0.36909 3.0321,0.64682c0.65868,1.01591 0.36909,2.37342 -0.64682,3.0321z" fill="url(#color-36)"/><path d="M149.14448,41.28126c-1.07609,0.01733 -1.96247,-0.84096 -1.97979,-1.91705c-0.01733,-1.07609 0.84097,-1.96247 1.91706,-1.97979c1.07609,-0.01733 1.96247,0.84097 1.97979,1.91706c0.01733,1.07609 -0.84097,1.96247 -1.91706,1.97979z" fill="url(#color-37)"/><path d="M135.17761,55.67966c-1.22558,0.55457 -2.66867,0.01063 -3.22325,-1.21495c-0.55457,-1.22558 -0.01063,-2.66868 1.21495,-3.22325c1.22558,-0.55457 2.66868,-0.01063 3.22325,1.21495c0.55457,1.22558 0.01063,2.66868 -1.21495,3.22325z" fill="url(#color-38)"/></g><path d="M137.07196,66.59534c0,1.45986 -1.25987,2.45251 -2.48483,2.45251c-2.62899,0 -12.72747,0 -17.49575,0c-1.53754,0 -2.52088,-0.97541 -2.52088,-2.41388c0,-3.35607 0,-9.23263 0,-11.12292c0,-1.15317 0.98347,-2.46841 2.52088,-2.46841c4.75776,0 14.82065,0 17.45939,0c1.24024,0 2.5212,1.2915 2.5212,2.42978c0,1.87806 0,7.74858 0,11.12293z" fill="url(#color-39)" stroke="none" stroke-width="0" stroke-linecap="butt"/><path d="M122.81114,57.91178c0.59091,0.89949 0.34077,2.1077 -0.55872,2.69862c-0.8995,0.59092 -2.1077,0.34076 -2.69862,-0.55873c-0.59091,-0.89949 -0.34076,-2.1077 0.55873,-2.69862c0.8995,-0.59092 2.1077,-0.34076 2.69861,0.55873z" fill="url(#color-40)" stroke="none" stroke-width="0" stroke-linecap="butt"/><path d="M128.74033,61.80748c-0.84315,-0.66885 -0.98443,-1.89457 -0.31558,-2.73772c0.66885,-0.84314 1.89458,-0.98443 2.73772,-0.31558c0.84314,0.66885 0.98443,1.89457 0.31558,2.73772c-0.66885,0.84314 -1.89458,0.98443 -2.73772,0.31558z" fill="url(#color-41)" stroke="none" stroke-width="0" stroke-linecap="butt"/></g><g stroke="none" stroke-width="0" stroke-linecap="butt"><path d="M417.29088,97.21656c4.10024,-6.73111 16.15301,-26.5174 18.83281,-30.91667c1.02782,-1.68731 2.03049,-2.4937 2.03049,-1.5c0,4.32108 0,34.66667 0,34.66667c0,0 -17.11565,0 -20.30492,0c-0.983,0 -1.41875,-0.83759 -0.55839,-2.25z" fill="#e6e6e6"/><path d="M458.15075,99.63323c-3.18927,0 -20.30492,0 -20.30492,0c0,0 0,-30.3456 0,-34.66667c0,-0.99371 1.00267,-0.18731 2.03049,1.5c2.67981,4.39927 14.73257,24.18556 18.83281,30.91667c0.86037,1.41241 0.42461,2.25 -0.55839,2.25z" data-paper-data="{&quot;index&quot;:null}" fill="#d9d9d9"/><g><g><path d="M417.29089,97.21656c4.10024,-6.73111 16.15301,-26.5174 18.83281,-30.91667c1.02782,-1.68731 2.03049,-2.4937 2.03049,-1.5c0,4.32108 0,34.66667 0,34.66667c0,0 -17.11565,0 -20.30492,0c-0.983,0 -1.41875,-0.83759 -0.55839,-2.25z" fill="#cc0000"/><path d="M458.15076,99.63323c-3.18927,0 -20.30492,0 -20.30492,0c0,0 0,-30.3456 0,-34.66667c0,-0.99371 1.00267,-0.18731 2.03049,1.5c2.67981,4.39927 14.73257,24.18556 18.83281,30.91667c0.86037,1.41241 0.42461,2.25 -0.55839,2.25z" data-paper-data="{&quot;index&quot;:null}" fill="#a60000"/></g><path d="M423.75789,99.36551l-5.64199,-3.67253l2.15634,-3.44879l10.00118,7.24271z" fill="#ffffff"/></g></g><g stroke="none" stroke-width="0" stroke-linecap="butt"><path d="M237.29088,97.21656c4.10024,-6.73111 16.15301,-26.5174 18.83281,-30.91667c1.02782,-1.68731 2.03049,-2.4937 2.03049,-1.5c0,4.32108 0,34.66667 0,34.66667c0,0 -17.11565,0 -20.30492,0c-0.983,0 -1.41875,-0.83759 -0.55839,-2.25z" fill="#e6e6e6"/><path d="M278.15075,99.63323c-3.18927,0 -20.30492,0 -20.30492,0c0,0 0,-30.3456 0,-34.66667c0,-0.99371 1.00267,-0.18731 2.03049,1.5c2.67981,4.39927 14.73257,24.18556 18.83281,30.91667c0.86037,1.41241 0.42461,2.25 -0.55839,2.25z" data-paper-data="{&quot;index&quot;:null}" fill="#d9d9d9"/><g><g><path d="M237.29089,97.21656c4.10024,-6.73111 16.15301,-26.5174 18.83281,-30.91667c1.02782,-1.68731 2.03049,-2.4937 2.03049,-1.5c0,4.32108 0,34.66667 0,34.66667c0,0 -17.11565,0 -20.30492,0c-0.983,0 -1.41875,-0.83759 -0.55839,-2.25z" fill="#cc0000"/><path d="M278.15076,99.63323c-3.18927,0 -20.30492,0 -20.30492,0c0,0 0,-30.3456 0,-34.66667c0,-0.99371 1.00267,-0.18731 2.03049,1.5c2.67981,4.39927 14.73257,24.18556 18.83281,30.91667c0.86037,1.41241 0.42461,2.25 -0.55839,2.25z" data-paper-data="{&quot;index&quot;:null}" fill="#a60000"/></g><path d="M243.7579,99.36551l-5.64199,-3.67253l2.15634,-3.44879l10.00118,7.24271z" fill="#ffffff"/></g></g><g stroke="none" stroke-width="0" stroke-linecap="butt"><path d="M63.29088,98.21656c4.10024,-6.73111 16.15301,-26.5174 18.83281,-30.91667c1.02782,-1.68731 2.03049,-2.4937 2.03049,-1.5c0,4.32108 0,34.66667 0,34.66667c0,0 -17.11565,0 -20.30492,0c-0.983,0 -1.41875,-0.83759 -0.55839,-2.25z" fill="#e6e6e6"/><path d="M104.15075,100.63323c-3.18927,0 -20.30492,0 -20.30492,0c0,0 0,-30.3456 0,-34.66667c0,-0.99371 1.00267,-0.18731 2.03049,1.5c2.67981,4.39927 14.73257,24.18556 18.83281,30.91667c0.86037,1.41241 0.42461,2.25 -0.55839,2.25z" data-paper-data="{&quot;index&quot;:null}" fill="#d9d9d9"/><g><g><path d="M63.29089,98.21656c4.10024,-6.73111 16.15301,-26.5174 18.83281,-30.91667c1.02782,-1.68731 2.03049,-2.4937 2.03049,-1.5c0,4.32108 0,34.66667 0,34.66667c0,0 -17.11565,0 -20.30492,0c-0.983,0 -1.41875,-0.83759 -0.55839,-2.25z" fill="#cc0000"/><path d="M104.15076,100.63323c-3.18927,0 -20.30492,0 -20.30492,0c0,0 0,-30.3456 0,-34.66667c0,-0.99371 1.00267,-0.18731 2.03049,1.5c2.67981,4.39927 14.73257,24.18556 18.83281,30.91667c0.86037,1.41241 0.42461,2.25 -0.55839,2.25z" data-paper-data="{&quot;index&quot;:null}" fill="#a60000"/></g><path d="M69.7579,100.36551l-5.64199,-3.67253l2.15634,-3.44879l10.00118,7.24271z" fill="#ffffff"/></g></g><path d="M0.92736,259.9955v-127h482v127c0,0 3.04395,11.52075 2.78869,27.24107c-0.54811,33.75522 -5.46494,86.87305 -12.08239,86.87305c-42.80024,0 -220.12154,90.21854 -294.28691,75.85226c-5.8662,-1.13632 3.61799,-188.46487 -1.50889,-188.46487c-74.8198,0 -176.9105,-1.5015 -176.9105,-1.5015z" fill="#4eaad2" stroke="none" stroke-width="0" stroke-linecap="butt"/><path d="M482.87181,103.00751v59h-461.94444v-59z" fill="#5ecfff" stroke="none" stroke-width="0" stroke-linecap="butt"/><path d="M54.85116,119.90751c0,11.95934 0,24.21448 0,30.83334c0,4.95926 -4.77905,11 -11.5,11c-7.54753,0 -42.41517,0 -42.41517,0l-0.43337,-53.50001c0,0 38.91264,0 42.18187,0c5.44652,0 12.16667,4.90772 12.16667,11.66666z" fill="#9ce1ff" stroke="none" stroke-width="0" stroke-linecap="butt"/><path d="M481.19997,103.00815h1.68348h-482.80781h2.62674" fill="none" stroke="#ffffff" stroke-width="12" stroke-linecap="round"/><path d="M274.31626,120.10288c0,10.35672 0,20.96962 0,26.70151c0,4.2947 -4.13863,9.52594 -9.95894,9.52594c-11.11946,0 -49.59366,0 -55.85668,0c-4.50871,0 -11.40227,-4.24585 -11.69093,-10.68061c-0.19829,-4.42017 -0.11643,-16.51255 0,-24.39219c0.07546,-5.10689 6.31612,-11.25793 12.55693,-11.25793c11.62281,0 50.20867,0 54.41335,0c4.71666,0 10.53628,4.25007 10.53628,10.10327z" fill="#79d7ff" stroke="none" stroke-width="0" stroke-linecap="butt"/><path d="M153.19013,180.65843c0,10.35672 0,20.96962 0,26.70152c0,4.2947 -4.13864,9.52594 -9.95895,9.52594c-11.11946,0 -49.59365,0 -55.85667,0c-4.50871,0 -11.40226,-4.24584 -11.69093,-10.68061c-0.19829,-4.42017 -0.11643,-16.51254 0,-24.39219c0.07546,-5.10689 6.31612,-11.25793 12.55693,-11.25793c11.62282,0 50.20867,0 54.41335,0c4.71666,0 10.53627,4.25006 10.53627,10.10327z" fill="#4597ba" stroke="none" stroke-width="0" stroke-linecap="butt"/><path d="M347.37931,205.17795c0,10.35672 0,20.96962 0,26.70152c0,4.2947 -4.13864,9.52594 -9.95895,9.52594c-11.11946,0 -49.59366,0 -55.85667,0c-4.50871,0 -11.40226,-4.24585 -11.69093,-10.68061c-0.19829,-4.42017 -0.11643,-16.51254 0,-24.39219c0.07546,-5.10689 6.31612,-11.25794 12.55693,-11.25794c11.62282,0 50.20867,0 54.41335,0c4.71666,0 10.53627,4.25006 10.53627,10.10327z" fill="#479cc0" stroke="none" stroke-width="0" stroke-linecap="butt"/></g></g></svg>