<svg version="1.1" xmlns="http://www.w3.org/2000/svg" xmlns:xlink="http://www.w3.org/1999/xlink" width="200.34507" height="201.49533" viewBox="0,0,200.34507,201.49533"><defs><linearGradient x1="234.44046" y1="-7.0357" x2="234.44046" y2="43.68857" gradientUnits="userSpaceOnUse" id="color-1"><stop offset="0" stop-color="#86f5bf"/><stop offset="1" stop-color="#5bc8f5"/></linearGradient><linearGradient x1="192.91247" y1="63.41281" x2="200.51656" y2="71.38336" gradientUnits="userSpaceOnUse" id="color-2"><stop offset="0" stop-color="#6bc399"/><stop offset="1" stop-color="#55b6e6"/></linearGradient><linearGradient x1="193.21016" y1="60.40384" x2="198.78651" y2="66.24891" gradientUnits="userSpaceOnUse" id="color-3"><stop offset="0" stop-color="#6bc399"/><stop offset="1" stop-color="#55b6e6"/></linearGradient><linearGradient x1="266.06556" y1="63.69172" x2="267.55064" y2="72.62705" gradientUnits="userSpaceOnUse" id="color-4"><stop offset="0" stop-color="#6bc399"/><stop offset="1" stop-color="#55b6e6"/></linearGradient><linearGradient x1="262.78869" y1="61.76459" x2="267.82389" y2="68.39197" gradientUnits="userSpaceOnUse" id="color-5"><stop offset="0" stop-color="#6bc399"/><stop offset="1" stop-color="#55b6e6"/></linearGradient><linearGradient x1="255.19991" y1="68.61897" x2="260.23509" y2="75.24636" gradientUnits="userSpaceOnUse" id="color-6"><stop offset="0" stop-color="#6bc399"/><stop offset="1" stop-color="#55b6e6"/></linearGradient><linearGradient x1="250.9704" y1="52.30894" x2="254.96896" y2="57.57195" gradientUnits="userSpaceOnUse" id="color-7"><stop offset="0" stop-color="#6bc399"/><stop offset="1" stop-color="#55b6e6"/></linearGradient><linearGradient x1="245.57601" y1="59.95557" x2="245.81047" y2="66.56107" gradientUnits="userSpaceOnUse" id="color-8"><stop offset="0" stop-color="#6bc399"/><stop offset="1" stop-color="#55b6e6"/></linearGradient><linearGradient x1="216.95038" y1="49.75674" x2="220.54621" y2="55.30272" gradientUnits="userSpaceOnUse" id="color-9"><stop offset="0" stop-color="#6bc399"/><stop offset="1" stop-color="#55b6e6"/></linearGradient><linearGradient x1="238.52694" y1="38.45797" x2="238.62152" y2="44.33247" gradientUnits="userSpaceOnUse" id="color-10"><stop offset="0" stop-color="#6bc399"/><stop offset="1" stop-color="#55b6e6"/></linearGradient><linearGradient x1="212.38807" y1="58.74902" x2="215.4156" y2="65.43962" gradientUnits="userSpaceOnUse" id="color-11"><stop offset="0" stop-color="#6bc399"/><stop offset="1" stop-color="#55b6e6"/></linearGradient><linearGradient x1="203.53102" y1="50.28551" x2="203.53102" y2="74.41339" gradientUnits="userSpaceOnUse" id="color-12"><stop offset="0" stop-color="#86f5bf"/><stop offset="1" stop-color="#5bc8f5"/></linearGradient><linearGradient x1="190.48184" y1="79.30254" x2="195.39227" y2="76.07667" gradientUnits="userSpaceOnUse" id="color-13"><stop offset="0" stop-color="#6bc399"/><stop offset="1" stop-color="#55b6e6"/></linearGradient><linearGradient x1="214.2606" y1="71.60549" x2="210.60922" y2="76.20835" gradientUnits="userSpaceOnUse" id="color-14"><stop offset="0" stop-color="#6bc399"/><stop offset="1" stop-color="#55b6e6"/></linearGradient><linearGradient x1="274.32456" y1="43.38473" x2="261.5495" y2="76.07174" gradientUnits="userSpaceOnUse" id="color-15"><stop offset="0" stop-color="#86f5bf"/><stop offset="1" stop-color="#5bc8f5"/></linearGradient><linearGradient x1="229.82103" y1="78.32321" x2="232.71374" y2="85.37459" gradientUnits="userSpaceOnUse" id="color-16"><stop offset="0" stop-color="#6bc399"/><stop offset="1" stop-color="#55b6e6"/></linearGradient><linearGradient x1="230.77068" y1="76.45918" x2="232.89201" y2="81.6302" gradientUnits="userSpaceOnUse" id="color-17"><stop offset="0" stop-color="#6bc399"/><stop offset="1" stop-color="#55b6e6"/></linearGradient><linearGradient x1="276.89105" y1="96.92675" x2="275.59765" y2="103.05875" gradientUnits="userSpaceOnUse" id="color-18"><stop offset="0" stop-color="#6bc399"/><stop offset="1" stop-color="#55b6e6"/></linearGradient><linearGradient x1="275.26477" y1="94.85961" x2="276.84035" y2="100.39846" gradientUnits="userSpaceOnUse" id="color-19"><stop offset="0" stop-color="#6bc399"/><stop offset="1" stop-color="#55b6e6"/></linearGradient><linearGradient x1="268.64822" y1="97.36535" x2="270.22379" y2="102.90421" gradientUnits="userSpaceOnUse" id="color-20"><stop offset="0" stop-color="#6bc399"/><stop offset="1" stop-color="#55b6e6"/></linearGradient><linearGradient x1="270.03043" y1="85.78987" x2="271.28162" y2="90.18843" gradientUnits="userSpaceOnUse" id="color-21"><stop offset="0" stop-color="#6bc399"/><stop offset="1" stop-color="#55b6e6"/></linearGradient><linearGradient x1="264.62843" y1="89.3588" x2="263.1159" y2="93.67448" gradientUnits="userSpaceOnUse" id="color-22"><stop offset="0" stop-color="#6bc399"/><stop offset="1" stop-color="#55b6e6"/></linearGradient><linearGradient x1="248.75051" y1="75.57717" x2="249.67092" y2="80.05666" gradientUnits="userSpaceOnUse" id="color-23"><stop offset="0" stop-color="#6bc399"/><stop offset="1" stop-color="#55b6e6"/></linearGradient><linearGradient x1="265.5002" y1="73.7303" x2="264.08164" y2="77.53968" gradientUnits="userSpaceOnUse" id="color-24"><stop offset="0" stop-color="#6bc399"/><stop offset="1" stop-color="#55b6e6"/></linearGradient><linearGradient x1="243.5458" y1="80.22282" x2="243.81171" y2="85.29677" gradientUnits="userSpaceOnUse" id="color-25"><stop offset="0" stop-color="#6bc399"/><stop offset="1" stop-color="#55b6e6"/></linearGradient><linearGradient x1="239.96983" y1="72.53821" x2="233.89315" y2="88.08635" gradientUnits="userSpaceOnUse" id="color-26"><stop offset="0" stop-color="#86f5bf"/><stop offset="1" stop-color="#5bc8f5"/></linearGradient><linearGradient x1="224.25284" y1="87.95048" x2="228.2296" y2="87.10841" gradientUnits="userSpaceOnUse" id="color-27"><stop offset="0" stop-color="#6bc399"/><stop offset="1" stop-color="#55b6e6"/></linearGradient><linearGradient x1="241.51453" y1="88.9792" x2="238.00232" y2="91.0257" gradientUnits="userSpaceOnUse" id="color-28"><stop offset="0" stop-color="#6bc399"/><stop offset="1" stop-color="#55b6e6"/></linearGradient></defs><g transform="translate(-140.00445,-26.78049)"><g data-paper-data="{&quot;isPaintingLayer&quot;:true}" fill-rule="nonzero" stroke-linejoin="miter" stroke-miterlimit="10" stroke-dasharray="" stroke-dashoffset="0" style="mix-blend-mode: normal"><g data-paper-data="{&quot;index&quot;:null}"><g><g><path d="M222.08732,143.52006v-67.56469h23.25596v67.5647z" fill="#b06041" stroke="none" stroke-width="0" stroke-linecap="butt"/><path d="M240.81448,143.52006v-67.56469h4.4064v67.5647z" fill="#ab5c37" stroke="none" stroke-width="0" stroke-linecap="butt"/><path d="M222.20971,143.52006v-67.56469h4.40639v67.5647z" fill="#ab5c37" stroke="none" stroke-width="0" stroke-linecap="butt"/><path d="M228.33118,110.55371v-15.01437" fill="none" stroke="#ad6c4e" stroke-width="6" stroke-linecap="round"/><path d="M239.10237,114.96011v15.01438" fill="none" stroke="#ad6c4e" stroke-width="6" stroke-linecap="round"/><path d="M234.69597,78.07696v-2.12159v14.52478" fill="none" stroke="#ad6c4e" stroke-width="6" stroke-linecap="round"/></g><g fill="#ab5c37" stroke="none" stroke-linecap="butt"><path d="M203.60543,108.7585v-6.2016h20.72637v6.2016z" stroke-width="NaN"/><path d="M203.44223,108.7585c-1.71252,0 -3.10078,-1.38827 -3.10078,-3.1008c0,-1.71252 1.38826,-3.1008 3.10078,-3.1008c1.71252,0 3.1008,1.38827 3.1008,3.1008c0,1.71252 -1.38827,3.1008 -3.1008,3.1008z" stroke-width="0"/></g><g fill="#ab5c37" stroke="none" stroke-linecap="butt"><path d="M206.62463,105.41292h-6.2016v-20.72637h6.2016z" stroke-width="NaN"/><path d="M206.62465,105.5761c0,1.71252 -1.38829,3.1008 -3.10081,3.1008c-1.71252,0 -3.1008,-1.38827 -3.1008,-3.1008c0,-1.71252 1.38827,-3.1008 3.1008,-3.1008c1.71252,0 3.10081,1.38827 3.10081,3.1008z" stroke-width="0"/></g><path d="M222.31214,81.17776v-5.05918h23.01117v5.05918z" fill="#86482b" stroke="none" stroke-width="NaN" stroke-linecap="butt"/><path d="M200.44337,94.56012v-5.05918h6.03839v5.05918z" fill="#86482b" stroke="none" stroke-width="NaN" stroke-linecap="butt"/></g><g stroke="none" stroke-width="0" stroke-linecap="butt"><path d="M270.09666,69.73216c0,4.62665 -3.99282,7.77258 -7.875,7.77258c-8.33189,0 -40.33633,0 -55.44816,0c-4.87282,0 -7.98924,-3.09133 -7.98924,-7.65017c0,-10.63614 0,-29.26038 0,-35.25115c0,-3.65466 3.11684,-7.82293 7.98924,-7.82293c15.07845,0 46.97011,0 55.33288,0c3.9306,0 7.99028,4.09304 7.99028,7.70054c0,5.952 0,24.55704 0,35.25115z" fill="url(#color-1)"/><path d="M206.09289,77.22843c-2.201,2.0998 -5.6875,2.01778 -7.78732,-0.18324c-2.0998,-2.201 -2.01778,-5.68751 0.18324,-7.78732c2.201,-2.0998 5.68751,-2.01778 7.78732,0.18324c2.09982,2.201 2.01777,5.68751 -0.18324,7.78732z" fill="url(#color-2)"/><path d="M202.87582,70.53531c-1.61408,1.53987 -4.17084,1.4797 -5.71071,-0.13438c-1.53985,-1.61408 -1.4797,-4.17082 0.13438,-5.71069c1.61408,-1.53987 4.17084,-1.4797 5.71071,0.13436c1.53985,1.61408 1.47971,4.17084 -0.13438,5.71071z" fill="url(#color-3)"/><path d="M268.63969,79.1796c-2.4674,0.41007 -4.80011,-1.25771 -5.2102,-3.72511c-0.41009,-2.46742 1.25772,-4.80012 3.72513,-5.21019c2.4674,-0.41007 4.8001,1.25771 5.21019,3.72512c0.41009,2.46742 -1.25771,4.80011 -3.72513,5.21018z" fill="url(#color-4)"/><path d="M271.51635,73.25206c-1.83011,1.39043 -4.44086,1.034 -5.83129,-0.79611c-1.39043,-1.83011 -1.034,-4.44086 0.7961,-5.83129c1.83011,-1.39043 4.44086,-1.03398 5.83129,0.79613c1.39043,1.83011 1.034,4.44085 -0.7961,5.83128z" fill="url(#color-5)"/><path d="M264.72364,74.27517c1.39043,1.83011 1.03401,4.44085 -0.7961,5.83128c-1.83011,1.39043 -4.44086,1.034 -5.83129,-0.79611c-1.39043,-1.83011 -1.034,-4.44086 0.7961,-5.83129c1.83011,-1.39043 4.44085,-1.034 5.83128,0.79611z" fill="url(#color-6)"/><path d="M257.90126,61.43147c-1.45335,1.10419 -3.52661,0.82114 -4.63078,-0.63221c-1.10417,-1.45335 -0.82114,-3.52661 0.63221,-4.63078c1.45335,-1.10419 3.52661,-0.82114 4.63079,0.63221c1.10417,1.45335 0.82112,3.52661 -0.63221,4.63078z" fill="url(#color-7)"/><path d="M245.98243,71.40513c-1.82406,0.06475 -3.35525,-1.36146 -3.42,-3.18552c-0.06475,-1.82406 1.36146,-3.35525 3.18552,-3.42c1.82406,-0.06475 3.35523,1.36146 3.42,3.18552c0.06475,1.82406 -1.36146,3.35523 -3.18552,3.42z" fill="url(#color-8)"/><path d="M223.18313,59.36976c-1.53149,0.99296 -3.57795,0.55639 -4.5709,-0.97508c-0.99296,-1.53147 -0.5564,-3.57794 0.97508,-4.57088c1.53149,-0.99296 3.57795,-0.5564 4.5709,0.97508c0.99296,1.53149 0.5564,3.57794 -0.97508,4.5709z" fill="url(#color-9)"/><path d="M238.69088,48.64044c-1.62221,0.02613 -2.95843,-1.26775 -2.98454,-2.88996c-0.02613,-1.62221 1.26777,-2.95843 2.88997,-2.98454c1.62221,-0.02613 2.95843,1.26777 2.98454,2.88997c0.02613,1.62221 -1.26777,2.95843 -2.88997,2.98454z" fill="url(#color-10)"/><path d="M217.63578,70.34608c-1.84756,0.83602 -4.02303,0.01602 -4.85906,-1.83154c-0.83602,-1.84756 -0.01602,-4.02304 1.83154,-4.85906c1.84756,-0.83602 4.02304,-0.01602 4.85906,1.83154c0.83602,1.84756 0.01602,4.02304 -1.83154,4.85906z" fill="url(#color-11)"/></g><path d="M220.49152,86.80149c0,2.20074 -1.89926,3.69717 -3.74589,3.69717c-3.96321,0 -19.1867,0 -26.3749,0c-2.31785,0 -3.80023,-1.47043 -3.80023,-3.63893c0,-5.05928 0,-13.91822 0,-16.76784c0,-1.73841 1.48258,-3.72113 3.80023,-3.72113c7.17234,0 22.34217,0 26.32008,0c1.86966,0 3.80072,1.94694 3.80072,3.6629c0,2.83118 0,11.68101 0,16.76785z" fill="url(#color-12)" stroke="none" stroke-width="0" stroke-linecap="butt"/><path d="M198.99329,73.711c0.8908,1.35598 0.51371,3.17736 -0.84227,4.06818c-1.356,0.89081 -3.17736,0.5137 -4.06818,-0.84229c-0.8908,-1.35598 -0.5137,-3.17736 0.84229,-4.06818c1.356,-0.89081 3.17736,-0.5137 4.06816,0.84229z" fill="url(#color-13)" stroke="none" stroke-width="0" stroke-linecap="butt"/><path d="M207.93156,79.58378c-1.27105,-1.00829 -1.48403,-2.85607 -0.47574,-4.12712c1.00829,-1.27104 2.85608,-1.48403 4.12712,-0.47574c1.27104,1.00829 1.48403,2.85607 0.47574,4.12712c-1.00829,1.27104 -2.85609,1.48403 -4.12712,0.47574z" fill="url(#color-14)" stroke="none" stroke-width="0" stroke-linecap="butt"/></g><g data-paper-data="{&quot;index&quot;:null}"><g><g><path d="M228.44623,137.29254l17.01636,-43.53906l14.98627,5.85708l-17.01636,43.53907z" fill="#b06041" stroke="none" stroke-width="0" stroke-linecap="butt"/><path d="M240.51411,142.00903l17.01636,-43.53906l2.83951,1.10976l-17.01636,43.53907z" fill="#ab5c37" stroke="none" stroke-width="0" stroke-linecap="butt"/><path d="M228.5251,137.32336l17.01636,-43.53906l2.8395,1.10976l-17.01636,43.53907z" fill="#ab5c37" stroke="none" stroke-width="0" stroke-linecap="butt"/><path d="M240.77247,117.62137l3.78141,-9.67534" fill="none" stroke="#ad6c4e" stroke-width="6" stroke-linecap="round"/><path d="M246.60373,123.17363l-3.78141,9.67535" fill="none" stroke="#ad6c4e" stroke-width="6" stroke-linecap="round"/><path d="M253.05334,98.29616l0.53433,-1.36716l-3.65811,9.35985" fill="none" stroke="#ad6c4e" stroke-width="6" stroke-linecap="round"/></g><g fill="#ab5c37" stroke="none" stroke-linecap="butt"><path d="M225.29119,110.23728l1.56189,-3.99635l13.35619,5.22l-1.56189,3.99635z" stroke-width="NaN"/><path d="M225.18602,110.19617c-1.10356,-0.4313 -1.64852,-1.67555 -1.21721,-2.77911c0.4313,-1.10356 1.67555,-1.64854 2.77911,-1.21723c1.10356,0.4313 1.64853,1.67555 1.21723,2.77912c-0.4313,1.10356 -1.67555,1.64853 -2.77912,1.21723z" stroke-width="0"/></g><g fill="#ab5c37" stroke="none" stroke-linecap="butt"><path d="M228.07937,108.84176l-3.99635,-1.56189l5.22,-13.35619l3.99635,1.56189z" stroke-width="NaN"/><path d="M228.03829,108.94692c-0.4313,1.10356 -1.67557,1.64853 -2.77912,1.21723c-1.10356,-0.4313 -1.64853,-1.67555 -1.21723,-2.77912c0.4313,-1.10356 1.67555,-1.64853 2.77912,-1.21723c1.10356,0.4313 1.64854,1.67556 1.21723,2.77912z" stroke-width="0"/></g><path d="M244.29219,97.17543l1.27417,-3.26016l14.82853,5.79543l-1.27417,3.26016z" fill="#86482b" stroke="none" stroke-width="NaN" stroke-linecap="butt"/><path d="M226.82944,100.29139l1.27417,-3.26016l3.89117,1.52079l-1.27417,3.26016z" fill="#86482b" stroke="none" stroke-width="NaN" stroke-linecap="butt"/></g><g stroke="none" stroke-width="0" stroke-linecap="butt"><path d="M277.96741,101.83449c-1.16523,2.98144 -4.53054,4.00309 -7.03224,3.02535c-5.36912,-2.09841 -25.99296,-10.15882 -35.7311,-13.96478c-3.14007,-1.22723 -4.36975,-4.00418 -3.22159,-6.94193c2.67874,-6.85399 7.36931,-18.85555 8.8781,-22.71604c0.92044,-2.35508 3.97874,-4.25615 7.11854,-3.02903c9.71664,3.79755 30.2678,11.82956 35.65682,13.93574c2.5329,0.98993 4.11814,4.64995 3.20958,6.97465c-1.49903,3.8355 -6.18476,15.82469 -8.8781,22.71604z" fill="url(#color-15)"/><path d="M234.83506,90.5456c-1.94718,0.79879 -4.17324,-0.13214 -4.97204,-2.07934c-0.79879,-1.94718 0.13215,-4.17325 2.07934,-4.97204c1.94718,-0.79879 4.17325,0.13215 4.97204,2.07934c0.79881,1.94718 -0.13215,4.17324 -2.07934,4.97204z" fill="url(#color-16)"/><path d="M234.44765,85.42228c-1.42794,0.58579 -3.06038,-0.09691 -3.64617,-1.52485c-0.58578,-1.42794 0.09691,-3.06037 1.52485,-3.64616c1.42794,-0.58579 3.06038,0.09691 3.64617,1.52484c0.58578,1.42794 -0.0969,3.06038 -1.52485,3.64617z" fill="url(#color-17)"/><path d="M274.64916,107.55553c-1.69328,-0.35717 -2.77646,-2.0194 -2.4193,-3.71269c0.35716,-1.6933 2.01941,-2.77646 3.7127,-2.41929c1.69328,0.35717 2.77645,2.01939 2.41929,3.71269c-0.35716,1.6933 -2.0194,2.77646 -3.71269,2.41928z" fill="url(#color-18)"/><path d="M277.99577,104.46029c-1.52952,0.43508 -3.12213,-0.45213 -3.55721,-1.98164c-0.43508,-1.52952 0.45213,-3.12213 1.98164,-3.55722c1.52952,-0.43508 3.12213,0.45214 3.55721,1.98166c0.43508,1.52952 -0.45213,3.12212 -1.98164,3.55721z" fill="url(#color-19)"/><path d="M273.36084,103.40882c0.43508,1.52952 -0.45212,3.12213 -1.98164,3.55721c-1.52952,0.43508 -3.12213,-0.45213 -3.55721,-1.98164c-0.43508,-1.52952 0.45213,-3.12213 1.98164,-3.55722c1.52952,-0.43508 3.12212,0.45213 3.55721,1.98164z" fill="url(#color-20)"/><path d="M272.19918,93.41403c-1.21464,0.34552 -2.47937,-0.35904 -2.82488,-1.57367c-0.3455,-1.21464 0.35904,-2.47937 1.57367,-2.82488c1.21464,-0.34552 2.47937,0.35904 2.82488,1.57368c0.3455,1.21464 -0.35905,2.47937 -1.57367,2.82488z" fill="url(#color-21)"/><path d="M262.00672,96.83932c-1.19174,-0.41767 -1.81925,-1.72236 -1.40158,-2.9141c0.41767,-1.19174 1.72236,-1.81925 2.9141,-1.40158c1.19174,0.41767 1.81924,1.72236 1.40158,2.9141c-0.41767,1.19174 -1.72236,1.81924 -2.9141,1.40158z" fill="url(#color-22)"/><path d="M250.34587,83.34159c-1.23698,0.25416 -2.44578,-0.54258 -2.69994,-1.77954c-0.25416,-1.23697 0.54257,-2.44578 1.77954,-2.69992c1.23698,-0.25416 2.44578,0.54257 2.69994,1.77954c0.25416,1.23698 -0.54257,2.44578 -1.77954,2.69994z" fill="url(#color-23)"/><path d="M263.04136,80.33323c-1.05194,-0.39172 -1.58714,-1.56203 -1.19541,-2.61397c0.39172,-1.05194 1.56205,-1.58714 2.61398,-1.19541c1.05194,0.39172 1.58714,1.56205 1.19541,2.61398c-0.39172,1.05194 -1.56205,1.58714 -2.61398,1.19541z" fill="url(#color-24)"/><path d="M244.0067,89.01768c-1.40113,0.07342 -2.5965,-1.00289 -2.66993,-2.40402c-0.07342,-1.40113 1.00289,-2.5965 2.40402,-2.66993c1.40113,-0.07342 2.5965,1.00289 2.66993,2.40402c0.07342,1.40113 -1.00289,2.5965 -2.40402,2.66993z" fill="url(#color-25)"/></g><path d="M241.70262,100.34087c-0.55426,1.41817 -2.15504,1.90414 -3.34502,1.43906c-2.55391,-0.99815 -12.36402,-4.83223 -16.99613,-6.64259c-1.49364,-0.58376 -2.07856,-1.90465 -1.53241,-3.30205c1.27419,-3.26023 3.50534,-8.96898 4.22303,-10.80529c0.43782,-1.12024 1.89256,-2.02453 3.38607,-1.44082c4.6219,1.80637 14.39742,5.62694 16.96081,6.62879c1.20482,0.47088 1.95886,2.21184 1.52669,3.31762c-0.71304,1.82443 -2.9419,7.52731 -4.22303,10.8053z" fill="url(#color-26)" stroke="none" stroke-width="0" stroke-linecap="butt"/><path d="M231.14592,86.49089c0.23253,1.09815 -0.46919,2.17689 -1.56735,2.40943c-1.09817,0.23253 -2.17689,-0.4692 -2.40942,-1.56736c-0.23253,-1.09815 0.4692,-2.17689 1.56736,-2.40942c1.09817,-0.23253 2.17689,0.4692 2.40941,1.56735z" fill="url(#color-27)" stroke="none" stroke-width="0" stroke-linecap="butt"/><path d="M235.42671,92.52647c-0.56513,-0.96987 -0.23701,-2.21422 0.73286,-2.77936c0.96986,-0.56512 2.21423,-0.23701 2.77936,0.73286c0.56512,0.96986 0.23701,2.21422 -0.73286,2.77936c-0.96986,0.56512 -2.21424,0.237 -2.77936,-0.73286z" fill="url(#color-28)" stroke="none" stroke-width="0" stroke-linecap="butt"/></g><path d="M146.12221,227.49881v-85.98862h187.75558v85.98862z" fill="#ffffff" stroke="none" stroke-width="0" stroke-linecap="butt"/><path d="M145.30578,228.27582v-65.78647h189.72368v65.78647z" fill="#4eaad2" stroke="none" stroke-width="0" stroke-linecap="butt"/><path d="M335.00759,140.73319v30.56222h-181.82946v-30.56222z" fill="#5ecfff" stroke="none" stroke-width="0" stroke-linecap="butt"/><path d="M334.34953,140.73352h0.66265h-190.04165h1.03393" fill="none" stroke="#ffffff" stroke-width="12" stroke-linecap="round"/><path d="M287.0282,152.34166c0,5.36482 0,10.86234 0,13.83148c0,2.22467 -2.14383,4.93447 -5.15877,4.93447c-5.75992,0 -25.6897,0 -28.93397,0c-2.33553,0 -5.90642,-2.19937 -6.05595,-5.5326c-0.10271,-2.28967 -0.06031,-8.55356 0,-12.63524c0.03909,-2.64539 3.27178,-5.83165 6.50454,-5.83165c6.02066,0 26.00828,0 28.18632,0c2.44324,0 5.45784,2.20155 5.45784,5.23353z" fill="#79d7ff" stroke="none" stroke-width="0" stroke-linecap="butt"/><path d="M224.28441,180.95666c0,5.36482 0,10.86234 0,13.83149c0,2.22467 -2.14383,4.93447 -5.15877,4.93447c-5.75992,0 -25.68969,0 -28.93396,0c-2.33553,0 -5.90641,-2.19937 -6.05594,-5.5326c-0.10271,-2.28967 -0.06031,-8.55355 0,-12.63524c0.03909,-2.64539 3.27177,-5.83165 6.50453,-5.83165c6.02067,0 26.00828,0 28.18632,0c2.44324,0 5.45782,2.20155 5.45782,5.23353z" fill="#4597ba" stroke="none" stroke-width="0" stroke-linecap="butt"/><path d="M313.98617,204.54683c0,5.36482 0,10.86234 0,13.83149c0,2.22467 -2.14383,4.93447 -5.15877,4.93447c-5.75992,0 -25.68971,0 -28.93397,0c-2.33553,0 -5.90641,-2.19937 -6.05594,-5.5326c-0.10271,-2.28967 -0.06031,-8.55355 0,-12.63524c0.03909,-2.64539 3.27177,-5.83166 6.50454,-5.83166c6.02066,0 26.00827,0 28.18631,0c2.44324,0 5.45783,2.20155 5.45783,5.23354z" fill="#479cc0" stroke="none" stroke-width="0" stroke-linecap="butt"/><path d="M173.34446,152.1697c0,5.35671 0,10.84591 0,13.81057c0,2.2213 -2.47557,4.92701 -5.95704,4.92701c-3.90965,0 -21.97121,0 -21.97121,0l-0.22448,-23.9632c0,0 20.15689,0 21.85036,0c2.82132,0 6.30238,2.19822 6.30238,5.22561z" fill="#9ce1ff" stroke="none" stroke-width="0" stroke-linecap="butt"/></g></g></svg>