<svg version="1.1" xmlns="http://www.w3.org/2000/svg" xmlns:xlink="http://www.w3.org/1999/xlink" width="200.34507" height="201.49533" viewBox="0,0,200.34507,201.49533"><defs><linearGradient x1="301.36504" y1="50.99954" x2="301.36504" y2="82.17096" gradientUnits="userSpaceOnUse" id="color-1"><stop offset="0" stop-color="#86f5bf"/><stop offset="1" stop-color="#5bc8f5"/></linearGradient><linearGradient x1="326.88509" y1="94.29203" x2="322.21218" y2="99.19014" gradientUnits="userSpaceOnUse" id="color-2"><stop offset="0" stop-color="#6bc399"/><stop offset="1" stop-color="#55b6e6"/></linearGradient><linearGradient x1="326.70215" y1="92.44293" x2="323.27534" y2="96.03488" gradientUnits="userSpaceOnUse" id="color-3"><stop offset="0" stop-color="#6bc399"/><stop offset="1" stop-color="#55b6e6"/></linearGradient><linearGradient x1="281.93057" y1="94.46342" x2="281.01795" y2="99.95442" gradientUnits="userSpaceOnUse" id="color-4"><stop offset="0" stop-color="#6bc399"/><stop offset="1" stop-color="#55b6e6"/></linearGradient><linearGradient x1="283.94429" y1="93.27915" x2="280.85003" y2="97.35185" gradientUnits="userSpaceOnUse" id="color-5"><stop offset="0" stop-color="#6bc399"/><stop offset="1" stop-color="#55b6e6"/></linearGradient><linearGradient x1="288.6078" y1="97.49135" x2="285.51355" y2="101.56406" gradientUnits="userSpaceOnUse" id="color-6"><stop offset="0" stop-color="#6bc399"/><stop offset="1" stop-color="#55b6e6"/></linearGradient><linearGradient x1="291.20695" y1="87.4684" x2="288.74973" y2="90.70266" gradientUnits="userSpaceOnUse" id="color-7"><stop offset="0" stop-color="#6bc399"/><stop offset="1" stop-color="#55b6e6"/></linearGradient><linearGradient x1="294.52194" y1="92.16746" x2="294.37786" y2="96.22672" gradientUnits="userSpaceOnUse" id="color-8"><stop offset="0" stop-color="#6bc399"/><stop offset="1" stop-color="#55b6e6"/></linearGradient><linearGradient x1="312.11316" y1="85.90001" x2="309.90342" y2="89.30816" gradientUnits="userSpaceOnUse" id="color-9"><stop offset="0" stop-color="#6bc399"/><stop offset="1" stop-color="#55b6e6"/></linearGradient><linearGradient x1="298.85378" y1="78.95661" x2="298.79566" y2="82.56665" gradientUnits="userSpaceOnUse" id="color-10"><stop offset="0" stop-color="#6bc399"/><stop offset="1" stop-color="#55b6e6"/></linearGradient><linearGradient x1="314.91682" y1="91.426" x2="313.05632" y2="95.53755" gradientUnits="userSpaceOnUse" id="color-11"><stop offset="0" stop-color="#6bc399"/><stop offset="1" stop-color="#55b6e6"/></linearGradient><linearGradient x1="320.35971" y1="86.22495" x2="320.35971" y2="101.05218" gradientUnits="userSpaceOnUse" id="color-12"><stop offset="0" stop-color="#86f5bf"/><stop offset="1" stop-color="#5bc8f5"/></linearGradient><linearGradient x1="328.37878" y1="104.05669" x2="325.36119" y2="102.07431" gradientUnits="userSpaceOnUse" id="color-13"><stop offset="0" stop-color="#6bc399"/><stop offset="1" stop-color="#55b6e6"/></linearGradient><linearGradient x1="313.7661" y1="99.32665" x2="316.00997" y2="102.15523" gradientUnits="userSpaceOnUse" id="color-14"><stop offset="0" stop-color="#6bc399"/><stop offset="1" stop-color="#55b6e6"/></linearGradient><linearGradient x1="234.44046" y1="-7.0357" x2="234.44046" y2="43.68857" gradientUnits="userSpaceOnUse" id="color-15"><stop offset="0" stop-color="#86f5bf"/><stop offset="1" stop-color="#5bc8f5"/></linearGradient><linearGradient x1="192.91247" y1="63.41281" x2="200.51656" y2="71.38336" gradientUnits="userSpaceOnUse" id="color-16"><stop offset="0" stop-color="#6bc399"/><stop offset="1" stop-color="#55b6e6"/></linearGradient><linearGradient x1="193.21016" y1="60.40384" x2="198.7865" y2="66.24891" gradientUnits="userSpaceOnUse" id="color-17"><stop offset="0" stop-color="#6bc399"/><stop offset="1" stop-color="#55b6e6"/></linearGradient><linearGradient x1="266.06556" y1="63.69172" x2="267.55064" y2="72.62705" gradientUnits="userSpaceOnUse" id="color-18"><stop offset="0" stop-color="#6bc399"/><stop offset="1" stop-color="#55b6e6"/></linearGradient><linearGradient x1="262.78869" y1="61.76459" x2="267.82389" y2="68.39197" gradientUnits="userSpaceOnUse" id="color-19"><stop offset="0" stop-color="#6bc399"/><stop offset="1" stop-color="#55b6e6"/></linearGradient><linearGradient x1="255.19991" y1="68.61897" x2="260.23509" y2="75.24636" gradientUnits="userSpaceOnUse" id="color-20"><stop offset="0" stop-color="#6bc399"/><stop offset="1" stop-color="#55b6e6"/></linearGradient><linearGradient x1="250.9704" y1="52.30894" x2="254.96896" y2="57.57195" gradientUnits="userSpaceOnUse" id="color-21"><stop offset="0" stop-color="#6bc399"/><stop offset="1" stop-color="#55b6e6"/></linearGradient><linearGradient x1="245.57601" y1="59.95557" x2="245.81047" y2="66.56107" gradientUnits="userSpaceOnUse" id="color-22"><stop offset="0" stop-color="#6bc399"/><stop offset="1" stop-color="#55b6e6"/></linearGradient><linearGradient x1="216.95038" y1="49.75674" x2="220.54621" y2="55.30272" gradientUnits="userSpaceOnUse" id="color-23"><stop offset="0" stop-color="#6bc399"/><stop offset="1" stop-color="#55b6e6"/></linearGradient><linearGradient x1="238.52693" y1="38.45797" x2="238.62152" y2="44.33247" gradientUnits="userSpaceOnUse" id="color-24"><stop offset="0" stop-color="#6bc399"/><stop offset="1" stop-color="#55b6e6"/></linearGradient><linearGradient x1="212.38807" y1="58.74902" x2="215.4156" y2="65.43962" gradientUnits="userSpaceOnUse" id="color-25"><stop offset="0" stop-color="#6bc399"/><stop offset="1" stop-color="#55b6e6"/></linearGradient><linearGradient x1="203.53102" y1="50.28551" x2="203.53102" y2="74.41339" gradientUnits="userSpaceOnUse" id="color-26"><stop offset="0" stop-color="#86f5bf"/><stop offset="1" stop-color="#5bc8f5"/></linearGradient><linearGradient x1="190.48184" y1="79.30254" x2="195.39227" y2="76.07667" gradientUnits="userSpaceOnUse" id="color-27"><stop offset="0" stop-color="#6bc399"/><stop offset="1" stop-color="#55b6e6"/></linearGradient><linearGradient x1="214.2606" y1="71.60549" x2="210.60922" y2="76.20835" gradientUnits="userSpaceOnUse" id="color-28"><stop offset="0" stop-color="#6bc399"/><stop offset="1" stop-color="#55b6e6"/></linearGradient></defs><g transform="translate(-140.00446,-26.78049)"><g data-paper-data="{&quot;isPaintingLayer&quot;:true}" fill-rule="nonzero" stroke-linejoin="miter" stroke-miterlimit="10" stroke-dasharray="" stroke-dashoffset="0" style="mix-blend-mode: normal"><g data-paper-data="{&quot;index&quot;:null}"><g><g><path d="M294.66496,143.52007v-41.52031h14.29141v41.5203z" fill="#b06041" stroke="none" stroke-width="0" stroke-linecap="butt"/><path d="M294.74018,143.52007v-41.52031h2.70785v41.5203z" fill="#ab5c37" stroke="none" stroke-width="0" stroke-linecap="butt"/><path d="M306.17331,143.52007v-41.52031h2.70784v41.5203z" fill="#ab5c37" stroke="none" stroke-width="0" stroke-linecap="butt"/><path d="M305.11935,114.03463v9.22673" fill="none" stroke="#ad6c4e" stroke-width="6" stroke-linecap="round"/><path d="M298.50017,125.96921v9.22674" fill="none" stroke="#ad6c4e" stroke-width="6" stroke-linecap="round"/><path d="M301.20802,103.30354v-1.30377v8.92586" fill="none" stroke="#ad6c4e" stroke-width="6" stroke-linecap="round"/></g><g fill="#ab5c37" stroke="none" stroke-linecap="butt"><path d="M307.57708,122.15816v-3.81105h12.73691v3.81105z" stroke-width="NaN"/><path d="M318.50875,120.25264c0,-1.0524 0.85314,-1.90552 1.90552,-1.90552c1.05239,0 1.90551,0.85314 1.90551,1.90552c0,1.0524 -0.85312,1.90552 -1.90551,1.90552c-1.0524,0 -1.90552,-0.85314 -1.90552,-1.90552z" stroke-width="0"/></g><g fill="#ab5c37" stroke="none" stroke-linecap="butt"><path d="M318.4586,107.36531h3.81105v12.73691h-3.81105z" stroke-width="NaN"/><path d="M320.36412,118.29697c1.0524,0 1.90552,0.85314 1.90552,1.90552c0,1.0524 -0.85314,1.90552 -1.90552,1.90552c-1.05239,0 -1.90553,-0.85314 -1.90553,-1.90552c0,-1.0524 0.85314,-1.90552 1.90553,-1.90552z" stroke-width="0"/></g><path d="M294.67723,105.20906v-3.109h14.14098v3.109z" fill="#86482b" stroke="none" stroke-width="NaN" stroke-linecap="butt"/><path d="M318.5464,113.43288v-3.109h3.71075v3.109z" fill="#86482b" stroke="none" stroke-width="NaN" stroke-linecap="butt"/></g><g stroke="none" stroke-width="0" stroke-linecap="butt"><path d="M279.45334,98.17545c0,-6.57182 0,-18.00511 0,-21.66277c0,-2.2169 2.49478,-4.73219 4.91024,-4.73219c5.13914,0 24.73742,0 34.00353,0c2.99422,0 4.9096,2.56151 4.9096,4.8074c0,3.68149 0,15.12658 0,21.66277c0,2.80153 -1.91512,4.70123 -4.9096,4.70123c-9.28662,0 -28.9542,0 -34.07437,0c-2.3857,0 -4.8394,-1.93326 -4.8394,-4.77646z" fill="url(#color-1)"/><path d="M318.67277,97.99658c1.29039,-1.35259 3.43294,-1.40299 4.78552,-0.11261c1.35259,1.29039 1.40299,3.43294 0.11261,4.78552c-1.2904,1.35259 -3.43294,1.40299 -4.78552,0.11261c-1.35258,-1.29039 -1.403,-3.43294 -0.11261,-4.78552z" fill="url(#color-2)"/><path d="M320.67977,95.15961c0.94629,-0.99188 2.51749,-1.02886 3.50938,-0.08257c0.9919,0.94629 1.02886,2.51748 0.08258,3.50937c-0.94629,0.9919 -2.51749,1.02887 -3.50938,0.08258c-0.9919,-0.94629 -1.02886,-2.51749 -0.08258,-3.50938z" fill="url(#color-3)"/><path d="M280.3487,103.98114c-1.5163,-0.252 -2.5412,-1.6855 -2.28919,-3.20179c0.25201,-1.51629 1.68552,-2.54118 3.2018,-2.28919c1.51629,0.252 2.5412,1.68551 2.28919,3.2018c-0.25201,1.51628 -1.68552,2.54118 -3.20181,2.28918z" fill="url(#color-4)"/><path d="M278.58091,100.33851c-1.12465,-0.85446 -1.34368,-2.45883 -0.48922,-3.58348c0.85446,-1.12465 2.45883,-1.3437 3.58348,-0.48924c1.12465,0.85446 1.34368,2.45883 0.48922,3.58348c-0.85446,1.12465 -2.45883,1.34369 -3.58348,0.48923z" fill="url(#color-5)"/><path d="M282.75521,100.96723c0.85446,-1.12465 2.45883,-1.34369 3.58348,-0.48923c1.12465,0.85446 1.34368,2.45883 0.48922,3.58348c-0.85446,1.12465 -2.45883,1.34369 -3.58348,0.48923c-1.12465,-0.85446 -1.34368,-2.45883 -0.48922,-3.58348z" fill="url(#color-6)"/><path d="M286.94774,93.07444c-0.89311,-0.67854 -1.06705,-1.95262 -0.38851,-2.84574c0.67855,-0.89312 1.95262,-1.06706 2.84574,-0.38851c0.89312,0.67854 1.06705,1.95262 0.38851,2.84574c-0.67854,0.89312 -1.95262,1.06706 -2.84574,0.38851z" fill="url(#color-7)"/><path d="M292.3146,97.10184c0.0398,-1.12093 0.98075,-1.99738 2.10168,-1.95759c1.12093,0.03979 1.99738,0.98075 1.95759,2.10168c-0.03979,1.12093 -0.98075,1.99738 -2.10168,1.95759c-1.12093,-0.0398 -1.99738,-0.98075 -1.95759,-2.10168z" fill="url(#color-8)"/><path d="M308.28296,91.80748c-0.94114,-0.6102 -1.20941,-1.8678 -0.59921,-2.80894c0.61019,-0.94114 1.8678,-1.20941 2.80894,-0.59921c0.94114,0.61019 1.20941,1.8678 0.59921,2.80893c-0.61019,0.94113 -1.8678,1.20941 -2.80894,0.59921z" fill="url(#color-9)"/><path d="M298.75304,85.21402c-0.99689,-0.01605 -1.79202,-0.83719 -1.77596,-1.83408c0.01605,-0.99689 0.83719,-1.79202 1.83408,-1.77596c0.99689,0.01605 1.79202,0.83719 1.77596,1.83408c-0.01605,0.99689 -0.83719,1.79201 -1.83408,1.77596z" fill="url(#color-10)"/><path d="M310.56643,95.56668c0.51376,-1.13537 1.85065,-1.63929 2.98602,-1.12553c1.13537,0.51376 1.63929,1.85065 1.12553,2.98602c-0.51376,1.13537 -1.85065,1.63929 -2.98602,1.12553c-1.13537,-0.51376 -1.63929,-1.85065 -1.12553,-2.98602z" fill="url(#color-11)"/></g><path d="M309.93702,108.665c0,-3.126 0,-8.56445 0,-10.30429c0,-1.0545 1.18669,-2.25095 2.33564,-2.25095c2.44453,0 11.7668,0 16.17439,0c1.42426,0 2.33534,1.21843 2.33534,2.28673c0,1.75117 0,7.19522 0,10.30428c0,1.3326 -0.91096,2.23622 -2.33534,2.23622c-4.41734,0 -13.77258,0 -16.20808,0c-1.1348,0 -2.30195,-0.9196 -2.30195,-2.27201z" fill="url(#color-12)" stroke="none" stroke-width="0" stroke-linecap="butt"/><path d="M325.64826,100.10293c0.83329,0.54743 1.06503,1.66672 0.51761,2.5c-0.54743,0.83329 -1.66671,1.06504 -2.5,0.51761c-0.83329,-0.54743 -1.06502,-1.66672 -0.5176,-2.5c0.54742,-0.83329 1.66669,-1.06504 2.49999,-0.51761z" fill="url(#color-13)" stroke="none" stroke-width="0" stroke-linecap="butt"/><path d="M315.11924,103.93716c-0.61962,-0.78109 -0.48873,-1.9166 0.29235,-2.53623c0.78109,-0.61962 1.9166,-0.48873 2.53623,0.29235c0.61962,0.78109 0.48874,1.9166 -0.29235,2.53623c-0.78108,0.61962 -1.9166,0.48873 -2.53623,-0.29235z" fill="url(#color-14)" stroke="none" stroke-width="0" stroke-linecap="butt"/></g><g data-paper-data="{&quot;index&quot;:null}"><g><g><path d="M222.08732,143.52006v-67.56469h23.25596v67.5647z" fill="#b06041" stroke="none" stroke-width="0" stroke-linecap="butt"/><path d="M240.81448,143.52006v-67.56469h4.4064v67.5647z" fill="#ab5c37" stroke="none" stroke-width="0" stroke-linecap="butt"/><path d="M222.20971,143.52006v-67.56469h4.40639v67.5647z" fill="#ab5c37" stroke="none" stroke-width="0" stroke-linecap="butt"/><path d="M228.33117,110.55371v-15.01437" fill="none" stroke="#ad6c4e" stroke-width="6" stroke-linecap="round"/><path d="M239.10237,114.96011v15.01438" fill="none" stroke="#ad6c4e" stroke-width="6" stroke-linecap="round"/><path d="M234.69596,78.07696v-2.12159v14.52478" fill="none" stroke="#ad6c4e" stroke-width="6" stroke-linecap="round"/></g><g fill="#ab5c37" stroke="none" stroke-linecap="butt"><path d="M203.60543,108.7585v-6.2016h20.72637v6.2016z" stroke-width="NaN"/><path d="M203.44223,108.7585c-1.71252,0 -3.10078,-1.38827 -3.10078,-3.1008c0,-1.71252 1.38826,-3.1008 3.10078,-3.1008c1.71252,0 3.1008,1.38827 3.1008,3.1008c0,1.71252 -1.38827,3.1008 -3.1008,3.1008z" stroke-width="0"/></g><g fill="#ab5c37" stroke="none" stroke-linecap="butt"><path d="M206.62462,105.41292h-6.2016v-20.72637h6.2016z" stroke-width="NaN"/><path d="M206.62465,105.5761c0,1.71252 -1.38829,3.1008 -3.10081,3.1008c-1.71252,0 -3.1008,-1.38827 -3.1008,-3.1008c0,-1.71252 1.38827,-3.1008 3.1008,-3.1008c1.71252,0 3.10081,1.38827 3.10081,3.1008z" stroke-width="0"/></g><path d="M222.31214,81.17776v-5.05918h23.01117v5.05918z" fill="#86482b" stroke="none" stroke-width="NaN" stroke-linecap="butt"/><path d="M200.44336,94.56012v-5.05918h6.03839v5.05918z" fill="#86482b" stroke="none" stroke-width="NaN" stroke-linecap="butt"/></g><g stroke="none" stroke-width="0" stroke-linecap="butt"><path d="M270.09667,69.73216c0,4.62665 -3.99282,7.77258 -7.875,7.77258c-8.33189,0 -40.33633,0 -55.44816,0c-4.87282,0 -7.98924,-3.09133 -7.98924,-7.65017c0,-10.63614 0,-29.26038 0,-35.25115c0,-3.65466 3.11684,-7.82293 7.98924,-7.82293c15.07845,0 46.97011,0 55.33288,0c3.9306,0 7.99028,4.09304 7.99028,7.70054c0,5.952 0,24.55704 0,35.25115z" fill="url(#color-15)"/><path d="M206.09289,77.22843c-2.201,2.0998 -5.6875,2.01778 -7.78732,-0.18324c-2.0998,-2.201 -2.01778,-5.68751 0.18324,-7.78732c2.201,-2.0998 5.68751,-2.01778 7.78732,0.18324c2.09982,2.201 2.01777,5.68751 -0.18324,7.78732z" fill="url(#color-16)"/><path d="M202.87582,70.53531c-1.61408,1.53987 -4.17084,1.4797 -5.71071,-0.13438c-1.53985,-1.61408 -1.4797,-4.17082 0.13438,-5.71069c1.61408,-1.53987 4.17084,-1.4797 5.71071,0.13436c1.53985,1.61408 1.47971,4.17084 -0.13438,5.71071z" fill="url(#color-17)"/><path d="M268.63969,79.1796c-2.4674,0.41007 -4.80011,-1.25771 -5.2102,-3.72511c-0.41009,-2.46742 1.25772,-4.80012 3.72513,-5.21019c2.4674,-0.41007 4.8001,1.25771 5.21019,3.72512c0.41009,2.46742 -1.25771,4.80011 -3.72513,5.21018z" fill="url(#color-18)"/><path d="M271.51635,73.25206c-1.83011,1.39043 -4.44086,1.034 -5.83129,-0.79611c-1.39043,-1.83011 -1.034,-4.44086 0.7961,-5.83129c1.83011,-1.39043 4.44086,-1.03398 5.83129,0.79613c1.39043,1.83011 1.034,4.44085 -0.7961,5.83128z" fill="url(#color-19)"/><path d="M264.72365,74.27517c1.39043,1.83011 1.03401,4.44085 -0.7961,5.83128c-1.83011,1.39043 -4.44086,1.034 -5.83129,-0.79611c-1.39043,-1.83011 -1.034,-4.44086 0.7961,-5.83129c1.83011,-1.39043 4.44085,-1.034 5.83128,0.79611z" fill="url(#color-20)"/><path d="M257.90126,61.43147c-1.45335,1.10419 -3.52661,0.82114 -4.63078,-0.63221c-1.10417,-1.45335 -0.82114,-3.52661 0.63221,-4.63078c1.45335,-1.10419 3.52661,-0.82114 4.63079,0.63221c1.10417,1.45335 0.82112,3.52661 -0.63221,4.63078z" fill="url(#color-21)"/><path d="M245.98243,71.40513c-1.82406,0.06475 -3.35525,-1.36146 -3.42,-3.18552c-0.06475,-1.82406 1.36146,-3.35525 3.18552,-3.42c1.82406,-0.06475 3.35523,1.36146 3.42,3.18552c0.06475,1.82406 -1.36146,3.35523 -3.18552,3.42z" fill="url(#color-22)"/><path d="M223.18313,59.36976c-1.53149,0.99296 -3.57795,0.55639 -4.5709,-0.97508c-0.99296,-1.53147 -0.5564,-3.57794 0.97508,-4.57088c1.53149,-0.99296 3.57795,-0.5564 4.5709,0.97508c0.99296,1.53149 0.5564,3.57794 -0.97508,4.5709z" fill="url(#color-23)"/><path d="M238.69088,48.64044c-1.62221,0.02613 -2.95843,-1.26775 -2.98454,-2.88996c-0.02613,-1.62221 1.26777,-2.95843 2.88997,-2.98454c1.62221,-0.02613 2.95843,1.26777 2.98454,2.88997c0.02613,1.62221 -1.26777,2.95843 -2.88997,2.98454z" fill="url(#color-24)"/><path d="M217.63578,70.34608c-1.84756,0.83602 -4.02303,0.01602 -4.85906,-1.83154c-0.83602,-1.84756 -0.01602,-4.02304 1.83154,-4.85906c1.84756,-0.83602 4.02304,-0.01602 4.85906,1.83154c0.83602,1.84756 0.01602,4.02304 -1.83154,4.85906z" fill="url(#color-25)"/></g><path d="M220.49152,86.80149c0,2.20074 -1.89926,3.69717 -3.74589,3.69717c-3.96321,0 -19.1867,0 -26.3749,0c-2.31785,0 -3.80023,-1.47043 -3.80023,-3.63893c0,-5.05928 0,-13.91822 0,-16.76784c0,-1.73841 1.48258,-3.72113 3.80023,-3.72113c7.17234,0 22.34217,0 26.32008,0c1.86966,0 3.80072,1.94694 3.80072,3.6629c0,2.83118 0,11.68101 0,16.76785z" fill="url(#color-26)" stroke="none" stroke-width="0" stroke-linecap="butt"/><path d="M198.99329,73.711c0.8908,1.35598 0.51371,3.17736 -0.84227,4.06818c-1.356,0.89081 -3.17736,0.5137 -4.06818,-0.84229c-0.8908,-1.35598 -0.5137,-3.17736 0.84229,-4.06818c1.356,-0.89081 3.17736,-0.5137 4.06816,0.84229z" fill="url(#color-27)" stroke="none" stroke-width="0" stroke-linecap="butt"/><path d="M207.93156,79.58378c-1.27105,-1.00829 -1.48403,-2.85607 -0.47574,-4.12712c1.00829,-1.27104 2.85608,-1.48403 4.12712,-0.47574c1.27104,1.00829 1.48403,2.85607 0.47574,4.12712c-1.00829,1.27104 -2.85609,1.48403 -4.12712,0.47574z" fill="url(#color-28)" stroke="none" stroke-width="0" stroke-linecap="butt"/></g><g stroke="none" stroke-width="0" stroke-linecap="butt"><path d="M147.41702,133.27662c4.10024,-6.73111 16.15301,-26.5174 18.83281,-30.91667c1.02782,-1.68731 2.03049,-2.4937 2.03049,-1.5c0,4.32108 0,34.66667 0,34.66667c0,0 -17.11565,0 -20.30492,0c-0.983,0 -1.41875,-0.83759 -0.55839,-2.25z" fill="#e6e6e6"/><path d="M188.27689,135.69329c-3.18927,0 -20.30492,0 -20.30492,0c0,0 0,-30.3456 0,-34.66667c0,-0.99371 1.00267,-0.18731 2.03049,1.5c2.67981,4.39927 14.73257,24.18556 18.83281,30.91667c0.86037,1.41241 0.42461,2.25 -0.55839,2.25z" data-paper-data="{&quot;index&quot;:null}" fill="#d9d9d9"/><g><g><path d="M147.41703,133.27662c4.10024,-6.73111 16.15301,-26.5174 18.83281,-30.91667c1.02782,-1.68731 2.03049,-2.4937 2.03049,-1.5c0,4.32108 0,34.66667 0,34.66667c0,0 -17.11565,0 -20.30492,0c-0.983,0 -1.41875,-0.83759 -0.55839,-2.25z" fill="#cc0000"/><path d="M188.2769,135.69329c-3.18927,0 -20.30492,0 -20.30492,0c0,0 0,-30.3456 0,-34.66667c0,-0.99371 1.00267,-0.18731 2.03049,1.5c2.67981,4.39927 14.73257,24.18556 18.83281,30.91667c0.86037,1.41241 0.42461,2.25 -0.55839,2.25z" data-paper-data="{&quot;index&quot;:null}" fill="#a60000"/></g><path d="M153.88404,135.42557l-5.64199,-3.67253l2.15634,-3.44879l10.00118,7.24271z" fill="#ffffff"/></g></g><path d="M146.12221,227.49881v-85.98862h187.75558v85.98862z" fill="#ffffff" stroke="none" stroke-width="0" stroke-linecap="butt"/><path d="M145.30579,228.27582v-65.78647h189.72368v65.78647z" fill="#4eaad2" stroke="none" stroke-width="0" stroke-linecap="butt"/><path d="M335.0076,140.73319v30.56222h-181.82946v-30.56222z" fill="#5ecfff" stroke="none" stroke-width="0" stroke-linecap="butt"/><path d="M334.34953,140.73352h0.66265h-190.04165h1.03393" fill="none" stroke="#ffffff" stroke-width="12" stroke-linecap="round"/><path d="M287.0282,152.34166c0,5.36482 0,10.86234 0,13.83148c0,2.22467 -2.14383,4.93447 -5.15877,4.93447c-5.75992,0 -25.6897,0 -28.93397,0c-2.33553,0 -5.90642,-2.19937 -6.05595,-5.5326c-0.10271,-2.28967 -0.06031,-8.55356 0,-12.63524c0.03909,-2.64539 3.27178,-5.83165 6.50454,-5.83165c6.02066,0 26.00828,0 28.18632,0c2.44324,0 5.45784,2.20155 5.45784,5.23353z" fill="#79d7ff" stroke="none" stroke-width="0" stroke-linecap="butt"/><path d="M224.28441,180.95666c0,5.36482 0,10.86234 0,13.83149c0,2.22467 -2.14383,4.93447 -5.15877,4.93447c-5.75992,0 -25.68969,0 -28.93396,0c-2.33553,0 -5.90641,-2.19937 -6.05594,-5.5326c-0.10271,-2.28967 -0.06031,-8.55355 0,-12.63524c0.03909,-2.64539 3.27177,-5.83165 6.50453,-5.83165c6.02067,0 26.00828,0 28.18632,0c2.44324,0 5.45782,2.20155 5.45782,5.23353z" fill="#4597ba" stroke="none" stroke-width="0" stroke-linecap="butt"/><path d="M313.98617,204.54683c0,5.36482 0,10.86234 0,13.83149c0,2.22467 -2.14383,4.93447 -5.15877,4.93447c-5.75992,0 -25.68971,0 -28.93397,0c-2.33553,0 -5.90641,-2.19937 -6.05594,-5.5326c-0.10271,-2.28967 -0.06031,-8.55355 0,-12.63524c0.03909,-2.64539 3.27177,-5.83166 6.50454,-5.83166c6.02066,0 26.00827,0 28.18631,0c2.44324,0 5.45783,2.20155 5.45783,5.23354z" fill="#479cc0" stroke="none" stroke-width="0" stroke-linecap="butt"/><path d="M173.34446,152.1697c0,5.35671 0,10.84591 0,13.81057c0,2.2213 -2.47557,4.92701 -5.95704,4.92701c-3.90965,0 -21.97121,0 -21.97121,0l-0.22448,-23.9632c0,0 20.15689,0 21.85036,0c2.82132,0 6.30238,2.19822 6.30238,5.22561z" fill="#9ce1ff" stroke="none" stroke-width="0" stroke-linecap="butt"/></g></g></svg>