<svg version="1.1" xmlns="http://www.w3.org/2000/svg" xmlns:xlink="http://www.w3.org/1999/xlink" width="209.15611" height="200.49533" viewBox="0,0,209.15611,200.49533"><defs><linearGradient x1="310.44046" y1="-6.0357" x2="310.44046" y2="44.68857" gradientUnits="userSpaceOnUse" id="color-1"><stop offset="0" stop-color="#86f5bf"/><stop offset="1" stop-color="#5bc8f5"/></linearGradient><linearGradient x1="268.91247" y1="64.41281" x2="276.51656" y2="72.38336" gradientUnits="userSpaceOnUse" id="color-2"><stop offset="0" stop-color="#6bc399"/><stop offset="1" stop-color="#55b6e6"/></linearGradient><linearGradient x1="269.21016" y1="61.40384" x2="274.78651" y2="67.24891" gradientUnits="userSpaceOnUse" id="color-3"><stop offset="0" stop-color="#6bc399"/><stop offset="1" stop-color="#55b6e6"/></linearGradient><linearGradient x1="342.06556" y1="64.69172" x2="343.55064" y2="73.62705" gradientUnits="userSpaceOnUse" id="color-4"><stop offset="0" stop-color="#6bc399"/><stop offset="1" stop-color="#55b6e6"/></linearGradient><linearGradient x1="338.78869" y1="62.76459" x2="343.82389" y2="69.39197" gradientUnits="userSpaceOnUse" id="color-5"><stop offset="0" stop-color="#6bc399"/><stop offset="1" stop-color="#55b6e6"/></linearGradient><linearGradient x1="331.19991" y1="69.61897" x2="336.23509" y2="76.24636" gradientUnits="userSpaceOnUse" id="color-6"><stop offset="0" stop-color="#6bc399"/><stop offset="1" stop-color="#55b6e6"/></linearGradient><linearGradient x1="326.9704" y1="53.30894" x2="330.96896" y2="58.57195" gradientUnits="userSpaceOnUse" id="color-7"><stop offset="0" stop-color="#6bc399"/><stop offset="1" stop-color="#55b6e6"/></linearGradient><linearGradient x1="321.57601" y1="60.95557" x2="321.81047" y2="67.56107" gradientUnits="userSpaceOnUse" id="color-8"><stop offset="0" stop-color="#6bc399"/><stop offset="1" stop-color="#55b6e6"/></linearGradient><linearGradient x1="292.95038" y1="50.75674" x2="296.54621" y2="56.30272" gradientUnits="userSpaceOnUse" id="color-9"><stop offset="0" stop-color="#6bc399"/><stop offset="1" stop-color="#55b6e6"/></linearGradient><linearGradient x1="314.52694" y1="39.45797" x2="314.62152" y2="45.33247" gradientUnits="userSpaceOnUse" id="color-10"><stop offset="0" stop-color="#6bc399"/><stop offset="1" stop-color="#55b6e6"/></linearGradient><linearGradient x1="288.38807" y1="59.74902" x2="291.4156" y2="66.43962" gradientUnits="userSpaceOnUse" id="color-11"><stop offset="0" stop-color="#6bc399"/><stop offset="1" stop-color="#55b6e6"/></linearGradient><linearGradient x1="279.53102" y1="51.28551" x2="279.53102" y2="75.41339" gradientUnits="userSpaceOnUse" id="color-12"><stop offset="0" stop-color="#86f5bf"/><stop offset="1" stop-color="#5bc8f5"/></linearGradient><linearGradient x1="266.48184" y1="80.30254" x2="271.39227" y2="77.07667" gradientUnits="userSpaceOnUse" id="color-13"><stop offset="0" stop-color="#6bc399"/><stop offset="1" stop-color="#55b6e6"/></linearGradient><linearGradient x1="290.2606" y1="72.60549" x2="286.60922" y2="77.20835" gradientUnits="userSpaceOnUse" id="color-14"><stop offset="0" stop-color="#6bc399"/><stop offset="1" stop-color="#55b6e6"/></linearGradient><linearGradient x1="249.99305" y1="61.83427" x2="266.84553" y2="86.77039" gradientUnits="userSpaceOnUse" id="color-15"><stop offset="0" stop-color="#86f5bf"/><stop offset="1" stop-color="#5bc8f5"/></linearGradient><linearGradient x1="252.98344" y1="110.26398" x2="259.36973" y2="111.65595" gradientUnits="userSpaceOnUse" id="color-16"><stop offset="0" stop-color="#6bc399"/><stop offset="1" stop-color="#55b6e6"/></linearGradient><linearGradient x1="252.13009" y1="108.68586" x2="256.81338" y2="109.70664" gradientUnits="userSpaceOnUse" id="color-17"><stop offset="0" stop-color="#6bc399"/><stop offset="1" stop-color="#55b6e6"/></linearGradient><linearGradient x1="289.03825" y1="86.09693" x2="292.73696" y2="89.99615" gradientUnits="userSpaceOnUse" id="color-18"><stop offset="0" stop-color="#6bc399"/><stop offset="1" stop-color="#55b6e6"/></linearGradient><linearGradient x1="286.78707" y1="86.23825" x2="291.46424" y2="87.8234" gradientUnits="userSpaceOnUse" id="color-19"><stop offset="0" stop-color="#6bc399"/><stop offset="1" stop-color="#55b6e6"/></linearGradient><linearGradient x1="285.3337" y1="92.12914" x2="290.01086" y2="93.7143" gradientUnits="userSpaceOnUse" id="color-20"><stop offset="0" stop-color="#6bc399"/><stop offset="1" stop-color="#55b6e6"/></linearGradient><linearGradient x1="277.83567" y1="85.51631" x2="281.54993" y2="86.77515" gradientUnits="userSpaceOnUse" id="color-21"><stop offset="0" stop-color="#6bc399"/><stop offset="1" stop-color="#55b6e6"/></linearGradient><linearGradient x1="277.72427" y1="91.06762" x2="280.03413" y2="94.237" gradientUnits="userSpaceOnUse" id="color-22"><stop offset="0" stop-color="#6bc399"/><stop offset="1" stop-color="#55b6e6"/></linearGradient><linearGradient x1="260.26345" y1="95.56436" x2="263.87375" y2="97.0961" gradientUnits="userSpaceOnUse" id="color-23"><stop offset="0" stop-color="#6bc399"/><stop offset="1" stop-color="#55b6e6"/></linearGradient><linearGradient x1="267.11665" y1="82.84134" x2="269.11487" y2="85.69783" gradientUnits="userSpaceOnUse" id="color-24"><stop offset="0" stop-color="#6bc399"/><stop offset="1" stop-color="#55b6e6"/></linearGradient><linearGradient x1="261.00818" y1="101.50074" x2="264.71938" y2="103.78399" gradientUnits="userSpaceOnUse" id="color-25"><stop offset="0" stop-color="#6bc399"/><stop offset="1" stop-color="#55b6e6"/></linearGradient><linearGradient x1="253.84215" y1="100.28271" x2="261.85833" y2="112.144" gradientUnits="userSpaceOnUse" id="color-26"><stop offset="0" stop-color="#86f5bf"/><stop offset="1" stop-color="#5bc8f5"/></linearGradient><linearGradient x1="257.06769" y1="118.88294" x2="258.40991" y2="115.66567" gradientUnits="userSpaceOnUse" id="color-27"><stop offset="0" stop-color="#6bc399"/><stop offset="1" stop-color="#55b6e6"/></linearGradient><linearGradient x1="266.20011" y1="107.19887" x2="265.93433" y2="110.67477" gradientUnits="userSpaceOnUse" id="color-28"><stop offset="0" stop-color="#6bc399"/><stop offset="1" stop-color="#55b6e6"/></linearGradient></defs><g transform="translate(-140.00446,-27.78049)"><g data-paper-data="{&quot;isPaintingLayer&quot;:true}" fill-rule="nonzero" stroke-linejoin="miter" stroke-miterlimit="10" stroke-dasharray="" stroke-dashoffset="0" style="mix-blend-mode: normal"><g data-paper-data="{&quot;index&quot;:null}"><g><g><path d="M298.08732,144.52006v-67.56469h23.25596v67.5647z" fill="#b06041" stroke="none" stroke-width="0" stroke-linecap="butt"/><path d="M316.81448,144.52006v-67.56469h4.4064v67.5647z" fill="#ab5c37" stroke="none" stroke-width="0" stroke-linecap="butt"/><path d="M298.20971,144.52006v-67.56469h4.40639v67.5647z" fill="#ab5c37" stroke="none" stroke-width="0" stroke-linecap="butt"/><path d="M304.33118,111.55371v-15.01437" fill="none" stroke="#ad6c4e" stroke-width="6" stroke-linecap="round"/><path d="M315.10237,115.96011v15.01438" fill="none" stroke="#ad6c4e" stroke-width="6" stroke-linecap="round"/><path d="M310.69597,79.07696v-2.12159v14.52478" fill="none" stroke="#ad6c4e" stroke-width="6" stroke-linecap="round"/></g><g fill="#ab5c37" stroke="none" stroke-linecap="butt"><path d="M279.60543,109.7585v-6.2016h20.72637v6.2016z" stroke-width="NaN"/><path d="M279.44223,109.7585c-1.71252,0 -3.10078,-1.38827 -3.10078,-3.1008c0,-1.71252 1.38826,-3.1008 3.10078,-3.1008c1.71252,0 3.1008,1.38827 3.1008,3.1008c0,1.71252 -1.38827,3.1008 -3.1008,3.1008z" stroke-width="0"/></g><g fill="#ab5c37" stroke="none" stroke-linecap="butt"><path d="M282.62463,106.41292h-6.2016v-20.72637h6.2016z" stroke-width="NaN"/><path d="M282.62465,106.5761c0,1.71252 -1.38829,3.1008 -3.10081,3.1008c-1.71252,0 -3.1008,-1.38827 -3.1008,-3.1008c0,-1.71252 1.38827,-3.1008 3.1008,-3.1008c1.71252,0 3.10081,1.38827 3.10081,3.1008z" stroke-width="0"/></g><path d="M298.31214,82.17776v-5.05918h23.01117v5.05918z" fill="#86482b" stroke="none" stroke-width="NaN" stroke-linecap="butt"/><path d="M276.44337,95.56012v-5.05918h6.03839v5.05918z" fill="#86482b" stroke="none" stroke-width="NaN" stroke-linecap="butt"/></g><g stroke="none" stroke-width="0" stroke-linecap="butt"><path d="M346.09667,70.73216c0,4.62665 -3.99282,7.77258 -7.875,7.77258c-8.33189,0 -40.33633,0 -55.44816,0c-4.87282,0 -7.98924,-3.09133 -7.98924,-7.65017c0,-10.63614 0,-29.26038 0,-35.25115c0,-3.65466 3.11684,-7.82293 7.98924,-7.82293c15.07845,0 46.97011,0 55.33288,0c3.9306,0 7.99028,4.09304 7.99028,7.70054c0,5.952 0,24.55704 0,35.25115z" fill="url(#color-1)"/><path d="M282.09289,78.22843c-2.201,2.0998 -5.6875,2.01778 -7.78732,-0.18324c-2.0998,-2.201 -2.01778,-5.68751 0.18324,-7.78732c2.201,-2.0998 5.68751,-2.01778 7.78732,0.18324c2.09982,2.201 2.01777,5.68751 -0.18324,7.78732z" fill="url(#color-2)"/><path d="M278.87582,71.53531c-1.61408,1.53987 -4.17084,1.4797 -5.71071,-0.13438c-1.53985,-1.61408 -1.4797,-4.17082 0.13438,-5.71069c1.61408,-1.53987 4.17084,-1.4797 5.71071,0.13436c1.53985,1.61408 1.47971,4.17084 -0.13438,5.71071z" fill="url(#color-3)"/><path d="M344.63969,80.1796c-2.4674,0.41007 -4.80011,-1.25771 -5.2102,-3.72511c-0.41009,-2.46742 1.25772,-4.80012 3.72513,-5.21019c2.4674,-0.41007 4.8001,1.25771 5.21019,3.72512c0.41009,2.46742 -1.25771,4.80011 -3.72513,5.21018z" fill="url(#color-4)"/><path d="M347.51635,74.25206c-1.83011,1.39043 -4.44086,1.034 -5.83129,-0.79611c-1.39043,-1.83011 -1.034,-4.44086 0.7961,-5.83129c1.83011,-1.39043 4.44086,-1.03398 5.83129,0.79613c1.39043,1.83011 1.034,4.44085 -0.7961,5.83128z" fill="url(#color-5)"/><path d="M340.72365,75.27517c1.39043,1.83011 1.03401,4.44085 -0.7961,5.83128c-1.83011,1.39043 -4.44086,1.034 -5.83129,-0.79611c-1.39043,-1.83011 -1.034,-4.44086 0.7961,-5.83129c1.83011,-1.39043 4.44085,-1.034 5.83128,0.79611z" fill="url(#color-6)"/><path d="M333.90126,62.43147c-1.45335,1.10419 -3.52661,0.82114 -4.63078,-0.63221c-1.10417,-1.45335 -0.82114,-3.52661 0.63221,-4.63078c1.45335,-1.10419 3.52661,-0.82114 4.63079,0.63221c1.10417,1.45335 0.82112,3.52661 -0.63221,4.63078z" fill="url(#color-7)"/><path d="M321.98243,72.40513c-1.82406,0.06475 -3.35525,-1.36146 -3.42,-3.18552c-0.06475,-1.82406 1.36146,-3.35525 3.18552,-3.42c1.82406,-0.06475 3.35523,1.36146 3.42,3.18552c0.06475,1.82406 -1.36146,3.35523 -3.18552,3.42z" fill="url(#color-8)"/><path d="M299.18313,60.36976c-1.53149,0.99296 -3.57795,0.55639 -4.5709,-0.97508c-0.99296,-1.53147 -0.5564,-3.57794 0.97508,-4.57088c1.53149,-0.99296 3.57795,-0.5564 4.5709,0.97508c0.99296,1.53149 0.5564,3.57794 -0.97508,4.5709z" fill="url(#color-9)"/><path d="M314.69088,49.64044c-1.62221,0.02613 -2.95843,-1.26775 -2.98454,-2.88996c-0.02613,-1.62221 1.26777,-2.95843 2.88997,-2.98454c1.62221,-0.02613 2.95843,1.26777 2.98454,2.88997c0.02613,1.62221 -1.26777,2.95843 -2.88997,2.98454z" fill="url(#color-10)"/><path d="M293.63578,71.34608c-1.84756,0.83602 -4.02303,0.01602 -4.85906,-1.83154c-0.83602,-1.84756 -0.01602,-4.02304 1.83154,-4.85906c1.84756,-0.83602 4.02304,-0.01602 4.85906,1.83154c0.83602,1.84756 0.01602,4.02304 -1.83154,4.85906z" fill="url(#color-11)"/></g><path d="M296.49152,87.80149c0,2.20074 -1.89926,3.69717 -3.74589,3.69717c-3.96321,0 -19.1867,0 -26.3749,0c-2.31785,0 -3.80023,-1.47043 -3.80023,-3.63893c0,-5.05928 0,-13.91822 0,-16.76784c0,-1.73841 1.48258,-3.72113 3.80023,-3.72113c7.17234,0 22.34217,0 26.32008,0c1.86966,0 3.80072,1.94694 3.80072,3.6629c0,2.83118 0,11.68101 0,16.76785z" fill="url(#color-12)" stroke="none" stroke-width="0" stroke-linecap="butt"/><path d="M274.99329,74.711c0.8908,1.35598 0.51371,3.17736 -0.84227,4.06818c-1.356,0.89081 -3.17736,0.5137 -4.06818,-0.84229c-0.8908,-1.35598 -0.5137,-3.17736 0.84229,-4.06818c1.356,-0.89081 3.17736,-0.5137 4.06816,0.84229z" fill="url(#color-13)" stroke="none" stroke-width="0" stroke-linecap="butt"/><path d="M283.93156,80.58378c-1.27105,-1.00829 -1.48403,-2.85607 -0.47574,-4.12712c1.00829,-1.27104 2.85608,-1.48403 4.12712,-0.47574c1.27104,1.00829 1.48403,2.85607 0.47574,4.12712c-1.00829,1.27104 -2.85609,1.48403 -4.12712,0.47574z" fill="url(#color-14)" stroke="none" stroke-width="0" stroke-linecap="butt"/></g><g data-paper-data="{&quot;index&quot;:null}"><g><g><path d="M293.94042,139.95184l-22.44749,-33.21488l11.43266,-7.72649l22.44749,33.21489z" fill="#b06041" stroke="none" stroke-width="0" stroke-linecap="butt"/><path d="M303.14671,133.72998l-22.44749,-33.21488l2.16619,-1.46397l22.44749,33.21489z" fill="#ab5c37" stroke="none" stroke-width="0" stroke-linecap="butt"/><path d="M294.00059,139.91117l-22.44749,-33.21488l2.16619,-1.46397l22.44749,33.21489z" fill="#ab5c37" stroke="none" stroke-width="0" stroke-linecap="butt"/><path d="M286.05727,121.6711l-4.98833,-7.38108" fill="none" stroke="#ad6c4e" stroke-width="6" stroke-linecap="round"/><path d="M292.81637,120.2587l4.98833,7.38109" fill="none" stroke="#ad6c4e" stroke-width="6" stroke-linecap="round"/><path d="M278.39623,103.59087l-0.70487,-1.04298l4.82567,7.1404" fill="none" stroke="#ad6c4e" stroke-width="6" stroke-linecap="round"/></g><g fill="#ab5c37" stroke="none" stroke-linecap="butt"><path d="M273.30562,129.00338l-2.0604,-3.04871l10.18911,-6.88607l2.0604,3.04871z" stroke-width="NaN"/><path d="M273.22539,129.0576c-0.84188,0.56896 -1.98558,0.34772 -2.55455,-0.49416c-0.56896,-0.84188 -0.34773,-1.98559 0.49415,-2.55455c0.84188,-0.56896 1.98559,-0.34773 2.55456,0.49416c0.56896,0.84188 0.34773,1.98559 -0.49416,2.55456z" stroke-width="0"/></g><g fill="#ab5c37" stroke="none" stroke-linecap="butt"><path d="M273.67834,126.3556l-3.04871,2.0604l-6.88607,-10.18911l3.04871,-2.0604z" stroke-width="NaN"/><path d="M273.73256,126.43581c0.56896,0.84188 0.34772,1.9856 -0.49416,2.55456c-0.84188,0.56896 -1.98559,0.34773 -2.55456,-0.49416c-0.56896,-0.84188 -0.34773,-1.98559 0.49416,-2.55456c0.84188,-0.56896 1.9856,-0.34773 2.55456,0.49415z" stroke-width="0"/></g><path d="M273.33852,109.22959l-1.68085,-2.4871l11.31232,-7.64516l1.68085,2.4871z" fill="#86482b" stroke="none" stroke-width="NaN" stroke-linecap="butt"/><path d="M267.03392,123.07399l-1.68085,-2.4871l2.96848,-2.00618l1.68085,2.4871z" fill="#86482b" stroke="none" stroke-width="NaN" stroke-linecap="butt"/></g><g stroke="none" stroke-width="0" stroke-linecap="butt"><path d="M293.02681,87.72714c1.53714,2.27447 0.61946,5.14757 -1.28902,6.43738c-4.09597,2.76816 -19.82939,13.40122 -27.25838,18.42193c-2.39548,1.61893 -4.95457,1.13462 -6.46919,-1.10651c-3.53372,-5.22874 -9.72138,-14.38444 -11.71174,-17.32951c-1.21421,-1.79664 -1.06682,-4.88129 1.32845,-6.50008c7.41258,-5.00962 23.09056,-15.60521 27.20171,-18.38363c1.93229,-1.30589 5.28789,-0.64252 6.48644,1.13093c1.97747,2.92601 8.15876,12.07227 11.71174,17.32951z" fill="url(#color-15)"/><path d="M264.05301,112.67673c-0.38438,1.76352 -2.1256,2.88154 -3.88914,2.49715c-1.76352,-0.38438 -2.88154,-2.12561 -2.49715,-3.88914c0.38438,-1.76352 2.12561,-2.88154 3.88914,-2.49715c1.76353,0.38438 2.88154,2.12561 2.49715,3.88914z" fill="url(#color-16)"/><path d="M260.24779,110.45522c-0.28188,1.29326 -1.55878,2.11313 -2.85204,1.83125c-1.29325,-0.28189 -2.11312,-1.55877 -1.83124,-2.85203c0.28188,-1.29326 1.55878,-2.11313 2.85203,-1.83126c1.29325,0.28189 2.11313,1.55878 1.83125,2.85204z" fill="url(#color-17)"/><path d="M295.44934,92.85557c-1.07674,1.02135 -2.7776,0.97648 -3.79896,-0.10025c-1.02137,-1.07674 -0.97648,-2.77761 0.10026,-3.79896c1.07674,-1.02135 2.77759,-0.97648 3.79896,0.10026c1.02137,1.07674 0.97648,2.7776 -0.10026,3.79896z" fill="url(#color-18)"/><path d="M294.89416,88.98585c-0.43773,1.29157 -1.8396,1.98373 -3.13117,1.546c-1.29157,-0.43773 -1.98373,-1.8396 -1.54601,-3.13116c0.43773,-1.29157 1.83961,-1.98372 3.13117,-1.54599c1.29157,0.43773 1.98373,1.83959 1.546,3.13116z" fill="url(#color-19)"/><path d="M291.89478,91.7456c1.29157,0.43773 1.98374,1.83959 1.546,3.13116c-0.43773,1.29157 -1.8396,1.98373 -3.13117,1.546c-1.29157,-0.43773 -1.98373,-1.8396 -1.54601,-3.13116c0.43773,-1.29157 1.83959,-1.98373 3.13116,-1.546z" fill="url(#color-20)"/><path d="M284.27373,87.69827c-0.34762,1.02568 -1.46087,1.57534 -2.48654,1.22772c-1.02567,-0.34762 -1.57534,-1.46087 -1.22772,-2.48654c0.34762,-1.02568 1.46087,-1.57534 2.48655,-1.22772c1.02567,0.34762 1.57533,1.46088 1.22772,2.48654z" fill="url(#color-21)"/><path d="M281.72804,96.56121c-0.8752,0.63785 -2.10177,0.44544 -2.73962,-0.42976c-0.63785,-0.8752 -0.44544,-2.10177 0.42976,-2.73962c0.8752,-0.63785 2.10176,-0.44544 2.73962,0.42976c0.63785,0.8752 0.44544,2.10176 -0.42976,2.73962z" fill="url(#color-22)"/><path d="M266.52128,98.21938c-0.42298,0.99696 -1.57407,1.46225 -2.57102,1.03927c-0.99695,-0.42297 -1.46225,-1.57406 -1.03926,-2.57101c0.42298,-0.99696 1.57407,-1.46225 2.57102,-1.03927c0.99696,0.42298 1.46225,1.57406 1.03927,2.57102z" fill="url(#color-23)"/><path d="M270.58023,87.79258c-0.7888,0.5518 -1.87556,0.35967 -2.42736,-0.42913c-0.5518,-0.7888 -0.35966,-1.87557 0.42914,-2.42736c0.7888,-0.5518 1.87557,-0.35966 2.42736,0.42914c0.5518,0.7888 0.35966,1.87557 -0.42914,2.42736z" fill="url(#color-24)"/><path d="M267.44093,105.45839c-0.63051,1.02482 -1.9724,1.34447 -2.99723,0.71397c-1.02482,-0.63051 -1.34448,-1.97241 -0.71397,-2.99723c0.63051,-1.02482 1.97241,-1.34448 2.99723,-0.71397c1.02482,0.63051 1.34448,1.97241 0.71397,2.99723z" fill="url(#color-25)"/></g><path d="M274.31192,112.5991c0.73117,1.08189 0.29466,2.44854 -0.61315,3.06206c-1.94832,1.31672 -9.43221,6.37453 -12.96593,8.76272c-1.13946,0.77008 -2.35673,0.53971 -3.07718,-0.52633c-1.68088,-2.48715 -4.62415,-6.84221 -5.5709,-8.24309c-0.57756,-0.8546 -0.50746,-2.32188 0.6319,-3.09189c3.52593,-2.38292 10.98344,-7.42289 12.93898,-8.7445c0.91913,-0.62117 2.51528,-0.30562 3.08539,0.53795c0.94062,1.39181 3.88086,5.7424 5.5709,8.2431z" fill="url(#color-26)" stroke="none" stroke-width="0" stroke-linecap="butt"/><path d="M259.39421,113.30631c0.88843,0.37064 1.30818,1.39132 0.93754,2.27976c-0.37065,0.88844 -1.39132,1.30817 -2.27976,0.93753c-0.88843,-0.37064 -1.30817,-1.39132 -0.93753,-2.27976c0.37065,-0.88844 1.39132,-1.30817 2.27975,-0.93752z" fill="url(#color-27)" stroke="none" stroke-width="0" stroke-linecap="butt"/><path d="M265.73943,113.22375c-0.95984,-0.07339 -1.67844,-0.911 -1.60506,-1.87084c0.07339,-0.95984 0.911,-1.67845 1.87084,-1.60506c0.95984,0.07339 1.67844,0.911 1.60506,1.87084c-0.07339,0.95984 -0.91101,1.67845 -1.87084,1.60506z" fill="url(#color-28)" stroke="none" stroke-width="0" stroke-linecap="butt"/></g><g stroke="none" stroke-width="0" stroke-linecap="butt"><path d="M147.41702,136.27962c4.10024,-6.73111 16.15301,-26.5174 18.83281,-30.91667c1.02782,-1.68731 2.03049,-2.4937 2.03049,-1.5c0,4.32108 0,34.66667 0,34.66667c0,0 -17.11565,0 -20.30492,0c-0.983,0 -1.41875,-0.83759 -0.55839,-2.25z" fill="#e6e6e6"/><path d="M188.27689,138.69629c-3.18927,0 -20.30492,0 -20.30492,0c0,0 0,-30.3456 0,-34.66667c0,-0.99371 1.00267,-0.18731 2.03049,1.5c2.67981,4.39927 14.73257,24.18556 18.83281,30.91667c0.86037,1.41241 0.42461,2.25 -0.55839,2.25z" data-paper-data="{&quot;index&quot;:null}" fill="#d9d9d9"/><g><g><path d="M147.41703,136.27962c4.10024,-6.73111 16.15301,-26.5174 18.83281,-30.91667c1.02782,-1.68731 2.03049,-2.4937 2.03049,-1.5c0,4.32108 0,34.66667 0,34.66667c0,0 -17.11565,0 -20.30492,0c-0.983,0 -1.41875,-0.83759 -0.55839,-2.25z" fill="#cc0000"/><path d="M188.2769,138.69629c-3.18927,0 -20.30492,0 -20.30492,0c0,0 0,-30.3456 0,-34.66667c0,-0.99371 1.00267,-0.18731 2.03049,1.5c2.67981,4.39927 14.73257,24.18556 18.83281,30.91667c0.86037,1.41241 0.42461,2.25 -0.55839,2.25z" data-paper-data="{&quot;index&quot;:null}" fill="#a60000"/></g><path d="M153.88404,138.42857l-5.64199,-3.67253l2.15634,-3.44879l10.00118,7.24271z" fill="#ffffff"/></g></g><path d="M146.12221,227.49881v-85.98862h187.75558v85.98862z" fill="#ffffff" stroke="none" stroke-width="0" stroke-linecap="butt"/><path d="M145.30579,228.27582v-65.78647h189.72368v65.78647z" fill="#4eaad2" stroke="none" stroke-width="0" stroke-linecap="butt"/><path d="M335.0076,140.73319v30.56222h-181.82946v-30.56222z" fill="#5ecfff" stroke="none" stroke-width="0" stroke-linecap="butt"/><path d="M334.34953,140.73352h0.66265h-190.04165h1.03393" fill="none" stroke="#ffffff" stroke-width="12" stroke-linecap="round"/><path d="M287.0282,152.34166c0,5.36482 0,10.86234 0,13.83148c0,2.22467 -2.14383,4.93447 -5.15877,4.93447c-5.75992,0 -25.6897,0 -28.93397,0c-2.33553,0 -5.90642,-2.19937 -6.05595,-5.5326c-0.10271,-2.28967 -0.06031,-8.55356 0,-12.63524c0.03909,-2.64539 3.27178,-5.83165 6.50454,-5.83165c6.02066,0 26.00828,0 28.18632,0c2.44324,0 5.45784,2.20155 5.45784,5.23353z" fill="#79d7ff" stroke="none" stroke-width="0" stroke-linecap="butt"/><path d="M224.28441,180.95666c0,5.36482 0,10.86234 0,13.83149c0,2.22467 -2.14383,4.93447 -5.15877,4.93447c-5.75992,0 -25.68969,0 -28.93396,0c-2.33553,0 -5.90641,-2.19937 -6.05594,-5.5326c-0.10271,-2.28967 -0.06031,-8.55355 0,-12.63524c0.03909,-2.64539 3.27177,-5.83165 6.50453,-5.83165c6.02067,0 26.00828,0 28.18632,0c2.44324,0 5.45782,2.20155 5.45782,5.23353z" fill="#4597ba" stroke="none" stroke-width="0" stroke-linecap="butt"/><path d="M313.98617,204.54683c0,5.36482 0,10.86234 0,13.83149c0,2.22467 -2.14383,4.93447 -5.15877,4.93447c-5.75992,0 -25.68971,0 -28.93397,0c-2.33553,0 -5.90641,-2.19937 -6.05594,-5.5326c-0.10271,-2.28967 -0.06031,-8.55355 0,-12.63524c0.03909,-2.64539 3.27177,-5.83166 6.50454,-5.83166c6.02066,0 26.00827,0 28.18631,0c2.44324,0 5.45783,2.20155 5.45783,5.23354z" fill="#479cc0" stroke="none" stroke-width="0" stroke-linecap="butt"/><path d="M173.34446,152.1697c0,5.35671 0,10.84591 0,13.81057c0,2.2213 -2.47557,4.92701 -5.95704,4.92701c-3.90965,0 -21.97121,0 -21.97121,0l-0.22448,-23.9632c0,0 20.15689,0 21.85036,0c2.82132,0 6.30238,2.19822 6.30238,5.22561z" fill="#9ce1ff" stroke="none" stroke-width="0" stroke-linecap="butt"/></g></g></svg>