<svg version="1.1" xmlns="http://www.w3.org/2000/svg" xmlns:xlink="http://www.w3.org/1999/xlink" width="200.34507" height="76.90906" viewBox="0,0,200.34507,76.90906"><g transform="translate(-140.00446,-125.36676)"><g data-paper-data="{&quot;isPaintingLayer&quot;:true}" fill-rule="nonzero" stroke-linejoin="miter" stroke-miterlimit="10" stroke-dasharray="" stroke-dashoffset="0" style="mix-blend-mode: normal"><path d="M289.29087,159.21656c4.10024,-6.73111 16.15301,-26.5174 18.83281,-30.91667c1.02782,-1.68731 2.03049,-2.4937 2.03049,-1.5c0,4.32108 0,34.66667 0,34.66667c0,0 -17.11565,0 -20.30492,0c-0.983,0 -1.41875,-0.83759 -0.55839,-2.25z" fill="#e6e6e6" stroke="none" stroke-width="0" stroke-linecap="butt"/><path d="M330.15074,161.63323c-3.18927,0 -20.30492,0 -20.30492,0c0,0 0,-30.3456 0,-34.66667c0,-0.99371 1.00267,-0.18731 2.03049,1.5c2.67981,4.39927 14.73257,24.18556 18.83281,30.91667c0.86037,1.41241 0.42461,2.25 -0.55839,2.25z" data-paper-data="{&quot;index&quot;:null}" fill="#d9d9d9" stroke="none" stroke-width="0" stroke-linecap="butt"/><g stroke="none" stroke-width="0" stroke-linecap="butt"><g><path d="M289.29088,159.21656c4.10024,-6.73111 16.15301,-26.5174 18.83281,-30.91667c1.02782,-1.68731 2.03049,-2.4937 2.03049,-1.5c0,4.32108 0,34.66667 0,34.66667c0,0 -17.11565,0 -20.30492,0c-0.983,0 -1.41875,-0.83759 -0.55839,-2.25z" fill="#cc0000"/><path d="M330.15075,161.63323c-3.18927,0 -20.30492,0 -20.30492,0c0,0 0,-30.3456 0,-34.66667c0,-0.99371 1.00267,-0.18731 2.03049,1.5c2.67981,4.39927 14.73257,24.18556 18.83281,30.91667c0.86037,1.41241 0.42461,2.25 -0.55839,2.25z" data-paper-data="{&quot;index&quot;:null}" fill="#a60000"/></g><path d="M295.75789,161.36551l-5.64199,-3.67253l2.15634,-3.44879l10.00118,7.24271z" fill="#ffffff"/></g><g stroke="none" stroke-width="0" stroke-linecap="butt"><g><path d="M150.29088,158.21656c4.10024,-6.73111 16.15301,-26.5174 18.83281,-30.91667c1.02782,-1.68731 2.03049,-2.4937 2.03049,-1.5c0,4.32108 0,34.66667 0,34.66667c0,0 -17.11565,0 -20.30492,0c-0.983,0 -1.41875,-0.83759 -0.55839,-2.25z" fill="#cc0000"/><path d="M191.15075,160.63323c-3.18927,0 -20.30492,0 -20.30492,0c0,0 0,-30.3456 0,-34.66667c0,-0.99371 1.00267,-0.18731 2.03049,1.5c2.67981,4.39927 14.73257,24.18556 18.83281,30.91667c0.86037,1.41241 0.42461,2.25 -0.55839,2.25z" data-paper-data="{&quot;index&quot;:null}" fill="#a60000"/></g><path d="M156.75789,160.36551l-5.64199,-3.67253l2.15634,-3.44879l10.00118,7.24271z" fill="#ffffff"/></g><path d="M146.00446,163.23352h-1.03393h190.04165h-0.66265" fill="none" stroke="#ffffff" stroke-width="12" stroke-linecap="round"/><path d="M145.30579,202.27582v-24.1517h189.72368v24.1517z" fill="#4eaad2" stroke="none" stroke-width="0" stroke-linecap="butt"/><path d="M335.0076,163.23319v20.91821h-188.82946v-20.91821z" fill="#5ecfff" stroke="none" stroke-width="0" stroke-linecap="butt"/><path d="M287.0282,168.83278c0,4.34255 0,8.79251 0,11.19588c0,1.80076 -2.14383,3.9942 -5.15877,3.9942c-5.75992,0 -25.6897,0 -28.93397,0c-2.33553,0 -5.90642,-1.78028 -6.05595,-4.47836c-0.10271,-1.85337 -0.06031,-6.92367 0,-10.22758c0.03909,-2.14131 3.27178,-4.72042 6.50454,-4.72042c6.02066,0 26.00828,0 28.18632,0c2.44324,0 5.45784,1.78204 5.45784,4.23628z" fill="#79d7ff" stroke="none" stroke-width="0" stroke-linecap="butt"/><path d="M221.28441,189.05289c0,3.67193 0,7.43469 0,9.46692c0,1.52267 -2.14383,3.37738 -5.15877,3.37738c-5.75992,0 -25.68969,0 -28.93396,0c-2.33553,0 -5.90641,-1.50535 -6.05594,-3.78677c-0.10271,-1.56716 -0.06031,-5.85445 0,-8.64815c0.03909,-1.81063 3.27177,-3.99145 6.50453,-3.99145c6.02067,0 26.00828,0 28.18632,0c2.44324,0 5.45782,1.50684 5.45782,3.58207z" fill="#4597ba" stroke="none" stroke-width="0" stroke-linecap="butt"/><path d="M173.34446,167.93315c0,4.56054 0,9.23387 0,11.75789c0,1.89115 -2.47557,4.1947 -5.95704,4.1947c-3.90965,0 -21.97121,0 -21.97121,0l-0.22448,-20.40153c0,0 20.15689,0 21.85036,0c2.82132,0 6.30238,1.8715 6.30238,4.44892z" fill="#9ce1ff" stroke="none" stroke-width="0" stroke-linecap="butt"/></g></g></svg>