<svg version="1.1" xmlns="http://www.w3.org/2000/svg" xmlns:xlink="http://www.w3.org/1999/xlink" width="244.12033" height="391.7195" viewBox="0,0,244.12033,391.7195"><defs><linearGradient x1="311.13674" y1="-192.60994" x2="311.13674" y2="-94.52432" gradientUnits="userSpaceOnUse" id="color-1"><stop offset="0" stop-color="#86f5bf"/><stop offset="1" stop-color="#5bc8f5"/></linearGradient><linearGradient x1="230.83399" y1="-56.38351" x2="245.53803" y2="-40.97085" gradientUnits="userSpaceOnUse" id="color-2"><stop offset="0" stop-color="#6bc399"/><stop offset="1" stop-color="#55b6e6"/></linearGradient><linearGradient x1="231.40963" y1="-62.20197" x2="242.19262" y2="-50.89934" gradientUnits="userSpaceOnUse" id="color-3"><stop offset="0" stop-color="#6bc399"/><stop offset="1" stop-color="#55b6e6"/></linearGradient><linearGradient x1="372.29028" y1="-55.84419" x2="375.16197" y2="-38.56592" gradientUnits="userSpaceOnUse" id="color-4"><stop offset="0" stop-color="#6bc399"/><stop offset="1" stop-color="#55b6e6"/></linearGradient><linearGradient x1="365.95378" y1="-59.57069" x2="375.69035" y2="-46.75529" gradientUnits="userSpaceOnUse" id="color-5"><stop offset="0" stop-color="#6bc399"/><stop offset="1" stop-color="#55b6e6"/></linearGradient><linearGradient x1="351.27933" y1="-46.31634" x2="361.01587" y2="-33.50094" gradientUnits="userSpaceOnUse" id="color-6"><stop offset="0" stop-color="#6bc399"/><stop offset="1" stop-color="#55b6e6"/></linearGradient><linearGradient x1="343.10072" y1="-77.8551" x2="350.83274" y2="-67.678" gradientUnits="userSpaceOnUse" id="color-7"><stop offset="0" stop-color="#6bc399"/><stop offset="1" stop-color="#55b6e6"/></linearGradient><linearGradient x1="332.66958" y1="-63.06879" x2="333.12296" y2="-50.29572" gradientUnits="userSpaceOnUse" id="color-8"><stop offset="0" stop-color="#6bc399"/><stop offset="1" stop-color="#55b6e6"/></linearGradient><linearGradient x1="277.31613" y1="-82.79029" x2="284.26941" y2="-72.06601" gradientUnits="userSpaceOnUse" id="color-9"><stop offset="0" stop-color="#6bc399"/><stop offset="1" stop-color="#55b6e6"/></linearGradient><linearGradient x1="319.03878" y1="-104.63874" x2="319.22166" y2="-93.27921" gradientUnits="userSpaceOnUse" id="color-10"><stop offset="0" stop-color="#6bc399"/><stop offset="1" stop-color="#55b6e6"/></linearGradient><linearGradient x1="268.494" y1="-65.40189" x2="274.34834" y2="-52.46426" gradientUnits="userSpaceOnUse" id="color-11"><stop offset="0" stop-color="#6bc399"/><stop offset="1" stop-color="#55b6e6"/></linearGradient><linearGradient x1="251.3671" y1="-81.76781" x2="251.3671" y2="-35.11166" gradientUnits="userSpaceOnUse" id="color-12"><stop offset="0" stop-color="#86f5bf"/><stop offset="1" stop-color="#5bc8f5"/></linearGradient><linearGradient x1="226.13386" y1="-25.6575" x2="235.62918" y2="-31.89538" gradientUnits="userSpaceOnUse" id="color-13"><stop offset="0" stop-color="#6bc399"/><stop offset="1" stop-color="#55b6e6"/></linearGradient><linearGradient x1="272.11491" y1="-40.54131" x2="265.05422" y2="-31.64075" gradientUnits="userSpaceOnUse" id="color-14"><stop offset="0" stop-color="#6bc399"/><stop offset="1" stop-color="#55b6e6"/></linearGradient></defs><g transform="translate(-141.88958,127.2195)"><g data-paper-data="{&quot;isPaintingLayer&quot;:true}" fill-rule="nonzero" stroke-linejoin="miter" stroke-miterlimit="10" stroke-dasharray="" stroke-dashoffset="0" style="mix-blend-mode: normal"><g data-paper-data="{&quot;index&quot;:null}"><g><g><path d="M287.24944,98.52005v-130.64998h44.9701v130.65001z" fill="#b06041" stroke="none" stroke-width="0" stroke-linecap="butt"/><path d="M323.46221,98.52005v-130.64998h8.52067v130.65001z" fill="#ab5c37" stroke="none" stroke-width="0" stroke-linecap="butt"/><path d="M287.48612,98.52005v-130.64998h8.52064v130.65001z" fill="#ab5c37" stroke="none" stroke-width="0" stroke-linecap="butt"/><path d="M299.32322,34.77295v-29.03331" fill="none" stroke="#ad6c4e" stroke-width="6" stroke-linecap="round"/><path d="M320.15148,43.29362v29.03334" fill="none" stroke="#ad6c4e" stroke-width="6" stroke-linecap="round"/><path d="M311.63082,-4.04334v-28.0866v4.10252" fill="none" stroke="#ad6c4e" stroke-width="6" stroke-linecap="round"/></g><g fill="#ab5c37" stroke="none" stroke-linecap="butt"><path d="M251.51099,31.30155v-11.99204h40.07863v11.99204z" stroke-width="NaN"/><path d="M251.19541,31.30155c-3.31151,0 -5.99599,-2.68451 -5.99599,-5.99602c0,-3.31151 2.68448,-5.99602 5.99599,-5.99602c3.31151,0 5.99602,2.68451 5.99602,5.99602c0,3.31151 -2.68451,5.99602 -5.99602,5.99602z" stroke-width="0"/></g><g fill="#ab5c37" stroke="none" stroke-linecap="butt"><path d="M257.34922,24.83218h-11.99204v-40.07863h11.99204z" stroke-width="NaN"/><path d="M257.34925,25.14774c0,3.31151 -2.68454,5.99602 -5.99605,5.99602c-3.31151,0 -5.99602,-2.68451 -5.99602,-5.99602c0,-3.31151 2.68451,-5.99602 5.99602,-5.99602c3.31151,0 5.99605,2.68451 5.99605,5.99602z" stroke-width="0"/></g><path d="M287.6842,-22.0314v-9.78295h44.49676v9.78295z" fill="#86482b" stroke="none" stroke-width="NaN" stroke-linecap="butt"/><path d="M245.3965,3.8461v-9.78295h11.67645v9.78295z" fill="#86482b" stroke="none" stroke-width="NaN" stroke-linecap="butt"/></g><g stroke="none" stroke-width="0" stroke-linecap="butt"><path d="M380.08524,-44.16377c0,8.94656 -7.72092,15.02986 -15.22791,15.02986c-16.1114,0 -77.99845,0 -107.22022,0c-9.42259,0 -15.44881,-5.97771 -15.44881,-14.79315c0,-20.56713 0,-56.58086 0,-68.16522c0,-7.06701 6.02704,-15.12722 15.44881,-15.12722c29.15724,0 90.82621,0 106.99731,0c7.60062,0 15.45082,7.91472 15.45082,14.89055c0,11.50939 0,47.486 0,68.16522z" fill="url(#color-1)"/><path d="M256.32099,-29.66822c-4.25608,4.06039 -10.99794,3.90178 -15.05836,-0.35432c-4.06039,-4.25608 -3.90178,-10.99795 0.35432,-15.05837c4.25608,-4.06039 10.99795,-3.90178 15.05837,0.35433c4.06042,4.25608 3.90177,10.99795 -0.35433,15.05836z" fill="url(#color-2)"/><path d="M250.10013,-42.61071c-3.12115,2.97765 -8.06516,2.86131 -11.04281,-0.25985c-2.97762,-3.12116 -2.86131,-8.06513 0.25985,-11.04278c3.12115,-2.97765 8.06516,-2.86131 11.04281,0.25982c2.97762,3.12116 2.86131,8.06516 -0.25985,11.04281z" fill="url(#color-3)"/><path d="M377.26786,-25.89523c-4.77123,0.79295 -9.28199,-2.43203 -10.07497,-7.20326c-0.79298,-4.77125 2.43207,-9.282 7.20329,-10.07495c4.77123,-0.79296 9.28196,2.43204 10.07495,7.20327c0.79298,4.77125 -2.43204,9.28199 -7.20329,10.07495z" fill="url(#color-4)"/><path d="M382.83047,-37.35734c-3.53888,2.68868 -8.58731,1.99944 -11.27598,-1.53944c-2.68868,-3.53888 -1.99944,-8.58731 1.53942,-11.27598c3.53888,-2.68868 8.58731,-1.99941 11.27598,1.53947c2.68868,3.53889 1.99944,8.58728 -1.53942,11.27596z" fill="url(#color-5)"/><path d="M369.69541,-35.37894c2.68868,3.53889 1.99947,8.58728 -1.53942,11.27596c-3.53888,2.68868 -8.58731,1.99944 -11.27598,-1.53945c-2.68868,-3.53889 -1.99944,-8.5873 1.53942,-11.27598c3.53888,-2.68868 8.58728,-1.99945 11.27596,1.53944z" fill="url(#color-6)"/><path d="M356.50295,-60.21483c-2.81036,2.13517 -6.81941,1.58784 -8.95454,-1.22252c-2.13513,-2.81036 -1.58784,-6.81941 1.22251,-8.95454c2.81036,-2.13517 6.81941,-1.58784 8.95457,1.22252c2.13513,2.81036 1.58781,6.81941 -1.22251,8.95454z" fill="url(#color-7)"/><path d="M333.45547,-40.92875c-3.5272,0.1252 -6.48805,-2.63265 -6.61325,-6.15984c-0.1252,-3.5272 2.63265,-6.48806 6.15985,-6.61326c3.5272,-0.1252 6.48802,2.63265 6.61325,6.15985c0.1252,3.5272 -2.63265,6.48802 -6.15985,6.61325z" fill="url(#color-8)"/><path d="M289.36843,-64.20156c-2.96144,1.9201 -6.91869,1.07589 -8.83876,-1.88552c-1.9201,-2.96141 -1.07592,-6.91867 1.88552,-8.83873c2.96144,-1.9201 6.91869,-1.07592 8.83876,1.88552c1.9201,2.96144 1.07592,6.91866 -1.88552,8.83876z" fill="url(#color-9)"/><path d="M319.35579,-84.94887c-3.13687,0.05052 -5.72072,-2.45145 -5.77121,-5.58832c-0.05052,-3.13687 2.45148,-5.72072 5.58835,-5.77121c3.13687,-0.05052 5.72072,2.45148 5.77121,5.58835c0.05052,3.13687 -2.45148,5.72072 -5.58835,5.77121z" fill="url(#color-10)"/><path d="M278.6415,-42.97664c-3.57264,1.61661 -7.77934,0.03099 -9.39598,-3.54166c-1.6166,-3.57264 -0.03098,-7.77936 3.54165,-9.39597c3.57264,-1.61661 7.77937,-0.03099 9.39598,3.54165c1.6166,3.57264 0.03098,7.77937 -3.54165,9.39597z" fill="url(#color-11)"/></g><path d="M284.16364,-11.15676c0,4.25558 -3.6726,7.14922 -7.24343,7.14922c-7.66367,0 -37.10136,0 -51.00119,0c-4.48203,0 -7.34852,-2.84338 -7.34852,-7.03661c0,-9.78315 0,-26.91369 0,-32.424c0,-3.36156 2.86687,-7.19556 7.34852,-7.19556c13.86917,0 43.20311,0 50.8952,0c3.61537,0 7.34946,3.7648 7.34946,7.08296c0,5.47466 0,22.58759 0,32.42403z" fill="url(#color-12)" stroke="none" stroke-width="0" stroke-linecap="butt"/><path d="M242.59247,-36.46987c1.72254,2.62207 0.99337,6.14407 -1.6287,7.86664c-2.6221,1.72257 -6.14407,0.99334 -7.86665,-1.62873c-1.72254,-2.62207 -0.99334,-6.14408 1.62874,-7.86665c2.6221,-1.72257 6.14407,-0.99333 7.86661,1.62874z" fill="url(#color-13)" stroke="none" stroke-width="0" stroke-linecap="butt"/><path d="M259.87643,-25.11367c-2.45783,-1.94974 -2.86968,-5.52279 -0.91994,-7.98063c1.94974,-2.4578 5.52281,-2.86968 7.98062,-0.91993c2.45781,1.94974 2.86968,5.52279 0.91994,7.98063c-1.94974,2.45781 -5.52282,2.86968 -7.98062,0.91994z" fill="url(#color-14)" stroke="none" stroke-width="0" stroke-linecap="butt"/></g><path d="M143.26091,263v-166h193.47818v166z" fill="#ffffff" stroke="none" stroke-width="0" stroke-linecap="butt"/><path d="M142.41961,264.5v-127h195.50625v127z" fill="#4eaad2" stroke="none" stroke-width="0" stroke-linecap="butt"/><path d="M338.48744,100.75691v36.80415h-195.54884v-36.80415z" fill="#5ecfff" stroke="none" stroke-width="0" stroke-linecap="butt"/><path d="M337.22521,96.08474h0.68284h-195.83391h1.06544" fill="none" stroke="#ffffff" stroke-width="2.5" stroke-linecap="round"/></g></g></svg>