<svg version="1.1" xmlns="http://www.w3.org/2000/svg" xmlns:xlink="http://www.w3.org/1999/xlink" width="507.80994" height="525.90629" viewBox="0,0,507.80994,525.90629"><defs><linearGradient x1="245.04852" y1="-56.44431" x2="245.04852" y2="-2.10712" gradientUnits="userSpaceOnUse" id="color-1"><stop offset="0" stop-color="#86f5bf"/><stop offset="1" stop-color="#5bc8f5"/></linearGradient><linearGradient x1="289.53442" y1="19.02203" x2="281.38872" y2="27.56029" gradientUnits="userSpaceOnUse" id="color-2"><stop offset="0" stop-color="#6bc399"/><stop offset="1" stop-color="#55b6e6"/></linearGradient><linearGradient x1="289.21552" y1="15.79873" x2="283.24199" y2="22.06013" gradientUnits="userSpaceOnUse" id="color-3"><stop offset="0" stop-color="#6bc399"/><stop offset="1" stop-color="#55b6e6"/></linearGradient><linearGradient x1="211.17086" y1="19.32081" x2="209.58001" y2="28.89257" gradientUnits="userSpaceOnUse" id="color-4"><stop offset="0" stop-color="#6bc399"/><stop offset="1" stop-color="#55b6e6"/></linearGradient><linearGradient x1="214.68112" y1="17.2564" x2="209.28731" y2="24.35584" gradientUnits="userSpaceOnUse" id="color-5"><stop offset="0" stop-color="#6bc399"/><stop offset="1" stop-color="#55b6e6"/></linearGradient><linearGradient x1="222.81044" y1="24.59901" x2="217.41663" y2="31.69844" gradientUnits="userSpaceOnUse" id="color-6"><stop offset="0" stop-color="#6bc399"/><stop offset="1" stop-color="#55b6e6"/></linearGradient><linearGradient x1="227.34122" y1="7.12726" x2="223.05784" y2="12.76513" gradientUnits="userSpaceOnUse" id="color-7"><stop offset="0" stop-color="#6bc399"/><stop offset="1" stop-color="#55b6e6"/></linearGradient><linearGradient x1="233.11984" y1="15.31853" x2="232.86866" y2="22.39453" gradientUnits="userSpaceOnUse" id="color-8"><stop offset="0" stop-color="#6bc399"/><stop offset="1" stop-color="#55b6e6"/></linearGradient><linearGradient x1="263.78436" y1="4.39327" x2="259.93243" y2="10.33428" gradientUnits="userSpaceOnUse" id="color-9"><stop offset="0" stop-color="#6bc399"/><stop offset="1" stop-color="#55b6e6"/></linearGradient><linearGradient x1="240.67097" y1="-7.71029" x2="240.56965" y2="-1.41735" gradientUnits="userSpaceOnUse" id="color-10"><stop offset="0" stop-color="#6bc399"/><stop offset="1" stop-color="#55b6e6"/></linearGradient><linearGradient x1="268.67163" y1="14.02604" x2="265.42846" y2="21.1932" gradientUnits="userSpaceOnUse" id="color-11"><stop offset="0" stop-color="#6bc399"/><stop offset="1" stop-color="#55b6e6"/></linearGradient><linearGradient x1="278.15954" y1="4.95971" x2="278.15954" y2="30.80614" gradientUnits="userSpaceOnUse" id="color-12"><stop offset="0" stop-color="#86f5bf"/><stop offset="1" stop-color="#5bc8f5"/></linearGradient><linearGradient x1="292.13819" y1="36.04352" x2="286.87798" y2="32.58788" gradientUnits="userSpaceOnUse" id="color-13"><stop offset="0" stop-color="#6bc399"/><stop offset="1" stop-color="#55b6e6"/></linearGradient><linearGradient x1="266.66573" y1="27.79824" x2="270.57718" y2="32.72895" gradientUnits="userSpaceOnUse" id="color-14"><stop offset="0" stop-color="#6bc399"/><stop offset="1" stop-color="#55b6e6"/></linearGradient><linearGradient x1="218.34624" y1="-13.02421" x2="218.34624" y2="30.18283" gradientUnits="userSpaceOnUse" id="color-15"><stop offset="0" stop-color="#86f5bf"/><stop offset="1" stop-color="#5bc8f5"/></linearGradient><linearGradient x1="182.97261" y1="46.98398" x2="189.44979" y2="53.77331" gradientUnits="userSpaceOnUse" id="color-16"><stop offset="0" stop-color="#6bc399"/><stop offset="1" stop-color="#55b6e6"/></linearGradient><linearGradient x1="183.22618" y1="44.42093" x2="187.97612" y2="49.39978" gradientUnits="userSpaceOnUse" id="color-17"><stop offset="0" stop-color="#6bc399"/><stop offset="1" stop-color="#55b6e6"/></linearGradient><linearGradient x1="245.28458" y1="47.22156" x2="246.54956" y2="54.83269" gradientUnits="userSpaceOnUse" id="color-18"><stop offset="0" stop-color="#6bc399"/><stop offset="1" stop-color="#55b6e6"/></linearGradient><linearGradient x1="242.49333" y1="45.58002" x2="246.78231" y2="51.22524" gradientUnits="userSpaceOnUse" id="color-19"><stop offset="0" stop-color="#6bc399"/><stop offset="1" stop-color="#55b6e6"/></linearGradient><linearGradient x1="236.02919" y1="51.41861" x2="240.31816" y2="57.06383" gradientUnits="userSpaceOnUse" id="color-20"><stop offset="0" stop-color="#6bc399"/><stop offset="1" stop-color="#55b6e6"/></linearGradient><linearGradient x1="232.42647" y1="37.52568" x2="235.83247" y2="42.00872" gradientUnits="userSpaceOnUse" id="color-21"><stop offset="0" stop-color="#6bc399"/><stop offset="1" stop-color="#55b6e6"/></linearGradient><linearGradient x1="227.83152" y1="44.03909" x2="228.03124" y2="49.66568" gradientUnits="userSpaceOnUse" id="color-22"><stop offset="0" stop-color="#6bc399"/><stop offset="1" stop-color="#55b6e6"/></linearGradient><linearGradient x1="203.44815" y1="35.35171" x2="206.51108" y2="40.07579" gradientUnits="userSpaceOnUse" id="color-23"><stop offset="0" stop-color="#6bc399"/><stop offset="1" stop-color="#55b6e6"/></linearGradient><linearGradient x1="221.82712" y1="25.72739" x2="221.90768" y2="30.73131" gradientUnits="userSpaceOnUse" id="color-24"><stop offset="0" stop-color="#6bc399"/><stop offset="1" stop-color="#55b6e6"/></linearGradient><linearGradient x1="199.56197" y1="43.01135" x2="202.14083" y2="48.71043" gradientUnits="userSpaceOnUse" id="color-25"><stop offset="0" stop-color="#6bc399"/><stop offset="1" stop-color="#55b6e6"/></linearGradient><linearGradient x1="192.01751" y1="35.80212" x2="192.01751" y2="56.35431" gradientUnits="userSpaceOnUse" id="color-26"><stop offset="0" stop-color="#86f5bf"/><stop offset="1" stop-color="#5bc8f5"/></linearGradient><linearGradient x1="180.90218" y1="60.51889" x2="185.08491" y2="57.77108" gradientUnits="userSpaceOnUse" id="color-27"><stop offset="0" stop-color="#6bc399"/><stop offset="1" stop-color="#55b6e6"/></linearGradient><linearGradient x1="201.15699" y1="53.96252" x2="198.04674" y2="57.88325" gradientUnits="userSpaceOnUse" id="color-28"><stop offset="0" stop-color="#6bc399"/><stop offset="1" stop-color="#55b6e6"/></linearGradient><linearGradient x1="40.21354" y1="-126.63664" x2="66.9321" y2="-26.53756" gradientUnits="userSpaceOnUse" id="color-29"><stop offset="0" stop-color="#86f5bf"/><stop offset="1" stop-color="#5bc8f5"/></linearGradient><linearGradient x1="-4.62952" y1="34.26071" x2="14.57478" y2="45.98438" gradientUnits="userSpaceOnUse" id="color-30"><stop offset="0" stop-color="#6bc399"/><stop offset="1" stop-color="#55b6e6"/></linearGradient><linearGradient x1="-5.62701" y1="28.16601" x2="8.45616" y2="36.76337" gradientUnits="userSpaceOnUse" id="color-31"><stop offset="0" stop-color="#6bc399"/><stop offset="1" stop-color="#55b6e6"/></linearGradient><linearGradient x1="139.87747" y1="-3.72163" x2="147.5147" y2="13.12906" gradientUnits="userSpaceOnUse" id="color-32"><stop offset="0" stop-color="#6bc399"/><stop offset="1" stop-color="#55b6e6"/></linearGradient><linearGradient x1="132.3958" y1="-5.79859" x2="145.82313" y2="4.62765" gradientUnits="userSpaceOnUse" id="color-33"><stop offset="0" stop-color="#6bc399"/><stop offset="1" stop-color="#55b6e6"/></linearGradient><linearGradient x1="121.03061" y1="11.72518" x2="134.45793" y2="22.1514" gradientUnits="userSpaceOnUse" id="color-34"><stop offset="0" stop-color="#6bc399"/><stop offset="1" stop-color="#55b6e6"/></linearGradient><linearGradient x1="104.09291" y1="-18.23313" x2="114.75593" y2="-9.95335" gradientUnits="userSpaceOnUse" id="color-35"><stop offset="0" stop-color="#6bc399"/><stop offset="1" stop-color="#55b6e6"/></linearGradient><linearGradient x1="97.47543" y1="-0.30186" x2="101.41754" y2="12.60993" gradientUnits="userSpaceOnUse" id="color-36"><stop offset="0" stop-color="#6bc399"/><stop offset="1" stop-color="#55b6e6"/></linearGradient><linearGradient x1="35.61359" y1="-5.3499" x2="45.63086" y2="3.70046" gradientUnits="userSpaceOnUse" id="color-37"><stop offset="0" stop-color="#6bc399"/><stop offset="1" stop-color="#55b6e6"/></linearGradient><linearGradient x1="72.24118" y1="-39.01214" x2="75.52217" y2="-27.46921" gradientUnits="userSpaceOnUse" id="color-38"><stop offset="0" stop-color="#6bc399"/><stop offset="1" stop-color="#55b6e6"/></linearGradient><linearGradient x1="31.34696" y1="14.79859" x2="40.84569" y2="26.40709" gradientUnits="userSpaceOnUse" id="color-39"><stop offset="0" stop-color="#6bc399"/><stop offset="1" stop-color="#55b6e6"/></linearGradient><linearGradient x1="9.41038" y1="2.76211" x2="22.11954" y2="50.376" gradientUnits="userSpaceOnUse" id="color-40"><stop offset="0" stop-color="#86f5bf"/><stop offset="1" stop-color="#5bc8f5"/></linearGradient><linearGradient x1="-1.05638" y1="66.89777" x2="6.93469" y2="57.94529" gradientUnits="userSpaceOnUse" id="color-41"><stop offset="0" stop-color="#6bc399"/><stop offset="1" stop-color="#55b6e6"/></linearGradient><linearGradient x1="41.81422" y1="39.18317" x2="37.03314" y2="50.18978" gradientUnits="userSpaceOnUse" id="color-42"><stop offset="0" stop-color="#6bc399"/><stop offset="1" stop-color="#55b6e6"/></linearGradient></defs><g transform="translate(20.60996,74.89426)"><g data-paper-data="{&quot;isPaintingLayer&quot;:true}" fill-rule="nonzero" stroke-linejoin="miter" stroke-miterlimit="10" stroke-dasharray="" stroke-dashoffset="0" style="mix-blend-mode: normal"><g data-paper-data="{&quot;index&quot;:null}"><g><g><path d="M233.36913,104.83507v-72.37713h24.91242v72.37713z" fill="#b06041" stroke="none" stroke-width="0" stroke-linecap="butt"/><path d="M233.50025,104.83507v-72.37713h4.72025v72.37713z" fill="#ab5c37" stroke="none" stroke-width="0" stroke-linecap="butt"/><path d="M253.43018,104.83507v-72.37713h4.72025v72.37713z" fill="#ab5c37" stroke="none" stroke-width="0" stroke-linecap="butt"/><path d="M251.59296,69.52063v-16.08381" fill="none" stroke="#ad6c4e" stroke-width="6" stroke-linecap="round"/><path d="M240.05457,74.24088v16.0838" fill="none" stroke="#ad6c4e" stroke-width="6" stroke-linecap="round"/><path d="M244.77481,48.01728v-15.55933v2.27271" fill="none" stroke="#ad6c4e" stroke-width="6" stroke-linecap="round"/></g><g fill="#ab5c37" stroke="none" stroke-linecap="butt"><path d="M255.87719,67.59756v-6.64331h22.20264v6.64331z" stroke-width="NaN"/><path d="M274.933,64.27591c0,-1.8345 1.48716,-3.32165 3.32166,-3.32165c1.8345,0 3.32165,1.48715 3.32165,3.32165c0,1.8345 -1.48715,3.32166 -3.32165,3.32166c-1.8345,0 -3.32166,-1.48716 -3.32166,-3.32166z" stroke-width="0"/></g><g fill="#ab5c37" stroke="none" stroke-linecap="butt"><path d="M274.84559,41.81102h6.64331v22.20265h-6.64331z" stroke-width="NaN"/><path d="M278.16724,60.86684c1.8345,0 3.32166,1.48716 3.32166,3.32166c0,1.83451 -1.48715,3.32165 -3.32166,3.32165c-1.8345,0 -3.32165,-1.48714 -3.32166,-3.32165c0,-1.83451 1.48715,-3.32166 3.32166,-3.32166z" stroke-width="0"/></g><path d="M233.39052,38.05231v-5.41954h24.65018v5.41954z" fill="#86482b" stroke="none" stroke-width="NaN" stroke-linecap="butt"/><path d="M274.99863,52.38788v-5.41955h6.46849v5.41955z" fill="#86482b" stroke="none" stroke-width="NaN" stroke-linecap="butt"/></g><g stroke="none" stroke-width="0" stroke-linecap="butt"><path d="M206.85262,25.79148c0,-11.45582 0,-31.38603 0,-37.76198c0,-3.86444 4.34883,-8.24902 8.5594,-8.24902c8.95844,0 43.12165,0 59.27409,0c5.21946,0 8.55829,4.46515 8.55829,8.38013c0,6.41747 0,26.36825 0,37.76198c0,4.88356 -3.33839,8.19508 -8.55829,8.19508c-16.1882,0 -50.47222,0 -59.39757,0c-4.1587,0 -8.43591,-3.37001 -8.43591,-8.3262z" fill="url(#color-1)"/><path d="M275.21891,25.4797c2.24938,-2.35778 5.98421,-2.44565 8.34199,-0.19628c2.35778,2.24938 2.44565,5.9842 0.19628,8.34199c-2.24938,2.35778 -5.9842,2.44566 -8.34199,0.19629c-2.35778,-2.24938 -2.44566,-5.98421 -0.19629,-8.34199z" fill="url(#color-2)"/><path d="M278.71747,20.53437c1.64954,-1.72904 4.38843,-1.79349 6.11747,-0.14394c1.72904,1.64954 1.79348,4.38843 0.14394,6.11747c-1.64954,1.72904 -4.38842,1.79348 -6.11746,0.14394c-1.72904,-1.64954 -1.79348,-4.38842 -0.14394,-6.11746z" fill="url(#color-3)"/><path d="M204.42294,30.33055c0.4393,-2.64317 2.93813,-4.42975 5.5813,-3.99045c2.64317,0.4393 4.42975,2.93813 3.99045,5.5813c-0.4393,2.64317 -2.93813,4.42975 -5.5813,3.99045c-2.64317,-0.4393 -4.42975,-2.93813 -3.99045,-5.5813z" fill="url(#color-4)"/><path d="M204.47903,23.31546c1.48946,-1.96045 4.28617,-2.34227 6.24663,-0.85281c1.96045,1.48946 2.34227,4.28617 0.85281,6.24663c-1.48946,1.96045 -4.28617,2.34227 -6.24663,0.85281c-1.96045,-1.48946 -2.34227,-4.28617 -0.85281,-6.24663z" fill="url(#color-5)"/><path d="M212.60835,30.65807c1.48946,-1.96046 4.28617,-2.34227 6.24663,-0.85281c1.96045,1.48946 2.34227,4.28617 0.8528,6.24662c-1.48946,1.96046 -4.28617,2.34227 -6.24662,0.85281c-1.96046,-1.48946 -2.34227,-4.28617 -0.85281,-6.24662z" fill="url(#color-6)"/><path d="M219.23944,11.93894c1.18282,-1.55685 3.40377,-1.86007 4.96062,-0.67724c1.55685,1.18282 1.86007,3.40377 0.67724,4.96062c-1.18282,1.55685 -3.40377,1.86007 -4.96062,0.67724c-1.55685,-1.18282 -1.86007,-3.40377 -0.67724,-4.96062z" fill="url(#color-7)"/><path d="M229.27205,23.92001c0.06936,-1.95399 1.7096,-3.48177 3.66359,-3.41241c1.95399,0.06936 3.48177,1.70959 3.41241,3.66359c-0.06936,1.95399 -1.70959,3.48177 -3.66359,3.41241c-1.95399,-0.06936 -3.48177,-1.70959 -3.41242,-3.66359z" fill="url(#color-8)"/><path d="M256.06315,9.79454c1.06368,-1.64057 3.2559,-2.10822 4.89647,-1.04454c1.64057,1.06368 2.10821,3.2559 1.04453,4.89647c-1.06368,1.64057 -3.2559,2.10821 -4.89647,1.04453c-1.64057,-1.06368 -2.10822,-3.2559 -1.04453,-4.89646z" fill="url(#color-9)"/><path d="M237.39954,0.00035c0.02798,-1.73775 1.45938,-3.12379 3.19713,-3.09581c1.73775,0.02798 3.12379,1.45938 3.09582,3.19713c-0.02798,1.73775 -1.45938,3.12379 -3.19713,3.09581c-1.73775,-0.02798 -3.12379,-1.45938 -3.09582,-3.19713z" fill="url(#color-10)"/><path d="M261.08815,21.24395c0.89558,-1.97916 3.226,-2.85756 5.20516,-1.96199c1.97916,0.89558 2.85757,3.226 1.962,5.20516c-0.89558,1.97916 -3.226,2.85757 -5.20516,1.962c-1.97916,-0.89558 -2.85756,-3.226 -1.96199,-5.20516z" fill="url(#color-11)"/></g><path d="M259.991,44.07661c0,-5.44916 0,-14.92933 0,-17.96216c0,-1.83819 2.0686,-3.92379 4.07143,-3.92379c4.26124,0 20.51158,0 28.19478,0c2.48273,0 4.0709,2.12393 4.0709,3.98616c0,3.05259 0,12.54253 0,17.96216c0,2.32295 -1.58797,3.89813 -4.0709,3.89813c-7.7002,0 -24.00801,0 -28.25351,0c-1.97816,0 -4.01269,-1.603 -4.01269,-3.9605z" fill="url(#color-12)" stroke="none" stroke-width="0" stroke-linecap="butt"/><path d="M287.37842,29.15146c1.45257,0.95425 1.85653,2.90536 0.90228,4.35793c-0.95425,1.45257 -2.90535,1.85653 -4.35793,0.90228c-1.45257,-0.95425 -1.85653,-2.90536 -0.90228,-4.35793c0.95425,-1.45257 2.90535,-1.85653 4.35793,-0.90228z" fill="url(#color-13)" stroke="none" stroke-width="0" stroke-linecap="butt"/><path d="M269.0245,35.83517c-1.08012,-1.36158 -0.85195,-3.34095 0.50963,-4.42108c1.36158,-1.08012 3.34096,-0.85195 4.42108,0.50963c1.08012,1.36158 0.85195,3.34095 -0.50963,4.42108c-1.36158,1.08012 -3.34096,0.85195 -4.42108,-0.50963z" fill="url(#color-14)" stroke="none" stroke-width="0" stroke-linecap="butt"/></g><g data-paper-data="{&quot;index&quot;:null}"><g><g><path d="M207.8238,115.21952v-57.55176h19.80948v57.55176z" fill="#b06041" stroke="none" stroke-width="0" stroke-linecap="butt"/><path d="M223.77565,115.21952v-57.55176h3.75338v57.55176z" fill="#ab5c37" stroke="none" stroke-width="0" stroke-linecap="butt"/><path d="M207.92806,115.21952v-57.55176h3.75338v57.55176z" fill="#ab5c37" stroke="none" stroke-width="0" stroke-linecap="butt"/><path d="M213.14234,74.34943v12.78928" fill="none" stroke="#ad6c4e" stroke-width="6" stroke-linecap="round"/><path d="M222.31726,90.89209v12.78928" fill="none" stroke="#ad6c4e" stroke-width="6" stroke-linecap="round"/><path d="M218.56388,70.04v-12.37224v1.80718" fill="none" stroke="#ad6c4e" stroke-width="6" stroke-linecap="round"/></g><g fill="#ab5c37" stroke="none" stroke-linecap="butt"><path d="M192.0809,85.60955v-5.28253h17.65477v5.28253z" stroke-width="NaN"/><path d="M191.94188,85.60955c-1.45873,0 -2.64126,-1.18253 -2.64126,-2.64126c0,-1.45873 1.18253,-2.64126 2.64126,-2.64126c1.45873,0 2.64126,1.18253 2.64126,2.64126c0,1.45873 -1.18253,2.64126 -2.64126,2.64126z" stroke-width="0"/></g><g fill="#ab5c37" stroke="none" stroke-linecap="butt"><path d="M194.65265,82.75977h-5.28253v-17.65477h5.28253z" stroke-width="NaN"/><path d="M194.65266,82.89878c0,1.45873 -1.18254,2.64126 -2.64127,2.64126c-1.45873,0 -2.64126,-1.18253 -2.64126,-2.64126c0,-1.45873 1.18253,-2.64126 2.64126,-2.64126c1.45873,0 2.64127,1.18253 2.64127,2.64126z" stroke-width="0"/></g><path d="M208.01531,62.1162v-4.30943h19.60096v4.30943z" fill="#86482b" stroke="none" stroke-width="NaN" stroke-linecap="butt"/><path d="M189.38745,73.51534v-4.30943h5.14351v4.30943z" fill="#86482b" stroke="none" stroke-width="NaN" stroke-linecap="butt"/></g><g stroke="none" stroke-width="0" stroke-linecap="butt"><path d="M248.71828,52.36682c0,3.94099 -3.40109,6.6207 -6.70794,6.6207c-7.09713,0 -34.35859,0 -47.23088,0c-4.15068,0 -6.80525,-2.6332 -6.80525,-6.51644c0,-9.05989 0,-24.92406 0,-30.02701c0,-3.11305 2.65492,-6.66359 6.80525,-6.66359c12.84386,0 40.00925,0 47.13268,0c3.3481,0 6.80614,3.48646 6.80614,6.55933c0,5.06993 0,20.91774 0,30.02701z" fill="url(#color-15)"/><path d="M194.19972,58.75216c-1.87482,1.78862 -4.84463,1.71875 -6.63326,-0.15608c-1.78862,-1.87482 -1.71875,-4.84463 0.15608,-6.63326c1.87482,-1.78862 4.84463,-1.71875 6.63326,0.15608c1.78862,1.87482 1.71875,4.84463 -0.15608,6.63326z" fill="url(#color-16)"/><path d="M191.45941,53.05094c-1.37487,1.31166 -3.55273,1.26041 -4.86439,-0.11446c-1.31165,-1.37487 -1.26041,-3.55273 0.11446,-4.86439c1.37487,-1.31166 3.55273,-1.26041 4.86439,0.11446c1.31165,1.37487 1.26041,3.55273 -0.11446,4.86439z" fill="url(#color-17)"/><path d="M247.47722,60.41418c-2.10175,0.34931 -4.08874,-1.07132 -4.43805,-3.17307c-0.34931,-2.10175 1.07132,-4.08874 3.17307,-4.43805c2.10175,-0.34931 4.08874,1.07132 4.43805,3.17307c0.34931,2.10175 -1.07132,4.08874 -3.17307,4.43805z" fill="url(#color-18)"/><path d="M249.92756,55.36508c-1.55889,1.18437 -3.78273,0.88076 -4.9671,-0.67813c-1.18437,-1.55889 -0.88076,-3.78273 0.67812,-4.9671c1.55889,-1.18437 3.78273,-0.88076 4.9671,0.67813c1.18437,1.55889 0.88076,3.78273 -0.67812,4.9671z" fill="url(#color-19)"/><path d="M244.14153,56.23656c1.18437,1.55889 0.88077,3.78273 -0.67812,4.9671c-1.55889,1.18437 -3.78273,0.88076 -4.9671,-0.67813c-1.18437,-1.55889 -0.88076,-3.78273 0.67812,-4.9671c1.55889,-1.18437 3.78273,-0.88076 4.9671,0.67813z" fill="url(#color-20)"/><path d="M238.3302,45.29628c-1.23796,0.94054 -3.00397,0.69944 -3.94451,-0.53852c-0.94054,-1.23796 -0.69944,-3.00397 0.53852,-3.94451c1.23796,-0.94054 3.00397,-0.69944 3.94451,0.53852c0.94054,1.23796 0.69944,3.00397 -0.53852,3.94451z" fill="url(#color-21)"/><path d="M228.17771,53.79185c-1.55374,0.05515 -2.858,-1.15969 -2.91316,-2.71343c-0.05515,-1.55374 1.15969,-2.858 2.71343,-2.91316c1.55374,-0.05515 2.858,1.15969 2.91316,2.71343c0.05515,1.55374 -1.15969,2.858 -2.71343,2.91316z" fill="url(#color-22)"/><path d="M208.75722,43.54011c-1.30452,0.8458 -3.0477,0.47394 -3.8935,-0.83058c-0.84581,-1.30452 -0.47395,-3.0477 0.83057,-3.8935c1.30452,-0.8458 3.0477,-0.47394 3.8935,0.83058c0.84581,1.30452 0.47395,3.0477 -0.83057,3.8935z" fill="url(#color-23)"/><path d="M221.96676,34.40086c-1.3818,0.02225 -2.52,-1.07988 -2.54224,-2.46168c-0.02225,-1.3818 1.07988,-2.52 2.46168,-2.54224c1.3818,-0.02225 2.52,1.07988 2.54224,2.46168c0.02225,1.3818 -1.07988,2.52 -2.46168,2.54224z" fill="url(#color-24)"/><path d="M204.03198,52.88975c-1.57376,0.71213 -3.42683,0.01365 -4.13896,-1.56011c-0.71213,-1.57376 -0.01365,-3.42683 1.56011,-4.13896c1.57376,-0.71213 3.42683,-0.01365 4.13896,1.56011c0.71213,1.57376 0.01365,3.42683 -1.56011,4.13896z" fill="url(#color-25)"/></g><path d="M206.4645,66.90652c0,1.8746 -1.61779,3.14925 -3.19075,3.14925c-3.37587,0 -16.34327,0 -22.4662,0c-1.97435,0 -3.23704,-1.25253 -3.23704,-3.09966c0,-4.3095 0,-11.85557 0,-14.28288c0,-1.48078 1.26286,-3.16966 3.23704,-3.16966c6.10941,0 19.03111,0 22.4195,0c1.59258,0 3.23746,1.6584 3.23746,3.12006c0,2.4116 0,9.9499 0,14.28288z" fill="url(#color-26)" stroke="none" stroke-width="0" stroke-linecap="butt"/><path d="M188.15226,55.75601c0.75879,1.15503 0.43757,2.70649 -0.71746,3.46528c-1.15504,0.75879 -2.70649,0.43757 -3.46528,-0.71746c-0.75879,-1.15503 -0.43757,-2.70649 0.71746,-3.46528c1.15504,-0.75879 2.70649,-0.43757 3.46528,0.71746z" fill="url(#color-27)" stroke="none" stroke-width="0" stroke-linecap="butt"/><path d="M195.7659,60.75845c-1.08268,-0.85887 -1.26411,-2.43281 -0.40524,-3.51549c0.85887,-1.08268 2.43281,-1.26411 3.51549,-0.40524c1.08268,0.85887 1.26411,2.43281 0.40524,3.51549c-0.85887,1.08268 -2.43281,1.26411 -3.51549,0.40524z" fill="url(#color-28)" stroke="none" stroke-width="0" stroke-linecap="butt"/></g><g data-paper-data="{&quot;index&quot;:null}"><g><g><path d="M95.13981,176.97652l-35.58911,-133.33197l45.89326,-12.24988l35.58911,133.33197z" fill="#b06041" stroke="none" stroke-width="0" stroke-linecap="butt"/><path d="M132.09596,167.11214l-35.58912,-133.33197l8.69556,-2.32103l35.58912,133.33197z" fill="#ab5c37" stroke="none" stroke-width="0" stroke-linecap="butt"/><path d="M95.38136,176.91204l-35.58911,-133.33197l8.69556,-2.32103l35.58911,133.33197z" fill="#ab5c37" stroke="none" stroke-width="0" stroke-linecap="butt"/><path d="M82.18799,79.0026l7.90869,29.62932" fill="none" stroke="#ad6c4e" stroke-width="6" stroke-linecap="round"/><path d="M113.67355,111.65387l7.90869,29.62932" fill="none" stroke="#ad6c4e" stroke-width="6" stroke-linecap="round"/><path d="M85.5501,41.18981l-1.11753,-4.18675l7.6508,28.66315" fill="none" stroke="#ad6c4e" stroke-width="6" stroke-linecap="round"/></g><g fill="#ab5c37" stroke="none" stroke-linecap="butt"><path d="M40.35739,118.11335l-3.26664,-12.2382l40.90135,-10.91744l3.26664,12.2382z" stroke-width="NaN"/><path d="M40.03532,118.19932c-3.37948,0.90206 -6.85035,-1.1063 -7.75241,-4.48578c-0.90206,-3.37948 1.1063,-6.85035 4.48578,-7.75241c3.37948,-0.90206 6.85035,1.1063 7.75241,4.48578c0.90206,3.37948 -1.1063,6.85035 -4.48578,7.75241z" stroke-width="0"/></g><g fill="#ab5c37" stroke="none" stroke-linecap="butt"><path d="M44.55319,109.92084l-12.2382,3.26663l-10.91744,-40.90136l12.2382,-3.26663z" stroke-width="NaN"/><path d="M44.63916,110.24289c0.90205,3.37949 -1.10631,6.85036 -4.48579,7.75241c-3.37949,0.90206 -6.85035,-1.10629 -7.75241,-4.48578c-0.90206,-3.37948 1.1063,-6.85035 4.48578,-7.75241c3.37949,-0.90206 6.85036,1.10629 7.75242,4.48578z" stroke-width="0"/></g><path d="M62.74522,53.83197l-2.66488,-9.9838l45.41016,-12.12093l2.66488,9.9838z" fill="#86482b" stroke="none" stroke-width="NaN" stroke-linecap="butt"/><path d="M26.63851,91.75991l-2.66488,-9.98379l11.91614,-3.18067l2.66488,9.98379z" fill="#86482b" stroke="none" stroke-width="NaN" stroke-linecap="butt"/></g><g stroke="none" stroke-width="0" stroke-linecap="butt"><path d="M151.01419,6.07518c2.43705,9.1302 -3.78527,17.44156 -11.44636,19.48646c-16.44214,4.38875 -79.59962,21.24682 -109.42125,29.20684c-9.61602,2.56672 -17.39427,-1.89215 -19.79561,-10.88857c-5.6025,-20.98934 -15.41265,-57.74234 -18.56823,-69.56451c-1.92507,-7.2121 2.03006,-17.07951 11.64528,-19.64601c29.75577,-7.94244 92.69068,-24.7411 109.19377,-29.14612c7.75665,-2.07041 17.92396,3.86838 19.82418,10.98739c3.13516,11.74567 12.93521,48.46078 18.56823,69.56451z" fill="url(#color-29)"/><path d="M28.65792,54.58175c-3.23741,5.30312 -10.16087,6.97772 -15.464,3.74032c-5.30312,-3.23741 -6.97772,-10.16086 -3.74032,-15.46399c3.23741,-5.30312 10.16087,-6.97772 15.464,-3.74032c5.30312,3.23741 6.97772,10.16087 3.74032,15.464z" fill="url(#color-30)"/><path d="M18.78382,43.06812c-2.3741,3.88896 -7.45131,5.11699 -11.34027,2.7429c-3.88895,-2.3741 -5.11699,-7.45131 -2.7429,-11.34027c2.3741,-3.88896 7.45131,-5.11699 11.34027,-2.7429c3.88895,2.3741 5.11699,7.45131 2.7429,11.34027z" fill="url(#color-31)"/><path d="M153.11534,25.48622c-4.65319,2.10896 -10.135,0.04646 -12.24396,-4.60673c-2.10896,-4.65319 -0.04646,-10.135 4.60673,-12.24396c4.65319,-2.10896 10.13499,-0.04647 12.24396,4.60672c2.10896,4.65319 0.04647,10.135 -4.60672,12.24396z" fill="url(#color-32)"/><path d="M155.66983,12.27355c-2.87913,3.70785 -8.21893,4.37966 -11.92678,1.50054c-3.70785,-2.87913 -4.37967,-8.21892 -1.50055,-11.92677c2.87913,-3.70785 8.21893,-4.37967 11.92678,-1.50054c3.70785,2.87913 4.37967,8.21892 1.50055,11.92678z" fill="url(#color-33)"/><path d="M142.80407,17.87053c3.70785,2.87913 4.37968,8.21891 1.50055,11.92677c-2.87913,3.70785 -8.21891,4.37968 -11.92677,1.50054c-3.70785,-2.87913 -4.37968,-8.21891 -1.50055,-11.92676c2.87914,-3.70786 8.21892,-4.37967 11.92679,-1.50054z" fill="url(#color-34)"/><path d="M122.57549,-3.88153c-2.28639,2.94452 -6.52688,3.47802 -9.4714,1.19162c-2.94452,-2.28639 -3.47802,-6.52688 -1.19162,-9.4714c2.28639,-2.94452 6.52688,-3.47802 9.4714,-1.19162c2.94452,2.28639 3.47802,6.52688 1.19162,9.4714z" fill="url(#color-35)"/><path d="M104.30842,22.07858c-3.56549,1.08859 -7.33836,-0.91934 -8.42695,-4.48484c-1.08858,-3.5655 0.91934,-7.33836 4.48484,-8.42695c3.56549,-1.08859 7.33836,0.91934 8.42695,4.48485c1.08858,3.5655 -0.91934,7.33836 -4.48484,8.42695z" fill="url(#color-36)"/><path d="M52.97685,10.33738c-2.4992,2.76619 -6.76762,2.98265 -9.53381,0.48346c-2.7662,-2.49919 -2.98265,-6.76761 -0.48347,-9.5338c2.4992,-2.76619 6.76762,-2.98265 9.53381,-0.48346c2.7662,2.49919 2.98266,6.76761 0.48347,9.5338z" fill="url(#color-37)"/><path d="M77.92824,-19.00439c-3.1875,0.90602 -6.50595,-0.94347 -7.41196,-4.13096c-0.90601,-3.18751 0.94348,-6.50595 4.13097,-7.41196c3.1875,-0.90602 6.50594,0.94348 7.41196,4.13097c0.90601,3.18751 -0.94347,6.50594 -4.13096,7.41196z" fill="url(#color-38)"/><path d="M47.81143,34.91999c-3.20561,2.62301 -7.93061,2.15073 -10.55361,-1.05488c-2.623,-3.20562 -2.15074,-7.93061 1.05488,-10.55362c3.20561,-2.62301 7.93061,-2.15073 10.55362,1.05488c2.623,3.20562 2.15073,7.93061 -1.05488,10.55361z" fill="url(#color-39)"/></g><path d="M62.11466,65.88884c1.15922,4.34295 -1.80054,8.29639 -5.44467,9.26909c-7.82099,2.08759 -37.86297,10.10642 -52.04815,13.89275c-4.57403,1.2209 -8.27389,-0.90003 -9.41613,-5.17934c-2.66493,-9.98395 -7.33131,-27.46617 -8.83231,-33.08959c-0.91569,-3.43057 0.96564,-8.12417 5.53928,-9.34498c14.15387,-3.77797 44.08997,-11.76854 51.93995,-13.86387c3.68958,-0.98483 8.52586,1.84006 9.42973,5.22634c1.49129,5.58703 6.15287,23.05124 8.83231,33.0896z" fill="url(#color-40)" stroke="none" stroke-width="0" stroke-linecap="butt"/><path d="M12.79483,51.38014c2.47217,2.20668 2.68739,5.99962 0.48071,8.47177c-2.20669,2.47217 -5.99962,2.68739 -8.47178,0.48071c-2.47217,-2.20668 -2.68739,-5.99962 -0.48071,-8.47178c2.20669,-2.47217 5.99962,-2.68739 8.47178,-0.48071z" fill="url(#color-41)" stroke="none" stroke-width="0" stroke-linecap="butt"/><path d="M33.527,58.26128c-3.03939,-1.32026 -4.43302,-4.85445 -3.11275,-7.89384c1.32026,-3.0394 4.85445,-4.43302 7.89384,-3.11275c3.03939,1.32026 4.43302,4.85445 3.11275,7.89384c-1.32026,3.0394 -4.85445,4.43302 -7.89384,3.11275z" fill="url(#color-42)" stroke="none" stroke-width="0" stroke-linecap="butt"/></g><g stroke="none" stroke-width="0" stroke-linecap="butt"><path d="M111.29088,98.21656c4.10024,-6.73111 16.15301,-26.5174 18.83281,-30.91667c1.02782,-1.68731 2.03049,-2.4937 2.03049,-1.5c0,4.32108 0,34.66667 0,34.66667c0,0 -17.11565,0 -20.30492,0c-0.983,0 -1.41875,-0.83759 -0.55839,-2.25z" fill="#e6e6e6"/><path d="M152.15075,100.63323c-3.18927,0 -20.30492,0 -20.30492,0c0,0 0,-30.3456 0,-34.66667c0,-0.99371 1.00267,-0.18731 2.03049,1.5c2.67981,4.39927 14.73257,24.18556 18.83281,30.91667c0.86037,1.41241 0.42461,2.25 -0.55839,2.25z" data-paper-data="{&quot;index&quot;:null}" fill="#d9d9d9"/><g><g><path d="M111.29089,98.21656c4.10024,-6.73111 16.15301,-26.5174 18.83281,-30.91667c1.02782,-1.68731 2.03049,-2.4937 2.03049,-1.5c0,4.32108 0,34.66667 0,34.66667c0,0 -17.11565,0 -20.30492,0c-0.983,0 -1.41875,-0.83759 -0.55839,-2.25z" fill="#cc0000"/><path d="M152.15076,100.63323c-3.18927,0 -20.30492,0 -20.30492,0c0,0 0,-30.3456 0,-34.66667c0,-0.99371 1.00267,-0.18731 2.03049,1.5c2.67981,4.39927 14.73257,24.18556 18.83281,30.91667c0.86037,1.41241 0.42461,2.25 -0.55839,2.25z" data-paper-data="{&quot;index&quot;:null}" fill="#a60000"/></g><path d="M117.7579,100.36551l-5.64199,-3.67253l2.15634,-3.44879l10.00118,7.24271z" fill="#ffffff"/></g></g><g stroke="none" stroke-width="0" stroke-linecap="butt"><path d="M12.23984,148.52266c-6.73111,-4.10024 -26.5174,-16.15301 -30.91667,-18.83281c-1.68731,-1.02782 -2.4937,-2.03049 -1.5,-2.03049c4.32108,0 34.66667,0 34.66667,0c0,0 0,17.11565 0,20.30492c0,0.983 -0.83759,1.41875 -2.25,0.55839z" fill="#e6e6e6"/><path d="M14.65651,107.66279c0,3.18927 0,20.30492 0,20.30492c0,0 -30.3456,0 -34.66667,0c-0.99371,0 -0.18731,-1.00267 1.5,-2.03049c4.39927,-2.67981 24.18556,-14.73257 30.91667,-18.83281c1.41241,-0.86037 2.25,-0.42461 2.25,0.55839z" data-paper-data="{&quot;index&quot;:null}" fill="#d9d9d9"/><g><g><path d="M12.23984,148.52265c-6.73111,-4.10024 -26.5174,-16.15301 -30.91667,-18.83281c-1.68731,-1.02782 -2.4937,-2.03049 -1.5,-2.03049c4.32108,0 34.66667,0 34.66667,0c0,0 0,17.11565 0,20.30492c0,0.983 -0.83759,1.41875 -2.25,0.55839z" fill="#cc0000"/><path d="M14.65651,107.66278c0,3.18927 0,20.30492 0,20.30492c0,0 -30.3456,0 -34.66667,0c-0.99371,0 -0.18731,-1.00267 1.5,-2.03049c4.39927,-2.67981 24.18556,-14.73257 30.91667,-18.83281c1.41241,-0.86037 2.25,-0.42461 2.25,0.55839z" data-paper-data="{&quot;index&quot;:null}" fill="#a60000"/></g><path d="M14.38879,142.05564l-3.67253,5.64199l-3.44879,-2.15634l7.24271,-10.00118z" fill="#ffffff"/></g></g><path d="M0.92737,259.79614v-126.80064h482v126.80064c0,0 3.04395,11.50266 2.78869,27.19831c-0.54811,33.70223 -5.46494,86.73668 -12.08239,86.73668c-42.80024,0 -220.12154,90.07692 -294.28691,75.73319c-5.8662,-1.13454 3.61799,-188.16902 -1.50889,-188.16902c-74.8198,0 -176.9105,-1.49914 -176.9105,-1.49914z" fill="#4eaad2" stroke="none" stroke-width="0" stroke-linecap="butt"/><path d="M482.87182,103.00751v59h-461.94444v-59z" fill="#5ecfff" stroke="none" stroke-width="0" stroke-linecap="butt"/><path d="M54.85117,119.90751c0,11.95934 0,24.21448 0,30.83334c0,4.95926 -4.77905,11 -11.5,11c-7.54753,0 -42.41517,0 -42.41517,0l-0.43337,-53.50001c0,0 38.91264,0 42.18187,0c5.44652,0 12.16667,4.90772 12.16667,11.66666z" fill="#9ce1ff" stroke="none" stroke-width="0" stroke-linecap="butt"/><path d="M2.70239,103.00815h-2.62674h482.80781h-1.68348" fill="none" stroke="#ffffff" stroke-width="12" stroke-linecap="round"/><path d="M274.31627,120.10288c0,10.35672 0,20.96962 0,26.70151c0,4.2947 -4.13863,9.52594 -9.95894,9.52594c-11.11946,0 -49.59366,0 -55.85668,0c-4.50871,0 -11.40227,-4.24585 -11.69093,-10.68061c-0.19829,-4.42017 -0.11643,-16.51255 0,-24.39219c0.07546,-5.10689 6.31612,-11.25793 12.55693,-11.25793c11.62281,0 50.20867,0 54.41335,0c4.71666,0 10.53628,4.25007 10.53628,10.10327z" fill="#79d7ff" stroke="none" stroke-width="0" stroke-linecap="butt"/><path d="M153.19014,180.65843c0,10.35672 0,20.96962 0,26.70152c0,4.2947 -4.13864,9.52594 -9.95895,9.52594c-11.11946,0 -49.59365,0 -55.85667,0c-4.50871,0 -11.40226,-4.24584 -11.69093,-10.68061c-0.19829,-4.42017 -0.11643,-16.51254 0,-24.39219c0.07546,-5.10689 6.31612,-11.25793 12.55693,-11.25793c11.62282,0 50.20867,0 54.41335,0c4.71666,0 10.53627,4.25006 10.53627,10.10327z" fill="#4597ba" stroke="none" stroke-width="0" stroke-linecap="butt"/><path d="M347.37932,205.17795c0,10.35672 0,20.96962 0,26.70152c0,4.2947 -4.13864,9.52594 -9.95895,9.52594c-11.11946,0 -49.59366,0 -55.85667,0c-4.50871,0 -11.40226,-4.24585 -11.69093,-10.68061c-0.19829,-4.42017 -0.11643,-16.51254 0,-24.39219c0.07546,-5.10689 6.31612,-11.25794 12.55693,-11.25794c11.62282,0 50.20867,0 54.41335,0c4.71666,0 10.53627,4.25006 10.53627,10.10327z" fill="#479cc0" stroke="none" stroke-width="0" stroke-linecap="butt"/></g></g></svg>