<svg version="1.1" xmlns="http://www.w3.org/2000/svg" xmlns:xlink="http://www.w3.org/1999/xlink" width="557.05706" height="405.40541" viewBox="0,0,557.05706,405.40541"><defs><linearGradient x1="248.003" y1="95.66066" x2="248.003" y2="358.42342" gradientUnits="userSpaceOnUse" id="color-1"><stop offset="0" stop-color="#312a40"/><stop offset="1" stop-color="#000000"/></linearGradient><linearGradient x1="333.09309" y1="171.74174" x2="333.09309" y2="434.5045" gradientUnits="userSpaceOnUse" id="color-2"><stop offset="0" stop-color="#312a40"/><stop offset="1" stop-color="#000000"/></linearGradient><linearGradient x1="162.41742" y1="139.53829" x2="162.41742" y2="402.30105" gradientUnits="userSpaceOnUse" id="color-3"><stop offset="0" stop-color="#312a40"/><stop offset="1" stop-color="#000000"/></linearGradient><linearGradient x1="100.36036" y1="194.59835" x2="100.36036" y2="457.36111" gradientUnits="userSpaceOnUse" id="color-4"><stop offset="0" stop-color="#312a40"/><stop offset="1" stop-color="#000000"/></linearGradient><linearGradient x1="235.4955" y1="341.66517" x2="235.4955" y2="443.76727" gradientUnits="userSpaceOnUse" id="color-5"><stop offset="0" stop-color="#312a40"/><stop offset="1" stop-color="#000000"/></linearGradient></defs><g transform="translate(29.51952,22.3403)"><g data-paper-data="{&quot;isPaintingLayer&quot;:true}" fill-rule="nonzero" stroke="none" stroke-width="0" stroke-linecap="butt" stroke-linejoin="miter" stroke-miterlimit="10" stroke-dasharray="" stroke-dashoffset="0" style="mix-blend-mode: normal"><path d="M-29.51952,383.06511v-405.40541h557.05706v405.40541z" fill="#071723"/><path d="M182.68769,265.33033c0,0 0,-193.8358 0,-234.23423c0,-14.0987 15.10051,-28.52853 27.02702,-28.52853c13.68379,0 46.90818,0 72.07208,0c17.77718,0 31.53153,13.56667 31.53153,27.02702c0,39.753 0,235.73574 0,235.73574z" fill="url(#color-1)"/><path d="M267.77778,341.41141c0,0 0,-193.8358 0,-234.23423c0,-14.09869 15.10052,-28.52853 27.02702,-28.52853c13.6838,0 46.90818,0 72.07208,0c17.77718,0 31.53153,13.56667 31.53153,27.02702c0,39.753 0,235.73574 0,235.73574z" fill="url(#color-2)"/><path d="M97.1021,309.20796c0,0 0,-193.83581 0,-234.23424c0,-14.09869 15.10051,-28.52853 27.02702,-28.52853c13.6838,0 46.90818,0 72.07207,0c17.77718,0 31.53153,13.56667 31.53153,27.02702c0,39.753 0,235.73574 0,235.73574z" fill="url(#color-3)"/><path d="M35.04505,364.26802c0,0 0,-193.8358 0,-234.23423c0,-14.0987 15.10052,-28.52853 27.02703,-28.52853c13.68379,0 46.90818,0 72.07207,0c17.77718,0 31.53153,13.56668 31.53153,27.02703c0,39.753 0,235.73574 0,235.73574z" fill="url(#color-4)"/><path d="M-8.4985,365.68919v-102.1021h487.98799v102.1021z" fill="url(#color-5)"/><path d="M163.16817,281.0961l-11.58418,-18.16466l5.49398,-0.14662c0,0 3.27959,-0.74893 4.66327,-2.85341c1.38368,-2.10448 1.54784,-4.88179 1.54784,-4.88179c0,0 0.25418,-51.58276 0.25418,-60.76226c0,-7.18135 6.62638,-15.29336 13.81326,-15.29336c18.19116,0 98.17131,0 129.40735,0c7.79994,0 12.56045,6.75418 12.56045,13.0428c0,8.56153 0,64.51613 0,64.51613c0,0 0.2377,4.14129 1.36736,5.15204c1.2363,1.10616 5.75942,1.22455 5.75942,1.22455l-7.12678,18.16658z" fill="#312a40"/></g></g></svg>