<svg version="1.1" xmlns="http://www.w3.org/2000/svg" xmlns:xlink="http://www.w3.org/1999/xlink" width="493.92308" height="417.64957" viewBox="0,0,493.92308,417.64957"><defs><linearGradient x1="239.35143" y1="51.87065" x2="246.63142" y2="78.10897" gradientUnits="userSpaceOnUse" id="color-1"><stop offset="0" stop-color="#4ec3ff"/><stop offset="1" stop-color="#3b93bf"/></linearGradient><linearGradient x1="385.92405" y1="129.13142" x2="388.93772" y2="172.70232" gradientUnits="userSpaceOnUse" id="color-2"><stop offset="0" stop-color="#86f5bf"/><stop offset="1" stop-color="#5bc8f5"/></linearGradient><linearGradient x1="415.28312" y1="193.91734" x2="411.1472" y2="199.98154" gradientUnits="userSpaceOnUse" id="color-3"><stop offset="0" stop-color="#6bc399"/><stop offset="1" stop-color="#55b6e6"/></linearGradient><linearGradient x1="414.9239" y1="191.30208" x2="411.89088" y2="195.74916" gradientUnits="userSpaceOnUse" id="color-4"><stop offset="0" stop-color="#6bc399"/><stop offset="1" stop-color="#55b6e6"/></linearGradient><linearGradient x1="370.95557" y1="186.63096" x2="370.58621" y2="194.15341" gradientUnits="userSpaceOnUse" id="color-5"><stop offset="0" stop-color="#6bc399"/><stop offset="1" stop-color="#55b6e6"/></linearGradient><linearGradient x1="372.82743" y1="185.31272" x2="370.16895" y2="190.48747" gradientUnits="userSpaceOnUse" id="color-6"><stop offset="0" stop-color="#6bc399"/><stop offset="1" stop-color="#55b6e6"/></linearGradient><linearGradient x1="377.83487" y1="191.98121" x2="375.17639" y2="197.15595" gradientUnits="userSpaceOnUse" id="color-7"><stop offset="0" stop-color="#6bc399"/><stop offset="1" stop-color="#55b6e6"/></linearGradient><linearGradient x1="379.4297" y1="178.40641" x2="377.31854" y2="182.51584" gradientUnits="userSpaceOnUse" id="color-8"><stop offset="0" stop-color="#6bc399"/><stop offset="1" stop-color="#55b6e6"/></linearGradient><linearGradient x1="383.15399" y1="185.52965" x2="383.40433" y2="191.17949" gradientUnits="userSpaceOnUse" id="color-9"><stop offset="0" stop-color="#6bc399"/><stop offset="1" stop-color="#55b6e6"/></linearGradient><linearGradient x1="399.90042" y1="179.7141" x2="398.05019" y2="184.10802" gradientUnits="userSpaceOnUse" id="color-10"><stop offset="0" stop-color="#6bc399"/><stop offset="1" stop-color="#55b6e6"/></linearGradient><linearGradient x1="386.14979" y1="167.78894" x2="386.44148" y2="172.82527" gradientUnits="userSpaceOnUse" id="color-11"><stop offset="0" stop-color="#6bc399"/><stop offset="1" stop-color="#55b6e6"/></linearGradient><linearGradient x1="403.20027" y1="187.90762" x2="401.76253" y2="193.34321" gradientUnits="userSpaceOnUse" id="color-12"><stop offset="0" stop-color="#6bc399"/><stop offset="1" stop-color="#55b6e6"/></linearGradient><linearGradient x1="408.06641" y1="181.54887" x2="409.4999" y2="202.27414" gradientUnits="userSpaceOnUse" id="color-13"><stop offset="0" stop-color="#86f5bf"/><stop offset="1" stop-color="#5bc8f5"/></linearGradient><linearGradient x1="417.70058" y1="207.8163" x2="414.53229" y2="204.54017" gradientUnits="userSpaceOnUse" id="color-14"><stop offset="0" stop-color="#6bc399"/><stop offset="1" stop-color="#55b6e6"/></linearGradient><linearGradient x1="402.82901" y1="198.75837" x2="405.31587" y2="203.08776" gradientUnits="userSpaceOnUse" id="color-15"><stop offset="0" stop-color="#6bc399"/><stop offset="1" stop-color="#55b6e6"/></linearGradient><linearGradient x1="405.52903" y1="64.24102" x2="384.34018" y2="132.69201" gradientUnits="userSpaceOnUse" id="color-16"><stop offset="0" stop-color="#86f5bf"/><stop offset="1" stop-color="#5bc8f5"/></linearGradient><linearGradient x1="432.1417" y1="176.65665" x2="418.55069" y2="184.23625" gradientUnits="userSpaceOnUse" id="color-17"><stop offset="0" stop-color="#6bc399"/><stop offset="1" stop-color="#55b6e6"/></linearGradient><linearGradient x1="432.99691" y1="172.47178" x2="423.03015" y2="178.03015" gradientUnits="userSpaceOnUse" id="color-18"><stop offset="0" stop-color="#6bc399"/><stop offset="1" stop-color="#55b6e6"/></linearGradient><linearGradient x1="333.30714" y1="146.47507" x2="327.57054" y2="157.91269" gradientUnits="userSpaceOnUse" id="color-19"><stop offset="0" stop-color="#6bc399"/><stop offset="1" stop-color="#55b6e6"/></linearGradient><linearGradient x1="338.5342" y1="145.24328" x2="328.97089" y2="152.08343" gradientUnits="userSpaceOnUse" id="color-20"><stop offset="0" stop-color="#6bc399"/><stop offset="1" stop-color="#55b6e6"/></linearGradient><linearGradient x1="345.91178" y1="157.66313" x2="336.34853" y2="164.50328" gradientUnits="userSpaceOnUse" id="color-21"><stop offset="0" stop-color="#6bc399"/><stop offset="1" stop-color="#55b6e6"/></linearGradient><linearGradient x1="358.43252" y1="137.41996" x2="350.83809" y2="142.85195" gradientUnits="userSpaceOnUse" id="color-22"><stop offset="0" stop-color="#6bc399"/><stop offset="1" stop-color="#55b6e6"/></linearGradient><linearGradient x1="362.51791" y1="149.99226" x2="359.44221" y2="158.80825" gradientUnits="userSpaceOnUse" id="color-23"><stop offset="0" stop-color="#6bc399"/><stop offset="1" stop-color="#55b6e6"/></linearGradient><linearGradient x1="405.40772" y1="148.18689" x2="398.23854" y2="154.16896" gradientUnits="userSpaceOnUse" id="color-24"><stop offset="0" stop-color="#6bc399"/><stop offset="1" stop-color="#55b6e6"/></linearGradient><linearGradient x1="381.01054" y1="123.92642" x2="378.42899" y2="131.81439" gradientUnits="userSpaceOnUse" id="color-25"><stop offset="0" stop-color="#6bc399"/><stop offset="1" stop-color="#55b6e6"/></linearGradient><linearGradient x1="407.80811" y1="162.22752" x2="400.9277" y2="169.99164" gradientUnits="userSpaceOnUse" id="color-26"><stop offset="0" stop-color="#6bc399"/><stop offset="1" stop-color="#55b6e6"/></linearGradient><linearGradient x1="423.29589" y1="154.50608" x2="413.21703" y2="187.06598" gradientUnits="userSpaceOnUse" id="color-27"><stop offset="0" stop-color="#86f5bf"/><stop offset="1" stop-color="#5bc8f5"/></linearGradient><linearGradient x1="428.78423" y1="199.11474" x2="423.50526" y2="192.7103" gradientUnits="userSpaceOnUse" id="color-28"><stop offset="0" stop-color="#6bc399"/><stop offset="1" stop-color="#55b6e6"/></linearGradient><linearGradient x1="399.9107" y1="178.79477" x2="402.9154" y2="186.53148" gradientUnits="userSpaceOnUse" id="color-29"><stop offset="0" stop-color="#6bc399"/><stop offset="1" stop-color="#55b6e6"/></linearGradient><linearGradient x1="90.79943" y1="-19.64137" x2="90.79943" y2="79.14643" gradientUnits="userSpaceOnUse" id="color-30"><stop offset="0" stop-color="#86f5bf"/><stop offset="1" stop-color="#5bc8f5"/></linearGradient><linearGradient x1="9.9218" y1="117.56029" x2="24.7311" y2="133.08328" gradientUnits="userSpaceOnUse" id="color-31"><stop offset="0" stop-color="#6bc399"/><stop offset="1" stop-color="#55b6e6"/></linearGradient><linearGradient x1="10.50156" y1="111.70017" x2="21.36174" y2="123.08371" gradientUnits="userSpaceOnUse" id="color-32"><stop offset="0" stop-color="#6bc399"/><stop offset="1" stop-color="#55b6e6"/></linearGradient><linearGradient x1="152.39075" y1="118.10347" x2="155.283" y2="135.50543" gradientUnits="userSpaceOnUse" id="color-33"><stop offset="0" stop-color="#6bc399"/><stop offset="1" stop-color="#55b6e6"/></linearGradient><linearGradient x1="146.00889" y1="114.35029" x2="155.81517" y2="127.25743" gradientUnits="userSpaceOnUse" id="color-34"><stop offset="0" stop-color="#6bc399"/><stop offset="1" stop-color="#55b6e6"/></linearGradient><linearGradient x1="131.22939" y1="127.69952" x2="141.03564" y2="140.60667" gradientUnits="userSpaceOnUse" id="color-35"><stop offset="0" stop-color="#6bc399"/><stop offset="1" stop-color="#55b6e6"/></linearGradient><linearGradient x1="122.99224" y1="95.93499" x2="130.7796" y2="106.18494" gradientUnits="userSpaceOnUse" id="color-36"><stop offset="0" stop-color="#6bc399"/><stop offset="1" stop-color="#55b6e6"/></linearGradient><linearGradient x1="112.48641" y1="110.82715" x2="112.94303" y2="123.69166" gradientUnits="userSpaceOnUse" id="color-37"><stop offset="0" stop-color="#6bc399"/><stop offset="1" stop-color="#55b6e6"/></linearGradient><linearGradient x1="56.7367" y1="90.96447" x2="63.73976" y2="101.76551" gradientUnits="userSpaceOnUse" id="color-38"><stop offset="0" stop-color="#6bc399"/><stop offset="1" stop-color="#55b6e6"/></linearGradient><linearGradient x1="98.75803" y1="68.9596" x2="98.94222" y2="80.40045" gradientUnits="userSpaceOnUse" id="color-39"><stop offset="0" stop-color="#6bc399"/><stop offset="1" stop-color="#55b6e6"/></linearGradient><linearGradient x1="47.85141" y1="108.47734" x2="53.74765" y2="121.50759" gradientUnits="userSpaceOnUse" id="color-40"><stop offset="0" stop-color="#6bc399"/><stop offset="1" stop-color="#55b6e6"/></linearGradient><linearGradient x1="30.6019" y1="91.99426" x2="30.6019" y2="138.98441" gradientUnits="userSpaceOnUse" id="color-41"><stop offset="0" stop-color="#86f5bf"/><stop offset="1" stop-color="#5bc8f5"/></linearGradient><linearGradient x1="5.18802" y1="148.50626" x2="14.75131" y2="142.22372" gradientUnits="userSpaceOnUse" id="color-42"><stop offset="0" stop-color="#6bc399"/><stop offset="1" stop-color="#55b6e6"/></linearGradient><linearGradient x1="51.49824" y1="133.5159" x2="44.38701" y2="142.48018" gradientUnits="userSpaceOnUse" id="color-43"><stop offset="0" stop-color="#6bc399"/><stop offset="1" stop-color="#55b6e6"/></linearGradient><linearGradient x1="146.96277" y1="54.90504" x2="146.96277" y2="126.56049" gradientUnits="userSpaceOnUse" id="color-44"><stop offset="0" stop-color="#86f5bf"/><stop offset="1" stop-color="#5bc8f5"/></linearGradient><linearGradient x1="205.62713" y1="154.42387" x2="194.88523" y2="165.68344" gradientUnits="userSpaceOnUse" id="color-45"><stop offset="0" stop-color="#6bc399"/><stop offset="1" stop-color="#55b6e6"/></linearGradient><linearGradient x1="205.2066" y1="150.17326" x2="197.32919" y2="158.43028" gradientUnits="userSpaceOnUse" id="color-46"><stop offset="0" stop-color="#6bc399"/><stop offset="1" stop-color="#55b6e6"/></linearGradient><linearGradient x1="102.28766" y1="154.81787" x2="100.18978" y2="167.44033" gradientUnits="userSpaceOnUse" id="color-47"><stop offset="0" stop-color="#6bc399"/><stop offset="1" stop-color="#55b6e6"/></linearGradient><linearGradient x1="106.91673" y1="152.09552" x2="99.80378" y2="161.45767" gradientUnits="userSpaceOnUse" id="color-48"><stop offset="0" stop-color="#6bc399"/><stop offset="1" stop-color="#55b6e6"/></linearGradient><linearGradient x1="117.637" y1="161.77834" x2="110.52407" y2="171.1405" gradientUnits="userSpaceOnUse" id="color-49"><stop offset="0" stop-color="#6bc399"/><stop offset="1" stop-color="#55b6e6"/></linearGradient><linearGradient x1="123.6118" y1="138.73802" x2="117.96325" y2="146.17279" gradientUnits="userSpaceOnUse" id="color-50"><stop offset="0" stop-color="#6bc399"/><stop offset="1" stop-color="#55b6e6"/></linearGradient><linearGradient x1="131.23216" y1="149.54001" x2="130.90095" y2="158.87124" gradientUnits="userSpaceOnUse" id="color-51"><stop offset="0" stop-color="#6bc399"/><stop offset="1" stop-color="#55b6e6"/></linearGradient><linearGradient x1="171.67006" y1="135.13267" x2="166.59041" y2="142.96718" gradientUnits="userSpaceOnUse" id="color-52"><stop offset="0" stop-color="#6bc399"/><stop offset="1" stop-color="#55b6e6"/></linearGradient><linearGradient x1="141.19001" y1="119.1715" x2="141.0564" y2="127.4701" gradientUnits="userSpaceOnUse" id="color-53"><stop offset="0" stop-color="#6bc399"/><stop offset="1" stop-color="#55b6e6"/></linearGradient><linearGradient x1="178.11499" y1="147.83558" x2="173.83816" y2="157.28704" gradientUnits="userSpaceOnUse" id="color-54"><stop offset="0" stop-color="#6bc399"/><stop offset="1" stop-color="#55b6e6"/></linearGradient><linearGradient x1="190.62687" y1="135.87963" x2="190.62687" y2="169.96381" gradientUnits="userSpaceOnUse" id="color-55"><stop offset="0" stop-color="#86f5bf"/><stop offset="1" stop-color="#5bc8f5"/></linearGradient><linearGradient x1="209.06076" y1="176.87045" x2="202.12405" y2="172.31343" gradientUnits="userSpaceOnUse" id="color-56"><stop offset="0" stop-color="#6bc399"/><stop offset="1" stop-color="#55b6e6"/></linearGradient><linearGradient x1="175.46977" y1="165.99723" x2="180.62789" y2="172.49945" gradientUnits="userSpaceOnUse" id="color-57"><stop offset="0" stop-color="#6bc399"/><stop offset="1" stop-color="#55b6e6"/></linearGradient></defs><g transform="translate(5.53688,-14.52378)"><g data-paper-data="{&quot;isPaintingLayer&quot;:true}" fill-rule="nonzero" stroke-linejoin="miter" stroke-miterlimit="10" stroke-dasharray="" stroke-dashoffset="0" style="mix-blend-mode: normal"><g stroke="none" stroke-width="0" stroke-linecap="butt"><path d="M231.86078,75.79676c-0.79442,-2.86321 -2.67504,-9.64131 -4.04444,-14.57684c-0.90325,-3.25545 1.67331,-6.61305 4.18592,-7.31019c2.83003,-0.78521 9.59518,-2.66225 14.57684,-4.04444c3.34867,-0.92911 6.60526,0.93795 7.54296,4.31758c1.38641,4.99687 3.26233,11.75796 4.04444,14.57684c0.69142,2.492 -0.95873,6.41478 -4.3074,7.3439c-4.98167,1.3822 -11.74682,3.25923 -14.57684,4.04444c-2.51262,0.69715 -6.70734,-1.77737 -7.42148,-4.35129z" fill="url(#color-1)"/><path d="M234.36679,67.38278c-1.3216,-4.76325 1.46842,-9.696 6.23167,-11.0176c4.76325,-1.3216 9.696,1.46842 11.0176,6.23167c1.3216,4.76325 -1.46842,9.696 -6.23167,11.0176c-4.76325,1.3216 -9.696,-1.46842 -11.0176,-6.23167z" fill="#dadada"/><path d="M234.91342,67.2311c-1.23783,-4.46136 1.37534,-9.08146 5.8367,-10.3193c4.46136,-1.23783 9.08146,1.37534 10.3193,5.8367c1.23783,4.46136 -1.37534,9.08146 -5.8367,10.3193c-4.46136,1.23783 -9.08146,-1.37534 -10.3193,-5.8367z" fill="#ffffff"/><g><path d="M239.48734,68.392c-0.2501,-0.90138 -0.84214,-3.03522 -1.27325,-4.58901c-0.28435,-1.02486 0.52678,-2.08189 1.31779,-2.30136c0.89094,-0.2472 3.02071,-0.83812 4.58901,-1.27325c1.05421,-0.2925 2.07943,0.29528 2.37463,1.35924c0.43647,1.57309 1.02703,3.70158 1.27325,4.58901c0.21767,0.78452 -0.30182,2.01947 -1.35603,2.31196c-1.5683,0.43514 -3.69807,1.02606 -4.58901,1.27325c-0.79101,0.21947 -2.11157,-0.55954 -2.3364,-1.36985z" fill="#1d1d1d"/><path d="M240.1057,67.79161c-0.20596,-0.74231 -0.69353,-2.4996 -1.04856,-3.77918c-0.23417,-0.844 0.43382,-1.7145 1.08524,-1.89523c0.73372,-0.20357 2.48764,-0.69021 3.77918,-1.04856c0.86817,-0.24088 1.71247,0.24317 1.95559,1.11937c0.35944,1.29549 0.84579,3.04836 1.04856,3.77918c0.17926,0.64608 -0.24856,1.66309 -1.11674,1.90398c-1.29154,0.35835 -3.04547,0.84499 -3.77918,1.04856c-0.65142,0.18074 -1.73893,-0.4608 -1.92409,-1.12811z" fill="#000000"/></g></g><g data-paper-data="{&quot;index&quot;:null}"><g><g><path d="M388.25985,257.33347l-4.01419,-58.03643l14.09736,2.39256l4.01419,58.03642z" fill="#b06041" stroke="none" stroke-width="0" stroke-linecap="butt"/><path d="M388.33404,257.34606l-4.01418,-58.03643l2.67108,0.45333l4.01419,58.03642z" fill="#ab5c37" stroke="none" stroke-width="0" stroke-linecap="butt"/><path d="M399.61194,259.26011l-4.01419,-58.03643l2.67108,0.45332l4.01418,58.03642z" fill="#ab5c37" stroke="none" stroke-width="0" stroke-linecap="butt"/><path d="M396.61368,230.76636l-0.89204,-12.89697" fill="none" stroke="#ad6c4e" stroke-width="6" stroke-linecap="round"/><path d="M390.34617,233.44322l0.89204,12.89698" fill="none" stroke="#ad6c4e" stroke-width="6" stroke-linecap="round"/><path d="M391.56283,212.86886l-0.86296,-12.47643l0.12605,1.82239" fill="none" stroke="#ad6c4e" stroke-width="6" stroke-linecap="round"/></g><g fill="#ab5c37" stroke="none" stroke-linecap="butt"><path d="M398.93137,229.63578l-0.36844,-5.32702l12.56396,2.13231l0.36845,5.32703z" stroke-width="NaN"/><path d="M409.53039,228.80238c-0.10175,-1.47101 0.65732,-2.5207 1.69542,-2.34451c1.0381,0.17619 1.96211,1.51151 2.06386,2.98252c0.10175,1.47101 -0.65731,2.52069 -1.69541,2.3445c-1.0381,-0.17619 -1.96212,-1.5115 -2.06387,-2.98252z" stroke-width="0"/></g><g fill="#ab5c37" stroke="none" stroke-linecap="butt"><path d="M408.23498,210.78025l3.75929,0.63801l1.23141,17.80345l-3.7593,-0.63801z" stroke-width="NaN"/><path d="M411.1715,226.37938c1.0381,0.17619 1.96212,1.5115 2.06387,2.98252c0.10175,1.47101 -0.65732,2.52069 -1.69542,2.3445c-1.0381,-0.17619 -1.96214,-1.5115 -2.06389,-2.98252c-0.10175,-1.47101 0.65733,-2.52068 1.69543,-2.34449z" stroke-width="0"/></g><path d="M384.56804,203.78499l-0.30057,-4.34572l13.94898,2.36738l0.30057,4.34571z" fill="#86482b" stroke="none" stroke-width="NaN" stroke-linecap="butt"/><path d="M408.90819,219.27611l-0.30058,-4.34571l3.66037,0.62123l0.30058,4.34571z" fill="#86482b" stroke="none" stroke-width="NaN" stroke-linecap="butt"/></g><g stroke="none" stroke-width="0" stroke-linecap="butt"><path d="M368.87085,191.40485c-0.63537,-9.18597 -1.74074,-25.16726 -2.09435,-30.27988c-0.21434,-3.09875 2.00341,-6.19692 4.38606,-5.79254c5.06936,0.86035 24.40152,4.14136 33.54183,5.69262c2.95357,0.50127 5.09059,4.40238 5.30772,7.54163c0.35593,5.14593 1.46243,21.14369 2.09435,30.27987c0.27085,3.91594 -1.4346,6.2507 -4.38842,5.74937c-9.16052,-1.5547 -28.56106,-4.8473 -33.61171,-5.70449c-2.35331,-0.3994 -4.9606,-3.51246 -5.23547,-7.48664z" fill="url(#color-2)"/><path d="M407.54046,197.72065c1.14211,-1.67459 3.25068,-1.38636 4.70965,0.64377c1.45897,2.03013 1.71583,5.0334 0.57373,6.70797c-1.14211,1.67459 -3.25068,1.38636 -4.70965,-0.64376c-1.45897,-2.03013 -1.71584,-5.03341 -0.57373,-6.70797z" fill="url(#color-3)"/><path d="M409.24593,194.09118c0.83755,-1.22803 2.38383,-1.01667 3.45374,0.4721c1.06992,1.48877 1.25829,3.69113 0.42075,4.91918c-0.83755,1.22804 -2.38383,1.01667 -3.45374,-0.47209c-1.06992,-1.48877 -1.25829,-3.69114 -0.42074,-4.91919z" fill="url(#color-4)"/><path d="M370.31536,199.66985c-1.52007,-0.60609 -2.66964,-2.78139 -2.56766,-4.85866c0.10199,-2.07725 1.41693,-3.26985 2.937,-2.66377c1.52005,0.60609 2.66965,2.7814 2.56767,4.85867c-0.10198,2.07725 -1.41695,3.26984 -2.93702,2.66375z" fill="url(#color-5)"/><path d="M368.21939,194.28228c-1.19198,-1.38263 -1.56315,-3.66186 -0.82903,-5.09082c0.73412,-1.42897 2.29554,-1.46656 3.48753,-0.08394c1.19198,1.38262 1.56316,3.66187 0.82903,5.09084c-0.73412,1.42897 -2.29554,1.46654 -3.48753,0.08391z" fill="url(#color-6)"/><path d="M372.3978,195.85993c0.73412,-1.42898 2.29554,-1.46654 3.48752,-0.08391c1.19198,1.38263 1.56316,3.66186 0.82903,5.09083c-0.73412,1.42898 -2.29554,1.46656 -3.48753,0.08393c-1.19199,-1.38263 -1.56316,-3.66186 -0.82903,-5.09084z" fill="url(#color-7)"/><path d="M375.77033,185.5294c-0.94659,-1.09798 -1.24134,-2.90796 -0.65836,-4.04276c0.58298,-1.13479 1.82294,-1.16464 2.76954,-0.06665c0.9466,1.09798 1.24134,2.90798 0.65836,4.04277c-0.58298,1.13479 -1.82293,1.16463 -2.76954,0.06664z" fill="url(#color-8)"/><path d="M381.45369,192.05732c-0.06911,-1.56017 0.77431,-2.62771 1.88388,-2.38444c1.10957,0.24328 2.06507,1.70526 2.1342,3.26542c0.06913,1.56016 -0.77431,2.62771 -1.88388,2.38443c-1.10957,-0.24329 -2.06507,-1.70526 -2.1342,-3.26542z" fill="url(#color-9)"/><path d="M396.69337,187.33024c-0.98736,-1.01049 -1.37358,-2.81326 -0.86264,-4.02661c0.51092,-1.21335 1.72551,-1.37781 2.71286,-0.36732c0.98735,1.01047 1.37358,2.81324 0.86264,4.02659c-0.51092,1.21334 -1.72551,1.37782 -2.71286,0.36733z" fill="url(#color-10)"/><path d="M386.65539,176.51859c-0.98491,-0.18933 -1.84864,-1.47021 -1.92918,-2.86096c-0.08055,-1.39075 0.65257,-2.36471 1.63747,-2.17538c0.98491,0.18933 1.84864,1.47022 1.92918,2.86096c0.08055,1.39075 -0.65257,2.36469 -1.63749,2.17535z" fill="url(#color-11)"/><path d="M400.70821,197.32932c-1.16962,-0.90819 -1.79595,-2.86124 -1.39894,-4.36223c0.39701,-1.501 1.66703,-1.98154 2.83666,-1.07335c1.16962,0.90819 1.79594,2.86124 1.39894,4.36223c-0.39702,1.50101 -1.66703,1.98156 -2.83666,1.07335z" fill="url(#color-12)"/></g><path d="M399.95476,211.17035c-0.30222,-4.36947 -0.82801,-11.97127 -0.99622,-14.40318c-0.10194,-1.47396 0.95295,-2.94767 2.08631,-2.75533c2.41134,0.40925 11.60702,1.96991 15.95477,2.70779c1.40491,0.23843 2.42144,2.09408 2.52472,3.58733c0.1693,2.44775 0.69563,10.05736 0.99622,14.40316c0.12883,1.86269 -0.68241,2.97324 -2.08744,2.73478c-4.35736,-0.73952 -13.58557,-2.30571 -15.988,-2.71344c-1.11939,-0.18998 -2.3596,-1.67077 -2.49036,-3.56115z" fill="url(#color-13)" stroke="none" stroke-width="0" stroke-linecap="butt"/><path d="M414.62488,201.83267c0.8749,0.90469 1.21172,2.50801 0.75229,3.58112c-0.45943,1.07311 -1.54111,1.20967 -2.41602,0.30497c-0.8749,-0.90469 -1.21169,-2.50801 -0.75227,-3.58112c0.45942,-1.07311 1.5411,-1.20967 2.41601,-0.30498z" fill="url(#color-14)" stroke="none" stroke-width="0" stroke-linecap="butt"/><path d="M407.13956,206.26266c-0.71057,0.73534 -1.84333,0.36228 -2.53005,-0.83324c-0.68673,-1.19554 -0.66739,-2.76082 0.04319,-3.49615c0.71058,-0.73534 1.84332,-0.36228 2.53005,0.83324c0.68673,1.19554 0.6674,2.76081 -0.04318,3.49615z" fill="url(#color-15)" stroke="none" stroke-width="0" stroke-linecap="butt"/></g><g data-paper-data="{&quot;index&quot;:null}"><g><g><path d="M327.92489,262.85746l28.22355,-91.17669l31.38327,9.71462l-28.22355,91.17667z" fill="#b06041" stroke="none" stroke-width="0" stroke-linecap="butt"/><path d="M328.09006,262.90858l28.22355,-91.17669l5.94632,1.84068l-28.22355,91.17667z" fill="#ab5c37" stroke="none" stroke-width="0" stroke-linecap="butt"/><path d="M353.19669,270.68029l28.22355,-91.17669l5.9463,1.84066l-28.22355,91.17667z" fill="#ab5c37" stroke="none" stroke-width="0" stroke-linecap="butt"/><path d="M370.92505,205.21519l-6.2719,20.26147" fill="none" stroke="#ad6c4e" stroke-width="6" stroke-linecap="round"/><path d="M342.00516,247.18506l6.2719,-20.26149" fill="none" stroke="#ad6c4e" stroke-width="6" stroke-linecap="round"/><path d="M364.4493,195.72921l6.06737,-19.60078l-0.88624,2.86302" fill="none" stroke="#ad6c4e" stroke-width="6" stroke-linecap="round"/></g><g fill="#ab5c37" stroke="none" stroke-linecap="butt"><path d="M370.8001,224.72473l2.59057,-8.36889l27.96965,8.65795l-2.59057,8.36888z" stroke-width="NaN"/><path d="M396.10084,227.97112c0.71537,-2.31101 3.16872,-3.60453 5.47973,-2.88915c2.31101,0.71537 3.6045,3.16872 2.88914,5.47972c-0.71537,2.31101 -3.1687,3.60453 -5.4797,2.88915c-2.31101,-0.71537 -3.60452,-3.16872 -2.88915,-5.47972z" stroke-width="0"/></g><g fill="#ab5c37" stroke="none" stroke-linecap="butt"><path d="M404.75093,199.63704l8.36887,2.59056l-8.65795,27.96966l-8.36888,-2.59056z" stroke-width="NaN"/><path d="M401.50454,224.93776c2.31101,0.71537 3.60452,3.16873 2.88915,5.47973c-0.71537,2.31101 -3.16872,3.60453 -5.47973,2.88915c-2.31101,-0.71537 -3.60454,-3.16874 -2.88918,-5.47974c0.71537,-2.31101 3.16875,-3.60451 5.47975,-2.88915z" stroke-width="0"/></g><path d="M353.99384,178.73656l2.11335,-6.82723l31.05294,9.61237l-2.11335,6.82723z" fill="#86482b" stroke="none" stroke-width="NaN" stroke-linecap="butt"/><path d="M400.81928,213.02083l2.11335,-6.82723l8.14864,2.52239l-2.11335,6.82723z" fill="#86482b" stroke="none" stroke-width="NaN" stroke-linecap="butt"/></g><g stroke="none" stroke-width="0" stroke-linecap="butt"><path d="M325.344,152.94261c4.46721,-14.4314 12.23902,-39.53839 14.72533,-47.57044c1.50695,-4.86822 8.69514,-8.69583 13.99938,-7.05392c11.28533,3.49335 54.32223,16.81533 74.67018,23.114c6.57516,2.03532 9.04005,8.9623 7.51341,13.89414c-2.5025,8.08438 -10.28234,33.21727 -14.72533,47.57044c-1.90435,6.15203 -7.40119,9.02188 -13.97693,6.98638c-20.39299,-6.31261 -63.58209,-19.6817 -74.82575,-23.16215c-5.2389,-1.62169 -9.31296,-7.53493 -7.38029,-13.77847z" fill="url(#color-16)"/><path d="M411.58965,179.20932c3.75307,-2.09307 8.49227,-0.74734 10.58532,3.0057c2.09306,3.75307 0.74734,8.49227 -3.0057,10.58532c-3.75307,2.09306 -8.49227,0.74734 -10.58532,-3.0057c-2.09306,-3.75306 -0.74737,-8.49227 3.0057,-10.58532z" fill="url(#color-17)"/><path d="M417.92536,174.34375c2.75225,-1.5349 6.22765,-0.54807 7.76257,2.20418c1.53492,2.75225 0.54807,6.22763 -2.20417,7.76256c-2.75225,1.53492 -6.22765,0.54808 -7.76258,-2.20418c-1.53492,-2.75225 -0.54807,-6.22765 2.20418,-7.76258z" fill="url(#color-18)"/><path d="M323.36375,166.30027c-3.15841,-1.58409 -4.43463,-5.42868 -2.85053,-8.58709c1.58411,-3.15839 5.42869,-4.4346 8.58708,-2.85051c3.15839,1.58408 4.43462,5.42867 2.85052,8.58708c-1.5841,3.1584 -5.42869,4.43458 -8.5871,2.8505z" fill="url(#color-19)"/><path d="M321.95784,157.09955c-1.88885,-2.64082 -1.27928,-6.31283 1.36156,-8.2017c2.64082,-1.88886 6.31287,-1.27929 8.20173,1.36154c1.88885,2.64082 1.27926,6.31286 -1.36157,8.20171c-2.64082,1.88886 -6.31286,1.27927 -8.20171,-1.36155z" fill="url(#color-20)"/><path d="M330.69705,161.31768c2.64083,-1.88886 6.31285,-1.27929 8.2017,1.36155c1.88885,2.64082 1.27927,6.31286 -1.36156,8.20172c-2.64083,1.88886 -6.31287,1.27929 -8.20173,-1.36155c-1.88886,-2.64083 -1.27928,-6.31285 1.36156,-8.20171z" fill="url(#color-21)"/><path d="M345.26877,146.83536c-1.5,-2.09713 -1.0159,-5.01316 1.08124,-6.51319c2.09717,-1.50002 5.0132,-1.01593 6.51321,1.08124c1.50002,2.09715 1.0159,5.01318 -1.08124,6.5132c-2.09715,1.50002 -5.01319,1.01594 -6.5132,-1.08124z" fill="url(#color-22)"/><path d="M354.31651,159.32749c0.84936,-2.43447 3.51138,-3.71948 5.94586,-2.87015c2.43448,0.84933 3.71948,3.51139 2.87015,5.94587c-0.84933,2.43447 -3.51137,3.71947 -5.94585,2.87014c-2.43447,-0.84936 -3.71949,-3.51138 -2.87016,-5.94586z" fill="url(#color-23)"/><path d="M392.98117,158.55584c-1.65191,-1.97972 -1.38618,-4.92371 0.59354,-6.57562c1.97971,-1.65191 4.92371,-1.38618 6.57562,0.59354c1.65192,1.97969 1.38618,4.9237 -0.59353,6.57559c-1.97969,1.6519 -4.92371,1.38618 -6.57562,-0.59354z" fill="url(#color-24)"/><path d="M376.53581,137.59894c-2.17822,-0.71288 -3.36611,-3.05656 -2.65322,-5.23477c0.71288,-2.17822 3.05656,-3.36611 5.23477,-2.65322c2.17822,0.71288 3.36611,3.05655 2.65322,5.23476c-0.71288,2.17822 -3.05656,3.36609 -5.23477,2.6532z" fill="url(#color-25)"/><path d="M395.88208,175.68533c-2.144,-1.89994 -2.34181,-5.17824 -0.44185,-7.32225c1.89997,-2.14401 5.17824,-2.34181 7.32226,-0.44185c2.144,1.89996 2.34181,5.17822 0.44185,7.32224c-1.89998,2.14401 -5.17824,2.34183 -7.32226,0.44187z" fill="url(#color-26)"/></g><path d="M385.15444,196.69855c2.1249,-6.86455 5.82171,-18.80715 7.00436,-22.62775c0.7168,-2.31565 4.136,-4.13632 6.65905,-3.35531c5.36808,1.66168 25.83935,7.99851 35.51822,10.99459c3.1276,0.96814 4.30007,4.26309 3.57389,6.60902c-1.19036,3.84548 -4.89096,15.80037 -7.00436,22.62773c-0.90584,2.92633 -3.52051,4.29141 -6.64839,3.32318c-9.70027,-3.0027 -30.24394,-9.36194 -35.59219,-11.01748c-2.49197,-0.77138 -4.42988,-3.58414 -3.51058,-6.55398z" fill="url(#color-27)" stroke="none" stroke-width="0" stroke-linecap="butt"/><path d="M425.47571,188.57639c1.45775,1.76856 1.2058,4.38399 -0.56274,5.84174c-1.76857,1.45775 -4.38397,1.20582 -5.84174,-0.56274c-1.45775,-1.76856 -1.20578,-4.38397 0.56276,-5.84173c1.76854,-1.45775 4.38395,-1.20585 5.84172,0.56272z" fill="url(#color-28)" stroke="none" stroke-width="0" stroke-linecap="butt"/><path d="M405.11882,192.20506c-2.13642,0.82972 -4.54099,-0.22958 -5.37071,-2.366c-0.82972,-2.13645 0.2296,-4.54099 2.36601,-5.37071c2.13642,-0.82972 4.54098,0.22958 5.3707,2.36599c0.82972,2.13645 -0.22957,4.541 -2.366,5.37071z" fill="url(#color-29)" stroke="none" stroke-width="0" stroke-linecap="butt"/></g><g data-paper-data="{&quot;index&quot;:null}"><g><g><path d="M66.74112,273.57278v-131.58528h45.29203v131.58531z" fill="#b06041" stroke="none" stroke-width="0" stroke-linecap="butt"/><path d="M103.21313,273.57278v-131.58528h8.58167v131.58531z" fill="#ab5c37" stroke="none" stroke-width="0" stroke-linecap="butt"/><path d="M66.97949,273.57278v-131.58528h8.58164v131.58531z" fill="#ab5c37" stroke="none" stroke-width="0" stroke-linecap="butt"/><path d="M78.90134,209.36932v-29.24115" fill="none" stroke="#ad6c4e" stroke-width="6" stroke-linecap="round"/><path d="M99.87869,217.95099v29.24119" fill="none" stroke="#ad6c4e" stroke-width="6" stroke-linecap="round"/><path d="M91.29704,146.11937v-4.13189v28.28767" fill="none" stroke="#ad6c4e" stroke-width="6" stroke-linecap="round"/></g><g fill="#ab5c37" stroke="none" stroke-linecap="butt"><path d="M30.74682,205.87307v-12.07789h40.36554v12.07789z" stroke-width="NaN"/><path d="M30.42898,205.87307c-3.33522,0 -6.03892,-2.70373 -6.03892,-6.03894c0,-3.33522 2.7037,-6.03894 6.03892,-6.03894c3.33522,0 6.03894,2.70373 6.03894,6.03894c0,3.33522 -2.70373,6.03894 -6.03894,6.03894z" stroke-width="0"/></g><g fill="#ab5c37" stroke="none" stroke-linecap="butt"><path d="M36.62684,199.35738h-12.07789v-40.36555h12.07789z" stroke-width="NaN"/><path d="M36.62688,199.6752c0,3.33522 -2.70376,6.03894 -6.03898,6.03894c-3.33522,0 -6.03894,-2.70373 -6.03894,-6.03894c0,-3.33522 2.70373,-6.03894 6.03894,-6.03894c3.33522,0 6.03898,2.70373 6.03898,6.03894z" stroke-width="0"/></g><path d="M67.17899,152.15832v-9.85299h44.8153v9.85299z" fill="#86482b" stroke="none" stroke-width="NaN" stroke-linecap="butt"/><path d="M24.58856,178.22107v-9.85299h11.76004v9.85299z" fill="#86482b" stroke="none" stroke-width="NaN" stroke-linecap="butt"/></g><g stroke="none" stroke-width="0" stroke-linecap="butt"><path d="M160.24151,129.86751c0,9.01061 -7.77619,15.13746 -15.33692,15.13746c-16.22674,0 -78.55684,0 -107.9878,0c-9.49004,0 -15.5594,-6.02051 -15.5594,-14.89906c0,-20.71436 0,-56.98591 0,-68.6532c0,-7.1176 6.07018,-15.23551 15.5594,-15.23551c29.36597,0 91.47642,0 107.76329,0c7.65504,0 15.56143,7.97138 15.56143,14.99715c0,11.59179 0,47.82595 0,68.65321z" fill="url(#color-30)"/><path d="M35.59126,144.46683c-4.28655,4.08946 -11.07667,3.92971 -15.16616,-0.35686c-4.08946,-4.28655 -3.92972,-11.07668 0.35685,-15.16617c4.28655,-4.08946 11.07669,-3.92971 15.16617,0.35687c4.08949,4.28655 3.9297,11.07668 -0.35687,15.16616z" fill="url(#color-31)"/><path d="M29.32586,131.43168c-3.14349,2.99897 -8.12289,2.8818 -11.12186,-0.26171c-2.99893,-3.14351 -2.8818,-8.12287 0.26171,-11.12183c3.14349,-2.99897 8.12289,-2.8818 11.12186,0.26168c2.99893,3.14351 2.8818,8.1229 -0.26171,11.12187z" fill="url(#color-32)"/><path d="M157.40397,148.26682c-4.80539,0.79863 -9.34844,-2.44944 -10.1471,-7.25483c-0.79866,-4.8054 2.44947,-9.34845 7.25485,-10.14708c4.80539,-0.79863 9.34841,2.44945 10.14708,7.25484c0.79866,4.8054 -2.44945,9.34844 -7.25486,10.14707z" fill="url(#color-33)"/><path d="M163.0064,136.72266c-3.56421,2.70793 -8.64879,2.01375 -11.3567,-1.55046c-2.70793,-3.56421 -2.01376,-8.64879 1.55044,-11.3567c3.56421,-2.70793 8.64879,-2.01371 11.3567,1.5505c2.70793,3.56423 2.01376,8.64875 -1.55044,11.35668z" fill="url(#color-34)"/><path d="M149.77731,138.71522c2.70793,3.56423 2.01379,8.64876 -1.55044,11.35669c-3.56421,2.70793 -8.64879,2.01376 -11.3567,-1.55047c-2.70793,-3.56423 -2.01376,-8.64878 1.55044,-11.3567c3.56421,-2.70793 8.64876,-2.01376 11.35669,1.55046z" fill="url(#color-35)"/><path d="M136.4904,113.70154c-2.83048,2.15045 -6.86823,1.5992 -9.01865,-1.23127c-2.15042,-2.83048 -1.5992,-6.86822 1.23127,-9.01864c2.83048,-2.15045 6.86823,-1.59921 9.01867,1.23127c2.15042,2.83048 1.59917,6.86823 -1.23127,9.01865z" fill="url(#color-36)"/><path d="M113.27793,133.12568c-3.55245,0.1261 -6.53449,-2.6515 -6.66059,-6.20394c-0.1261,-3.55245 2.6515,-6.5345 6.20394,-6.6606c3.55245,-0.1261 6.53447,2.6515 6.66059,6.20394c0.1261,3.55245 -2.6515,6.53447 -6.20394,6.66059z" fill="url(#color-37)"/><path d="M68.87528,109.68627c-2.98264,1.93384 -6.96822,1.08358 -8.90204,-1.89902c-1.93384,-2.98261 -1.08362,-6.96819 1.89902,-8.902c2.98264,-1.93384 6.96822,-1.08362 8.90203,1.89902c1.93384,2.98264 1.08362,6.96819 -1.89902,8.90203z" fill="url(#color-38)"/><path d="M99.07732,88.79043c-3.15933,0.05088 -5.76168,-2.469 -5.81253,-5.62833c-0.05088,-3.15933 2.46903,-5.76167 5.62836,-5.81252c3.15933,-0.05088 5.76167,2.46902 5.81252,5.62835c0.05088,3.15933 -2.46902,5.76168 -5.62835,5.81253z" fill="url(#color-39)"/><path d="M58.07155,131.06314c-3.59822,1.62819 -7.83503,0.03121 -9.46324,-3.56702c-1.62817,-3.59822 -0.0312,-7.83505 3.567,-9.46323c3.59822,-1.62819 7.83506,-0.03121 9.46324,3.567c1.62817,3.59822 0.0312,7.83507 -3.567,9.46323z" fill="url(#color-40)"/></g><path d="M63.63323,163.11081c0,4.28605 -3.69889,7.2004 -7.29528,7.2004c-7.71853,0 -37.36696,0 -51.3663,0c-4.51412,0 -7.40113,-2.86374 -7.40113,-7.08699c0,-9.85319 0,-27.10635 0,-32.65611c0,-3.38563 2.88739,-7.24708 7.40113,-7.24708c13.96845,0 43.5124,0 51.25955,0c3.64126,0 7.40207,3.79176 7.40207,7.13367c0,5.51385 0,22.74929 0,32.65615z" fill="url(#color-41)" stroke="none" stroke-width="0" stroke-linecap="butt"/><path d="M21.76446,137.61648c1.73487,2.64084 1.00048,6.18806 -1.64036,7.92296c-2.64087,1.7349 -6.18805,1.00045 -7.92296,-1.64039c-1.73487,-2.64084 -1.00045,-6.18807 1.6404,-7.92297c2.64087,-1.7349 6.18806,-1.00044 7.92293,1.6404z" fill="url(#color-42)" stroke="none" stroke-width="0" stroke-linecap="butt"/><path d="M39.17215,149.05398c-2.47543,-1.9637 -2.89023,-5.56233 -0.92653,-8.03776c1.9637,-2.47539 5.56235,-2.89023 8.03775,-0.92652c2.4754,1.9637 2.89023,5.56233 0.92653,8.03776c-1.9637,2.4754 -5.56236,2.89023 -8.03775,0.92653z" fill="url(#color-43)" stroke="none" stroke-width="0" stroke-linecap="butt"/></g><g data-paper-data="{&quot;index&quot;:null}"><g><g><path d="M131.56094,267.58712v-95.44504h32.85246v95.44502z" fill="#b06041" stroke="none" stroke-width="0" stroke-linecap="butt"/><path d="M131.73383,267.58712v-95.44504h6.22469v95.44502z" fill="#ab5c37" stroke="none" stroke-width="0" stroke-linecap="butt"/><path d="M158.01582,267.58712v-95.44504h6.22466v95.44502z" fill="#ab5c37" stroke="none" stroke-width="0" stroke-linecap="butt"/><path d="M155.59301,199.80732v21.20999" fill="none" stroke="#ad6c4e" stroke-width="6" stroke-linecap="round"/><path d="M140.37714,248.452v-21.21001" fill="none" stroke="#ad6c4e" stroke-width="6" stroke-linecap="round"/><path d="M146.60182,192.66045v-20.51838v2.99706" fill="none" stroke="#ad6c4e" stroke-width="6" stroke-linecap="round"/></g><g fill="#ab5c37" stroke="none" stroke-linecap="butt"><path d="M161.24271,218.48131v-8.76066h29.27904v8.76066z" stroke-width="NaN"/><path d="M186.37196,214.10098c0,-2.41918 1.96114,-4.38034 4.38034,-4.38034c2.41918,0 4.3803,1.96114 4.3803,4.38034c0,2.41918 -1.96112,4.38033 -4.3803,4.38033c-2.41918,0 -4.38034,-1.96113 -4.38034,-4.38033z" stroke-width="0"/></g><g fill="#ab5c37" stroke="none" stroke-linecap="butt"><path d="M186.25669,184.47613h8.76067v29.27903h-8.76067z" stroke-width="NaN"/><path d="M190.63701,209.60537c2.41918,0 4.38033,1.96114 4.38033,4.38034c0,2.41918 -1.96113,4.38033 -4.38033,4.38033c-2.41918,0 -4.38036,-1.96113 -4.38036,-4.38033c0,-2.41918 1.96116,-4.38034 4.38036,-4.38034z" stroke-width="0"/></g><path d="M131.58912,179.51946v-7.14684h32.50666v7.14684z" fill="#86482b" stroke="none" stroke-width="NaN" stroke-linecap="butt"/><path d="M186.45852,198.42401v-7.14684h8.53011v7.14684z" fill="#86482b" stroke="none" stroke-width="NaN" stroke-linecap="butt"/></g><g stroke="none" stroke-width="0" stroke-linecap="butt"><path d="M96.59312,163.3509c0,-15.107 0,-41.38934 0,-49.7974c0,-5.09612 5.73489,-10.87814 11.28745,-10.87814c11.81363,0 56.86527,0 78.1658,0c6.88297,0 11.28597,5.8883 11.28597,11.05104c0,8.46284 0,34.77231 0,49.79741c0,6.44004 -4.40239,10.80698 -11.28597,10.80698c-21.34767,0 -66.55862,0 -78.32865,0c-5.48415,0 -11.12459,-4.44409 -11.12459,-10.97991z" fill="url(#color-44)"/><path d="M186.749,162.93972c2.9663,-3.10926 7.8915,-3.22512 11.00074,-0.25885c3.10925,2.9663 3.22512,7.8915 0.25885,11.00074c-2.9663,3.10925 -7.89149,3.22512 -11.00074,0.25885c-3.10925,-2.9663 -3.22515,-7.89149 -0.25884,-11.00074z" fill="url(#color-45)"/><path d="M191.3626,156.41824c2.17529,-2.2801 5.78709,-2.3651 8.06722,-0.18981c2.28013,2.17529 2.36509,5.78706 0.18983,8.06719c-2.17529,2.28013 -5.78708,2.36512 -8.06721,0.18983c-2.28013,-2.17529 -2.3651,-5.78708 -0.18983,-8.06721z" fill="url(#color-46)"/><path d="M98.65135,176.69679c-3.48559,-0.57929 -5.84159,-3.87455 -5.26229,-7.36015c0.57931,-3.48558 3.87458,-5.84156 7.36016,-5.26227c3.48556,0.57928 5.84159,3.87455 5.26229,7.36015c-0.57931,3.48558 -3.87459,5.84155 -7.36017,5.26227z" fill="url(#color-47)"/><path d="M94.58764,168.32326c-2.58527,-1.96419 -3.08879,-5.65223 -1.1246,-8.23754c1.96418,-2.5853 5.65225,-3.08883 8.23755,-1.12464c2.58527,1.96418 3.08879,5.65225 1.1246,8.23755c-1.96418,2.5853 -5.65225,3.08882 -8.23755,1.12463z" fill="url(#color-48)"/><path d="M104.18333,169.76852c1.96419,-2.5853 5.65225,-3.08882 8.23755,-1.12463c2.58527,1.96419 3.08879,5.65226 1.1246,8.23756c-1.96418,2.5853 -5.65226,3.08882 -8.23756,1.12464c-2.5853,-1.96419 -3.08879,-5.65224 -1.1246,-8.23755z" fill="url(#color-49)"/><path d="M113.82091,151.62494c-2.05305,-1.5598 -2.45288,-4.48857 -0.89309,-6.54165c1.55982,-2.05308 4.4886,-2.45293 6.54167,-0.8931c2.05307,1.5598 2.45288,4.48857 0.89309,6.54165c-1.5598,2.05308 -4.48856,2.45293 -6.54164,0.8931z" fill="url(#color-50)"/><path d="M126.15802,160.88294c0.09149,-2.57676 2.25449,-4.59147 4.83125,-4.50001c2.57676,0.09146 4.59147,2.25449 4.50001,4.83125c-0.09146,2.57676 -2.25448,4.59147 -4.83124,4.5c-2.57676,-0.09149 -4.59148,-2.25449 -4.50002,-4.83125z" fill="url(#color-51)"/><path d="M162.86538,148.7125c-2.16345,-1.40271 -2.78016,-4.29362 -1.37745,-6.45707c1.40269,-2.16345 4.29362,-2.78016 6.45707,-1.37745c2.16345,1.40268 2.78016,4.29361 1.37745,6.45704c-1.40269,2.16343 -4.29362,2.78016 -6.45707,1.37745z" fill="url(#color-52)"/><path d="M140.95842,133.55577c-2.29161,-0.03689 -4.11942,-1.92448 -4.08251,-4.2161c0.03689,-2.29161 1.92448,-4.11942 4.2161,-4.08251c2.29161,0.03689 4.11942,1.92448 4.08251,4.2161c-0.03689,2.29161 -1.92448,4.11939 -4.2161,4.08248z" fill="url(#color-53)"/><path d="M170.70183,164.21812c-2.60995,-1.181 -3.76831,-4.25418 -2.58732,-6.86413c1.181,-2.60995 4.25419,-3.76831 6.86415,-2.58732c2.60995,1.181 3.7683,4.25418 2.58732,6.86413c-1.18102,2.60996 -4.25418,3.76832 -6.86414,2.58732z" fill="url(#color-54)"/></g><path d="M166.66766,187.46385c0,-7.18591 0,-19.68759 0,-23.68704c0,-2.42405 2.7279,-5.17439 5.36907,-5.17439c5.61938,0 27.049,0 37.18097,0c3.27402,0 5.36839,2.80089 5.36839,5.25664c0,4.0255 0,16.54005 0,23.68703c0,3.06332 -2.09409,5.14053 -5.36839,5.14053c-10.15438,0 -31.65978,0 -37.2584,0c-2.60864,0 -5.29161,-2.11392 -5.29161,-5.2228z" fill="url(#color-55)" stroke="none" stroke-width="0" stroke-linecap="butt"/><path d="M202.78396,167.78172c1.91553,1.25841 2.44825,3.83138 1.18986,5.7469c-1.25841,1.91552 -3.83135,2.44826 -5.7469,1.18985c-1.91552,-1.25841 -2.44821,-3.83137 -1.18983,-5.7469c1.25839,-1.91552 3.83132,-2.44826 5.74687,-1.18986z" fill="url(#color-56)" stroke="none" stroke-width="0" stroke-linecap="butt"/><path d="M184.41045,177.26775c-1.79553,1.42436 -4.4058,1.12348 -5.83016,-0.67206c-1.42436,-1.79555 -1.12348,-4.40581 0.67206,-5.83017c1.79553,-1.42437 4.4058,-1.12349 5.83016,0.67204c1.42436,1.79555 1.12349,4.40581 -0.67206,5.83017z" fill="url(#color-57)" stroke="none" stroke-width="0" stroke-linecap="butt"/></g><path d="M0.76439,430.66261v-167.18837h480.41477v167.18837z" fill="#ffffff" stroke="none" stroke-width="0" stroke-linecap="butt"/><path d="M-1.3246,432.17335v-127.90918h485.45057v127.90918z" fill="#4eaad2" stroke="none" stroke-width="0" stroke-linecap="butt"/><path d="M484.07002,261.9635v59.42237h-465.25143v-59.42237z" fill="#5ecfff" stroke="none" stroke-width="0" stroke-linecap="butt"/><path d="M52.98523,278.98449c0,12.04495 0,24.38783 0,31.05407c0,4.99476 -4.81327,11.07875 -11.58233,11.07875c-7.60156,0 -42.71881,0 -42.71881,0l-0.43647,-53.88301c0,0 39.19121,0 42.48384,0c5.48551,0 12.25377,4.94286 12.25377,11.75018z" fill="#9ce1ff" stroke="none" stroke-width="0" stroke-linecap="butt"/><path d="M0.46312,261.96414h-2.64555h486.26416h-1.69553" fill="none" stroke="#ffffff" stroke-width="12" stroke-linecap="round"/><path d="M274.02145,279.18126c0,10.43086 0,21.11973 0,26.89266c0,4.32545 -4.16826,9.59414 -10.03023,9.59414c-11.19906,0 -49.9487,0 -56.25655,0c-4.54099,0 -11.48389,-4.27624 -11.77462,-10.75707c-0.19971,-4.45181 -0.11726,-16.63076 0,-24.56681c0.076,-5.14345 6.36133,-11.33852 12.64682,-11.33852c11.70602,0 50.56811,0 54.80289,0c4.75042,0 10.6117,4.28049 10.6117,10.1756z" fill="#79d7ff" stroke="none" stroke-width="0" stroke-linecap="butt"/><path d="M152.0282,340.17031c0,10.43086 0,21.11974 0,26.89268c0,4.32545 -4.16827,9.59414 -10.03025,9.59414c-11.19906,0 -49.94868,0 -56.25654,0c-4.54099,0 -11.48388,-4.27624 -11.77462,-10.75708c-0.19971,-4.45181 -0.11726,-16.63075 0,-24.56681c0.076,-5.14345 6.36133,-11.33852 12.64682,-11.33852c11.70602,0 50.56811,0 54.80289,0c4.75042,0 10.61169,4.28049 10.61169,10.1756z" fill="#4597ba" stroke="none" stroke-width="0" stroke-linecap="butt"/><path d="M326.43603,386.03687c0,10.43086 0,21.11973 0,26.89267c0,4.32545 -4.16827,9.59414 -10.03024,9.59414c-11.19906,0 -49.9487,0 -56.25655,0c-4.54099,0 -11.48388,-4.27624 -11.77462,-10.75707c-0.19971,-4.45181 -0.11726,-16.63075 0,-24.56681c0.076,-5.14345 6.36134,-11.33853 12.64683,-11.33853c11.70602,0 50.5681,0 54.80288,0c4.75042,0 10.61169,4.28048 10.61169,10.17559z" fill="#479cc0" stroke="none" stroke-width="0" stroke-linecap="butt"/><g stroke="none" stroke-width="0" stroke-linecap="butt"><path d="M182.33677,42.22065v-21.90571c0,0 6.52839,6.29474 14.10022,6.29474c3.06865,0 10.45236,-4.75573 16.13571,-5.94147c8.72873,-1.8211 15.84158,-0.35327 15.84158,-0.35327v21.90571c0,0 -6.74766,-3.30248 -13.65413,-2.08997c-6.7157,1.17902 -13.54038,6.87397 -17.316,6.87397c-7.70045,0 -15.10738,-4.784 -15.10738,-4.784z" fill="#ff7e7e"/><path d="M226.14818,81.24806v-66.72428h3.52506v66.72428z" fill="#ffffff"/></g><text transform="translate(80.35684,112.48125) scale(1.08505,1.08505)" font-size="40" xml:space="preserve" fill="#ff3838" fill-rule="nonzero" stroke="none" stroke-width="1" stroke-linecap="butt" stroke-linejoin="miter" stroke-miterlimit="10" stroke-dasharray="" stroke-dashoffset="0" font-family="Handwriting" font-weight="normal" text-anchor="start" style="mix-blend-mode: normal"><tspan x="0" dy="0">You got 1 antidote!</tspan><tspan x="0" dy="46.150000000000006px"> </tspan></text><g fill="#ff0000" stroke="none" stroke-width="0"><path d="M170.99009,174.14663v-33.67835c0,0 4.6551,-9.14946 12.27232,-10.08553c8.51372,-0.37536 11.64335,5.84156 12.48694,9.27922c1.80955,7.37426 -3.46167,11.98179 -10.11456,19.0016c-6.1018,6.43833 -14.64467,15.48308 -14.64467,15.48308z" stroke-linecap="round"/><path d="M171.08805,174.14665c0,0 -8.5429,-9.04477 -14.64467,-15.48308c-6.65286,-7.01976 -11.92412,-11.62731 -10.11456,-19.0016c0.84359,-3.43766 3.97324,-9.65458 12.48694,-9.27922c7.61727,0.93609 12.27232,10.08553 12.27232,10.08553v33.67835z" stroke-linecap="round"/><path d="M168.3159,170.77013l0.3005,-29.6999h5.24761v29.54603l-2.8109,2.76994z" stroke-linecap="butt"/></g><path d="M222.68398,177.45789l6.07563,-20.2891l-15.73864,-13.79438l20.30298,-1.32995l8.12119,-21.27906l8.62497,21.27906h18.44569l-15.73864,14.28939l7.11367,20.2891l-18.94947,-11.96948z" fill="#fffd00" stroke="none" stroke-width="0" stroke-linecap="round"/><g fill="#1e00d9" stroke="none" stroke-width="0" stroke-linecap="butt"><path d="M291.63236,178.29184c-1.89614,-3.67869 -3.29103,-16.38284 5.89273,-24.13993c8.96888,-7.57564 19.44878,-8.20232 28.4815,0c8.76955,7.96334 7.30669,22.40575 4.91061,24.13993c-5.89775,4.26863 -36.75836,4.9016 -39.28484,0z"/><path d="M325.28446,138.07692c0,6.96837 -6.10356,12.6174 -13.63268,12.6174c-7.52912,0 -13.63268,-5.649 -13.63268,-12.6174c0,-6.96837 6.10356,-12.6174 13.63268,-12.6174c7.52912,0 13.63268,5.649 13.63268,12.6174z"/></g><text transform="translate(184.60001,203.85001) scale(0.73835,0.73835)" font-size="40" xml:space="preserve" fill="#ffffff" fill-rule="nonzero" stroke="none" stroke-width="1" stroke-linecap="butt" stroke-linejoin="miter" stroke-miterlimit="10" stroke-dasharray="" stroke-dashoffset="0" font-family="Handwriting" font-weight="normal" text-anchor="start" style="mix-blend-mode: normal"><tspan x="0" dy="0">for part 2</tspan></text></g></g></svg>