<svg version="1.1" xmlns="http://www.w3.org/2000/svg" xmlns:xlink="http://www.w3.org/1999/xlink" width="43.2" height="81.38133" viewBox="0,0,43.2,81.38133"><g transform="translate(-218.4,-139.30937)"><g data-paper-data="{&quot;isPaintingLayer&quot;:true}" fill-rule="nonzero" stroke="none" stroke-width="0" stroke-linecap="butt" stroke-linejoin="miter" stroke-miterlimit="10" stroke-dasharray="" stroke-dashoffset="0" style="mix-blend-mode: normal"><path d="M218.4,210.89071c0,-4.71412 0,-15.8739 0,-24c0,-5.35992 5.36311,-9.4 9.5,-9.4c4.65949,0 15.79795,0 24,0c5.51341,0 9.7,4.23562 9.7,9.8c0,8.22707 0,19.35885 0,24c0,4.10295 -4.18659,9.4 -9.7,9.4c-8.20205,0 -19.34051,0 -24,0c-4.13689,0 -9.5,-5.56219 -9.5,-9.8z" fill="#f44c4c"/><path d="M218.4,185.08538c0,-4.71412 0,-15.8739 0,-24c0,-5.35992 5.36311,-9.4 9.5,-9.4c4.65949,0 15.79795,0 24,0c5.51341,0 9.7,4.23562 9.7,9.8c0,8.22707 0,19.35885 0,24c0,4.10295 -4.18659,9.4 -9.7,9.4c-8.20205,0 -19.34051,0 -24,0c-4.13689,0 -9.5,-5.56219 -9.5,-9.8z" fill="#f44c4c"/><path d="M218.4,172.70938c0,-4.71412 0,-15.8739 0,-24c0,-5.35992 5.36311,-9.4 9.5,-9.4c4.65949,0 15.79795,0 24,0c5.51341,0 9.7,4.23562 9.7,9.8c0,8.22707 0,19.35885 0,24c0,4.10295 -4.18659,9.4 -9.7,9.4c-8.20205,0 -19.34051,0 -24,0c-4.13689,0 -9.5,-5.56219 -9.5,-9.8z" fill="#f44c4c"/><path d="M226.7,196.26882c0,-7.34539 5.95461,-13.3 13.3,-13.3c7.34539,0 13.3,5.95461 13.3,13.3c0,7.34539 -5.95461,13.3 -13.3,13.3c-7.34539,0 -13.3,-5.95461 -13.3,-13.3z" fill="#ffffff"/><g><path d="M233.45,199.835c0,-1.48407 0,-4.99734 0,-7.55556c0,-1.68738 1.68839,-2.95926 2.99074,-2.95926c1.46688,0 4.97343,0 7.55556,0c1.7357,0 3.0537,1.33344 3.0537,3.08519c0,2.59001 0,6.09445 0,7.55556c0,1.29167 -1.318,2.95926 -3.0537,2.95926c-2.58213,0 -6.08868,0 -7.55556,0c-1.30235,0 -2.99074,-1.75106 -2.99074,-3.08519z" fill="#1d1d1d"/><path d="M234.65,199.17945c0,-1.22218 0,-4.11546 0,-6.22222c0,-1.38961 1.39043,-2.43704 2.46296,-2.43704c1.20802,0 4.09577,0 6.22222,0c1.4294,0 2.51482,1.09812 2.51482,2.54074c0,2.13295 0,5.01896 0,6.22222c0,1.06373 -1.08541,2.43704 -2.51482,2.43704c-2.12646,0 -5.0142,0 -6.22222,0c-1.07253,0 -2.46296,-1.44205 -2.46296,-2.54074z" fill="#000000"/></g><path d="M226.7,162.20086c0,-7.34539 5.95461,-13.3 13.3,-13.3c7.34539,0 13.3,5.95461 13.3,13.3c0,7.34539 -5.95461,13.3 -13.3,13.3c-7.34539,0 -13.3,-5.95461 -13.3,-13.3z" fill="#ffffff"/><g><path d="M233.45,166.085c0,-1.48407 0,-4.99734 0,-7.55556c0,-1.68738 1.68839,-2.95926 2.99074,-2.95926c1.46688,0 4.97343,0 7.55556,0c1.7357,0 3.0537,1.33344 3.0537,3.08519c0,2.59001 0,6.09445 0,7.55556c0,1.29167 -1.318,2.95926 -3.0537,2.95926c-2.58213,0 -6.08868,0 -7.55556,0c-1.30235,0 -2.99074,-1.75106 -2.99074,-3.08519z" fill="#1d1d1d"/><path d="M234.65,165.42944c0,-1.22218 0,-4.11546 0,-6.22222c0,-1.38961 1.39043,-2.43704 2.46296,-2.43704c1.20802,0 4.09577,0 6.22222,0c1.4294,0 2.51482,1.09812 2.51482,2.54074c0,2.13295 0,5.01896 0,6.22222c0,1.06373 -1.08541,2.43704 -2.51482,2.43704c-2.12646,0 -5.0142,0 -6.22222,0c-1.07253,0 -2.46296,-1.44205 -2.46296,-2.54074z" fill="#000000"/></g></g></g></svg>