<svg version="1.1" xmlns="http://www.w3.org/2000/svg" xmlns:xlink="http://www.w3.org/1999/xlink" width="43.2" height="43.2" viewBox="0,0,43.2,43.2"><defs><linearGradient x1="240" y1="158.4" x2="240" y2="201.6" gradientUnits="userSpaceOnUse" id="color-1"><stop offset="0" stop-color="#f74d4d"/><stop offset="1" stop-color="#c73e3e"/></linearGradient></defs><g transform="translate(-218.4,-158.4)"><g data-paper-data="{&quot;isPaintingLayer&quot;:true}" fill-rule="nonzero" stroke="none" stroke-width="0" stroke-linecap="butt" stroke-linejoin="miter" stroke-miterlimit="10" stroke-dasharray="" stroke-dashoffset="0" style="mix-blend-mode: normal"><path d="M218.4,191.8c0,-4.71412 0,-15.8739 0,-24c0,-5.35992 5.36311,-9.4 9.5,-9.4c4.65949,0 15.79795,0 24,0c5.51341,0 9.7,4.23562 9.7,9.8c0,8.22707 0,19.35885 0,24c0,4.10295 -4.18659,9.4 -9.7,9.4c-8.20205,0 -19.34051,0 -24,0c-4.13689,0 -9.5,-5.56219 -9.5,-9.8z" fill="url(#color-1)"/><path d="M225.8,180c0,-7.84244 6.35756,-14.2 14.2,-14.2c7.84244,0 14.2,6.35756 14.2,14.2c0,7.84244 -6.35756,14.2 -14.2,14.2c-7.84244,0 -14.2,-6.35756 -14.2,-14.2z" fill="#dadada"/><path d="M226.7,180c0,-7.34539 5.95461,-13.3 13.3,-13.3c7.34539,0 13.3,5.95461 13.3,13.3c0,7.34539 -5.95461,13.3 -13.3,13.3c-7.34539,0 -13.3,-5.95461 -13.3,-13.3z" fill="#ffffff"/><g><path d="M233.2,183.71481c0,-1.48407 0,-4.99734 0,-7.55556c0,-1.68738 1.68839,-2.95926 2.99074,-2.95926c1.46688,0 4.97343,0 7.55556,0c1.7357,0 3.0537,1.33344 3.0537,3.08519c0,2.59001 0,6.09445 0,7.55556c0,1.29167 -1.318,2.95926 -3.0537,2.95926c-2.58213,0 -6.08868,0 -7.55556,0c-1.30235,0 -2.99074,-1.75106 -2.99074,-3.08519z" fill="#1d1d1d"/><path d="M234.4,183.05926c0,-1.22218 0,-4.11546 0,-6.22222c0,-1.38961 1.39043,-2.43704 2.46296,-2.43704c1.20802,0 4.09577,0 6.22222,0c1.4294,0 2.51482,1.09812 2.51482,2.54074c0,2.13295 0,5.01896 0,6.22222c0,1.06373 -1.08541,2.43704 -2.51482,2.43704c-2.12646,0 -5.0142,0 -6.22222,0c-1.07253,0 -2.46296,-1.44205 -2.46296,-2.54074z" fill="#000000"/></g></g></g></svg>