<svg version="1.1" xmlns="http://www.w3.org/2000/svg" xmlns:xlink="http://www.w3.org/1999/xlink" width="490.49759" height="388.94518" viewBox="0,0,490.49759,388.94518"><defs><linearGradient x1="424.01145" y1="1.03233" x2="424.01145" y2="81.06355" gradientUnits="userSpaceOnUse" id="color-1"><stop offset="0" stop-color="#86f5bf"/><stop offset="1" stop-color="#5bc8f5"/></linearGradient><linearGradient x1="358.48982" y1="112.18389" x2="370.48733" y2="124.75959" gradientUnits="userSpaceOnUse" id="color-2"><stop offset="0" stop-color="#6bc399"/><stop offset="1" stop-color="#55b6e6"/></linearGradient><linearGradient x1="358.95951" y1="107.43642" x2="367.75769" y2="116.65861" gradientUnits="userSpaceOnUse" id="color-3"><stop offset="0" stop-color="#6bc399"/><stop offset="1" stop-color="#55b6e6"/></linearGradient><linearGradient x1="473.90861" y1="112.62396" x2="476.25171" y2="126.72186" gradientUnits="userSpaceOnUse" id="color-4"><stop offset="0" stop-color="#6bc399"/><stop offset="1" stop-color="#55b6e6"/></linearGradient><linearGradient x1="468.73847" y1="109.58337" x2="476.68281" y2="120.03987" gradientUnits="userSpaceOnUse" id="color-5"><stop offset="0" stop-color="#6bc399"/><stop offset="1" stop-color="#55b6e6"/></linearGradient><linearGradient x1="456.76509" y1="120.39802" x2="464.70945" y2="130.85452" gradientUnits="userSpaceOnUse" id="color-6"><stop offset="0" stop-color="#6bc399"/><stop offset="1" stop-color="#55b6e6"/></linearGradient><linearGradient x1="450.09188" y1="94.66455" x2="456.40071" y2="102.96836" gradientUnits="userSpaceOnUse" id="color-7"><stop offset="0" stop-color="#6bc399"/><stop offset="1" stop-color="#55b6e6"/></linearGradient><linearGradient x1="441.58077" y1="106.72916" x2="441.95072" y2="117.15113" gradientUnits="userSpaceOnUse" id="color-8"><stop offset="0" stop-color="#6bc399"/><stop offset="1" stop-color="#55b6e6"/></linearGradient><linearGradient x1="396.41612" y1="90.63775" x2="402.08949" y2="99.38803" gradientUnits="userSpaceOnUse" id="color-9"><stop offset="0" stop-color="#6bc399"/><stop offset="1" stop-color="#55b6e6"/></linearGradient><linearGradient x1="430.45899" y1="72.81086" x2="430.60821" y2="82.0795" gradientUnits="userSpaceOnUse" id="color-10"><stop offset="0" stop-color="#6bc399"/><stop offset="1" stop-color="#55b6e6"/></linearGradient><linearGradient x1="389.21785" y1="104.82549" x2="393.99459" y2="115.38174" gradientUnits="userSpaceOnUse" id="color-11"><stop offset="0" stop-color="#6bc399"/><stop offset="1" stop-color="#55b6e6"/></linearGradient><linearGradient x1="375.24344" y1="91.47202" x2="375.24344" y2="129.54029" gradientUnits="userSpaceOnUse" id="color-12"><stop offset="0" stop-color="#86f5bf"/><stop offset="1" stop-color="#5bc8f5"/></linearGradient><linearGradient x1="354.65482" y1="137.25424" x2="362.40238" y2="132.16454" gradientUnits="userSpaceOnUse" id="color-13"><stop offset="0" stop-color="#6bc399"/><stop offset="1" stop-color="#55b6e6"/></linearGradient><linearGradient x1="392.17227" y1="125.11006" x2="386.41124" y2="132.37232" gradientUnits="userSpaceOnUse" id="color-14"><stop offset="0" stop-color="#6bc399"/><stop offset="1" stop-color="#55b6e6"/></linearGradient><linearGradient x1="388.11606" y1="112.45082" x2="388.11606" y2="154.35432" gradientUnits="userSpaceOnUse" id="color-15"><stop offset="0" stop-color="#86f5bf"/><stop offset="1" stop-color="#5bc8f5"/></linearGradient><linearGradient x1="353.80962" y1="170.6486" x2="360.09139" y2="177.2331" gradientUnits="userSpaceOnUse" id="color-16"><stop offset="0" stop-color="#6bc399"/><stop offset="1" stop-color="#55b6e6"/></linearGradient><linearGradient x1="354.05555" y1="168.16288" x2="358.66218" y2="172.99152" gradientUnits="userSpaceOnUse" id="color-17"><stop offset="0" stop-color="#6bc399"/><stop offset="1" stop-color="#55b6e6"/></linearGradient><linearGradient x1="414.24169" y1="170.87902" x2="415.46851" y2="178.26053" gradientUnits="userSpaceOnUse" id="color-18"><stop offset="0" stop-color="#6bc399"/><stop offset="1" stop-color="#55b6e6"/></linearGradient><linearGradient x1="411.53465" y1="169.28699" x2="415.69423" y2="174.76191" gradientUnits="userSpaceOnUse" id="color-19"><stop offset="0" stop-color="#6bc399"/><stop offset="1" stop-color="#55b6e6"/></linearGradient><linearGradient x1="405.26552" y1="174.94943" x2="409.4251" y2="180.42435" gradientUnits="userSpaceOnUse" id="color-20"><stop offset="0" stop-color="#6bc399"/><stop offset="1" stop-color="#55b6e6"/></linearGradient><linearGradient x1="401.7715" y1="161.47565" x2="405.07473" y2="165.82344" gradientUnits="userSpaceOnUse" id="color-21"><stop offset="0" stop-color="#6bc399"/><stop offset="1" stop-color="#55b6e6"/></linearGradient><linearGradient x1="397.31517" y1="167.79256" x2="397.50887" y2="173.2494" gradientUnits="userSpaceOnUse" id="color-22"><stop offset="0" stop-color="#6bc399"/><stop offset="1" stop-color="#55b6e6"/></linearGradient><linearGradient x1="373.66743" y1="159.36727" x2="376.63795" y2="163.94882" gradientUnits="userSpaceOnUse" id="color-23"><stop offset="0" stop-color="#6bc399"/><stop offset="1" stop-color="#55b6e6"/></linearGradient><linearGradient x1="391.49192" y1="150.0333" x2="391.57005" y2="154.88626" gradientUnits="userSpaceOnUse" id="color-24"><stop offset="0" stop-color="#6bc399"/><stop offset="1" stop-color="#55b6e6"/></linearGradient><linearGradient x1="369.8985" y1="166.79582" x2="372.39955" y2="172.32296" gradientUnits="userSpaceOnUse" id="color-25"><stop offset="0" stop-color="#6bc399"/><stop offset="1" stop-color="#55b6e6"/></linearGradient><linearGradient x1="362.58164" y1="159.80408" x2="362.58164" y2="179.73623" gradientUnits="userSpaceOnUse" id="color-26"><stop offset="0" stop-color="#86f5bf"/><stop offset="1" stop-color="#5bc8f5"/></linearGradient><linearGradient x1="351.80166" y1="183.77517" x2="355.8582" y2="181.11026" gradientUnits="userSpaceOnUse" id="color-27"><stop offset="0" stop-color="#6bc399"/><stop offset="1" stop-color="#55b6e6"/></linearGradient><linearGradient x1="371.4454" y1="177.41661" x2="368.42898" y2="181.21905" gradientUnits="userSpaceOnUse" id="color-28"><stop offset="0" stop-color="#6bc399"/><stop offset="1" stop-color="#55b6e6"/></linearGradient><linearGradient x1="51.14129" y1="56.96722" x2="51.14129" y2="120.59611" gradientUnits="userSpaceOnUse" id="color-29"><stop offset="0" stop-color="#86f5bf"/><stop offset="1" stop-color="#5bc8f5"/></linearGradient><linearGradient x1="103.23432" y1="145.33836" x2="93.69569" y2="155.33668" gradientUnits="userSpaceOnUse" id="color-30"><stop offset="0" stop-color="#6bc399"/><stop offset="1" stop-color="#55b6e6"/></linearGradient><linearGradient x1="102.86089" y1="141.56388" x2="95.86589" y2="148.89599" gradientUnits="userSpaceOnUse" id="color-31"><stop offset="0" stop-color="#6bc399"/><stop offset="1" stop-color="#55b6e6"/></linearGradient><linearGradient x1="11.47051" y1="145.68824" x2="9.60763" y2="156.89678" gradientUnits="userSpaceOnUse" id="color-32"><stop offset="0" stop-color="#6bc399"/><stop offset="1" stop-color="#55b6e6"/></linearGradient><linearGradient x1="15.58104" y1="143.27081" x2="9.26488" y2="151.58426" gradientUnits="userSpaceOnUse" id="color-33"><stop offset="0" stop-color="#6bc399"/><stop offset="1" stop-color="#55b6e6"/></linearGradient><linearGradient x1="25.10048" y1="151.86901" x2="18.78431" y2="160.18246" gradientUnits="userSpaceOnUse" id="color-34"><stop offset="0" stop-color="#6bc399"/><stop offset="1" stop-color="#55b6e6"/></linearGradient><linearGradient x1="30.40602" y1="131.40959" x2="25.39018" y2="138.01154" gradientUnits="userSpaceOnUse" id="color-35"><stop offset="0" stop-color="#6bc399"/><stop offset="1" stop-color="#55b6e6"/></linearGradient><linearGradient x1="37.17279" y1="141.00157" x2="36.87866" y2="149.28757" gradientUnits="userSpaceOnUse" id="color-36"><stop offset="0" stop-color="#6bc399"/><stop offset="1" stop-color="#55b6e6"/></linearGradient><linearGradient x1="73.08098" y1="128.20808" x2="68.57036" y2="135.165" gradientUnits="userSpaceOnUse" id="color-37"><stop offset="0" stop-color="#6bc399"/><stop offset="1" stop-color="#55b6e6"/></linearGradient><linearGradient x1="46.01517" y1="114.0348" x2="45.89653" y2="121.40384" gradientUnits="userSpaceOnUse" id="color-38"><stop offset="0" stop-color="#6bc399"/><stop offset="1" stop-color="#55b6e6"/></linearGradient><linearGradient x1="78.80397" y1="139.48806" x2="75.00622" y2="147.88081" gradientUnits="userSpaceOnUse" id="color-39"><stop offset="0" stop-color="#6bc399"/><stop offset="1" stop-color="#55b6e6"/></linearGradient><linearGradient x1="89.91434" y1="128.87137" x2="89.91434" y2="159.13758" gradientUnits="userSpaceOnUse" id="color-40"><stop offset="0" stop-color="#86f5bf"/><stop offset="1" stop-color="#5bc8f5"/></linearGradient><linearGradient x1="106.28334" y1="165.27056" x2="100.12363" y2="161.22399" gradientUnits="userSpaceOnUse" id="color-41"><stop offset="0" stop-color="#6bc399"/><stop offset="1" stop-color="#55b6e6"/></linearGradient><linearGradient x1="76.45506" y1="155.61532" x2="81.03537" y2="161.38919" gradientUnits="userSpaceOnUse" id="color-42"><stop offset="0" stop-color="#6bc399"/><stop offset="1" stop-color="#55b6e6"/></linearGradient><linearGradient x1="90.55733" y1="114.45082" x2="90.55733" y2="156.35432" gradientUnits="userSpaceOnUse" id="color-43"><stop offset="0" stop-color="#86f5bf"/><stop offset="1" stop-color="#5bc8f5"/></linearGradient><linearGradient x1="124.86376" y1="172.6486" x2="118.58199" y2="179.2331" gradientUnits="userSpaceOnUse" id="color-44"><stop offset="0" stop-color="#6bc399"/><stop offset="1" stop-color="#55b6e6"/></linearGradient><linearGradient x1="124.61784" y1="170.16288" x2="120.0112" y2="174.99152" gradientUnits="userSpaceOnUse" id="color-45"><stop offset="0" stop-color="#6bc399"/><stop offset="1" stop-color="#55b6e6"/></linearGradient><linearGradient x1="64.4317" y1="172.87902" x2="63.20488" y2="180.26053" gradientUnits="userSpaceOnUse" id="color-46"><stop offset="0" stop-color="#6bc399"/><stop offset="1" stop-color="#55b6e6"/></linearGradient><linearGradient x1="67.13873" y1="171.28699" x2="62.97916" y2="176.76191" gradientUnits="userSpaceOnUse" id="color-47"><stop offset="0" stop-color="#6bc399"/><stop offset="1" stop-color="#55b6e6"/></linearGradient><linearGradient x1="73.40787" y1="176.94943" x2="69.24828" y2="182.42435" gradientUnits="userSpaceOnUse" id="color-48"><stop offset="0" stop-color="#6bc399"/><stop offset="1" stop-color="#55b6e6"/></linearGradient><linearGradient x1="76.90188" y1="163.47565" x2="73.59865" y2="167.82344" gradientUnits="userSpaceOnUse" id="color-49"><stop offset="0" stop-color="#6bc399"/><stop offset="1" stop-color="#55b6e6"/></linearGradient><linearGradient x1="81.35822" y1="169.79256" x2="81.16451" y2="175.2494" gradientUnits="userSpaceOnUse" id="color-50"><stop offset="0" stop-color="#6bc399"/><stop offset="1" stop-color="#55b6e6"/></linearGradient><linearGradient x1="105.00595" y1="161.36727" x2="102.03543" y2="165.94882" gradientUnits="userSpaceOnUse" id="color-51"><stop offset="0" stop-color="#6bc399"/><stop offset="1" stop-color="#55b6e6"/></linearGradient><linearGradient x1="87.18146" y1="152.0333" x2="87.10333" y2="156.88626" gradientUnits="userSpaceOnUse" id="color-52"><stop offset="0" stop-color="#6bc399"/><stop offset="1" stop-color="#55b6e6"/></linearGradient><linearGradient x1="108.77489" y1="168.79582" x2="106.27384" y2="174.32296" gradientUnits="userSpaceOnUse" id="color-53"><stop offset="0" stop-color="#6bc399"/><stop offset="1" stop-color="#55b6e6"/></linearGradient><linearGradient x1="116.09174" y1="161.80408" x2="116.09174" y2="181.73623" gradientUnits="userSpaceOnUse" id="color-54"><stop offset="0" stop-color="#86f5bf"/><stop offset="1" stop-color="#5bc8f5"/></linearGradient><linearGradient x1="126.87173" y1="185.77517" x2="122.81518" y2="183.11026" gradientUnits="userSpaceOnUse" id="color-55"><stop offset="0" stop-color="#6bc399"/><stop offset="1" stop-color="#55b6e6"/></linearGradient><linearGradient x1="107.22799" y1="179.41661" x2="110.2444" y2="183.21905" gradientUnits="userSpaceOnUse" id="color-56"><stop offset="0" stop-color="#6bc399"/><stop offset="1" stop-color="#55b6e6"/></linearGradient><linearGradient x1="266" y1="198.4" x2="266" y2="233.6" gradientUnits="userSpaceOnUse" id="color-57"><stop offset="0" stop-color="#4ec3ff"/><stop offset="1" stop-color="#3b93bf"/></linearGradient></defs><g transform="translate(2.79912,-19.66833)"><g data-paper-data="{&quot;isPaintingLayer&quot;:true}" fill-rule="nonzero" stroke-linejoin="miter" stroke-miterlimit="10" stroke-dasharray="" stroke-dashoffset="0" style="mix-blend-mode: normal"><g data-paper-data="{&quot;index&quot;:null}"><g><g><path d="M404.52102,238.57476v-106.6016h36.69257v106.6016z" fill="#b06041" stroke="none" stroke-width="0" stroke-linecap="butt"/><path d="M434.0682,238.57476v-106.6016h6.95227v106.6016z" fill="#ab5c37" stroke="none" stroke-width="0" stroke-linecap="butt"/><path d="M404.71414,238.57476v-106.6016h6.95227v106.6016z" fill="#ab5c37" stroke="none" stroke-width="0" stroke-linecap="butt"/><path d="M414.37239,162.87217v23.68924" fill="none" stroke="#ad6c4e" stroke-width="6" stroke-linecap="round"/><path d="M431.36686,193.5137v23.68924" fill="none" stroke="#ad6c4e" stroke-width="6" stroke-linecap="round"/><path d="M424.41458,154.88993v-22.91676v3.3474" fill="none" stroke="#ad6c4e" stroke-width="6" stroke-linecap="round"/></g><g fill="#ab5c37" stroke="none" stroke-linecap="butt"><path d="M375.36085,183.729v-9.78469h32.70145v9.78469z" stroke-width="NaN"/><path d="M375.10336,183.729c-2.70196,0 -4.89234,-2.19038 -4.89234,-4.89234c0,-2.70197 2.19038,-4.89234 4.89234,-4.89234c2.70196,0 4.89234,2.19037 4.89234,4.89234c0,2.70197 -2.19038,4.89234 -4.89234,4.89234z" stroke-width="0"/></g><g fill="#ab5c37" stroke="none" stroke-linecap="butt"><path d="M380.12445,178.45042h-9.78468v-32.70146h9.78468z" stroke-width="NaN"/><path d="M380.12446,178.70792c-0.00002,2.70198 -2.19039,4.89234 -4.89236,4.89234c-2.70198,0 -4.89234,-2.19036 -4.89234,-4.89234c0,-2.70197 2.19038,-4.89235 4.89234,-4.89235c2.70198,0 4.89236,2.19037 4.89236,4.89235z" stroke-width="0"/></g><path d="M404.87574,140.21291v-7.98225h36.30634v7.98225z" fill="#86482b" stroke="none" stroke-width="NaN" stroke-linecap="butt"/><path d="M370.37185,161.32723v-7.98225h9.52719v7.98225z" fill="#86482b" stroke="none" stroke-width="NaN" stroke-linecap="butt"/></g><g stroke="none" stroke-width="0" stroke-linecap="butt"><path d="M467.84383,134.41771c-13.14583,0 -63.64149,0 -87.4845,0c-7.6882,0 -12.60519,-4.8774 -12.60519,-12.07022c0,-16.7814 0,-46.16616 0,-55.61821c0,-5.76622 4.91763,-12.34278 12.60519,-12.34278c23.79033,0 74.10805,0 87.30261,0c6.20159,0 12.60683,6.45788 12.60683,12.14966c0,9.3909 0,38.74537 0,55.61822c0,7.29979 -6.29974,12.26334 -12.42494,12.26334z" fill="url(#color-1)"/><path d="M379.28549,133.98178c-3.47269,3.31301 -8.97359,3.18359 -12.28661,-0.2891c-3.31301,-3.47269 -3.18358,-8.9736 0.2891,-12.28661c3.47269,-3.31301 8.97359,-3.18358 12.28661,0.28911c3.31301,3.4727 3.18358,8.97359 -0.2891,12.28661z" fill="url(#color-2)"/><path d="M374.20968,123.42155c-2.54663,2.42955 -6.58062,2.33461 -9.01018,-0.21201c-2.42955,-2.54663 -2.33462,-6.58062 0.21201,-9.01018c2.54663,-2.42955 6.58062,-2.33462 9.01018,0.21201c2.42955,2.54663 2.33461,6.58062 -0.21202,9.01018z" fill="url(#color-3)"/><path d="M477.96998,137.0603c-3.89302,0.64702 -7.57346,-1.98438 -8.22049,-5.8774c-0.64702,-3.89302 1.98438,-7.57346 5.8774,-8.22049c3.89302,-0.64701 7.57346,1.98438 8.22049,5.8774c0.64702,3.89302 -1.98438,7.57346 -5.8774,8.2205z" fill="url(#color-4)"/><path d="M482.50868,127.70797c-2.88749,2.19377 -7.00667,1.63141 -9.20044,-1.25607c-2.19377,-2.88749 -1.6314,-7.00666 1.25608,-9.20043c2.88749,-2.19377 7.00666,-1.6314 9.20043,1.25607c2.19377,2.88749 1.63141,7.00666 -1.25607,9.20043z" fill="url(#color-5)"/><path d="M471.79137,129.32219c2.19377,2.88747 1.63142,7.00665 -1.25608,9.20042c-2.88747,2.19378 -7.00664,1.63142 -9.20041,-1.25607c-2.19377,-2.88747 -1.63141,-7.00664 1.25607,-9.20041c2.88749,-2.19379 7.00666,-1.63142 9.20043,1.25607z" fill="url(#color-6)"/><path d="M461.0272,109.0578c-2.29302,1.74214 -5.56417,1.29555 -7.30631,-0.99748c-1.74214,-2.29302 -1.29555,-5.56417 0.99748,-7.30631c2.29303,-1.74214 5.56417,-1.29556 7.30631,0.99748c1.74214,2.29303 1.29555,5.56417 -0.99748,7.30631z" fill="url(#color-7)"/><path d="M442.22201,124.79393c-2.87797,0.10215 -5.29382,-2.14806 -5.39597,-5.02602c-0.10215,-2.87797 2.14806,-5.29382 5.02602,-5.39597c2.87797,-0.10215 5.29381,2.14806 5.39597,5.02602c0.10215,2.87797 -2.14806,5.29382 -5.02601,5.39597z" fill="url(#color-8)"/><path d="M406.24997,105.80489c-2.41634,1.56665 -5.64517,0.87787 -7.21183,-1.53845c-1.56667,-2.41633 -0.87788,-5.64516 1.53844,-7.21182c2.41634,-1.56665 5.64517,-0.87787 7.21183,1.53845c1.56667,2.41633 0.87788,5.64516 -1.53844,7.21182z" fill="url(#color-9)"/><path d="M430.71764,88.8765c-2.55946,0.04121 -4.66772,-2.00024 -4.70893,-4.55971c-0.0412,-2.55947 2.00024,-4.66772 4.55971,-4.70893c2.55946,-0.04121 4.66773,2.00023 4.70893,4.5597c0.0412,2.55947 -2.00024,4.66773 -4.55971,4.70893z" fill="url(#color-10)"/><path d="M397.49755,123.12299c-2.91503,1.31907 -6.34743,0.02529 -7.66649,-2.88974c-1.31906,-2.91504 -0.02529,-6.34743 2.88974,-7.66649c2.91503,-1.31907 6.34743,-0.02529 7.66649,2.88974c1.31906,2.91504 0.02529,6.34743 -2.88974,7.66649z" fill="url(#color-11)"/></g><path d="M402.00322,149.08588c0,3.47227 -2.99659,5.83327 -5.91015,5.83327c-6.25304,0 -30.2722,0 -41.61354,0c-3.65702,0 -5.99588,-2.32002 -5.99588,-5.74141c0,-7.98237 0,-21.95975 0,-26.45579c0,-2.74282 2.33916,-5.87107 5.99588,-5.87107c11.31631,0 35.25081,0 41.52704,0c2.9499,0 5.99667,3.0718 5.99667,5.7792c0,4.46694 0,18.42992 0,26.45579z" fill="url(#color-12)" stroke="none" stroke-width="0" stroke-linecap="butt"/><path d="M368.08394,128.4321c1.40548,2.13943 0.81051,5.01315 -1.32893,6.41863c-2.13945,1.4055 -5.01316,0.8105 -6.41864,-1.32894c-1.40548,-2.13943 -0.8105,-5.01315 1.32894,-6.41863c2.13945,-1.4055 5.01315,-0.8105 6.41863,1.32894z" fill="url(#color-13)" stroke="none" stroke-width="0" stroke-linecap="butt"/><path d="M382.18648,137.69798c-2.00542,-1.59087 -2.34148,-4.50623 -0.75062,-6.51164c1.59087,-2.00543 4.50623,-2.34149 6.51165,-0.75062c2.00542,1.59087 2.34148,4.50623 0.75062,6.51165c-1.59087,2.00543 -4.50623,2.34148 -6.51165,0.75062z" fill="url(#color-14)" stroke="none" stroke-width="0" stroke-linecap="butt"/></g><g data-paper-data="{&quot;index&quot;:null}"><g><g><path d="M377.91108,236.82552v-55.81548h19.21184v55.81548z" fill="#b06041" stroke="none" stroke-width="0" stroke-linecap="butt"/><path d="M393.38167,236.82552v-55.81548h3.64013v55.81548z" fill="#ab5c37" stroke="none" stroke-width="0" stroke-linecap="butt"/><path d="M378.01219,236.82552v-55.81548h3.64014v55.81548z" fill="#ab5c37" stroke="none" stroke-width="0" stroke-linecap="butt"/><path d="M383.06915,197.18845v12.40344" fill="none" stroke="#ad6c4e" stroke-width="6" stroke-linecap="round"/><path d="M391.96727,213.23203v12.40344" fill="none" stroke="#ad6c4e" stroke-width="6" stroke-linecap="round"/><path d="M388.32713,182.76272v-1.75266v11.99898" fill="none" stroke="#ad6c4e" stroke-width="6" stroke-linecap="round"/></g><g fill="#ab5c37" stroke="none" stroke-linecap="butt"><path d="M362.64312,208.10887v-5.12316h17.12213v5.12317z" stroke-width="NaN"/><path d="M362.5083,208.10887c-1.41472,0 -2.56158,-1.14686 -2.56158,-2.56158c0,-1.41472 1.14686,-2.56158 2.56158,-2.56158c1.41472,0 2.56158,1.14686 2.56158,2.56158c0,1.41472 -1.14686,2.56158 -2.56158,2.56158z" stroke-width="0"/></g><g fill="#ab5c37" stroke="none" stroke-linecap="butt"><path d="M365.13729,205.34506h-5.12316v-17.12214h5.12316z" stroke-width="NaN"/><path d="M365.13729,205.47988c0,1.41473 -1.14686,2.56158 -2.56158,2.56158c-1.41472,0 -2.56158,-1.14686 -2.56158,-2.56158c0,-1.41472 1.14686,-2.56158 2.56158,-2.56158c1.41472,0 2.56158,1.14685 2.56158,2.56158z" stroke-width="0"/></g><path d="M378.0968,185.3243v-4.17942h19.00962v4.17942z" fill="#86482b" stroke="none" stroke-width="NaN" stroke-linecap="butt"/><path d="M360.03093,196.37953v-4.17942h4.98833v4.17942z" fill="#86482b" stroke="none" stroke-width="NaN" stroke-linecap="butt"/></g><g stroke="none" stroke-width="0" stroke-linecap="butt"><path d="M411.06623,182.29c-6.88301,0 -33.32201,0 -45.80595,0c-4.02546,0 -6.59995,-2.55375 -6.59995,-6.31984c0,-8.78656 0,-24.17212 0,-29.12112c0,-3.01914 2.57482,-6.46255 6.59995,-6.46255c12.45637,0 38.8022,0 45.71073,0c3.24709,0 6.6008,3.38127 6.6008,6.36144c0,4.91698 0,20.28667 0,29.12111c0,3.82209 -3.29849,6.42096 -6.50557,6.42096z" fill="url(#color-15)"/><path d="M364.69802,182.06175c-1.81826,1.73466 -4.69847,1.66689 -6.43314,-0.15137c-1.73465,-1.81826 -1.66689,-4.69847 0.15137,-6.43314c1.81826,-1.73466 4.69847,-1.66689 6.43314,0.15137c1.73465,1.81826 1.66689,4.69848 -0.15137,6.43314z" fill="url(#color-16)"/><path d="M362.04038,176.53252c-1.33339,1.27209 -3.44554,1.22238 -4.71763,-0.11101c-1.27209,-1.33339 -1.22239,-3.44555 0.111,-4.71764c1.33339,-1.27209 3.44555,-1.22238 4.71764,0.11101c1.27209,1.33339 1.22238,3.44555 -0.11101,4.71764z" fill="url(#color-17)"/><path d="M416.36817,183.67363c-2.03834,0.33877 -3.96539,-1.039 -4.30417,-3.07734c-0.33877,-2.03834 1.039,-3.96539 3.07734,-4.30417c2.03834,-0.33877 3.96539,1.039 4.30417,3.07735c0.33877,2.03834 -1.039,3.96539 -3.07734,4.30416z" fill="url(#color-18)"/><path d="M418.74459,178.77684c-1.51186,1.14864 -3.66861,0.85419 -4.81724,-0.65766c-1.14864,-1.51186 -0.85418,-3.66861 0.65767,-4.81725c1.51186,-1.14864 3.66861,-0.85418 4.81724,0.65767c1.14864,1.51186 0.85418,3.66861 -0.65767,4.81724z" fill="url(#color-19)"/><path d="M413.13312,179.62203c1.14864,1.51185 0.8542,3.66861 -0.65766,4.81725c-1.51185,1.14864 -3.66861,0.8542 -4.81725,-0.65767c-1.14864,-1.51185 -0.85418,-3.66861 0.65767,-4.81725c1.51186,-1.14864 3.66861,-0.8542 4.81725,0.65767z" fill="url(#color-20)"/><path d="M407.49711,169.01181c-1.2006,0.91216 -2.91334,0.67834 -3.82551,-0.52227c-0.91217,-1.2006 -0.67834,-2.91335 0.52227,-3.82551c1.2006,-0.91216 2.91334,-0.67834 3.82551,0.52228c0.91217,1.2006 0.67834,2.91334 -0.52227,3.8255z" fill="url(#color-21)"/><path d="M397.65091,177.25108c-1.50687,0.05349 -2.77178,-1.12471 -2.82527,-2.63157c-0.05349,-1.50688 1.1247,-2.77178 2.63157,-2.82528c1.50687,-0.05349 2.77178,1.12471 2.82527,2.63158c0.05349,1.50688 -1.12471,2.77178 -2.63157,2.82527z" fill="url(#color-22)"/><path d="M378.81633,167.30862c-1.26517,0.82029 -2.95575,0.45964 -3.77603,-0.80552c-0.82029,-1.26516 -0.45965,-2.95574 0.80551,-3.77603c1.26517,-0.82029 2.95576,-0.45964 3.77604,0.80552c0.82029,1.26516 0.45964,2.95574 -0.80552,3.77603z" fill="url(#color-23)"/><path d="M391.62735,158.4451c-1.3401,0.02158 -2.44397,-1.0473 -2.46554,-2.38742c-0.02157,-1.34011 1.0473,-2.44397 2.38741,-2.46555c1.3401,-0.02158 2.44397,1.04731 2.46555,2.38742c0.02157,1.34011 -1.04731,2.44397 -2.38742,2.46555z" fill="url(#color-24)"/><path d="M374.23366,176.3762c-1.52628,0.69065 -3.32345,0.01325 -4.01409,-1.51304c-0.69065,-1.52628 -0.01324,-3.32345 1.51304,-4.01409c1.52628,-0.69065 3.32345,-0.01325 4.01409,1.51304c0.69065,1.52628 0.01324,3.32345 -1.51304,4.01409z" fill="url(#color-25)"/></g><path d="M376.59278,189.97009c0,1.81805 -1.56898,3.05425 -3.09449,3.05425c-3.27402,0 -15.85021,0 -21.78841,0c-1.91478,0 -3.13938,-1.21475 -3.13938,-3.00615c0,-4.17948 0,-11.49789 0,-13.85197c0,-1.43611 1.22476,-3.07403 3.13938,-3.07403c5.9251,0 18.45696,0 21.74312,0c1.54453,0 3.13979,1.60836 3.13979,3.02593c0,2.33884 0,9.64971 0,13.85198z" fill="url(#color-26)" stroke="none" stroke-width="0" stroke-linecap="butt"/><path d="M358.83301,179.15599c0.7359,1.12018 0.42437,2.62483 -0.69582,3.36073c-1.12019,0.7359 -2.62483,0.42437 -3.36073,-0.69582c-0.7359,-1.12018 -0.42437,-2.62483 0.69582,-3.36073c1.12019,-0.7359 2.62483,-0.42436 3.36073,0.69582z" fill="url(#color-27)" stroke="none" stroke-width="0" stroke-linecap="butt"/><path d="M366.21694,184.00751c-1.05001,-0.83296 -1.22598,-2.35941 -0.39302,-3.40943c0.83296,-1.05003 2.35942,-1.22598 3.40943,-0.39302c1.05001,0.83296 1.22598,2.35941 0.39301,3.40943c-0.83296,1.05003 -2.35942,1.22598 -3.40943,0.39302z" fill="url(#color-28)" stroke="none" stroke-width="0" stroke-linecap="butt"/></g><g><g><g><path d="M37.46471,245.82552v-84.75369h29.17246v84.75369z" fill="#b06041" stroke="none" stroke-width="0" stroke-linecap="butt"/><path d="M37.61825,245.82552v-84.75369h5.52741v84.75369z" fill="#ab5c37" stroke="none" stroke-width="0" stroke-linecap="butt"/><path d="M60.95622,245.82552v-84.75369h5.52741v84.75369z" fill="#ab5c37" stroke="none" stroke-width="0" stroke-linecap="butt"/><path d="M58.80483,185.63812v18.83415" fill="none" stroke="#ad6c4e" stroke-width="6" stroke-linecap="round"/><path d="M45.29337,228.83384v-18.83415" fill="none" stroke="#ad6c4e" stroke-width="6" stroke-linecap="round"/><path d="M50.82078,163.73319v-2.66135v18.21999" fill="none" stroke="#ad6c4e" stroke-width="6" stroke-linecap="round"/></g><g fill="#ab5c37" stroke="none" stroke-linecap="butt"><path d="M63.82167,202.22036v-7.77933h25.99932v7.77933z" stroke-width="NaN"/><path d="M86.13605,198.3307c0,-2.1482 1.74146,-3.88966 3.88966,-3.88966c2.1482,0 3.88966,1.74146 3.88966,3.88966c0,2.1482 -1.74146,3.88966 -3.88966,3.88966c-2.1482,0 -3.88966,-1.74146 -3.88966,-3.88966z" stroke-width="0"/></g><g fill="#ab5c37" stroke="none" stroke-linecap="butt"><path d="M86.03369,172.0243h7.77932v25.99932h-7.77932z" stroke-width="NaN"/><path d="M89.92335,194.33868c2.1482,0 3.88966,1.74146 3.88966,3.88966c0,2.14821 -1.74145,3.88966 -3.88966,3.88966c-2.1482,0 -3.88966,-1.74145 -3.88967,-3.88966c0,-2.14821 1.74146,-3.88966 3.88967,-3.88966z" stroke-width="0"/></g><path d="M37.48976,167.62285v-6.34629h28.86539v6.34629z" fill="#86482b" stroke="none" stroke-width="NaN" stroke-linecap="butt"/><path d="M86.2129,184.40981v-6.34629h7.5746v6.34629z" fill="#86482b" stroke="none" stroke-width="NaN" stroke-linecap="butt"/></g><g stroke="none" stroke-width="0" stroke-linecap="butt"><path d="M6.41386,153.2654c0,-13.41477 0,-36.75307 0,-44.21931c0,-4.52526 5.09249,-9.6596 10.02307,-9.6596c10.49034,0 50.49549,0 69.41001,0c6.112,0 10.02177,5.2287 10.02177,9.81314c0,7.51486 0,30.87725 0,44.21931c0,5.71866 -3.90926,9.59644 -10.02177,9.59644c-18.9564,0 -59.10302,0 -69.55462,0c-4.86984,0 -9.87846,-3.94628 -9.87846,-9.74998z" fill="url(#color-29)"/><path d="M86.47085,152.90031c2.63402,-2.76096 7.00751,-2.86386 9.76848,-0.22985c2.76096,2.63402 2.86386,7.00751 0.22985,9.76848c-2.63402,2.76096 -7.00751,2.86386 -9.76848,0.22985c-2.76096,-2.63402 -2.86386,-7.00751 -0.22985,-9.76848z" fill="url(#color-30)"/><path d="M90.56767,147.10932c1.93162,-2.0247 5.13885,-2.10017 7.16355,-0.16856c2.0247,1.93162 2.10017,5.13885 0.16856,7.16355c-1.93162,2.0247 -5.13885,2.10017 -7.16355,0.16856c-2.0247,-1.93162 -2.10017,-5.13885 -0.16856,-7.16355z" fill="url(#color-31)"/><path d="M3.56869,158.58066c0.51442,-3.09515 3.44056,-5.18724 6.53571,-4.67283c3.09515,0.51442 5.18724,3.44056 4.67283,6.53571c-0.51442,3.09515 -3.44056,5.18724 -6.53571,4.67283c-3.09515,-0.51442 -5.18724,-3.44056 -4.67283,-6.53571z" fill="url(#color-32)"/><path d="M3.63438,150.36598c1.74416,-2.29569 5.01911,-2.7428 7.31481,-0.99864c2.29569,1.74416 2.7428,5.01911 0.99864,7.31481c-1.74416,2.29569 -5.01911,2.7428 -7.31481,0.99864c-2.29569,-1.74416 -2.7428,-5.01911 -0.99864,-7.31481z" fill="url(#color-33)"/><path d="M13.15382,158.96418c1.74416,-2.2957 5.01911,-2.74281 7.31481,-0.99864c2.29569,1.74416 2.7428,5.01911 0.99864,7.3148c-1.74416,2.2957 -5.01911,2.74281 -7.3148,0.99864c-2.2957,-1.74416 -2.7428,-5.01911 -0.99864,-7.3148z" fill="url(#color-34)"/><path d="M20.91884,137.04407c1.38509,-1.82308 3.98582,-2.17814 5.80889,-0.79305c1.82308,1.38509 2.17814,3.98582 0.79305,5.80889c-1.38509,1.82308 -3.98582,2.17814 -5.80889,0.79305c-1.82308,-1.38509 -2.17814,-3.98582 -0.79305,-5.80889z" fill="url(#color-35)"/><path d="M32.66703,151.07391c0.08122,-2.28812 2.00194,-4.07716 4.29007,-3.99594c2.28812,0.08122 4.07716,2.00194 3.99594,4.29007c-0.08122,2.28812 -2.00194,4.07716 -4.29007,3.99594c-2.28812,-0.08122 -4.07716,-2.00194 -3.99594,-4.29007z" fill="url(#color-36)"/><path d="M64.03943,134.53297c1.24557,-1.9211 3.81266,-2.46872 5.73377,-1.22315c1.9211,1.24557 2.46872,3.81266 1.22314,5.73376c-1.24557,1.9211 -3.81266,2.46872 -5.73377,1.22315c-1.9211,-1.24557 -2.46872,-3.81266 -1.22314,-5.73376z" fill="url(#color-37)"/><path d="M42.18433,123.06396c0.03276,-2.03491 1.70894,-3.65796 3.74384,-3.6252c2.03491,0.03276 3.65796,1.70893 3.6252,3.74384c-0.03276,2.03491 -1.70894,3.65796 -3.74384,3.6252c-2.03491,-0.03276 -3.65796,-1.70893 -3.6252,-3.74384z" fill="url(#color-38)"/><path d="M69.9237,147.94025c1.04872,-2.3176 3.77765,-3.34622 6.09525,-2.29749c2.3176,1.04872 3.34621,3.77765 2.29749,6.09525c-1.04872,2.3176 -3.77765,3.34622 -6.09525,2.29749c-2.3176,-1.04872 -3.34621,-3.77765 -2.29749,-6.09525z" fill="url(#color-39)"/></g><path d="M68.63894,174.67731c0,-6.38098 0,-17.48225 0,-21.0337c0,-2.15252 2.42233,-4.59476 4.76765,-4.59476c4.98992,0 24.01907,0 33.01611,0c2.90728,0 4.76703,2.48712 4.76703,4.6678c0,3.57458 0,14.68731 0,21.0337c0,2.72018 -1.85951,4.56472 -4.76703,4.56472c-9.01694,0 -28.1134,0 -33.08488,0c-2.31643,0 -4.69887,-1.87712 -4.69887,-4.63775z" fill="url(#color-40)" stroke="none" stroke-width="0" stroke-linecap="butt"/><path d="M100.70964,157.19994c1.70096,1.11743 2.174,3.40218 1.05657,5.10314c-1.11743,1.70096 -3.40217,2.17401 -5.10314,1.05657c-1.70096,-1.11743 -2.174,-3.40218 -1.05657,-5.10314c1.11743,-1.70096 3.40217,-2.17401 5.10314,-1.05657z" fill="url(#color-41)" stroke="none" stroke-width="0" stroke-linecap="butt"/><path d="M79.21718,165.02658c-1.26482,-1.59441 -0.99763,-3.91227 0.59678,-5.17709c1.59441,-1.26482 3.91227,-0.99764 5.17709,0.59678c1.26482,1.59441 0.99763,3.91227 -0.59678,5.17709c-1.59441,1.26482 -3.91227,0.99764 -5.17709,-0.59678z" fill="url(#color-42)" stroke="none" stroke-width="0" stroke-linecap="butt"/></g><g><g><g><path d="M81.55047,238.82552v-55.81548h19.21184v55.81548z" fill="#b06041" stroke="none" stroke-width="0" stroke-linecap="butt"/><path d="M81.65158,238.82552v-55.81548h3.64014v55.81548z" fill="#ab5c37" stroke="none" stroke-width="0" stroke-linecap="butt"/><path d="M97.02106,238.82552v-55.81548h3.64014v55.81548z" fill="#ab5c37" stroke="none" stroke-width="0" stroke-linecap="butt"/><path d="M95.60424,199.18845v12.40344" fill="none" stroke="#ad6c4e" stroke-width="6" stroke-linecap="round"/><path d="M86.70612,227.63547v-12.40344" fill="none" stroke="#ad6c4e" stroke-width="6" stroke-linecap="round"/><path d="M90.34625,184.76271v-1.75266v11.99898" fill="none" stroke="#ad6c4e" stroke-width="6" stroke-linecap="round"/></g><g fill="#ab5c37" stroke="none" stroke-linecap="butt"><path d="M98.90813,210.10887v-5.12316h17.12214v5.12317z" stroke-width="NaN"/><path d="M113.60351,207.54729c0,-1.41472 1.14686,-2.56158 2.56158,-2.56158c1.41472,0 2.56158,1.14686 2.56158,2.56158c0,1.41472 -1.14686,2.56158 -2.56158,2.56158c-1.41472,0 -2.56158,-1.14686 -2.56158,-2.56158z" stroke-width="0"/></g><g fill="#ab5c37" stroke="none" stroke-linecap="butt"><path d="M113.5361,190.22292h5.12316v17.12214h-5.12316z" stroke-width="NaN"/><path d="M116.09768,204.9183c1.41472,0 2.56158,1.14686 2.56158,2.56158c0,1.41473 -1.14686,2.56158 -2.56158,2.56158c-1.41472,0 -2.56158,-1.14686 -2.56158,-2.56158c0,-1.41473 1.14686,-2.56158 2.56158,-2.56158z" stroke-width="0"/></g><path d="M81.56696,187.3243v-4.17942h19.00962v4.17942z" fill="#86482b" stroke="none" stroke-width="NaN" stroke-linecap="butt"/><path d="M113.65412,198.37953v-4.17942h4.98833v4.17942z" fill="#86482b" stroke="none" stroke-width="NaN" stroke-linecap="butt"/></g><g stroke="none" stroke-width="0" stroke-linecap="butt"><path d="M61.10159,177.86904c0,-8.83444 0,-24.20413 0,-29.12111c0,-2.98016 3.35371,-6.36143 6.6008,-6.36143c6.90853,0 33.25436,0 45.71073,0c4.02513,0 6.59995,3.44341 6.59995,6.46255c0,4.94899 0,20.33455 0,29.12112c0,3.76609 -2.57449,6.31984 -6.59995,6.31984c-12.48395,0 -38.92294,0 -45.80595,0c-3.20709,0 -6.50557,-2.59887 -6.50557,-6.42096z" fill="url(#color-43)"/><path d="M113.824,177.62861c1.73467,-1.81826 4.61488,-1.88602 6.43314,-0.15137c1.81826,1.73467 1.88603,4.61487 0.15137,6.43314c-1.73467,1.81826 -4.61488,1.88603 -6.43314,0.15137c-1.81826,-1.73467 -1.88603,-4.61488 -0.15137,-6.43314z" fill="url(#color-44)"/><path d="M116.522,173.81489c1.27209,-1.33339 3.38425,-1.38309 4.71764,-0.11101c1.33339,1.27209 1.38309,3.38424 0.111,4.71764c-1.27209,1.33339 -3.38425,1.38309 -4.71764,0.11101c-1.33339,-1.27209 -1.38309,-3.38424 -0.111,-4.71764z" fill="url(#color-45)"/><path d="M59.22787,181.36946c0.33877,-2.03834 2.26582,-3.41612 4.30416,-3.07735c2.03834,0.33877 3.41611,2.26582 3.07735,4.30417c-0.33877,2.03834 -2.26582,3.41611 -4.30416,3.07734c-2.03834,-0.33877 -3.41611,-2.26582 -3.07735,-4.30416z" fill="url(#color-46)"/><path d="M59.27113,175.9596c1.14863,-1.51185 3.30539,-1.80631 4.81725,-0.65767c1.51185,1.14864 1.8063,3.30539 0.65766,4.81725c-1.14863,1.51185 -3.30538,1.8063 -4.81724,0.65766c-1.51185,-1.14864 -1.8063,-3.30538 -0.65767,-4.81724z" fill="url(#color-47)"/><path d="M65.54026,181.62203c1.14863,-1.51186 3.30539,-1.80631 4.81725,-0.65767c1.51185,1.14864 1.8063,3.3054 0.65766,4.81725c-1.14863,1.51186 -3.3054,1.80631 -4.81724,0.65767c-1.51186,-1.14864 -1.8063,-3.3054 -0.65766,-4.81725z" fill="url(#color-48)"/><path d="M70.654,167.18631c0.91217,-1.20061 2.6249,-1.43444 3.82551,-0.52228c1.20061,0.91216 1.43444,2.62491 0.52227,3.82551c-0.91217,1.20061 -2.6249,1.43443 -3.82551,0.52227c-1.20061,-0.91216 -1.43444,-2.6249 -0.52227,-3.8255z" fill="url(#color-49)"/><path d="M78.3909,176.42581c0.05349,-1.50687 1.3184,-2.68507 2.82527,-2.63158c1.50687,0.05349 2.68506,1.3184 2.63157,2.82528c-0.05349,1.50687 -1.3184,2.68506 -2.82527,2.63157c-1.50687,-0.05349 -2.68506,-1.31839 -2.63157,-2.82527z" fill="url(#color-50)"/><path d="M99.05154,165.53259c0.82028,-1.26516 2.51087,-1.62581 3.77604,-0.80552c1.26516,0.82029 1.6258,2.51087 0.80551,3.77603c-0.82028,1.26516 -2.51086,1.62581 -3.77603,0.80552c-1.26516,-0.82029 -1.6258,-2.51087 -0.80551,-3.77603z" fill="url(#color-51)"/><path d="M84.65862,157.97955c0.02157,-1.34011 1.12544,-2.409 2.46555,-2.38742c1.34011,0.02158 2.40899,1.12544 2.38741,2.46555c-0.02157,1.34011 -1.12544,2.40899 -2.46554,2.38742c-1.34011,-0.02158 -2.40899,-1.12544 -2.38742,-2.46555z" fill="url(#color-52)"/><path d="M102.92669,174.3621c0.69065,-1.52628 2.48781,-2.20369 4.01409,-1.51304c1.52628,0.69064 2.20368,2.48781 1.51304,4.01409c-0.69065,1.52628 -2.48781,2.20369 -4.01409,1.51304c-1.52628,-0.69064 -2.20368,-2.48781 -1.51304,-4.01409z" fill="url(#color-53)"/></g><path d="M102.0806,191.97009c0,-4.20227 0,-11.51313 0,-13.85198c0,-1.41756 1.59525,-3.02593 3.13979,-3.02593c3.28616,0 15.81802,0 21.74312,0c1.91462,0 3.13938,1.63792 3.13938,3.07403c0,2.35408 0,9.67248 0,13.85197c0,1.7914 -1.2246,3.00615 -3.13938,3.00615c-5.9382,0 -18.51439,0 -21.78841,0c-1.52551,0 -3.09449,-1.2362 -3.09449,-3.05425z" fill="url(#color-54)" stroke="none" stroke-width="0" stroke-linecap="butt"/><path d="M123.20111,180.46017c1.12019,0.73589 1.43171,2.24054 0.69581,3.36073c-0.73589,1.12018 -2.24054,1.43171 -3.36073,0.69582c-1.12019,-0.73589 -1.43171,-2.24054 -0.69582,-3.36073c0.73589,-1.12018 2.24054,-1.43172 3.36073,-0.69582z" fill="url(#color-55)" stroke="none" stroke-width="0" stroke-linecap="butt"/><path d="M109.04701,185.61449c-0.83296,-1.05002 -0.657,-2.57647 0.39302,-3.40943c1.05002,-0.83296 2.57647,-0.657 3.40943,0.39302c0.83296,1.05002 0.657,2.57647 -0.39302,3.40943c-1.05002,0.83296 -2.57647,0.657 -3.40943,-0.39302z" fill="url(#color-56)" stroke="none" stroke-width="0" stroke-linecap="butt"/></g><path d="M3.5,407.11351v-166h477v166z" fill="#ffffff" stroke="none" stroke-width="0" stroke-linecap="butt"/><path d="M1.42586,408.61351v-127h482v127z" fill="#4eaad2" stroke="none" stroke-width="0" stroke-linecap="butt"/><path d="M483.37031,239.61351v59h-461.94444v-59z" fill="#5ecfff" stroke="none" stroke-width="0" stroke-linecap="butt"/><path d="M55.34966,256.51351c0,11.95934 0,24.21448 0,30.83334c0,4.95926 -4.77905,11 -11.5,11c-7.54753,0 -42.41517,0 -42.41517,0l-0.43337,-53.50001c0,0 38.91264,0 42.18187,0c5.44652,0 12.16667,4.90772 12.16667,11.66666z" fill="#9ce1ff" stroke="none" stroke-width="0" stroke-linecap="butt"/><path d="M481.69847,239.61415h1.68348h-482.80781h2.62674" fill="none" stroke="#ffffff" stroke-width="12" stroke-linecap="round"/><path d="M274.81476,256.70888c0,10.35672 0,20.96962 0,26.70151c0,4.2947 -4.13863,9.52594 -9.95894,9.52594c-11.11946,0 -49.59366,0 -55.85668,0c-4.50871,0 -11.40227,-4.24585 -11.69093,-10.68061c-0.19829,-4.42017 -0.11643,-16.51255 0,-24.39219c0.07546,-5.10689 6.31612,-11.25793 12.55693,-11.25793c11.62281,0 50.20867,0 54.41335,0c4.71666,0 10.53628,4.25007 10.53628,10.10327z" fill="#79d7ff" stroke="none" stroke-width="0" stroke-linecap="butt"/><path d="M153.68863,317.26443c0,10.35672 0,20.96962 0,26.70152c0,4.2947 -4.13864,9.52594 -9.95895,9.52594c-11.11946,0 -49.59365,0 -55.85667,0c-4.50871,0 -11.40226,-4.24584 -11.69093,-10.68061c-0.19829,-4.42017 -0.11643,-16.51254 0,-24.39219c0.07546,-5.10689 6.31612,-11.25793 12.55693,-11.25793c11.62282,0 50.20867,0 54.41335,0c4.71666,0 10.53627,4.25006 10.53627,10.10327z" fill="#4597ba" stroke="none" stroke-width="0" stroke-linecap="butt"/><path d="M326.85679,362.80497c0,10.35672 0,20.96962 0,26.70152c0,4.2947 -4.13864,9.52594 -9.95895,9.52594c-11.11946,0 -49.59366,0 -55.85667,0c-4.50871,0 -11.40226,-4.24585 -11.69093,-10.68061c-0.19829,-4.42017 -0.11643,-16.51254 0,-24.39219c0.07546,-5.10689 6.31612,-11.25794 12.55693,-11.25794c11.62282,0 50.20867,0 54.41335,0c4.71666,0 10.53627,4.25006 10.53627,10.10327z" fill="#479cc0" stroke="none" stroke-width="0" stroke-linecap="butt"/><g data-paper-data="{&quot;index&quot;:null}" stroke="none" stroke-width="0" stroke-linecap="butt"><path d="M275.85926,233.6c-3.79662,0 -12.87241,0 -19.55556,0c-4.4924,0 -7.9037,-4.31611 -7.9037,-7.65926c0,-3.78168 0,-12.85201 0,-19.55555c0,-4.53394 3.41129,-7.98519 7.9037,-7.98519c6.68315,0 15.75894,0 19.55556,0c3.3708,0 7.74074,3.29191 7.74074,7.65926c0,6.62126 0,15.71442 0,19.55555c0,3.45303 -4.36994,7.98519 -7.74074,7.98519z" fill="url(#color-57)"/><path d="M266,227.57038c-6.39014,0 -11.57038,-5.18024 -11.57038,-11.57038c0,-6.39014 5.18024,-11.57038 11.57038,-11.57038c6.39014,0 11.57038,5.18024 11.57038,11.57038c0,6.39014 -5.18024,11.57038 -11.57038,11.57038z" fill="#dadada"/><path d="M266,226.83704c-5.98514,0 -10.83703,-4.8519 -10.83703,-10.83703c0,-5.98514 4.8519,-10.83703 10.83703,-10.83703c5.98514,0 10.83704,4.8519 10.83704,10.83703c0,5.98514 -4.8519,10.83703 -10.83704,10.83703z" fill="#ffffff"/><g><path d="M265.22346,221.54074c-1.19524,0 -4.05242,0 -6.15638,0c-1.41427,0 -2.4882,-1.35878 -2.4882,-2.41125c0,-1.19053 0,-4.04601 0,-6.15638c0,-1.42736 1.07393,-2.51386 2.4882,-2.51386c2.10396,0 4.96114,0 6.15638,0c1.06117,0 2.4369,1.03634 2.4369,2.41125c0,2.08447 0,4.94715 0,6.15639c0,1.08707 -1.37573,2.51386 -2.4369,2.51386z" fill="#1d1d1d"/><path d="M264.67573,220.56297c-0.98431,0 -3.33729,0 -5.06996,0c-1.16471,0 -2.04911,-1.11899 -2.04911,-1.98574c0,-0.98043 0,-3.332 0,-5.06996c0,-1.17547 0.88441,-2.07023 2.04911,-2.07023c1.73266,0 4.08565,0 5.06996,0c0.87391,0 2.00685,0.85346 2.00685,1.98574c0,1.71662 0,4.07411 0,5.06996c0,0.89523 -1.13294,2.07023 -2.00685,2.07023z" fill="#000000"/></g></g><text transform="translate(104.60001,48.35001) scale(0.7528,0.7528)" font-size="40" xml:space="preserve" fill="#00ecff" fill-rule="nonzero" stroke="none" stroke-width="1" stroke-linecap="butt" stroke-linejoin="miter" stroke-miterlimit="10" stroke-dasharray="" stroke-dashoffset="0" font-family="Handwriting" font-weight="normal" text-anchor="start" style="mix-blend-mode: normal"><tspan x="0" dy="0"> One day, you were</tspan><tspan x="0" dy="46.150000000000006px">walking in the forest</tspan><tspan x="0" dy="46.150000000000006px">     like everyday</tspan></text><text transform="translate(155.32739,325.30365) scale(0.82503,0.82503)" font-size="40" xml:space="preserve" fill="#00ecff" fill-rule="nonzero" stroke="none" stroke-width="1" stroke-linecap="butt" stroke-linejoin="miter" stroke-miterlimit="10" stroke-dasharray="" stroke-dashoffset="0" font-family="Handwriting" font-weight="normal" text-anchor="start" style="mix-blend-mode: normal"><tspan x="0" dy="0">Right arrow to continue</tspan></text><text transform="translate(304.32739,349.05365) scale(0.5,0.5)" font-size="40" xml:space="preserve" fill="#00ecff" fill-rule="nonzero" stroke="none" stroke-width="1" stroke-linecap="butt" stroke-linejoin="miter" stroke-miterlimit="10" stroke-dasharray="" stroke-dashoffset="0" font-family="Handwriting" font-weight="normal" text-anchor="start" style="mix-blend-mode: normal"><tspan x="0" dy="0">S to skip backstory</tspan></text></g></g></svg>