<svg version="1.1" xmlns="http://www.w3.org/2000/svg" xmlns:xlink="http://www.w3.org/1999/xlink" width="565.21482" height="400.0635" viewBox="0,0,565.21482,400.0635"><defs><linearGradient x1="439.33846" y1="102.27831" x2="439.33846" y2="150.44058" gradientUnits="userSpaceOnUse" id="color-1"><stop offset="0" stop-color="#86f5bf"/><stop offset="1" stop-color="#5bc8f5"/></linearGradient><linearGradient x1="399.90797" y1="169.16859" x2="407.128" y2="176.73657" gradientUnits="userSpaceOnUse" id="color-2"><stop offset="0" stop-color="#6bc399"/><stop offset="1" stop-color="#55b6e6"/></linearGradient><linearGradient x1="400.19063" y1="166.3116" x2="405.48532" y2="171.86145" gradientUnits="userSpaceOnUse" id="color-3"><stop offset="0" stop-color="#6bc399"/><stop offset="1" stop-color="#55b6e6"/></linearGradient><linearGradient x1="469.36625" y1="169.43342" x2="470.77631" y2="177.91744" gradientUnits="userSpaceOnUse" id="color-4"><stop offset="0" stop-color="#6bc399"/><stop offset="1" stop-color="#55b6e6"/></linearGradient><linearGradient x1="466.25489" y1="167.60361" x2="471.03574" y2="173.89627" gradientUnits="userSpaceOnUse" id="color-5"><stop offset="0" stop-color="#6bc399"/><stop offset="1" stop-color="#55b6e6"/></linearGradient><linearGradient x1="459.04939" y1="174.1118" x2="463.83025" y2="180.40445" gradientUnits="userSpaceOnUse" id="color-6"><stop offset="0" stop-color="#6bc399"/><stop offset="1" stop-color="#55b6e6"/></linearGradient><linearGradient x1="455.0335" y1="158.62556" x2="458.83011" y2="163.62274" gradientUnits="userSpaceOnUse" id="color-7"><stop offset="0" stop-color="#6bc399"/><stop offset="1" stop-color="#55b6e6"/></linearGradient><linearGradient x1="449.91156" y1="165.88597" x2="450.1342" y2="172.15785" gradientUnits="userSpaceOnUse" id="color-8"><stop offset="0" stop-color="#6bc399"/><stop offset="1" stop-color="#55b6e6"/></linearGradient><linearGradient x1="422.73177" y1="156.20226" x2="426.14597" y2="161.46813" gradientUnits="userSpaceOnUse" id="color-9"><stop offset="0" stop-color="#6bc399"/><stop offset="1" stop-color="#55b6e6"/></linearGradient><linearGradient x1="443.21855" y1="145.47416" x2="443.30835" y2="151.05197" gradientUnits="userSpaceOnUse" id="color-10"><stop offset="0" stop-color="#6bc399"/><stop offset="1" stop-color="#55b6e6"/></linearGradient><linearGradient x1="418.3999" y1="164.74036" x2="421.27451" y2="171.09303" gradientUnits="userSpaceOnUse" id="color-11"><stop offset="0" stop-color="#6bc399"/><stop offset="1" stop-color="#55b6e6"/></linearGradient><linearGradient x1="409.99019" y1="156.70432" x2="409.99019" y2="179.61356" gradientUnits="userSpaceOnUse" id="color-12"><stop offset="0" stop-color="#86f5bf"/><stop offset="1" stop-color="#5bc8f5"/></linearGradient><linearGradient x1="397.60009" y1="184.25576" x2="402.26253" y2="181.19281" gradientUnits="userSpaceOnUse" id="color-13"><stop offset="0" stop-color="#6bc399"/><stop offset="1" stop-color="#55b6e6"/></linearGradient><linearGradient x1="420.17785" y1="176.94747" x2="416.7109" y2="181.31786" gradientUnits="userSpaceOnUse" id="color-14"><stop offset="0" stop-color="#6bc399"/><stop offset="1" stop-color="#55b6e6"/></linearGradient><linearGradient x1="409.5035" y1="145.78906" x2="409.5035" y2="177.50684" gradientUnits="userSpaceOnUse" id="color-15"><stop offset="0" stop-color="#86f5bf"/><stop offset="1" stop-color="#5bc8f5"/></linearGradient><linearGradient x1="383.53612" y1="189.84038" x2="388.29094" y2="194.82435" gradientUnits="userSpaceOnUse" id="color-16"><stop offset="0" stop-color="#6bc399"/><stop offset="1" stop-color="#55b6e6"/></linearGradient><linearGradient x1="383.72226" y1="187.95888" x2="387.20914" y2="191.6138" gradientUnits="userSpaceOnUse" id="color-17"><stop offset="0" stop-color="#6bc399"/><stop offset="1" stop-color="#55b6e6"/></linearGradient><linearGradient x1="429.27863" y1="190.01479" x2="430.20724" y2="195.60204" gradientUnits="userSpaceOnUse" id="color-18"><stop offset="0" stop-color="#6bc399"/><stop offset="1" stop-color="#55b6e6"/></linearGradient><linearGradient x1="427.22961" y1="188.80975" x2="430.37809" y2="192.95385" gradientUnits="userSpaceOnUse" id="color-19"><stop offset="0" stop-color="#6bc399"/><stop offset="1" stop-color="#55b6e6"/></linearGradient><linearGradient x1="422.48434" y1="193.09579" x2="425.63284" y2="197.23989" gradientUnits="userSpaceOnUse" id="color-20"><stop offset="0" stop-color="#6bc399"/><stop offset="1" stop-color="#55b6e6"/></linearGradient><linearGradient x1="419.83964" y1="182.89715" x2="422.33994" y2="186.1881" gradientUnits="userSpaceOnUse" id="color-21"><stop offset="0" stop-color="#6bc399"/><stop offset="1" stop-color="#55b6e6"/></linearGradient><linearGradient x1="416.46653" y1="187.67857" x2="416.61315" y2="191.80899" gradientUnits="userSpaceOnUse" id="color-22"><stop offset="0" stop-color="#6bc399"/><stop offset="1" stop-color="#55b6e6"/></linearGradient><linearGradient x1="398.56698" y1="181.30127" x2="400.81544" y2="184.76915" gradientUnits="userSpaceOnUse" id="color-23"><stop offset="0" stop-color="#6bc399"/><stop offset="1" stop-color="#55b6e6"/></linearGradient><linearGradient x1="412.05878" y1="174.23616" x2="412.11791" y2="177.90948" gradientUnits="userSpaceOnUse" id="color-24"><stop offset="0" stop-color="#6bc399"/><stop offset="1" stop-color="#55b6e6"/></linearGradient><linearGradient x1="395.71418" y1="186.92412" x2="397.60729" y2="191.10775" gradientUnits="userSpaceOnUse" id="color-25"><stop offset="0" stop-color="#6bc399"/><stop offset="1" stop-color="#55b6e6"/></linearGradient><linearGradient x1="390.17588" y1="181.6319" x2="390.17588" y2="196.71903" gradientUnits="userSpaceOnUse" id="color-26"><stop offset="0" stop-color="#86f5bf"/><stop offset="1" stop-color="#5bc8f5"/></linearGradient><linearGradient x1="382.01624" y1="199.7762" x2="385.08674" y2="197.75907" gradientUnits="userSpaceOnUse" id="color-27"><stop offset="0" stop-color="#6bc399"/><stop offset="1" stop-color="#55b6e6"/></linearGradient><linearGradient x1="396.88507" y1="194.96325" x2="394.60187" y2="197.84141" gradientUnits="userSpaceOnUse" id="color-28"><stop offset="0" stop-color="#6bc399"/><stop offset="1" stop-color="#55b6e6"/></linearGradient><linearGradient x1="-16.42491" y1="4.03233" x2="-16.42491" y2="84.06355" gradientUnits="userSpaceOnUse" id="color-29"><stop offset="0" stop-color="#86f5bf"/><stop offset="1" stop-color="#5bc8f5"/></linearGradient><linearGradient x1="49.09672" y1="115.18389" x2="37.09921" y2="127.75959" gradientUnits="userSpaceOnUse" id="color-30"><stop offset="0" stop-color="#6bc399"/><stop offset="1" stop-color="#55b6e6"/></linearGradient><linearGradient x1="48.62703" y1="110.43642" x2="39.82885" y2="119.65861" gradientUnits="userSpaceOnUse" id="color-31"><stop offset="0" stop-color="#6bc399"/><stop offset="1" stop-color="#55b6e6"/></linearGradient><linearGradient x1="-66.32207" y1="115.62396" x2="-68.66517" y2="129.72186" gradientUnits="userSpaceOnUse" id="color-32"><stop offset="0" stop-color="#6bc399"/><stop offset="1" stop-color="#55b6e6"/></linearGradient><linearGradient x1="-61.15193" y1="112.58337" x2="-69.09627" y2="123.03987" gradientUnits="userSpaceOnUse" id="color-33"><stop offset="0" stop-color="#6bc399"/><stop offset="1" stop-color="#55b6e6"/></linearGradient><linearGradient x1="-49.17855" y1="123.39802" x2="-57.12291" y2="133.85452" gradientUnits="userSpaceOnUse" id="color-34"><stop offset="0" stop-color="#6bc399"/><stop offset="1" stop-color="#55b6e6"/></linearGradient><linearGradient x1="-42.50534" y1="97.66455" x2="-48.81417" y2="105.96836" gradientUnits="userSpaceOnUse" id="color-35"><stop offset="0" stop-color="#6bc399"/><stop offset="1" stop-color="#55b6e6"/></linearGradient><linearGradient x1="-33.99423" y1="109.72916" x2="-34.36418" y2="120.15113" gradientUnits="userSpaceOnUse" id="color-36"><stop offset="0" stop-color="#6bc399"/><stop offset="1" stop-color="#55b6e6"/></linearGradient><linearGradient x1="11.17042" y1="93.63775" x2="5.49705" y2="102.38803" gradientUnits="userSpaceOnUse" id="color-37"><stop offset="0" stop-color="#6bc399"/><stop offset="1" stop-color="#55b6e6"/></linearGradient><linearGradient x1="-22.87245" y1="75.81086" x2="-23.02167" y2="85.0795" gradientUnits="userSpaceOnUse" id="color-38"><stop offset="0" stop-color="#6bc399"/><stop offset="1" stop-color="#55b6e6"/></linearGradient><linearGradient x1="18.36869" y1="107.82549" x2="13.59195" y2="118.38174" gradientUnits="userSpaceOnUse" id="color-39"><stop offset="0" stop-color="#6bc399"/><stop offset="1" stop-color="#55b6e6"/></linearGradient><linearGradient x1="32.3431" y1="94.47202" x2="32.3431" y2="132.54029" gradientUnits="userSpaceOnUse" id="color-40"><stop offset="0" stop-color="#86f5bf"/><stop offset="1" stop-color="#5bc8f5"/></linearGradient><linearGradient x1="52.93172" y1="140.25424" x2="45.18416" y2="135.16454" gradientUnits="userSpaceOnUse" id="color-41"><stop offset="0" stop-color="#6bc399"/><stop offset="1" stop-color="#55b6e6"/></linearGradient><linearGradient x1="15.41427" y1="128.11006" x2="21.1753" y2="135.37232" gradientUnits="userSpaceOnUse" id="color-42"><stop offset="0" stop-color="#6bc399"/><stop offset="1" stop-color="#55b6e6"/></linearGradient><linearGradient x1="19.47048" y1="115.45082" x2="19.47048" y2="157.35432" gradientUnits="userSpaceOnUse" id="color-43"><stop offset="0" stop-color="#86f5bf"/><stop offset="1" stop-color="#5bc8f5"/></linearGradient><linearGradient x1="53.77692" y1="173.6486" x2="47.49515" y2="180.2331" gradientUnits="userSpaceOnUse" id="color-44"><stop offset="0" stop-color="#6bc399"/><stop offset="1" stop-color="#55b6e6"/></linearGradient><linearGradient x1="53.53099" y1="171.16288" x2="48.92436" y2="175.99152" gradientUnits="userSpaceOnUse" id="color-45"><stop offset="0" stop-color="#6bc399"/><stop offset="1" stop-color="#55b6e6"/></linearGradient><linearGradient x1="-6.65515" y1="173.87902" x2="-7.88197" y2="181.26053" gradientUnits="userSpaceOnUse" id="color-46"><stop offset="0" stop-color="#6bc399"/><stop offset="1" stop-color="#55b6e6"/></linearGradient><linearGradient x1="-3.94811" y1="172.28699" x2="-8.10769" y2="177.76191" gradientUnits="userSpaceOnUse" id="color-47"><stop offset="0" stop-color="#6bc399"/><stop offset="1" stop-color="#55b6e6"/></linearGradient><linearGradient x1="2.32102" y1="177.94943" x2="-1.83856" y2="183.42435" gradientUnits="userSpaceOnUse" id="color-48"><stop offset="0" stop-color="#6bc399"/><stop offset="1" stop-color="#55b6e6"/></linearGradient><linearGradient x1="5.81504" y1="164.47565" x2="2.51181" y2="168.82344" gradientUnits="userSpaceOnUse" id="color-49"><stop offset="0" stop-color="#6bc399"/><stop offset="1" stop-color="#55b6e6"/></linearGradient><linearGradient x1="10.27137" y1="170.79256" x2="10.07767" y2="176.2494" gradientUnits="userSpaceOnUse" id="color-50"><stop offset="0" stop-color="#6bc399"/><stop offset="1" stop-color="#55b6e6"/></linearGradient><linearGradient x1="33.91911" y1="162.36727" x2="30.94859" y2="166.94882" gradientUnits="userSpaceOnUse" id="color-51"><stop offset="0" stop-color="#6bc399"/><stop offset="1" stop-color="#55b6e6"/></linearGradient><linearGradient x1="16.09462" y1="153.0333" x2="16.01649" y2="157.88626" gradientUnits="userSpaceOnUse" id="color-52"><stop offset="0" stop-color="#6bc399"/><stop offset="1" stop-color="#55b6e6"/></linearGradient><linearGradient x1="37.68804" y1="169.79582" x2="35.18699" y2="175.32296" gradientUnits="userSpaceOnUse" id="color-53"><stop offset="0" stop-color="#6bc399"/><stop offset="1" stop-color="#55b6e6"/></linearGradient><linearGradient x1="45.0049" y1="162.80408" x2="45.0049" y2="182.73623" gradientUnits="userSpaceOnUse" id="color-54"><stop offset="0" stop-color="#86f5bf"/><stop offset="1" stop-color="#5bc8f5"/></linearGradient><linearGradient x1="55.78488" y1="186.77517" x2="51.72834" y2="184.11026" gradientUnits="userSpaceOnUse" id="color-55"><stop offset="0" stop-color="#6bc399"/><stop offset="1" stop-color="#55b6e6"/></linearGradient><linearGradient x1="36.14114" y1="180.41661" x2="39.15756" y2="184.21905" gradientUnits="userSpaceOnUse" id="color-56"><stop offset="0" stop-color="#6bc399"/><stop offset="1" stop-color="#55b6e6"/></linearGradient><linearGradient x1="306.14129" y1="59.96722" x2="306.14129" y2="123.59611" gradientUnits="userSpaceOnUse" id="color-57"><stop offset="0" stop-color="#86f5bf"/><stop offset="1" stop-color="#5bc8f5"/></linearGradient><linearGradient x1="358.23432" y1="148.33836" x2="348.69569" y2="158.33668" gradientUnits="userSpaceOnUse" id="color-58"><stop offset="0" stop-color="#6bc399"/><stop offset="1" stop-color="#55b6e6"/></linearGradient><linearGradient x1="357.86089" y1="144.56388" x2="350.86589" y2="151.89599" gradientUnits="userSpaceOnUse" id="color-59"><stop offset="0" stop-color="#6bc399"/><stop offset="1" stop-color="#55b6e6"/></linearGradient><linearGradient x1="266.47051" y1="148.68824" x2="264.60763" y2="159.89678" gradientUnits="userSpaceOnUse" id="color-60"><stop offset="0" stop-color="#6bc399"/><stop offset="1" stop-color="#55b6e6"/></linearGradient><linearGradient x1="270.58104" y1="146.27081" x2="264.26488" y2="154.58426" gradientUnits="userSpaceOnUse" id="color-61"><stop offset="0" stop-color="#6bc399"/><stop offset="1" stop-color="#55b6e6"/></linearGradient><linearGradient x1="280.10048" y1="154.86901" x2="273.78431" y2="163.18246" gradientUnits="userSpaceOnUse" id="color-62"><stop offset="0" stop-color="#6bc399"/><stop offset="1" stop-color="#55b6e6"/></linearGradient><linearGradient x1="285.40602" y1="134.40959" x2="280.39018" y2="141.01154" gradientUnits="userSpaceOnUse" id="color-63"><stop offset="0" stop-color="#6bc399"/><stop offset="1" stop-color="#55b6e6"/></linearGradient><linearGradient x1="292.17279" y1="144.00157" x2="291.87866" y2="152.28757" gradientUnits="userSpaceOnUse" id="color-64"><stop offset="0" stop-color="#6bc399"/><stop offset="1" stop-color="#55b6e6"/></linearGradient><linearGradient x1="328.08098" y1="131.20808" x2="323.57036" y2="138.165" gradientUnits="userSpaceOnUse" id="color-65"><stop offset="0" stop-color="#6bc399"/><stop offset="1" stop-color="#55b6e6"/></linearGradient><linearGradient x1="301.01517" y1="117.0348" x2="300.89653" y2="124.40384" gradientUnits="userSpaceOnUse" id="color-66"><stop offset="0" stop-color="#6bc399"/><stop offset="1" stop-color="#55b6e6"/></linearGradient><linearGradient x1="333.80397" y1="142.48806" x2="330.00622" y2="150.88081" gradientUnits="userSpaceOnUse" id="color-67"><stop offset="0" stop-color="#6bc399"/><stop offset="1" stop-color="#55b6e6"/></linearGradient><linearGradient x1="344.91434" y1="131.87137" x2="344.91434" y2="162.13758" gradientUnits="userSpaceOnUse" id="color-68"><stop offset="0" stop-color="#86f5bf"/><stop offset="1" stop-color="#5bc8f5"/></linearGradient><linearGradient x1="361.28334" y1="168.27056" x2="355.12363" y2="164.22399" gradientUnits="userSpaceOnUse" id="color-69"><stop offset="0" stop-color="#6bc399"/><stop offset="1" stop-color="#55b6e6"/></linearGradient><linearGradient x1="331.45506" y1="158.61532" x2="336.03537" y2="164.38919" gradientUnits="userSpaceOnUse" id="color-70"><stop offset="0" stop-color="#6bc399"/><stop offset="1" stop-color="#55b6e6"/></linearGradient><linearGradient x1="345.55733" y1="117.45082" x2="345.55733" y2="159.35432" gradientUnits="userSpaceOnUse" id="color-71"><stop offset="0" stop-color="#86f5bf"/><stop offset="1" stop-color="#5bc8f5"/></linearGradient><linearGradient x1="379.86376" y1="175.6486" x2="373.58199" y2="182.2331" gradientUnits="userSpaceOnUse" id="color-72"><stop offset="0" stop-color="#6bc399"/><stop offset="1" stop-color="#55b6e6"/></linearGradient><linearGradient x1="379.61784" y1="173.16288" x2="375.0112" y2="177.99152" gradientUnits="userSpaceOnUse" id="color-73"><stop offset="0" stop-color="#6bc399"/><stop offset="1" stop-color="#55b6e6"/></linearGradient><linearGradient x1="319.4317" y1="175.87902" x2="318.20488" y2="183.26053" gradientUnits="userSpaceOnUse" id="color-74"><stop offset="0" stop-color="#6bc399"/><stop offset="1" stop-color="#55b6e6"/></linearGradient><linearGradient x1="322.13873" y1="174.28699" x2="317.97916" y2="179.76191" gradientUnits="userSpaceOnUse" id="color-75"><stop offset="0" stop-color="#6bc399"/><stop offset="1" stop-color="#55b6e6"/></linearGradient><linearGradient x1="328.40787" y1="179.94943" x2="324.24828" y2="185.42435" gradientUnits="userSpaceOnUse" id="color-76"><stop offset="0" stop-color="#6bc399"/><stop offset="1" stop-color="#55b6e6"/></linearGradient><linearGradient x1="331.90188" y1="166.47565" x2="328.59865" y2="170.82344" gradientUnits="userSpaceOnUse" id="color-77"><stop offset="0" stop-color="#6bc399"/><stop offset="1" stop-color="#55b6e6"/></linearGradient><linearGradient x1="336.35822" y1="172.79256" x2="336.16451" y2="178.2494" gradientUnits="userSpaceOnUse" id="color-78"><stop offset="0" stop-color="#6bc399"/><stop offset="1" stop-color="#55b6e6"/></linearGradient><linearGradient x1="360.00595" y1="164.36727" x2="357.03543" y2="168.94882" gradientUnits="userSpaceOnUse" id="color-79"><stop offset="0" stop-color="#6bc399"/><stop offset="1" stop-color="#55b6e6"/></linearGradient><linearGradient x1="342.18146" y1="155.0333" x2="342.10333" y2="159.88626" gradientUnits="userSpaceOnUse" id="color-80"><stop offset="0" stop-color="#6bc399"/><stop offset="1" stop-color="#55b6e6"/></linearGradient><linearGradient x1="363.77489" y1="171.79582" x2="361.27384" y2="177.32296" gradientUnits="userSpaceOnUse" id="color-81"><stop offset="0" stop-color="#6bc399"/><stop offset="1" stop-color="#55b6e6"/></linearGradient><linearGradient x1="371.09174" y1="164.80408" x2="371.09174" y2="184.73623" gradientUnits="userSpaceOnUse" id="color-82"><stop offset="0" stop-color="#86f5bf"/><stop offset="1" stop-color="#5bc8f5"/></linearGradient><linearGradient x1="381.87173" y1="188.77517" x2="377.81518" y2="186.11026" gradientUnits="userSpaceOnUse" id="color-83"><stop offset="0" stop-color="#6bc399"/><stop offset="1" stop-color="#55b6e6"/></linearGradient><linearGradient x1="362.22799" y1="182.41661" x2="365.2444" y2="186.21905" gradientUnits="userSpaceOnUse" id="color-84"><stop offset="0" stop-color="#6bc399"/><stop offset="1" stop-color="#55b6e6"/></linearGradient><linearGradient x1="205" y1="198.4" x2="205" y2="233.6" gradientUnits="userSpaceOnUse" id="color-85"><stop offset="0" stop-color="#4ec3ff"/><stop offset="1" stop-color="#3b93bf"/></linearGradient><linearGradient x1="96.375" y1="196.4" x2="96.375" y2="233.35" gradientUnits="userSpaceOnUse" id="color-86"><stop offset="0" stop-color="#f74d4d"/><stop offset="1" stop-color="#c73e3e"/></linearGradient></defs><g transform="translate(77.51634,-8.55001)"><g data-paper-data="{&quot;isPaintingLayer&quot;:true}" fill-rule="nonzero" stroke-linejoin="miter" stroke-miterlimit="10" stroke-dasharray="" stroke-dashoffset="0" style="mix-blend-mode: normal"><g data-paper-data="{&quot;index&quot;:null}"><g><g><path d="M427.60925,245.22979v-64.15215h22.08135v64.15215z" fill="#b06041" stroke="none" stroke-width="0" stroke-linecap="butt"/><path d="M445.39055,245.22979v-64.15215h4.18383v64.15215z" fill="#ab5c37" stroke="none" stroke-width="0" stroke-linecap="butt"/><path d="M427.72547,245.22979v-64.15215h4.18383v64.15215z" fill="#ab5c37" stroke="none" stroke-width="0" stroke-linecap="butt"/><path d="M433.53774,199.67247v14.25603" fill="none" stroke="#ad6c4e" stroke-width="6" stroke-linecap="round"/><path d="M443.7649,232.36837v-14.25603" fill="none" stroke="#ad6c4e" stroke-width="6" stroke-linecap="round"/><path d="M439.58107,183.09209v-2.01444v13.79116" fill="none" stroke="#ad6c4e" stroke-width="6" stroke-linecap="round"/></g><g fill="#ab5c37" stroke="none" stroke-linecap="butt"><path d="M410.06085,212.22397v-5.88837h19.67952v5.88837z" stroke-width="NaN"/><path d="M409.90589,212.22397c-1.62603,0 -2.94418,-1.31815 -2.94418,-2.94418c0,-1.62603 1.31815,-2.94418 2.94418,-2.94418c1.62603,0 2.94418,1.31815 2.94418,2.94418c0,1.62603 -1.31815,2.94418 -2.94418,2.94418z" stroke-width="0"/></g><g fill="#ab5c37" stroke="none" stroke-linecap="butt"><path d="M412.92755,209.04736h-5.88836v-19.67952h5.88836z" stroke-width="NaN"/><path d="M412.92756,209.20231c-0.00001,1.62603 -1.31816,2.94418 -2.94419,2.94418c-1.62603,0 -2.94418,-1.31815 -2.94418,-2.94418c0,-1.62603 1.31815,-2.94418 2.94418,-2.94418c1.62603,0 2.94419,1.31815 2.94419,2.94418z" stroke-width="0"/></g><path d="M427.82272,186.03627v-4.80366h21.84892v4.80366z" fill="#86482b" stroke="none" stroke-width="NaN" stroke-linecap="butt"/><path d="M407.0585,198.74273v-4.80366h5.7334v4.80366z" fill="#86482b" stroke="none" stroke-width="NaN" stroke-linecap="butt"/></g><g stroke="none" stroke-width="0" stroke-linecap="butt"><path d="M465.7165,182.54876c-7.91107,0 -38.29903,0 -52.6476,0c-4.62671,0 -7.58572,-2.93519 -7.58572,-7.26378c0,-10.09893 0,-27.7825 0,-33.47068c0,-3.47007 2.9594,-7.42781 7.58572,-7.42781c14.31686,0 44.59774,0 52.53814,0c3.73208,0 7.58671,3.88631 7.58671,7.31159c0,5.65138 0,23.31671 0,33.47068c0,4.39296 -3.79115,7.38 -7.47725,7.38z" fill="url(#color-1)"/><path d="M412.42267,182.28642c-2.08985,1.99375 -5.40025,1.91586 -7.394,-0.17398c-1.99375,-2.08985 -1.91586,-5.40025 0.17398,-7.394c2.08985,-1.99375 5.40025,-1.91586 7.394,0.17398c1.99375,2.08985 1.91586,5.40025 -0.17398,7.394z" fill="url(#color-2)"/><path d="M409.36808,175.93134c-1.53255,1.46208 -3.96018,1.40496 -5.42227,-0.12759c-1.46208,-1.53255 -1.40496,-3.96018 0.12759,-5.42227c1.53255,-1.46208 3.96018,-1.40496 5.42227,0.12759c1.46208,1.53255 1.40496,3.96018 -0.12759,5.42227z" fill="url(#color-3)"/><path d="M471.81035,184.13905c-2.34279,0.38937 -4.55766,-1.19418 -4.94704,-3.53698c-0.38937,-2.34279 1.19418,-4.55766 3.53698,-4.94704c2.34279,-0.38937 4.55766,1.19418 4.94704,3.53698c0.38937,2.34279 -1.19418,4.55766 -3.53698,4.94704z" fill="url(#color-4)"/><path d="M474.54171,178.51088c-1.73767,1.3202 -4.21656,0.98177 -5.53676,-0.7559c-1.3202,-1.73767 -0.98177,-4.21656 0.7559,-5.53676c1.73767,-1.3202 4.21656,-0.98177 5.53676,0.7559c1.3202,1.73767 0.98177,4.21656 -0.7559,5.53676z" fill="url(#color-5)"/><path d="M468.0921,179.48231c1.3202,1.73766 0.98178,4.21655 -0.7559,5.53675c-1.73766,1.32021 -4.21655,0.98178 -5.53675,-0.7559c-1.3202,-1.73766 -0.98177,-4.21655 0.7559,-5.53675c1.73767,-1.32021 4.21656,-0.98178 5.53676,0.7559z" fill="url(#color-6)"/><path d="M461.6143,167.28733c-1.37993,1.04841 -3.34848,0.77965 -4.39689,-0.60028c-1.04841,-1.37993 -0.77965,-3.34848 0.60028,-4.39689c1.37993,-1.04841 3.34848,-0.77965 4.39689,0.60028c1.04841,1.37993 0.77965,3.34848 -0.60028,4.39689z" fill="url(#color-7)"/><path d="M450.29746,176.75723c-1.73194,0.06148 -3.18578,-1.29269 -3.24726,-3.02462c-0.06148,-1.73194 1.29269,-3.18578 3.02462,-3.24726c1.73194,-0.06148 3.18578,1.29269 3.24726,3.02462c0.06148,1.73194 -1.29269,3.18578 -3.02462,3.24726z" fill="url(#color-8)"/><path d="M428.64972,165.32975c-1.45414,0.9428 -3.39723,0.5283 -4.34003,-0.92583c-0.94281,-1.45413 -0.5283,-3.39722 0.92582,-4.34002c1.45414,-0.9428 3.39723,-0.5283 4.34003,0.92583c0.94281,1.45413 0.5283,3.39722 -0.92582,4.34002z" fill="url(#color-9)"/><path d="M443.3742,155.14236c-1.54027,0.0248 -2.80901,-1.20373 -2.8338,-2.744c-0.0248,-1.54027 1.20373,-2.80901 2.744,-2.8338c1.54027,-0.0248 2.80901,1.20373 2.8338,2.744c0.0248,1.54027 -1.20373,2.80901 -2.744,2.8338z" fill="url(#color-10)"/><path d="M423.38257,175.75167c-1.75425,0.79381 -3.81984,0.01522 -4.61364,-1.73903c-0.7938,-1.75425 -0.01522,-3.81984 1.73903,-4.61364c1.75425,-0.79381 3.81984,-0.01522 4.61364,1.73903c0.7938,1.75425 0.01522,3.81984 -1.73903,4.61364z" fill="url(#color-11)"/></g><path d="M426.09406,191.37597c0,2.08959 -1.80333,3.51043 -3.55669,3.51043c-3.76304,0 -18.21761,0 -25.04276,0c-2.20077,0 -3.60828,-1.39618 -3.60828,-3.45515c0,-4.80374 0,-13.21524 0,-15.92092c0,-1.65061 1.40769,-3.53317 3.60828,-3.53317c6.81008,0 21.21371,0 24.9907,0c1.77523,0 3.60875,1.84859 3.60875,3.47789c0,2.68818 0,11.091 0,15.92092z" fill="url(#color-12)" stroke="none" stroke-width="0" stroke-linecap="butt"/><path d="M405.68166,178.94666c0.84581,1.2875 0.48775,3.01688 -0.79974,3.86269c-1.28751,0.84582 -3.01688,0.48775 -3.86269,-0.79974c-0.84581,-1.2875 -0.48775,-3.01688 0.79974,-3.86269c1.28751,-0.84582 3.01688,-0.48775 3.86269,0.79974z" fill="url(#color-13)" stroke="none" stroke-width="0" stroke-linecap="butt"/><path d="M414.16847,184.52281c-1.20685,-0.95737 -1.40909,-2.71182 -0.45172,-3.91867c0.95737,-1.20686 2.71182,-1.40909 3.91867,-0.45172c1.20685,0.95737 1.40909,2.71182 0.45172,3.91867c-0.95737,1.20686 -2.71182,1.40909 -3.91867,0.45172z" fill="url(#color-14)" stroke="none" stroke-width="0" stroke-linecap="butt"/></g><g data-paper-data="{&quot;index&quot;:null}"><g><g><path d="M401.7791,239.93131v-42.2481h14.54191v42.2481z" fill="#b06041" stroke="none" stroke-width="0" stroke-linecap="butt"/><path d="M413.48917,239.93131v-42.2481h2.75531v42.2481z" fill="#ab5c37" stroke="none" stroke-width="0" stroke-linecap="butt"/><path d="M401.85563,239.93131v-42.2481h2.75531v42.2481z" fill="#ab5c37" stroke="none" stroke-width="0" stroke-linecap="butt"/><path d="M405.68337,219.31751v-9.38847" fill="none" stroke="#ad6c4e" stroke-width="6" stroke-linecap="round"/><path d="M412.41857,222.07282v9.38847" fill="none" stroke="#ad6c4e" stroke-width="6" stroke-linecap="round"/><path d="M409.66327,199.00985v-1.32663v9.08232" fill="none" stroke="#ad6c4e" stroke-width="6" stroke-linecap="round"/></g><g fill="#ab5c37" stroke="none" stroke-linecap="butt"><path d="M390.2224,218.19499v-3.87785h12.96017v3.87785z" stroke-width="NaN"/><path d="M390.12036,218.19498c-1.07084,0 -1.93892,-0.86809 -1.93892,-1.93892c0,-1.07084 0.86809,-1.93892 1.93892,-1.93892c1.07084,0 1.93892,0.86809 1.93892,1.93892c0,1.07084 -0.86809,1.93892 -1.93892,1.93892z" stroke-width="0"/></g><g fill="#ab5c37" stroke="none" stroke-linecap="butt"><path d="M392.1103,216.10298h-3.87785v-12.96017h3.87785z" stroke-width="NaN"/><path d="M392.1103,216.20503c0,1.07084 -0.86809,1.93892 -1.93892,1.93892c-1.07084,0 -1.93892,-0.86808 -1.93892,-1.93892c0,-1.07084 0.86809,-1.93892 1.93892,-1.93892c1.07084,0 1.93892,0.86808 1.93892,1.93892z" stroke-width="0"/></g><path d="M401.91968,200.94878v-3.16351h14.38885v3.16351z" fill="#86482b" stroke="none" stroke-width="NaN" stroke-linecap="butt"/><path d="M388.24518,209.31675v-3.16351h3.77579v3.16351z" fill="#86482b" stroke="none" stroke-width="NaN" stroke-linecap="butt"/></g><g stroke="none" stroke-width="0" stroke-linecap="butt"><path d="M431.79926,193.79187c0,2.89303 -2.4967,4.86018 -4.92423,4.86018c-5.20992,0 -25.22224,0 -34.67165,0c-3.04697,0 -4.99566,-1.933 -4.99566,-4.78364c0,-6.65077 0,-18.29648 0,-22.04249c0,-2.28526 1.94894,-4.89166 4.99566,-4.89166c9.42853,0 29.37034,0 34.59957,0c2.4578,0 4.99631,2.55937 4.99631,4.81512c0,3.72178 0,15.35548 0,22.04248z" fill="url(#color-15)"/><path d="M391.77781,198.47927c-1.37629,1.31301 -3.55639,1.26171 -4.8694,-0.11458c-1.31301,-1.37629 -1.26171,-3.55639 0.11458,-4.8694c1.37629,-1.313 3.55639,-1.26171 4.8694,0.11458c1.31301,1.37629 1.26171,3.55639 -0.11458,4.8694z" fill="url(#color-16)"/><path d="M389.76618,194.29407c-1.00928,0.96287 -2.60802,0.92525 -3.5709,-0.08403c-0.96288,-1.00928 -0.92526,-2.60802 0.08402,-3.5709c1.00928,-0.96287 2.60802,-0.92525 3.5709,0.08403c0.96288,1.00928 0.92526,2.60802 -0.08402,3.5709z" fill="url(#color-17)"/><path d="M430.88821,199.69934c-1.54287,0.25642 -3.0015,-0.78644 -3.25792,-2.32931c-0.25642,-1.54288 0.78645,-3.00151 2.32932,-3.25793c1.54287,-0.25642 3.0015,0.78645 3.25792,2.32932c0.25642,1.54287 -0.78645,3.0015 -2.32932,3.25792z" fill="url(#color-18)"/><path d="M432.68698,195.99285c-1.14436,0.86943 -2.77686,0.64656 -3.64629,-0.4978c-0.86943,-1.14436 -0.64656,-2.77686 0.4978,-3.64629c1.14436,-0.86943 2.77687,-0.64655 3.64629,0.49781c0.86943,1.14436 0.64655,2.77685 -0.49781,3.64629z" fill="url(#color-19)"/><path d="M428.43952,196.63259c0.86943,1.14436 0.64656,2.77686 -0.4978,3.64629c-1.14435,0.86943 -2.77686,0.64656 -3.64629,-0.49781c-0.86943,-1.14436 -0.64656,-2.77686 0.4978,-3.64629c1.14436,-0.86943 2.77687,-0.64656 3.64629,0.49781z" fill="url(#color-20)"/><path d="M424.1735,188.60146c-0.90877,0.69044 -2.20518,0.51345 -2.89562,-0.39532c-0.69044,-0.90876 -0.51345,-2.20519 0.39532,-2.89562c0.90877,-0.69044 2.20518,-0.51344 2.89562,0.39533c0.69044,0.90876 0.51345,2.20518 -0.39532,2.89561z" fill="url(#color-21)"/><path d="M416.72067,194.83796c-1.14059,0.04049 -2.09803,-0.85131 -2.13852,-1.9919c-0.04049,-1.14059 0.85131,-2.09804 1.9919,-2.13852c1.14059,-0.04049 2.09803,0.85132 2.13852,1.99191c0.04049,1.14059 -0.85131,2.09803 -1.9919,2.13852z" fill="url(#color-22)"/><path d="M403.07401,184.4541c0.6209,0.95763 0.34792,2.23727 -0.60971,2.85817c-0.95764,0.6209 -2.23728,0.34791 -2.85817,-0.60972c-0.6209,-0.95763 -0.34792,-2.23727 0.60971,-2.85817c0.95764,-0.6209 2.23729,-0.34791 2.85818,0.60972z" fill="url(#color-23)"/><path d="M412.16128,180.60325c-1.01435,0.01633 -1.8499,-0.79273 -1.86623,-1.8071c-0.01633,-1.01436 0.79273,-1.8499 1.80709,-1.86624c1.01436,-0.01633 1.84991,0.79273 1.86624,1.8071c0.01633,1.01436 -0.79273,1.8499 -1.8071,1.86624z" fill="url(#color-24)"/><path d="M398.99557,194.17573c-1.15528,0.52277 -2.51559,0.01002 -3.03836,-1.14526c-0.52276,-1.15528 -0.01002,-2.5156 1.14526,-3.03836c1.15528,-0.52277 2.51559,-0.01002 3.03836,1.14526c0.52276,1.15528 0.01002,2.5156 -1.14526,3.03836z" fill="url(#color-25)"/></g><path d="M400.78124,204.46528c0,1.37613 -1.1876,2.31184 -2.3423,2.31184c-2.47819,0 -11.99741,0 -16.49218,0c-1.44934,0 -2.37627,-0.91947 -2.37627,-2.27543c0,-3.16356 0,-8.70303 0,-10.4849c0,-1.08703 0.92705,-2.32681 2.37627,-2.32681c4.48485,0 13.97053,0 16.4579,0c1.1691,0 2.37658,1.21741 2.37658,2.2904c0,1.77033 0,7.3041 0,10.4849z" fill="url(#color-26)" stroke="none" stroke-width="0" stroke-linecap="butt"/><path d="M384.79463,195.75315c0.8479,-0.55702 1.98681,-0.32121 2.54382,0.52668c0.55701,0.8479 0.32122,1.98681 -0.52668,2.54382c-0.8479,0.55701 -1.98681,0.32121 -2.54382,-0.52668c-0.55702,-0.8479 -0.32122,-1.98681 0.52668,-2.54382z" fill="url(#color-27)" stroke="none" stroke-width="0" stroke-linecap="butt"/><path d="M392.92752,199.95207c-0.79479,-0.63049 -0.92797,-1.7859 -0.29749,-2.58068c0.63049,-0.79479 1.7859,-0.92797 2.58068,-0.29749c0.79479,0.63049 0.92797,1.7859 0.29749,2.58068c-0.63049,0.79479 -1.7859,0.92797 -2.58068,0.29749z" fill="url(#color-28)" stroke="none" stroke-width="0" stroke-linecap="butt"/></g><g data-paper-data="{&quot;index&quot;:null}"><g><g><path d="M-33.62705,241.57476v-106.6016h36.69257v106.6016z" fill="#b06041" stroke="none" stroke-width="0" stroke-linecap="butt"/><path d="M-33.43393,241.57476v-106.6016h6.95227v106.6016z" fill="#ab5c37" stroke="none" stroke-width="0" stroke-linecap="butt"/><path d="M-4.07987,241.57476v-106.6016h6.95227v106.6016z" fill="#ab5c37" stroke="none" stroke-width="0" stroke-linecap="butt"/><path d="M-6.78585,165.87217v23.68924" fill="none" stroke="#ad6c4e" stroke-width="6" stroke-linecap="round"/><path d="M-23.78032,196.5137v23.68924" fill="none" stroke="#ad6c4e" stroke-width="6" stroke-linecap="round"/><path d="M-16.82804,138.32057v-3.3474v22.91676" fill="none" stroke="#ad6c4e" stroke-width="6" stroke-linecap="round"/></g><g fill="#ab5c37" stroke="none" stroke-linecap="butt"><path d="M-0.47576,186.729v-9.78469h32.70145v9.78469z" stroke-width="NaN"/><path d="M27.59084,181.83666c0,-2.70197 2.19038,-4.89234 4.89234,-4.89234c2.70196,0 4.89234,2.19037 4.89234,4.89234c0,2.70196 -2.19038,4.89234 -4.89234,4.89234c-2.70196,0 -4.89234,-2.19037 -4.89234,-4.89234z" stroke-width="0"/></g><g fill="#ab5c37" stroke="none" stroke-linecap="butt"><path d="M27.46209,148.74896h9.78468v32.70146h-9.78468z" stroke-width="NaN"/><path d="M32.35444,176.81557c2.70196,0 4.89234,2.19038 4.89234,4.89235c0,2.70198 -2.19036,4.89234 -4.89234,4.89234c-2.70197,0 -4.89234,-2.19036 -4.89236,-4.89234c0,-2.70198 2.19038,-4.89235 4.89236,-4.89235z" stroke-width="0"/></g><path d="M-33.59554,143.21291v-7.98225h36.30634v7.98225z" fill="#86482b" stroke="none" stroke-width="NaN" stroke-linecap="butt"/><path d="M27.6875,164.32723v-7.98225h9.52719v7.98225z" fill="#86482b" stroke="none" stroke-width="NaN" stroke-linecap="butt"/></g><g stroke="none" stroke-width="0" stroke-linecap="butt"><path d="M-60.25729,137.41772c-6.1252,0 -12.42494,-4.96355 -12.42494,-12.26334c0,-16.87285 0,-46.22732 0,-55.61822c0,-5.69178 6.40524,-12.14966 12.60683,-12.14966c13.19456,0 63.51228,0 87.30261,0c7.68756,0 12.60519,6.57656 12.60519,12.34278c0,9.45205 0,38.83681 0,55.61821c0,7.19282 -4.91699,12.07022 -12.60519,12.07022c-23.84301,0 -74.33867,0 -87.4845,0z" fill="url(#color-29)"/><path d="M28.30105,136.98179c-3.47268,-3.31302 -3.60211,-8.81391 -0.2891,-12.28661c3.31302,-3.47269 8.81392,-3.60212 12.28661,-0.28911c3.47268,3.31301 3.60211,8.81392 0.2891,12.28661c-3.31302,3.47269 -8.81392,3.60211 -12.28661,0.2891z" fill="url(#color-30)"/><path d="M33.37687,126.42155c-2.54663,-2.42956 -2.64157,-6.46355 -0.21202,-9.01018c2.42956,-2.54663 6.46355,-2.64156 9.01018,-0.21201c2.54663,2.42956 2.64156,6.46355 0.21201,9.01018c-2.42956,2.54662 -6.46355,2.64156 -9.01018,0.21201z" fill="url(#color-31)"/><path d="M-70.38344,140.06031c-3.89302,-0.64704 -6.52442,-4.32748 -5.8774,-8.2205c0.64703,-3.89302 4.32747,-6.52441 8.22049,-5.8774c3.89302,0.64703 6.52442,4.32747 5.8774,8.22049c-0.64703,3.89302 -4.32747,6.52442 -8.22049,5.8774z" fill="url(#color-32)"/><path d="M-76.17821,121.50754c2.19377,-2.88747 6.31294,-3.44984 9.20043,-1.25607c2.88748,2.19377 3.44985,6.31294 1.25608,9.20043c-2.19377,2.88748 -6.31295,3.44984 -9.20044,1.25607c-2.88748,-2.19377 -3.44984,-6.31294 -1.25607,-9.20043z" fill="url(#color-33)"/><path d="M-64.20484,132.3222c2.19377,-2.88749 6.31294,-3.44986 9.20043,-1.25607c2.88748,2.19377 3.44984,6.31294 1.25607,9.20041c-2.19377,2.88749 -6.31294,3.44985 -9.20041,1.25607c-2.8875,-2.19377 -3.44985,-6.31295 -1.25608,-9.20042z" fill="url(#color-34)"/><path d="M-54.43814,104.75149c1.74214,-2.29304 5.01328,-2.73962 7.30631,-0.99748c2.29303,1.74214 2.73962,5.01329 0.99748,7.30631c-1.74214,2.29303 -5.01329,2.73962 -7.30631,0.99748c-2.29303,-1.74214 -2.73962,-5.01328 -0.99748,-7.30631z" fill="url(#color-35)"/><path d="M-34.63548,127.79393c-2.87795,-0.10215 -5.12816,-2.518 -5.02601,-5.39597c0.10216,-2.87796 2.518,-5.12817 5.39597,-5.02602c2.87796,0.10215 5.12817,2.518 5.02602,5.39597c-0.10215,2.87796 -2.518,5.12817 -5.39597,5.02602z" fill="url(#color-36)"/><path d="M-0.20187,101.59307c1.56666,-2.41632 4.79549,-3.1051 7.21183,-1.53845c2.41632,1.56666 3.10511,4.79549 1.53844,7.21182c-1.56666,2.41632 -4.79549,3.1051 -7.21183,1.53845c-2.41632,-1.56666 -3.10511,-4.79549 -1.53844,-7.21182z" fill="url(#color-37)"/><path d="M-23.1311,91.87649c-2.55947,-0.0412 -4.60091,-2.14946 -4.55971,-4.70893c0.0412,-2.55947 2.14947,-4.60091 4.70893,-4.5597c2.55947,0.04121 4.60091,2.14946 4.55971,4.70893c-0.04121,2.55947 -2.14947,4.60092 -4.70893,4.55971z" fill="url(#color-38)"/><path d="M7.19925,118.4565c1.31906,-2.91503 4.75146,-4.20881 7.66649,-2.88974c2.91503,1.31906 4.2088,4.75145 2.88974,7.66649c-1.31906,2.91503 -4.75146,4.20881 -7.66649,2.88974c-2.91503,-1.31906 -4.2088,-4.75145 -2.88974,-7.66649z" fill="url(#color-39)"/></g><path d="M5.5833,152.08587c0,-8.02587 0,-21.98885 0,-26.45579c0,-2.7074 3.04677,-5.7792 5.99667,-5.7792c6.27623,0 30.21073,0 41.52704,0c3.65672,0 5.99588,3.12825 5.99588,5.87107c0,4.49604 0,18.47342 0,26.45579c0,3.42139 -2.33886,5.74141 -5.99588,5.74141c-11.34134,0 -35.3605,0 -41.61354,0c-2.91356,0 -5.91015,-2.361 -5.91015,-5.83327z" fill="url(#color-40)" stroke="none" stroke-width="0" stroke-linecap="butt"/><path d="M45.92123,130.10316c2.13944,1.40548 2.73442,4.2792 1.32894,6.41863c-1.40548,2.13944 -4.27919,2.73444 -6.41864,1.32894c-2.13944,-1.40548 -2.73441,-4.2792 -1.32893,-6.41863c1.40548,-2.13944 4.27918,-2.73444 6.41863,-1.32894z" fill="url(#color-41)" stroke="none" stroke-width="0" stroke-linecap="butt"/><path d="M25.40006,140.69799c-2.00542,1.59086 -4.92078,1.25481 -6.51165,-0.75062c-1.59086,-2.00542 -1.2548,-4.92078 0.75062,-6.51165c2.00542,-1.59087 4.92078,-1.25481 6.51165,0.75062c1.59086,2.00541 1.2548,4.92077 -0.75062,6.51164z" fill="url(#color-42)" stroke="none" stroke-width="0" stroke-linecap="butt"/></g><g data-paper-data="{&quot;index&quot;:null}"><g><g><path d="M10.46362,239.82552v-55.81548h19.21184v55.81548z" fill="#b06041" stroke="none" stroke-width="0" stroke-linecap="butt"/><path d="M10.56474,239.82552v-55.81548h3.64013v55.81548z" fill="#ab5c37" stroke="none" stroke-width="0" stroke-linecap="butt"/><path d="M25.93421,239.82552v-55.81548h3.64014v55.81548z" fill="#ab5c37" stroke="none" stroke-width="0" stroke-linecap="butt"/><path d="M24.51739,212.59189v-12.40344" fill="none" stroke="#ad6c4e" stroke-width="6" stroke-linecap="round"/><path d="M15.61927,228.63547v-12.40344" fill="none" stroke="#ad6c4e" stroke-width="6" stroke-linecap="round"/><path d="M19.25941,196.00904v-11.99898v1.75266" fill="none" stroke="#ad6c4e" stroke-width="6" stroke-linecap="round"/></g><g fill="#ab5c37" stroke="none" stroke-linecap="butt"><path d="M27.82129,211.10888v-5.12317h17.12213v5.12316z" stroke-width="NaN"/><path d="M42.51666,208.54729c0,-1.41472 1.14686,-2.56158 2.56158,-2.56158c1.41472,0 2.56158,1.14686 2.56158,2.56158c0,1.41472 -1.14686,2.56158 -2.56158,2.56158c-1.41472,0 -2.56158,-1.14686 -2.56158,-2.56158z" stroke-width="0"/></g><g fill="#ab5c37" stroke="none" stroke-linecap="butt"><path d="M42.44925,191.22292h5.12316v17.12214h-5.12316z" stroke-width="NaN"/><path d="M45.01083,205.9183c1.41472,0 2.56158,1.14686 2.56158,2.56158c0,1.41472 -1.14686,2.56158 -2.56158,2.56158c-1.41472,0 -2.56158,-1.14685 -2.56158,-2.56158c0,-1.41473 1.14686,-2.56158 2.56158,-2.56158z" stroke-width="0"/></g><path d="M10.48012,188.3243v-4.17942h19.00962v4.17942z" fill="#86482b" stroke="none" stroke-width="NaN" stroke-linecap="butt"/><path d="M42.56728,199.37953v-4.17942h4.98833v4.17942z" fill="#86482b" stroke="none" stroke-width="NaN" stroke-linecap="butt"/></g><g stroke="none" stroke-width="0" stroke-linecap="butt"><path d="M-3.4797,185.29c-3.20708,0 -6.50557,-2.59887 -6.50557,-6.42096c0,-8.83444 0,-24.20413 0,-29.12111c0,-2.98017 3.35371,-6.36144 6.6008,-6.36144c6.90853,0 33.25436,0 45.71073,0c4.02513,0 6.59995,3.44341 6.59995,6.46255c0,4.949 0,20.33456 0,29.12112c0,3.76609 -2.57449,6.31984 -6.59995,6.31984c-12.48394,0 -38.92294,0 -45.80595,0z" fill="url(#color-43)"/><path d="M42.73715,178.62861c1.73467,-1.81826 4.61488,-1.88603 6.43314,-0.15137c1.81826,1.73467 1.88602,4.61488 0.15137,6.43314c-1.73467,1.81826 -4.61488,1.88603 -6.43314,0.15137c-1.81826,-1.73466 -1.88602,-4.61488 -0.15137,-6.43314z" fill="url(#color-44)"/><path d="M45.43515,174.81488c1.27209,-1.33339 3.38425,-1.3831 4.71764,-0.11101c1.33339,1.27209 1.38309,3.38425 0.111,4.71764c-1.27209,1.33339 -3.38424,1.3831 -4.71763,0.11101c-1.33339,-1.27209 -1.3831,-3.38425 -0.11101,-4.71764z" fill="url(#color-45)"/><path d="M-11.85897,182.36947c0.33878,-2.03835 2.26583,-3.41612 4.30417,-3.07735c2.03834,0.33878 3.41611,2.26583 3.07734,4.30417c-0.33878,2.03834 -2.26583,3.41611 -4.30417,3.07734c-2.03834,-0.33877 -3.41611,-2.26582 -3.07734,-4.30416z" fill="url(#color-46)"/><path d="M-11.81572,176.9596c1.14863,-1.51185 3.30538,-1.80631 4.81724,-0.65767c1.51185,1.14864 1.80631,3.30539 0.65767,4.81725c-1.14863,1.51185 -3.30538,1.8063 -4.81724,0.65766c-1.51185,-1.14863 -1.80631,-3.30538 -0.65767,-4.81724z" fill="url(#color-47)"/><path d="M-5.54659,182.62203c1.14864,-1.51187 3.30539,-1.80631 4.81725,-0.65767c1.51185,1.14864 1.80631,3.3054 0.65767,4.81725c-1.14864,1.51187 -3.3054,1.80631 -4.81725,0.65767c-1.51186,-1.14864 -1.8063,-3.3054 -0.65766,-4.81725z" fill="url(#color-48)"/><path d="M-0.43284,168.18631c0.91217,-1.20062 2.62491,-1.43444 3.82551,-0.52228c1.20061,0.91216 1.43444,2.62491 0.52227,3.82551c-0.91217,1.20061 -2.62491,1.43443 -3.82551,0.52227c-1.20061,-0.91216 -1.43444,-2.6249 -0.52227,-3.8255z" fill="url(#color-49)"/><path d="M7.30406,177.42581c0.05349,-1.50687 1.3184,-2.68507 2.82527,-2.63158c1.50687,0.0535 2.68506,1.3184 2.63157,2.82528c-0.05349,1.50686 -1.3184,2.68506 -2.82527,2.63157c-1.50686,-0.05349 -2.68506,-1.31839 -2.63157,-2.82527z" fill="url(#color-50)"/><path d="M27.96469,166.53259c0.82028,-1.26516 2.51087,-1.62581 3.77604,-0.80552c1.26516,0.82029 1.6258,2.51087 0.80551,3.77603c-0.82028,1.26516 -2.51086,1.62581 -3.77603,0.80552c-1.26516,-0.82029 -1.62581,-2.51087 -0.80552,-3.77603z" fill="url(#color-51)"/><path d="M13.57177,158.97955c0.02158,-1.34011 1.12545,-2.409 2.46555,-2.38742c1.34011,0.02158 2.40898,1.12544 2.38741,2.46555c-0.02157,1.34012 -1.12544,2.409 -2.46554,2.38742c-1.34011,-0.02158 -2.40899,-1.12544 -2.38742,-2.46555z" fill="url(#color-52)"/><path d="M31.83984,175.36211c0.69064,-1.52629 2.48781,-2.20369 4.01409,-1.51304c1.52628,0.69064 2.20369,2.48781 1.51304,4.01409c-0.69064,1.52629 -2.48781,2.20369 -4.01409,1.51304c-1.52628,-0.69064 -2.20369,-2.48781 -1.51304,-4.01409z" fill="url(#color-53)"/></g><path d="M30.99375,192.9701c0,-4.20227 0,-11.51314 0,-13.85198c0,-1.41757 1.59526,-3.02593 3.13979,-3.02593c3.28616,0 15.81802,0 21.74312,0c1.91462,0 3.13938,1.63792 3.13938,3.07403c0,2.35408 0,9.67249 0,13.85197c0,1.7914 -1.2246,3.00615 -3.13938,3.00615c-5.9382,0 -18.51439,0 -21.78841,0c-1.52551,0 -3.09449,-1.2362 -3.09449,-3.05425z" fill="url(#color-54)" stroke="none" stroke-width="0" stroke-linecap="butt"/><path d="M52.11426,181.46017c1.12019,0.7359 1.43172,2.24055 0.69582,3.36073c-0.7359,1.12019 -2.24054,1.43172 -3.36073,0.69582c-1.12019,-0.7359 -1.43172,-2.24055 -0.69582,-3.36073c0.7359,-1.12018 2.24054,-1.43172 3.36073,-0.69582z" fill="url(#color-55)" stroke="none" stroke-width="0" stroke-linecap="butt"/><path d="M41.36961,187.00751c-1.05001,0.83296 -2.57647,0.65701 -3.40943,-0.39302c-0.83297,-1.05002 -0.657,-2.57647 0.39301,-3.40943c1.05001,-0.83296 2.57647,-0.65701 3.40943,0.39302c0.83296,1.05002 0.65699,2.57647 -0.39302,3.40943z" fill="url(#color-56)" stroke="none" stroke-width="0" stroke-linecap="butt"/></g><g><g><g><path d="M292.46471,248.82552v-84.75369h29.17246v84.75369z" fill="#b06041" stroke="none" stroke-width="0" stroke-linecap="butt"/><path d="M292.61825,248.82552v-84.75369h5.52741v84.75369z" fill="#ab5c37" stroke="none" stroke-width="0" stroke-linecap="butt"/><path d="M315.95622,248.82552v-84.75369h5.52741v84.75369z" fill="#ab5c37" stroke="none" stroke-width="0" stroke-linecap="butt"/><path d="M313.80483,188.63812v18.83415" fill="none" stroke="#ad6c4e" stroke-width="6" stroke-linecap="round"/><path d="M300.29337,212.99969v18.83415" fill="none" stroke="#ad6c4e" stroke-width="6" stroke-linecap="round"/><path d="M305.82078,182.29183v-18.21999v2.66135" fill="none" stroke="#ad6c4e" stroke-width="6" stroke-linecap="round"/></g><g fill="#ab5c37" stroke="none" stroke-linecap="butt"><path d="M318.82167,205.22036v-7.77933h25.99932v7.77933z" stroke-width="NaN"/><path d="M341.13605,201.3307c0,-2.1482 1.74146,-3.88966 3.88966,-3.88966c2.1482,0 3.88966,1.74146 3.88966,3.88966c0,2.1482 -1.74146,3.88966 -3.88966,3.88966c-2.1482,0 -3.88966,-1.74146 -3.88966,-3.88966z" stroke-width="0"/></g><g fill="#ab5c37" stroke="none" stroke-linecap="butt"><path d="M341.03369,175.0243h7.77932v25.99932h-7.77932z" stroke-width="NaN"/><path d="M344.92335,197.33868c2.1482,0 3.88966,1.74146 3.88966,3.88966c0,2.14821 -1.74145,3.88966 -3.88966,3.88966c-2.1482,0 -3.88966,-1.74145 -3.88967,-3.88966c0,-2.14821 1.74146,-3.88966 3.88967,-3.88966z" stroke-width="0"/></g><path d="M292.48976,170.62285v-6.34629h28.86539v6.34629z" fill="#86482b" stroke="none" stroke-width="NaN" stroke-linecap="butt"/><path d="M341.2129,187.40981v-6.34629h7.5746v6.34629z" fill="#86482b" stroke="none" stroke-width="NaN" stroke-linecap="butt"/></g><g stroke="none" stroke-width="0" stroke-linecap="butt"><path d="M261.41386,156.2654c0,-13.41477 0,-36.75307 0,-44.21931c0,-4.52526 5.09249,-9.6596 10.02307,-9.6596c10.49034,0 50.49549,0 69.41001,0c6.112,0 10.02177,5.2287 10.02177,9.81314c0,7.51486 0,30.87725 0,44.21931c0,5.71866 -3.90926,9.59644 -10.02177,9.59644c-18.9564,0 -59.10302,0 -69.55462,0c-4.86984,0 -9.87846,-3.94628 -9.87846,-9.74998z" fill="url(#color-57)"/><path d="M341.47085,155.90031c2.63402,-2.76096 7.00751,-2.86386 9.76848,-0.22985c2.76096,2.63402 2.86386,7.00751 0.22985,9.76848c-2.63402,2.76096 -7.00751,2.86386 -9.76848,0.22985c-2.76096,-2.63402 -2.86386,-7.00751 -0.22985,-9.76848z" fill="url(#color-58)"/><path d="M345.56767,150.10932c1.93162,-2.0247 5.13885,-2.10017 7.16355,-0.16856c2.0247,1.93162 2.10017,5.13885 0.16856,7.16355c-1.93162,2.0247 -5.13885,2.10017 -7.16355,0.16856c-2.0247,-1.93162 -2.10017,-5.13885 -0.16856,-7.16355z" fill="url(#color-59)"/><path d="M258.56869,161.58066c0.51442,-3.09515 3.44056,-5.18724 6.53571,-4.67283c3.09515,0.51442 5.18724,3.44056 4.67283,6.53571c-0.51442,3.09515 -3.44056,5.18724 -6.53571,4.67283c-3.09515,-0.51442 -5.18724,-3.44056 -4.67283,-6.53571z" fill="url(#color-60)"/><path d="M258.63438,153.36598c1.74416,-2.29569 5.01911,-2.7428 7.31481,-0.99864c2.29569,1.74416 2.7428,5.01911 0.99864,7.31481c-1.74416,2.29569 -5.01911,2.7428 -7.31481,0.99864c-2.29569,-1.74416 -2.7428,-5.01911 -0.99864,-7.31481z" fill="url(#color-61)"/><path d="M268.15382,161.96418c1.74416,-2.2957 5.01911,-2.74281 7.31481,-0.99864c2.29569,1.74416 2.7428,5.01911 0.99864,7.3148c-1.74416,2.2957 -5.01911,2.74281 -7.3148,0.99864c-2.2957,-1.74416 -2.7428,-5.01911 -0.99864,-7.3148z" fill="url(#color-62)"/><path d="M275.91884,140.04407c1.38509,-1.82308 3.98582,-2.17814 5.80889,-0.79305c1.82308,1.38509 2.17814,3.98582 0.79305,5.80889c-1.38509,1.82308 -3.98582,2.17814 -5.80889,0.79305c-1.82308,-1.38509 -2.17814,-3.98582 -0.79305,-5.80889z" fill="url(#color-63)"/><path d="M287.66703,154.07391c0.08122,-2.28812 2.00194,-4.07716 4.29007,-3.99594c2.28812,0.08122 4.07716,2.00194 3.99594,4.29007c-0.08122,2.28812 -2.00194,4.07716 -4.29007,3.99594c-2.28812,-0.08122 -4.07716,-2.00194 -3.99594,-4.29007z" fill="url(#color-64)"/><path d="M319.03943,137.53297c1.24557,-1.9211 3.81266,-2.46872 5.73377,-1.22315c1.9211,1.24557 2.46872,3.81266 1.22314,5.73376c-1.24557,1.9211 -3.81266,2.46872 -5.73377,1.22315c-1.9211,-1.24557 -2.46872,-3.81266 -1.22314,-5.73376z" fill="url(#color-65)"/><path d="M297.18433,126.06396c0.03276,-2.03491 1.70894,-3.65796 3.74384,-3.6252c2.03491,0.03276 3.65796,1.70893 3.6252,3.74384c-0.03276,2.03491 -1.70894,3.65796 -3.74384,3.6252c-2.03491,-0.03276 -3.65796,-1.70893 -3.6252,-3.74384z" fill="url(#color-66)"/><path d="M324.9237,150.94025c1.04872,-2.3176 3.77765,-3.34622 6.09525,-2.29749c2.3176,1.04872 3.34621,3.77765 2.29749,6.09525c-1.04872,2.3176 -3.77765,3.34622 -6.09525,2.29749c-2.3176,-1.04872 -3.34621,-3.77765 -2.29749,-6.09525z" fill="url(#color-67)"/></g><path d="M323.63894,177.67731c0,-6.38098 0,-17.48225 0,-21.0337c0,-2.15252 2.42233,-4.59476 4.76765,-4.59476c4.98992,0 24.01907,0 33.01611,0c2.90728,0 4.76703,2.48712 4.76703,4.6678c0,3.57458 0,14.68731 0,21.0337c0,2.72018 -1.85951,4.56472 -4.76703,4.56472c-9.01694,0 -28.1134,0 -33.08488,0c-2.31643,0 -4.69887,-1.87712 -4.69887,-4.63775z" fill="url(#color-68)" stroke="none" stroke-width="0" stroke-linecap="butt"/><path d="M355.70964,160.19994c1.70096,1.11743 2.174,3.40218 1.05657,5.10314c-1.11743,1.70096 -3.40217,2.17401 -5.10314,1.05657c-1.70096,-1.11743 -2.174,-3.40218 -1.05657,-5.10314c1.11743,-1.70096 3.40217,-2.17401 5.10314,-1.05657z" fill="url(#color-69)" stroke="none" stroke-width="0" stroke-linecap="butt"/><path d="M334.21718,168.02658c-1.26482,-1.59441 -0.99763,-3.91227 0.59678,-5.17709c1.59441,-1.26482 3.91227,-0.99764 5.17709,0.59678c1.26482,1.59441 0.99763,3.91227 -0.59678,5.17709c-1.59441,1.26482 -3.91227,0.99764 -5.17709,-0.59678z" fill="url(#color-70)" stroke="none" stroke-width="0" stroke-linecap="butt"/></g><g><g><g><path d="M336.55047,241.82552v-55.81548h19.21184v55.81548z" fill="#b06041" stroke="none" stroke-width="0" stroke-linecap="butt"/><path d="M336.65158,241.82552v-55.81548h3.64014v55.81548z" fill="#ab5c37" stroke="none" stroke-width="0" stroke-linecap="butt"/><path d="M352.02106,241.82552v-55.81548h3.64014v55.81548z" fill="#ab5c37" stroke="none" stroke-width="0" stroke-linecap="butt"/><path d="M350.60424,202.18845v12.40344" fill="none" stroke="#ad6c4e" stroke-width="6" stroke-linecap="round"/><path d="M341.70612,230.63547v-12.40344" fill="none" stroke="#ad6c4e" stroke-width="6" stroke-linecap="round"/><path d="M345.34625,187.76271v-1.75266v11.99898" fill="none" stroke="#ad6c4e" stroke-width="6" stroke-linecap="round"/></g><g fill="#ab5c37" stroke="none" stroke-linecap="butt"><path d="M353.90813,213.10887v-5.12316h17.12214v5.12317z" stroke-width="NaN"/><path d="M368.60351,210.54729c0,-1.41472 1.14686,-2.56158 2.56158,-2.56158c1.41472,0 2.56158,1.14686 2.56158,2.56158c0,1.41472 -1.14686,2.56158 -2.56158,2.56158c-1.41472,0 -2.56158,-1.14686 -2.56158,-2.56158z" stroke-width="0"/></g><g fill="#ab5c37" stroke="none" stroke-linecap="butt"><path d="M368.5361,193.22292h5.12316v17.12214h-5.12316z" stroke-width="NaN"/><path d="M371.09768,207.9183c1.41472,0 2.56158,1.14686 2.56158,2.56158c0,1.41473 -1.14686,2.56158 -2.56158,2.56158c-1.41472,0 -2.56158,-1.14686 -2.56158,-2.56158c0,-1.41473 1.14686,-2.56158 2.56158,-2.56158z" stroke-width="0"/></g><path d="M336.56696,190.3243v-4.17942h19.00962v4.17942z" fill="#86482b" stroke="none" stroke-width="NaN" stroke-linecap="butt"/><path d="M368.65412,201.37953v-4.17942h4.98833v4.17942z" fill="#86482b" stroke="none" stroke-width="NaN" stroke-linecap="butt"/></g><g stroke="none" stroke-width="0" stroke-linecap="butt"><path d="M316.10159,180.86904c0,-8.83444 0,-24.20413 0,-29.12111c0,-2.98016 3.35371,-6.36143 6.6008,-6.36143c6.90853,0 33.25436,0 45.71073,0c4.02513,0 6.59995,3.44341 6.59995,6.46255c0,4.94899 0,20.33455 0,29.12112c0,3.76609 -2.57449,6.31984 -6.59995,6.31984c-12.48395,0 -38.92294,0 -45.80595,0c-3.20709,0 -6.50557,-2.59887 -6.50557,-6.42096z" fill="url(#color-71)"/><path d="M368.824,180.62861c1.73467,-1.81826 4.61488,-1.88602 6.43314,-0.15137c1.81826,1.73467 1.88603,4.61487 0.15137,6.43314c-1.73467,1.81826 -4.61488,1.88603 -6.43314,0.15137c-1.81826,-1.73467 -1.88603,-4.61488 -0.15137,-6.43314z" fill="url(#color-72)"/><path d="M371.522,176.81489c1.27209,-1.33339 3.38425,-1.38309 4.71764,-0.11101c1.33339,1.27209 1.38309,3.38424 0.111,4.71764c-1.27209,1.33339 -3.38425,1.38309 -4.71764,0.11101c-1.33339,-1.27209 -1.38309,-3.38424 -0.111,-4.71764z" fill="url(#color-73)"/><path d="M314.22787,184.36946c0.33877,-2.03834 2.26582,-3.41612 4.30416,-3.07735c2.03834,0.33877 3.41611,2.26582 3.07735,4.30417c-0.33877,2.03834 -2.26582,3.41611 -4.30416,3.07734c-2.03834,-0.33877 -3.41611,-2.26582 -3.07735,-4.30416z" fill="url(#color-74)"/><path d="M314.27113,178.9596c1.14863,-1.51185 3.30539,-1.80631 4.81725,-0.65767c1.51185,1.14864 1.8063,3.30539 0.65766,4.81725c-1.14863,1.51185 -3.30538,1.8063 -4.81724,0.65766c-1.51185,-1.14864 -1.8063,-3.30538 -0.65767,-4.81724z" fill="url(#color-75)"/><path d="M320.54026,184.62203c1.14863,-1.51186 3.30539,-1.80631 4.81725,-0.65767c1.51185,1.14864 1.8063,3.3054 0.65766,4.81725c-1.14863,1.51186 -3.3054,1.80631 -4.81724,0.65767c-1.51186,-1.14864 -1.8063,-3.3054 -0.65766,-4.81725z" fill="url(#color-76)"/><path d="M325.654,170.18631c0.91217,-1.20061 2.6249,-1.43444 3.82551,-0.52228c1.20061,0.91216 1.43444,2.62491 0.52227,3.82551c-0.91217,1.20061 -2.6249,1.43443 -3.82551,0.52227c-1.20061,-0.91216 -1.43444,-2.6249 -0.52227,-3.8255z" fill="url(#color-77)"/><path d="M333.3909,179.42581c0.05349,-1.50687 1.3184,-2.68507 2.82527,-2.63158c1.50687,0.05349 2.68506,1.3184 2.63157,2.82528c-0.05349,1.50687 -1.3184,2.68506 -2.82527,2.63157c-1.50687,-0.05349 -2.68506,-1.31839 -2.63157,-2.82527z" fill="url(#color-78)"/><path d="M354.05154,168.53259c0.82028,-1.26516 2.51087,-1.62581 3.77604,-0.80552c1.26516,0.82029 1.6258,2.51087 0.80551,3.77603c-0.82028,1.26516 -2.51086,1.62581 -3.77603,0.80552c-1.26516,-0.82029 -1.6258,-2.51087 -0.80551,-3.77603z" fill="url(#color-79)"/><path d="M339.65862,160.97955c0.02157,-1.34011 1.12544,-2.409 2.46555,-2.38742c1.34011,0.02158 2.40899,1.12544 2.38741,2.46555c-0.02157,1.34011 -1.12544,2.40899 -2.46554,2.38742c-1.34011,-0.02158 -2.40899,-1.12544 -2.38742,-2.46555z" fill="url(#color-80)"/><path d="M357.92669,177.3621c0.69065,-1.52628 2.48781,-2.20369 4.01409,-1.51304c1.52628,0.69064 2.20368,2.48781 1.51304,4.01409c-0.69065,1.52628 -2.48781,2.20369 -4.01409,1.51304c-1.52628,-0.69064 -2.20368,-2.48781 -1.51304,-4.01409z" fill="url(#color-81)"/></g><path d="M357.0806,194.97009c0,-4.20227 0,-11.51313 0,-13.85198c0,-1.41756 1.59525,-3.02593 3.13979,-3.02593c3.28616,0 15.81802,0 21.74312,0c1.91462,0 3.13938,1.63792 3.13938,3.07403c0,2.35408 0,9.67248 0,13.85197c0,1.7914 -1.2246,3.00615 -3.13938,3.00615c-5.9382,0 -18.51439,0 -21.78841,0c-1.52551,0 -3.09449,-1.2362 -3.09449,-3.05425z" fill="url(#color-82)" stroke="none" stroke-width="0" stroke-linecap="butt"/><path d="M378.20111,183.46017c1.12019,0.73589 1.43171,2.24054 0.69581,3.36073c-0.73589,1.12018 -2.24054,1.43171 -3.36073,0.69582c-1.12019,-0.73589 -1.43171,-2.24054 -0.69582,-3.36073c0.73589,-1.12018 2.24054,-1.43172 3.36073,-0.69582z" fill="url(#color-83)" stroke="none" stroke-width="0" stroke-linecap="butt"/><path d="M364.04701,188.61449c-0.83296,-1.05002 -0.657,-2.57647 0.39302,-3.40943c1.05002,-0.83296 2.57647,-0.657 3.40943,0.39302c0.83296,1.05002 0.657,2.57647 -0.39302,3.40943c-1.05002,0.83296 -2.57647,0.657 -3.40943,-0.39302z" fill="url(#color-84)" stroke="none" stroke-width="0" stroke-linecap="butt"/></g><path d="M3.5,407.11351v-166h477v166z" fill="#ffffff" stroke="none" stroke-width="0" stroke-linecap="butt"/><path d="M1.42586,408.61351v-127h482v127z" fill="#4eaad2" stroke="none" stroke-width="0" stroke-linecap="butt"/><path d="M483.37031,239.61351v59h-461.94444v-59z" fill="#5ecfff" stroke="none" stroke-width="0" stroke-linecap="butt"/><path d="M55.34966,256.51351c0,11.95934 0,24.21448 0,30.83334c0,4.95926 -4.77905,11 -11.5,11c-7.54753,0 -42.41517,0 -42.41517,0l-0.43337,-53.50001c0,0 38.91264,0 42.18187,0c5.44652,0 12.16667,4.90772 12.16667,11.66666z" fill="#9ce1ff" stroke="none" stroke-width="0" stroke-linecap="butt"/><path d="M3.20088,239.61415h-2.62674h482.80781h-1.68348" fill="none" stroke="#ffffff" stroke-width="12" stroke-linecap="round"/><path d="M274.81476,256.70888c0,10.35672 0,20.96962 0,26.70151c0,4.2947 -4.13863,9.52594 -9.95894,9.52594c-11.11946,0 -49.59366,0 -55.85668,0c-4.50871,0 -11.40227,-4.24585 -11.69093,-10.68061c-0.19829,-4.42017 -0.11643,-16.51255 0,-24.39219c0.07546,-5.10689 6.31612,-11.25793 12.55693,-11.25793c11.62281,0 50.20867,0 54.41335,0c4.71666,0 10.53628,4.25007 10.53628,10.10327z" fill="#79d7ff" stroke="none" stroke-width="0" stroke-linecap="butt"/><path d="M153.68863,317.26443c0,10.35672 0,20.96962 0,26.70152c0,4.2947 -4.13864,9.52594 -9.95895,9.52594c-11.11946,0 -49.59365,0 -55.85667,0c-4.50871,0 -11.40226,-4.24584 -11.69093,-10.68061c-0.19829,-4.42017 -0.11643,-16.51254 0,-24.39219c0.07546,-5.10689 6.31612,-11.25793 12.55693,-11.25793c11.62282,0 50.20867,0 54.41335,0c4.71666,0 10.53627,4.25006 10.53627,10.10327z" fill="#4597ba" stroke="none" stroke-width="0" stroke-linecap="butt"/><path d="M326.85679,362.80497c0,10.35672 0,20.96962 0,26.70152c0,4.2947 -4.13864,9.52594 -9.95895,9.52594c-11.11946,0 -49.59366,0 -55.85667,0c-4.50871,0 -11.40226,-4.24585 -11.69093,-10.68061c-0.19829,-4.42017 -0.11643,-16.51254 0,-24.39219c0.07546,-5.10689 6.31612,-11.25794 12.55693,-11.25794c11.62282,0 50.20867,0 54.41335,0c4.71666,0 10.53627,4.25006 10.53627,10.10327z" fill="#479cc0" stroke="none" stroke-width="0" stroke-linecap="butt"/><g data-paper-data="{&quot;index&quot;:null}" stroke="none" stroke-width="0" stroke-linecap="butt"><path d="M214.85926,233.6c-3.79662,0 -12.87241,0 -19.55556,0c-4.4924,0 -7.9037,-4.31611 -7.9037,-7.65926c0,-3.78168 0,-12.85201 0,-19.55555c0,-4.53394 3.41129,-7.98519 7.9037,-7.98519c6.68315,0 15.75894,0 19.55556,0c3.3708,0 7.74074,3.29191 7.74074,7.65926c0,6.62126 0,15.71442 0,19.55555c0,3.45303 -4.36994,7.98519 -7.74074,7.98519z" fill="url(#color-85)"/><path d="M205,227.57038c-6.39014,0 -11.57038,-5.18024 -11.57038,-11.57038c0,-6.39014 5.18024,-11.57038 11.57038,-11.57038c6.39014,0 11.57038,5.18024 11.57038,11.57038c0,6.39014 -5.18024,11.57038 -11.57038,11.57038z" fill="#dadada"/><path d="M205,226.83704c-5.98514,0 -10.83703,-4.8519 -10.83703,-10.83703c0,-5.98514 4.8519,-10.83703 10.83703,-10.83703c5.98514,0 10.83704,4.8519 10.83704,10.83703c0,5.98514 -4.8519,10.83703 -10.83704,10.83703z" fill="#ffffff"/><g><path d="M204.22346,221.54074c-1.19524,0 -4.05242,0 -6.15638,0c-1.41427,0 -2.4882,-1.35878 -2.4882,-2.41125c0,-1.19053 0,-4.04601 0,-6.15638c0,-1.42736 1.07393,-2.51386 2.4882,-2.51386c2.10396,0 4.96114,0 6.15638,0c1.06117,0 2.4369,1.03634 2.4369,2.41125c0,2.08447 0,4.94715 0,6.15639c0,1.08707 -1.37573,2.51386 -2.4369,2.51386z" fill="#1d1d1d"/><path d="M203.67573,220.56297c-0.98431,0 -3.33729,0 -5.06996,0c-1.16471,0 -2.04911,-1.11899 -2.04911,-1.98574c0,-0.98043 0,-3.332 0,-5.06996c0,-1.17547 0.88441,-2.07023 2.04911,-2.07023c1.73266,0 4.08565,0 5.06996,0c0.87391,0 2.00685,0.85346 2.00685,1.98574c0,1.71662 0,4.07411 0,5.06996c0,0.89523 -1.13294,2.07023 -2.00685,2.07023z" fill="#000000"/></g></g><text transform="translate(43.60001,27.60001) scale(0.5,0.5)" font-size="40" xml:space="preserve" fill="#00ecff" fill-rule="nonzero" stroke="none" stroke-width="1" stroke-linecap="butt" stroke-linejoin="miter" stroke-miterlimit="10" stroke-dasharray="" stroke-dashoffset="0" font-family="Handwriting" font-weight="normal" text-anchor="start" style="mix-blend-mode: normal"><tspan x="0" dy="0">  Then you noticed something</tspan><tspan x="0" dy="46.150000000000006px">unusual. The people you greeted</tspan><tspan x="0" dy="46.150000000000006px">while walking everyday were red</tspan><tspan x="0" dy="46.150000000000006px">   which is unusual in blue land</tspan></text><g stroke="none" stroke-width="0" stroke-linecap="butt"><path d="M77.9,224.96782c0,-4.0321 0,-13.57733 0,-20.52778c0,-4.58447 4.5872,-8.04005 8.12558,-8.04005c3.98537,0 13.51237,0 20.52778,0c4.71575,0 8.29664,3.62283 8.29664,8.38218c0,7.03681 0,16.55809 0,20.52778c0,3.50935 -3.58089,8.04005 -8.29664,8.04005c-7.01541,0 -16.5424,0 -20.52778,0c-3.53838,0 -8.12558,-4.75748 -8.12558,-8.38218z" fill="url(#color-86)"/><path d="M84.2294,214.875c0,-6.70783 5.43777,-12.1456 12.1456,-12.1456c6.70783,0 12.1456,5.43777 12.1456,12.1456c0,6.70783 -5.43777,12.1456 -12.1456,12.1456c-6.70783,0 -12.1456,-5.43777 -12.1456,-12.1456z" fill="#dadada"/><path d="M84.99919,214.875c0,-6.28269 5.09312,-11.37581 11.37581,-11.37581c6.28269,0 11.37581,5.09312 11.37581,11.37581c0,6.28269 -5.09312,11.37581 -11.37581,11.37581c-6.28269,0 -11.37581,-5.09312 -11.37581,-11.37581z" fill="#ffffff"/><g><path d="M94.25908,218.05237c0,-1.26936 0,-4.27435 0,-6.46245c0,-1.44326 1.44412,-2.53113 2.55805,-2.53113c1.25466,0 4.25389,0 6.46245,0c1.48459,0 2.6119,1.14052 2.6119,2.63884c0,2.2153 0,5.21273 0,6.46245c0,1.1048 -1.12732,2.53113 -2.6119,2.53113c-2.20856,0 -5.20779,0 -6.46245,0c-1.11393,0 -2.55805,-1.49772 -2.55805,-2.63884z" fill="#1d1d1d"/><path d="M95.28547,217.49166c0,-1.04536 0,-3.52005 0,-5.32201c0,-1.18857 1.18927,-2.08446 2.10663,-2.08446c1.03325,0 3.50321,0 5.32201,0c1.2226,0 2.15099,0.93925 2.15099,2.17316c0,1.82436 0,4.29284 0,5.32201c0,0.90983 -0.92838,2.08446 -2.15099,2.08446c-1.81881,0 -4.28877,0 -5.32201,0c-0.91736,0 -2.10663,-1.23342 -2.10663,-2.17316z" fill="#000000"/></g></g></g></g></svg>