<svg version="1.1" xmlns="http://www.w3.org/2000/svg" xmlns:xlink="http://www.w3.org/1999/xlink" width="490.49759" height="363.60988" viewBox="0,0,490.49759,363.60988"><defs><linearGradient x1="195" y1="198.40002" x2="195" y2="233.60002" gradientUnits="userSpaceOnUse" id="color-1"><stop offset="0" stop-color="#4ec3ff"/><stop offset="1" stop-color="#3b93bf"/></linearGradient><linearGradient x1="285" y1="198.40002" x2="285" y2="233.60002" gradientUnits="userSpaceOnUse" id="color-2"><stop offset="0" stop-color="#4ec3ff"/><stop offset="1" stop-color="#3b93bf"/></linearGradient></defs><g transform="translate(2.79911,-45.00364)"><g data-paper-data="{&quot;isPaintingLayer&quot;:true}" fill-rule="nonzero" stroke-linejoin="miter" stroke-miterlimit="10" stroke-dasharray="" stroke-dashoffset="0" style="mix-blend-mode: normal"><path d="M3.50001,407.11353v-166h477v166z" fill="#ffffff" stroke="none" stroke-width="0" stroke-linecap="butt"/><path d="M1.42587,408.61353v-127h482v127z" fill="#4eaad2" stroke="none" stroke-width="0" stroke-linecap="butt"/><path d="M483.37032,239.61353v59h-461.94444v-59z" fill="#5ecfff" stroke="none" stroke-width="0" stroke-linecap="butt"/><path d="M55.34967,256.51353c0,11.95934 0,24.21448 0,30.83334c0,4.95926 -4.77905,11 -11.5,11c-7.54753,0 -42.41517,0 -42.41517,0l-0.43337,-53.50001c0,0 38.91264,0 42.18187,0c5.44652,0 12.16667,4.90772 12.16667,11.66666z" fill="#9ce1ff" stroke="none" stroke-width="0" stroke-linecap="butt"/><path d="M3.20089,239.61417h-2.62674h482.80781h-1.68348" fill="none" stroke="#ffffff" stroke-width="12" stroke-linecap="round"/><path d="M274.81477,256.7089c0,10.35672 0,20.96962 0,26.70151c0,4.2947 -4.13863,9.52594 -9.95894,9.52594c-11.11946,0 -49.59366,0 -55.85668,0c-4.50871,0 -11.40227,-4.24585 -11.69093,-10.68061c-0.19829,-4.42017 -0.11643,-16.51255 0,-24.39219c0.07546,-5.10689 6.31612,-11.25793 12.55693,-11.25793c11.62281,0 50.20867,0 54.41335,0c4.71666,0 10.53628,4.25007 10.53628,10.10327z" fill="#79d7ff" stroke="none" stroke-width="0" stroke-linecap="butt"/><path d="M153.68864,317.26444c0,10.35672 0,20.96962 0,26.70152c0,4.2947 -4.13864,9.52594 -9.95895,9.52594c-11.11946,0 -49.59365,0 -55.85667,0c-4.50871,0 -11.40226,-4.24584 -11.69093,-10.68061c-0.19829,-4.42017 -0.11643,-16.51254 0,-24.39219c0.07546,-5.10689 6.31612,-11.25793 12.55693,-11.25793c11.62282,0 50.20867,0 54.41335,0c4.71666,0 10.53627,4.25006 10.53627,10.10327z" fill="#4597ba" stroke="none" stroke-width="0" stroke-linecap="butt"/><path d="M326.85679,362.80499c0,10.35672 0,20.96962 0,26.70152c0,4.2947 -4.13864,9.52594 -9.95895,9.52594c-11.11946,0 -49.59366,0 -55.85667,0c-4.50871,0 -11.40226,-4.24585 -11.69093,-10.68061c-0.19829,-4.42017 -0.11643,-16.51254 0,-24.39219c0.07546,-5.10689 6.31612,-11.25794 12.55693,-11.25794c11.62282,0 50.20867,0 54.41335,0c4.71666,0 10.53627,4.25006 10.53627,10.10327z" fill="#479cc0" stroke="none" stroke-width="0" stroke-linecap="butt"/><g data-paper-data="{&quot;index&quot;:null}" stroke="none" stroke-width="0" stroke-linecap="butt"><path d="M177.4,225.61483c0,-3.84113 0,-12.93429 0,-19.55555c0,-4.36735 4.36994,-7.65926 7.74074,-7.65926c3.79662,0 12.87241,0 19.55556,0c4.49241,0 7.9037,3.45125 7.9037,7.98519c0,6.70354 0,15.77387 0,19.55555c0,3.34315 -3.4113,7.65926 -7.9037,7.65926c-6.68315,0 -15.75894,0 -19.55556,0c-3.3708,0 -7.74074,-4.53216 -7.74074,-7.98519z" fill="url(#color-1)"/><path d="M183.42962,216.00002c0,-6.39014 5.18024,-11.57038 11.57038,-11.57038c6.39014,0 11.57038,5.18024 11.57038,11.57038c0,6.39014 -5.18024,11.57038 -11.57038,11.57038c-6.39014,0 -11.57038,-5.18024 -11.57038,-11.57038z" fill="#dadada"/><path d="M184.16296,216.00003c0,-5.98513 4.8519,-10.83703 10.83704,-10.83703c5.98513,0 10.83703,4.85189 10.83703,10.83703c0,5.98513 -4.85189,10.83703 -10.83703,10.83703c-5.98514,0 -10.83704,-4.85189 -10.83704,-10.83703z" fill="#ffffff"/><g><path d="M195.77654,221.54077c-1.06117,0 -2.4369,-1.42679 -2.4369,-2.51386c0,-1.20924 0,-4.07192 0,-6.15639c0,-1.37491 1.37573,-2.41125 2.4369,-2.41125c1.19524,0 4.05242,0 6.15638,0c1.41427,0 2.4882,1.0865 2.4882,2.51386c0,2.11037 0,4.96585 0,6.15638c0,1.05247 -1.07393,2.41125 -2.4882,2.41125c-2.10396,0 -4.96114,0 -6.15638,0z" fill="#1d1d1d"/><path d="M194.31742,218.49276c0,-0.99585 0,-3.35334 0,-5.06996c0,-1.13228 1.13294,-1.98574 2.00685,-1.98574c0.98431,0 3.3373,0 5.06996,0c1.1647,0 2.04911,0.89476 2.04911,2.07023c0,1.73796 0,4.08953 0,5.06996c0,0.86675 -0.8844,1.98574 -2.04911,1.98574c-1.73267,0 -4.08565,0 -5.06996,0c-0.87391,0 -2.00685,-1.175 -2.00685,-2.07023z" fill="#000000"/></g></g><g data-paper-data="{&quot;index&quot;:null}" stroke="none" stroke-width="0" stroke-linecap="butt"><path d="M294.85926,233.60002c-3.79662,0 -12.87241,0 -19.55556,0c-4.4924,0 -7.9037,-4.31611 -7.9037,-7.65926c0,-3.78168 0,-12.85201 0,-19.55555c0,-4.53394 3.41129,-7.98519 7.9037,-7.98519c6.68315,0 15.75894,0 19.55556,0c3.3708,0 7.74074,3.29191 7.74074,7.65926c0,6.62126 0,15.71442 0,19.55555c0,3.45303 -4.36994,7.98519 -7.74074,7.98519z" fill="url(#color-2)"/><path d="M285,227.5704c-6.39014,0 -11.57038,-5.18024 -11.57038,-11.57038c0,-6.39014 5.18024,-11.57038 11.57038,-11.57038c6.39014,0 11.57038,5.18024 11.57038,11.57038c0,6.39014 -5.18024,11.57038 -11.57038,11.57038z" fill="#dadada"/><path d="M285,226.83706c-5.98514,0 -10.83703,-4.8519 -10.83703,-10.83703c0,-5.98514 4.8519,-10.83703 10.83703,-10.83703c5.98514,0 10.83704,4.8519 10.83704,10.83703c0,5.98514 -4.8519,10.83703 -10.83704,10.83703z" fill="#ffffff"/><g><path d="M284.22346,221.54076c-1.19524,0 -4.05242,0 -6.15638,0c-1.41427,0 -2.4882,-1.35878 -2.4882,-2.41125c0,-1.19053 0,-4.04601 0,-6.15638c0,-1.42736 1.07393,-2.51386 2.4882,-2.51386c2.10396,0 4.96114,0 6.15638,0c1.06117,0 2.4369,1.03634 2.4369,2.41125c0,2.08447 0,4.94715 0,6.15639c0,1.08707 -1.37573,2.51386 -2.4369,2.51386z" fill="#1d1d1d"/><path d="M283.67573,220.56299c-0.98431,0 -3.33729,0 -5.06996,0c-1.16471,0 -2.04911,-1.11899 -2.04911,-1.98574c0,-0.98043 0,-3.332 0,-5.06996c0,-1.17547 0.88441,-2.07023 2.04911,-2.07023c1.73266,0 4.08565,0 5.06996,0c0.87391,0 2.00685,0.85346 2.00685,1.98574c0,1.71662 0,4.07411 0,5.06996c0,0.89523 -1.13294,2.07023 -2.00685,2.07023z" fill="#000000"/></g></g><text transform="translate(44.55477,64.05365) scale(0.5,0.5)" font-size="40" xml:space="preserve" fill="#00ecff" fill-rule="nonzero" stroke="none" stroke-width="1" stroke-linecap="butt" stroke-linejoin="miter" stroke-miterlimit="10" stroke-dasharray="" stroke-dashoffset="0" font-family="Handwriting" font-weight="normal" text-anchor="start" style="mix-blend-mode: normal"><tspan x="0" dy="0">Then you meet the only blue person and he tells</tspan><tspan x="0" dy="46.15px">   you what actually happened. There was an</tspan><tspan x="0" dy="46.15px">asteroid crash near the forest. People who went </tspan><tspan x="0" dy="46.15px">                         near it got infected</tspan></text></g></g></svg>