<svg version="1.1" xmlns="http://www.w3.org/2000/svg" xmlns:xlink="http://www.w3.org/1999/xlink" width="490.49759" height="375.60988" viewBox="0,0,490.49759,375.60988"><defs><linearGradient x1="361" y1="182.40002" x2="361" y2="233.60002" gradientUnits="userSpaceOnUse" id="color-1"><stop offset="0" stop-color="#4ec3ff"/><stop offset="1" stop-color="#3b93bf"/></linearGradient></defs><g transform="translate(2.79911,-33.00365)"><g data-paper-data="{&quot;isPaintingLayer&quot;:true}" fill-rule="nonzero" stroke-linejoin="miter" stroke-miterlimit="10" stroke-dasharray="" stroke-dashoffset="0" style="mix-blend-mode: normal"><path d="M3.50001,407.11353v-166h477v166z" fill="#ffffff" stroke="none" stroke-width="0" stroke-linecap="butt"/><path d="M1.42587,408.61353v-127h482v127z" fill="#4eaad2" stroke="none" stroke-width="0" stroke-linecap="butt"/><path d="M483.37032,239.61353v59h-461.94444v-59z" fill="#5ecfff" stroke="none" stroke-width="0" stroke-linecap="butt"/><path d="M55.34967,256.51353c0,11.95934 0,24.21448 0,30.83334c0,4.95926 -4.77905,11 -11.5,11c-7.54753,0 -42.41517,0 -42.41517,0l-0.43337,-53.50001c0,0 38.91264,0 42.18187,0c5.44652,0 12.16667,4.90772 12.16667,11.66666z" fill="#9ce1ff" stroke="none" stroke-width="0" stroke-linecap="butt"/><path d="M481.69848,239.61417h1.68348h-482.80781h2.62674" fill="none" stroke="#ffffff" stroke-width="12" stroke-linecap="round"/><path d="M274.81477,256.7089c0,10.35672 0,20.96962 0,26.70151c0,4.2947 -4.13863,9.52594 -9.95894,9.52594c-11.11946,0 -49.59366,0 -55.85668,0c-4.50871,0 -11.40227,-4.24585 -11.69093,-10.68061c-0.19829,-4.42017 -0.11643,-16.51255 0,-24.39219c0.07546,-5.10689 6.31612,-11.25793 12.55693,-11.25793c11.62281,0 50.20867,0 54.41335,0c4.71666,0 10.53628,4.25007 10.53628,10.10327z" fill="#79d7ff" stroke="none" stroke-width="0" stroke-linecap="butt"/><path d="M153.68864,317.26444c0,10.35672 0,20.96962 0,26.70152c0,4.2947 -4.13864,9.52594 -9.95895,9.52594c-11.11946,0 -49.59365,0 -55.85667,0c-4.50871,0 -11.40226,-4.24584 -11.69093,-10.68061c-0.19829,-4.42017 -0.11643,-16.51254 0,-24.39219c0.07546,-5.10689 6.31612,-11.25793 12.55693,-11.25793c11.62282,0 50.20867,0 54.41335,0c4.71666,0 10.53627,4.25006 10.53627,10.10327z" fill="#4597ba" stroke="none" stroke-width="0" stroke-linecap="butt"/><path d="M326.85679,362.80499c0,10.35672 0,20.96962 0,26.70152c0,4.2947 -4.13864,9.52594 -9.95895,9.52594c-11.11946,0 -49.59366,0 -55.85667,0c-4.50871,0 -11.40226,-4.24585 -11.69093,-10.68061c-0.19829,-4.42017 -0.11643,-16.51254 0,-24.39219c0.07546,-5.10689 6.31612,-11.25794 12.55693,-11.25794c11.62282,0 50.20867,0 54.41335,0c4.71666,0 10.53627,4.25006 10.53627,10.10327z" fill="#479cc0" stroke="none" stroke-width="0" stroke-linecap="butt"/><g data-paper-data="{&quot;index&quot;:null}" stroke="none" stroke-width="0" stroke-linecap="butt"><path d="M335.4,221.9852c0,-5.5871 0,-18.81351 0,-28.44444c0,-6.35251 6.35628,-11.14074 11.25926,-11.14074c5.52236,0 18.72351,0 28.44445,0c6.53441,0 11.49629,5.02 11.49629,11.61482c0,9.7506 0,22.94381 0,28.44444c0,4.86276 -4.96189,11.14074 -11.49629,11.14074c-9.72095,0 -22.92209,0 -28.44445,0c-4.90298,0 -11.25926,-6.59223 -11.25926,-11.61482z" fill="url(#color-1)"/><path d="M344.17036,208.00002c0,-9.29475 7.53489,-16.82964 16.82964,-16.82964c9.29475,0 16.82964,7.53489 16.82964,16.82964c0,9.29475 -7.53489,16.82964 -16.82964,16.82964c-9.29475,0 -16.82964,-7.53489 -16.82964,-16.82964z" fill="#dadada"/><path d="M345.23704,208.00004c0,-8.70564 7.05731,-15.76295 15.76297,-15.76295c8.70564,0 15.76295,7.05729 15.76295,15.76295c0,8.70564 -7.05729,15.76295 -15.76295,15.76295c-8.70566,0 -15.76297,-7.05729 -15.76297,-15.76295z" fill="#ffffff"/><g><path d="M362.12952,216.0593c-1.54352,0 -3.54458,-2.07533 -3.54458,-3.65652c0,-1.75889 0,-5.92279 0,-8.95475c0,-1.99987 2.00106,-3.50727 3.54458,-3.50727c1.73853,0 5.89443,0 8.95473,0c2.05712,0 3.6192,1.58036 3.6192,3.65652c0,3.06963 0,7.22305 0,8.95473c0,1.53087 -1.56208,3.50727 -3.6192,3.50727c-3.06031,0 -7.2162,0 -8.95473,0z" fill="#1d1d1d"/><path d="M360.00716,211.62583c0,-1.44851 0,-4.87759 0,-7.37449c0,-1.64695 1.64791,-2.88835 2.91905,-2.88835c1.43172,0 4.85425,0 7.37449,0c1.69411,0 2.98052,1.30147 2.98052,3.01124c0,2.52794 0,5.94841 0,7.37449c0,1.26073 -1.2864,2.88835 -2.98052,2.88835c-2.52025,0 -5.94276,0 -7.37449,0c-1.27114,0 -2.91905,-1.70909 -2.91905,-3.01124z" fill="#000000"/></g></g><text transform="translate(45.55477,52.05365) scale(0.5,0.5)" font-size="40" xml:space="preserve" fill="#00ecff" fill-rule="nonzero" stroke="none" stroke-width="1" stroke-linecap="butt" stroke-linejoin="miter" stroke-miterlimit="10" stroke-dasharray="" stroke-dashoffset="0" font-family="Handwriting" font-weight="normal" text-anchor="start" style="mix-blend-mode: normal"><tspan x="0" dy="0">Fortunately he knew the location of all flags and</tspan><tspan x="0" dy="46.150000000000006px">tells you where they are. He can't accompany you</tspan><tspan x="0" dy="46.150000000000006px">as he is quite old and cannot adventure. Now</tspan><tspan x="0" dy="46.150000000000006px">YOU have to find the cure and save the people</tspan><tspan x="0" dy="46.150000000000006px">                                of blue land!</tspan></text><text transform="translate(114.32739,174.55365) scale(0.80336,0.80336)" font-size="40" xml:space="preserve" fill="#00ecff" fill-rule="nonzero" stroke="none" stroke-width="1" stroke-linecap="butt" stroke-linejoin="miter" stroke-miterlimit="10" stroke-dasharray="" stroke-dashoffset="0" font-family="Handwriting" font-weight="normal" text-anchor="start" style="mix-blend-mode: normal"><tspan x="0" dy="0">Press S to continue</tspan></text><text transform="translate(288.32739,224.05365) scale(0.5,0.5)" font-size="40" xml:space="preserve" fill="#00ecff" fill-rule="nonzero" stroke="none" stroke-width="1" stroke-linecap="butt" stroke-linejoin="miter" stroke-miterlimit="10" stroke-dasharray="" stroke-dashoffset="0" font-family="Handwriting" font-weight="normal" text-anchor="start" style="mix-blend-mode: normal"><tspan x="0" dy="0">ssss</tspan></text></g></g></svg>