<svg version="1.1" xmlns="http://www.w3.org/2000/svg" xmlns:xlink="http://www.w3.org/1999/xlink" width="355.71667" height="287.66358" viewBox="0,0,355.71667,287.66358"><g transform="translate(-56.04643,-17.00365)"><g data-paper-data="{&quot;isPaintingLayer&quot;:true}" fill-rule="nonzero" stroke="none" stroke-linecap="butt" stroke-linejoin="miter" stroke-miterlimit="10" stroke-dasharray="" stroke-dashoffset="0" style="mix-blend-mode: normal"><text transform="translate(56.55477,36.05365) scale(0.5,0.5)" font-size="40" xml:space="preserve" fill="#00ecff" fill-rule="nonzero" stroke="none" stroke-width="1" stroke-linecap="butt" stroke-linejoin="miter" stroke-miterlimit="10" stroke-dasharray="" stroke-dashoffset="0" font-family="Handwriting" font-weight="normal" text-anchor="start" style="mix-blend-mode: normal"><tspan x="0" dy="0">This was an ancient disease that happened in</tspan><tspan x="0" dy="46.150000000000006px">the past. It was similar to this one. It was </tspan><tspan x="0" dy="46.150000000000006px">        cured using an antidote .In present</tspan><tspan x="0" dy="46.150000000000006px">   day it is hidden in 3 red flags. You need to</tspan><tspan x="0" dy="46.150000000000006px">   find all of them to assemble the cure and</tspan><tspan x="0" dy="46.150000000000006px">     find a way to inject it into the people</tspan></text><path d="M84.96224,267.24273l-17.40767,-35.27355c0,0 15.51452,4.9482 27.70702,-1.06886c4.94128,-2.43855 13.05166,-15.96401 21.26098,-22.38969c12.60823,-9.86883 25.2281,-13.15758 25.2281,-13.15758l17.40767,35.27355c0,0 -13.48975,0.04431 -23.64732,7.48509c-9.87699,7.23523 -16.34084,21.82883 -22.42051,24.82918c-12.39962,6.11927 -28.12826,4.30187 -28.12826,4.30187z" fill="#ff7e7e" stroke-width="0"/><path d="M186.52301,295.27108l-53.02337,-107.44243l5.6762,-2.80123l53.02337,107.44243z" fill="#ffffff" stroke-width="0"/><path d="M185.65498,214.0742l-0.38088,-39.33326c0,0 11.83165,11.18915 25.42741,11.05749c5.50998,-0.05336 18.68528,-8.721 28.86952,-10.9489c15.6414,-3.4217 28.43855,-0.90977 28.43855,-0.90977l0.38089,39.33326c0,0 -12.17333,-5.81252 -24.55331,-3.51527c-12.03801,2.23378 -24.19321,12.57814 -30.9726,12.64379c-13.82672,0.13389 -27.20957,-8.32734 -27.20957,-8.32734z" fill="#ff5050" stroke-width="0"/><path d="M265.00009,283.38893l-1.16017,-119.80821l6.32949,-0.06129l1.16017,119.80822z" fill="#ffffff" stroke-width="0"/><path d="M304.72052,196.97065l24.40353,-30.84993c0,0 2.18147,16.13773 12.84492,24.57294c4.3216,3.41856 20.01814,4.94668 29.34297,9.6082c14.32149,7.15937 22.70334,17.15042 22.70334,17.15042l-24.40352,30.84993c0,0 -5.82372,-12.16798 -16.90092,-18.15437c-10.77121,-5.82104 -26.72679,-5.40368 -32.04401,-9.60982c-10.8446,-8.57851 -15.94632,-23.56736 -15.94632,-23.56736z" fill="#ff0000" stroke-width="0"/><path d="M322.94285,300.74023l74.33258,-93.96819l4.96435,3.927l-74.33258,93.96819z" fill="#ffffff" stroke-width="0"/></g></g></svg>